<svg xmlns="http://www.w3.org/2000/svg" width="468" height="92" viewBox="0 0 468 92">
  <g id="Grupo_38623" data-name="Grupo 38623" transform="translate(-1030 -8034)">
    <g id="Grupo_38061" data-name="Grupo 38061" transform="translate(605 60)">
      <path id="Trazado_86144" data-name="Trazado 86144" d="M5.722,19H4.228V7.478H.158V6.15H9.791V7.478H5.722Zm10.266,0-.29-1.371h-.07a4.053,4.053,0,0,1-1.437,1.226,4.38,4.38,0,0,1-1.789.321,3.217,3.217,0,0,1-2.246-.738,2.693,2.693,0,0,1-.813-2.1q0-2.918,4.667-3.059l1.635-.053v-.6a2.442,2.442,0,0,0-.488-1.674,2.006,2.006,0,0,0-1.56-.541,6.357,6.357,0,0,0-2.725.738l-.448-1.116a6.856,6.856,0,0,1,1.56-.606,6.757,6.757,0,0,1,1.7-.22,3.669,3.669,0,0,1,2.553.765,3.192,3.192,0,0,1,.831,2.452V19Zm-3.3-1.028a2.961,2.961,0,0,0,2.14-.747,2.764,2.764,0,0,0,.778-2.092v-.87l-1.459.062a5.307,5.307,0,0,0-2.509.541,1.63,1.63,0,0,0-.769,1.49,1.5,1.5,0,0,0,.479,1.2A1.988,1.988,0,0,0,12.691,17.972Zm8.824-3.9a17.157,17.157,0,0,1,1.151-1.406l3.111-3.3H27.51l-3.9,4.1L27.782,19H26.016l-3.4-4.553-1.1.949V19H20.074V5.324h1.441v7.251q0,.483-.07,1.494Zm11.118,3.9a4.766,4.766,0,0,0,.747-.057,4.836,4.836,0,0,0,.571-.119v1.116a2.667,2.667,0,0,1-.7.189,5.247,5.247,0,0,1-.831.075q-2.795,0-2.795-2.944V10.5h-1.38V9.8l1.38-.606.615-2.057h.844V9.367h2.795V10.5H31.087V16.17a1.95,1.95,0,0,0,.413,1.336A1.438,1.438,0,0,0,32.634,17.972ZM44.728,19H43.233V7.478H39.164V6.15H48.8V7.478H44.728Zm7.242,0H50.511V9.367H51.97ZM50.388,6.757a.969.969,0,0,1,.246-.734.911.911,0,0,1,1.222,0,.951.951,0,0,1,.255.729.966.966,0,0,1-.255.734.893.893,0,0,1-1.222,0A.987.987,0,0,1,50.388,6.757ZM67.342,19V12.733a2.6,2.6,0,0,0-.492-1.727,1.9,1.9,0,0,0-1.529-.576,2.469,2.469,0,0,0-2.013.782,3.718,3.718,0,0,0-.65,2.408V19H61.2V12.733a2.6,2.6,0,0,0-.492-1.727,1.915,1.915,0,0,0-1.538-.576,2.382,2.382,0,0,0-2.008.822,4.447,4.447,0,0,0-.637,2.694V19H55.063V9.367H56.25l.237,1.318h.07a2.867,2.867,0,0,1,1.165-1.1,3.558,3.558,0,0,1,1.683-.4,2.862,2.862,0,0,1,2.953,1.635h.07a3.072,3.072,0,0,1,1.248-1.2,3.873,3.873,0,0,1,1.863-.439,3.262,3.262,0,0,1,2.448.839,3.755,3.755,0,0,1,.813,2.685V19Zm8.534.176a4.426,4.426,0,0,1-3.371-1.3,5.036,5.036,0,0,1-1.235-3.612,5.585,5.585,0,0,1,1.147-3.7A3.81,3.81,0,0,1,75.5,9.191a3.633,3.633,0,0,1,2.865,1.191,4.564,4.564,0,0,1,1.055,3.142v.923H72.782a3.818,3.818,0,0,0,.857,2.575,2.964,2.964,0,0,0,2.29.879A7.759,7.759,0,0,0,79,17.251v1.3a7.721,7.721,0,0,1-1.463.479A8.224,8.224,0,0,1,75.876,19.176Zm-.4-8.763a2.383,2.383,0,0,0-1.85.756,3.484,3.484,0,0,0-.813,2.092h5.036a3.208,3.208,0,0,0-.615-2.114A2.165,2.165,0,0,0,75.48,10.413Zm10.274,3.656a13.62,13.62,0,0,1,.681-4.359A10.838,10.838,0,0,1,88.4,6.15h1.424a12.391,12.391,0,0,0-1.9,3.727,13.86,13.86,0,0,0-.637,4.175,13.325,13.325,0,0,0,.65,4.122,12.8,12.8,0,0,0,1.872,3.674H88.4a10.358,10.358,0,0,1-1.969-3.489A13.267,13.267,0,0,1,85.755,14.069ZM96.082,19H94.588V7.478H90.519V6.15h9.633V7.478H96.082ZM106.743,6.15,101.953,19h-1.459l4.79-12.85ZM112.649,19h-1.494V7.478h-4.069V6.15h9.633V7.478h-4.069Zm8.842-4.931a13.245,13.245,0,0,1-.681,4.307,10.3,10.3,0,0,1-1.964,3.472h-1.406a12.66,12.66,0,0,0,1.872-3.669,13.366,13.366,0,0,0,.65-4.126,13.86,13.86,0,0,0-.637-4.175,12.391,12.391,0,0,0-1.9-3.727h1.424a10.782,10.782,0,0,1,1.969,3.573A13.684,13.684,0,0,1,121.491,14.069Zm6.442-2.61v-1.2h8.174v1.2Zm0,3.595v-1.2h8.174v1.2Z" transform="translate(487 8008)" fill="#00223d"/>
      <path id="Trazado_86143" data-name="Trazado 86143" d="M16.225,14.069a13.62,13.62,0,0,1,.681-4.359A10.838,10.838,0,0,1,18.87,6.15h1.424a12.391,12.391,0,0,0-1.9,3.727,13.86,13.86,0,0,0-.637,4.175,13.325,13.325,0,0,0,.65,4.122,12.8,12.8,0,0,0,1.872,3.674H18.87A10.358,10.358,0,0,1,16.9,18.358,13.267,13.267,0,0,1,16.225,14.069Zm9.264,3.9a4.766,4.766,0,0,0,.747-.057,4.836,4.836,0,0,0,.571-.119v1.116a2.667,2.667,0,0,1-.7.189,5.247,5.247,0,0,1-.831.075q-2.795,0-2.795-2.944V10.5H21.1V9.8l1.38-.606L23.1,7.135h.844V9.367h2.795V10.5H23.941V16.17a1.95,1.95,0,0,0,.413,1.336A1.438,1.438,0,0,0,25.488,17.972ZM30.19,19H28.731V9.367H30.19ZM28.608,6.757a.969.969,0,0,1,.246-.734.911.911,0,0,1,1.222,0,.951.951,0,0,1,.255.729.966.966,0,0,1-.255.734.893.893,0,0,1-1.222,0A.987.987,0,0,1,28.608,6.757Zm8.745,12.419a4.426,4.426,0,0,1-3.371-1.3,5.036,5.036,0,0,1-1.235-3.612,5.585,5.585,0,0,1,1.147-3.7,3.81,3.81,0,0,1,3.081-1.371,3.633,3.633,0,0,1,2.865,1.191A4.564,4.564,0,0,1,40.9,13.524v.923H34.26a3.818,3.818,0,0,0,.857,2.575,2.964,2.964,0,0,0,2.29.879,7.759,7.759,0,0,0,3.076-.65v1.3a7.721,7.721,0,0,1-1.463.479A8.224,8.224,0,0,1,37.354,19.176Zm-.4-8.763a2.383,2.383,0,0,0-1.85.756,3.484,3.484,0,0,0-.813,2.092h5.036a3.208,3.208,0,0,0-.615-2.114A2.165,2.165,0,0,0,36.958,10.413ZM55.661,19V12.733a2.6,2.6,0,0,0-.492-1.727,1.9,1.9,0,0,0-1.529-.576,2.469,2.469,0,0,0-2.013.782,3.718,3.718,0,0,0-.65,2.408V19H49.518V12.733a2.6,2.6,0,0,0-.492-1.727,1.915,1.915,0,0,0-1.538-.576,2.382,2.382,0,0,0-2.008.822,4.447,4.447,0,0,0-.637,2.694V19H43.383V9.367h1.187l.237,1.318h.07a2.867,2.867,0,0,1,1.165-1.1,3.558,3.558,0,0,1,1.683-.4,2.862,2.862,0,0,1,2.953,1.635h.07A3.072,3.072,0,0,1,52,9.631a3.873,3.873,0,0,1,1.863-.439,3.262,3.262,0,0,1,2.448.839,3.755,3.755,0,0,1,.813,2.685V19Zm8.947.176a4.169,4.169,0,0,1-1.718-.347,3.231,3.231,0,0,1-1.305-1.068h-.105a12.921,12.921,0,0,1,.105,1.6v3.964H60.126V9.367h1.187l.2,1.318h.07a3.388,3.388,0,0,1,1.31-1.143,3.981,3.981,0,0,1,1.714-.352,3.56,3.56,0,0,1,2.958,1.31,5.766,5.766,0,0,1,1.042,3.674,5.732,5.732,0,0,1-1.059,3.687A3.566,3.566,0,0,1,64.608,19.176ZM64.4,10.431a2.585,2.585,0,0,0-2.136.817,4.206,4.206,0,0,0-.677,2.6v.325a4.821,4.821,0,0,0,.677,2.9,2.574,2.574,0,0,0,2.171.875,2.257,2.257,0,0,0,1.956-1.011,4.793,4.793,0,0,0,.708-2.786,4.613,4.613,0,0,0-.708-2.764A2.327,2.327,0,0,0,64.4,10.431Zm15.073,3.744a5.314,5.314,0,0,1-1.187,3.678,4.179,4.179,0,0,1-3.278,1.323,4.342,4.342,0,0,1-2.294-.606,4,4,0,0,1-1.547-1.74,6.065,6.065,0,0,1-.545-2.654A5.306,5.306,0,0,1,71.8,10.505a4.165,4.165,0,0,1,3.27-1.314,4.075,4.075,0,0,1,3.212,1.345A5.291,5.291,0,0,1,79.471,14.175Zm-7.339,0a4.572,4.572,0,0,0,.738,2.813,2.93,2.93,0,0,0,4.346,0,4.549,4.549,0,0,0,.743-2.817,4.476,4.476,0,0,0-.743-2.791,2.609,2.609,0,0,0-2.193-.954,2.568,2.568,0,0,0-2.162.94A4.526,4.526,0,0,0,72.132,14.175Zm21.129,3.533h-.079a3.428,3.428,0,0,1-3.023,1.468,3.577,3.577,0,0,1-2.94-1.292,5.687,5.687,0,0,1-1.05-3.674,5.783,5.783,0,0,1,1.055-3.7,3.549,3.549,0,0,1,2.936-1.318,3.5,3.5,0,0,1,3.006,1.424h.114l-.062-.694-.035-.677V5.324h1.459V19H93.454Zm-2.918.246a2.656,2.656,0,0,0,2.167-.813,4.108,4.108,0,0,0,.672-2.624V14.21a4.834,4.834,0,0,0-.681-2.922,2.587,2.587,0,0,0-2.175-.875,2.233,2.233,0,0,0-1.964,1,4.96,4.96,0,0,0-.681,2.817,4.755,4.755,0,0,0,.677,2.786A2.292,2.292,0,0,0,90.343,17.954ZM99.193,19H97.734V9.367h1.459ZM97.611,6.757a.969.969,0,0,1,.246-.734.911.911,0,0,1,1.222,0,.951.951,0,0,1,.255.729.966.966,0,0,1-.255.734.893.893,0,0,1-1.222,0A.987.987,0,0,1,97.611,6.757Zm10.89,9.615a2.413,2.413,0,0,1-1,2.074,4.71,4.71,0,0,1-2.812.729,6.116,6.116,0,0,1-2.988-.606V17.216a7.227,7.227,0,0,0,1.49.554,6.221,6.221,0,0,0,1.534.2,3.478,3.478,0,0,0,1.758-.365,1.256,1.256,0,0,0,.127-2.074,7.673,7.673,0,0,0-1.9-.945,10.318,10.318,0,0,1-1.912-.875,2.611,2.611,0,0,1-.844-.848,2.212,2.212,0,0,1-.277-1.134,2.161,2.161,0,0,1,.958-1.859,4.464,4.464,0,0,1,2.628-.681,7.689,7.689,0,0,1,3.041.633l-.519,1.187a6.98,6.98,0,0,0-2.628-.6,3.023,3.023,0,0,0-1.564.325,1.006,1.006,0,0,0-.527.9,1.092,1.092,0,0,0,.2.659,1.952,1.952,0,0,0,.637.519,14.24,14.24,0,0,0,1.688.712,6.3,6.3,0,0,1,2.316,1.257A2.216,2.216,0,0,1,108.5,16.372Zm6.855,2.8a4.169,4.169,0,0,1-1.718-.347,3.231,3.231,0,0,1-1.305-1.068h-.105a12.921,12.921,0,0,1,.105,1.6v3.964h-1.459V9.367h1.187l.2,1.318h.07a3.388,3.388,0,0,1,1.31-1.143,3.981,3.981,0,0,1,1.714-.352,3.56,3.56,0,0,1,2.958,1.31,5.766,5.766,0,0,1,1.042,3.674,5.732,5.732,0,0,1-1.059,3.687A3.566,3.566,0,0,1,115.356,19.176Zm-.211-8.745a2.585,2.585,0,0,0-2.136.817,4.206,4.206,0,0,0-.677,2.6v.325a4.821,4.821,0,0,0,.677,2.9,2.574,2.574,0,0,0,2.171.875,2.257,2.257,0,0,0,1.956-1.011,4.793,4.793,0,0,0,.708-2.786,4.613,4.613,0,0,0-.708-2.764A2.327,2.327,0,0,0,115.146,10.431Zm15.073,3.744a5.314,5.314,0,0,1-1.187,3.678,4.179,4.179,0,0,1-3.278,1.323,4.342,4.342,0,0,1-2.294-.606,4,4,0,0,1-1.547-1.74,6.065,6.065,0,0,1-.545-2.654,5.306,5.306,0,0,1,1.178-3.669,4.165,4.165,0,0,1,3.27-1.314,4.075,4.075,0,0,1,3.212,1.345A5.291,5.291,0,0,1,130.219,14.175Zm-7.339,0a4.572,4.572,0,0,0,.738,2.813,2.93,2.93,0,0,0,4.346,0,4.549,4.549,0,0,0,.743-2.817,4.476,4.476,0,0,0-.743-2.791,2.609,2.609,0,0,0-2.193-.954,2.568,2.568,0,0,0-2.162.94A4.526,4.526,0,0,0,122.88,14.175Zm14.379-4.966a3.581,3.581,0,0,1,2.949,1.3,5.69,5.69,0,0,1,1.05,3.669,5.732,5.732,0,0,1-1.059,3.687,3.566,3.566,0,0,1-2.94,1.314,4.169,4.169,0,0,1-1.718-.347,3.231,3.231,0,0,1-1.305-1.068h-.105L133.822,19h-1.046V5.324h1.459V8.646q0,1.116-.07,2h.07A3.463,3.463,0,0,1,137.259,9.209Zm-.211,1.222a2.547,2.547,0,0,0-2.153.857,4.834,4.834,0,0,0-.659,2.887,4.821,4.821,0,0,0,.677,2.9,2.574,2.574,0,0,0,2.171.875,2.25,2.25,0,0,0,2-.98,5.037,5.037,0,0,0,.659-2.817,4.84,4.84,0,0,0-.659-2.8A2.336,2.336,0,0,0,137.048,10.431ZM145.266,19h-1.459V9.367h1.459ZM143.684,6.757a.969.969,0,0,1,.246-.734.911.911,0,0,1,1.222,0,.951.951,0,0,1,.255.729.966.966,0,0,1-.255.734.893.893,0,0,1-1.222,0A.987.987,0,0,1,143.684,6.757Zm9.158,2.452a3.581,3.581,0,0,1,2.949,1.3,5.69,5.69,0,0,1,1.05,3.669,5.732,5.732,0,0,1-1.059,3.687,3.566,3.566,0,0,1-2.94,1.314,4.169,4.169,0,0,1-1.718-.347,3.231,3.231,0,0,1-1.305-1.068h-.105L149.405,19h-1.046V5.324h1.459V8.646q0,1.116-.07,2h.07A3.463,3.463,0,0,1,152.842,9.209Zm-.211,1.222a2.547,2.547,0,0,0-2.153.857,4.834,4.834,0,0,0-.659,2.887,4.821,4.821,0,0,0,.677,2.9,2.574,2.574,0,0,0,2.171.875,2.25,2.25,0,0,0,2-.98,5.037,5.037,0,0,0,.659-2.817,4.84,4.84,0,0,0-.659-2.8A2.336,2.336,0,0,0,152.631,10.431ZM160.849,19H159.39V5.324h1.459Zm7.163.176a4.426,4.426,0,0,1-3.371-1.3,5.036,5.036,0,0,1-1.235-3.612,5.585,5.585,0,0,1,1.147-3.7,3.81,3.81,0,0,1,3.081-1.371,3.633,3.633,0,0,1,2.865,1.191,4.564,4.564,0,0,1,1.055,3.142v.923h-6.636a3.818,3.818,0,0,0,.857,2.575,2.964,2.964,0,0,0,2.29.879,7.759,7.759,0,0,0,3.076-.65v1.3a7.721,7.721,0,0,1-1.463.479A8.224,8.224,0,0,1,168.012,19.176Zm-.4-8.763a2.383,2.383,0,0,0-1.85.756,3.484,3.484,0,0,0-.813,2.092h5.036a3.208,3.208,0,0,0-.615-2.114A2.165,2.165,0,0,0,167.616,10.413Zm14.159,3.656a13.245,13.245,0,0,1-.681,4.307,10.3,10.3,0,0,1-1.964,3.472h-1.406a12.66,12.66,0,0,0,1.872-3.669,13.366,13.366,0,0,0,.65-4.126,13.86,13.86,0,0,0-.637-4.175,12.391,12.391,0,0,0-1.9-3.727h1.424A10.782,10.782,0,0,1,181.1,9.723,13.684,13.684,0,0,1,181.775,14.069Zm-174.858,24A13.62,13.62,0,0,1,7.6,33.71a10.838,10.838,0,0,1,1.964-3.56h1.424a12.391,12.391,0,0,0-1.9,3.727,13.86,13.86,0,0,0-.637,4.175,13.325,13.325,0,0,0,.65,4.122,12.8,12.8,0,0,0,1.872,3.674H9.563a10.358,10.358,0,0,1-1.969-3.489A13.267,13.267,0,0,1,6.917,38.069Zm12.709,3.639h-.079a3.428,3.428,0,0,1-3.023,1.468,3.577,3.577,0,0,1-2.94-1.292,5.687,5.687,0,0,1-1.05-3.674,5.783,5.783,0,0,1,1.055-3.7,3.549,3.549,0,0,1,2.936-1.318,3.5,3.5,0,0,1,3.006,1.424h.114l-.062-.694-.035-.677v-3.92h1.459V43H19.819Zm-2.918.246a2.656,2.656,0,0,0,2.167-.813,4.108,4.108,0,0,0,.672-2.624V38.21a4.834,4.834,0,0,0-.681-2.922,2.587,2.587,0,0,0-2.175-.875,2.233,2.233,0,0,0-1.964,1,4.96,4.96,0,0,0-.681,2.817,4.755,4.755,0,0,0,.677,2.786A2.292,2.292,0,0,0,16.708,41.954Zm11.461,1.222a4.426,4.426,0,0,1-3.371-1.3,5.036,5.036,0,0,1-1.235-3.612,5.585,5.585,0,0,1,1.147-3.7,3.81,3.81,0,0,1,3.081-1.371,3.633,3.633,0,0,1,2.865,1.191,4.564,4.564,0,0,1,1.055,3.142v.923H25.075a3.818,3.818,0,0,0,.857,2.575,2.964,2.964,0,0,0,2.29.879,7.759,7.759,0,0,0,3.076-.65v1.3a7.721,7.721,0,0,1-1.463.479A8.224,8.224,0,0,1,28.169,43.176Zm-.4-8.763a2.383,2.383,0,0,0-1.85.756,3.484,3.484,0,0,0-.813,2.092h5.036a3.208,3.208,0,0,0-.615-2.114A2.165,2.165,0,0,0,27.773,34.413ZM46.477,43V36.733a2.6,2.6,0,0,0-.492-1.727,1.9,1.9,0,0,0-1.529-.576,2.469,2.469,0,0,0-2.013.782,3.718,3.718,0,0,0-.65,2.408V43H40.333V36.733a2.6,2.6,0,0,0-.492-1.727,1.915,1.915,0,0,0-1.538-.576,2.382,2.382,0,0,0-2.008.822,4.447,4.447,0,0,0-.637,2.694V43H34.2V33.367h1.187l.237,1.318h.07a2.867,2.867,0,0,1,1.165-1.1,3.558,3.558,0,0,1,1.683-.4,2.862,2.862,0,0,1,2.953,1.635h.07a3.072,3.072,0,0,1,1.248-1.2,3.873,3.873,0,0,1,1.863-.439,3.262,3.262,0,0,1,2.448.839,3.755,3.755,0,0,1,.813,2.685V43Zm10.389,0-.29-1.371H56.5a4.053,4.053,0,0,1-1.437,1.226,4.38,4.38,0,0,1-1.789.321,3.217,3.217,0,0,1-2.246-.738,2.693,2.693,0,0,1-.813-2.1q0-2.918,4.667-3.059l1.635-.053v-.6a2.442,2.442,0,0,0-.488-1.674,2.006,2.006,0,0,0-1.56-.541,6.357,6.357,0,0,0-2.725.738L51.3,34.035a6.856,6.856,0,0,1,1.56-.606,6.757,6.757,0,0,1,1.7-.22,3.669,3.669,0,0,1,2.553.765,3.192,3.192,0,0,1,.831,2.452V43Zm-3.3-1.028a2.961,2.961,0,0,0,2.14-.747,2.764,2.764,0,0,0,.778-2.092v-.87l-1.459.062a5.307,5.307,0,0,0-2.509.541,1.63,1.63,0,0,0-.769,1.49,1.5,1.5,0,0,0,.479,1.2A1.988,1.988,0,0,0,53.569,41.972ZM67.544,43V36.769a2.514,2.514,0,0,0-.536-1.758,2.184,2.184,0,0,0-1.679-.58,2.769,2.769,0,0,0-2.215.817,4.127,4.127,0,0,0-.7,2.7V43H60.952V33.367h1.187l.237,1.318h.07a2.979,2.979,0,0,1,1.257-1.1,4.084,4.084,0,0,1,1.8-.391,3.659,3.659,0,0,1,2.619.839A3.572,3.572,0,0,1,69,36.716V43Zm11.013-1.292h-.079a3.428,3.428,0,0,1-3.023,1.468,3.577,3.577,0,0,1-2.94-1.292,5.687,5.687,0,0,1-1.05-3.674,5.783,5.783,0,0,1,1.055-3.7,3.549,3.549,0,0,1,2.936-1.318,3.5,3.5,0,0,1,3.006,1.424h.114l-.062-.694-.035-.677v-3.92h1.459V43H78.75Zm-2.918.246a2.656,2.656,0,0,0,2.167-.813,4.108,4.108,0,0,0,.672-2.624V38.21a4.834,4.834,0,0,0-.681-2.922,2.587,2.587,0,0,0-2.175-.875,2.233,2.233,0,0,0-1.964,1,4.96,4.96,0,0,0-.681,2.817,4.755,4.755,0,0,0,.677,2.786A2.292,2.292,0,0,0,75.639,41.954ZM88.954,43l-.29-1.371h-.07a4.053,4.053,0,0,1-1.437,1.226,4.38,4.38,0,0,1-1.789.321,3.217,3.217,0,0,1-2.246-.738,2.693,2.693,0,0,1-.813-2.1q0-2.918,4.667-3.059l1.635-.053v-.6a2.442,2.442,0,0,0-.488-1.674,2.006,2.006,0,0,0-1.56-.541,6.357,6.357,0,0,0-2.725.738l-.448-1.116a6.856,6.856,0,0,1,1.56-.606,6.757,6.757,0,0,1,1.7-.22,3.669,3.669,0,0,1,2.553.765,3.192,3.192,0,0,1,.831,2.452V43Zm-3.3-1.028a2.961,2.961,0,0,0,2.14-.747,2.764,2.764,0,0,0,.778-2.092v-.87l-1.459.062a5.307,5.307,0,0,0-2.509.541,1.63,1.63,0,0,0-.769,1.49,1.5,1.5,0,0,0,.479,1.2A1.988,1.988,0,0,0,85.658,41.972Zm18.615-.264h-.079a3.428,3.428,0,0,1-3.023,1.468,3.577,3.577,0,0,1-2.94-1.292,5.687,5.687,0,0,1-1.05-3.674,5.783,5.783,0,0,1,1.055-3.7,3.549,3.549,0,0,1,2.936-1.318,3.5,3.5,0,0,1,3.006,1.424h.114l-.062-.694-.035-.677v-3.92h1.459V43h-1.187Zm-2.918.246a2.656,2.656,0,0,0,2.167-.813,4.108,4.108,0,0,0,.672-2.624V38.21a4.834,4.834,0,0,0-.681-2.922,2.587,2.587,0,0,0-2.175-.875,2.233,2.233,0,0,0-1.964,1,4.96,4.96,0,0,0-.681,2.817,4.755,4.755,0,0,0,.677,2.786A2.292,2.292,0,0,0,101.355,41.954Zm11.461,1.222a4.426,4.426,0,0,1-3.371-1.3,5.036,5.036,0,0,1-1.235-3.612,5.585,5.585,0,0,1,1.147-3.7,3.81,3.81,0,0,1,3.081-1.371,3.633,3.633,0,0,1,2.865,1.191,4.564,4.564,0,0,1,1.055,3.142v.923h-6.636a3.818,3.818,0,0,0,.857,2.575,2.964,2.964,0,0,0,2.29.879,7.759,7.759,0,0,0,3.076-.65v1.3a7.721,7.721,0,0,1-1.463.479A8.224,8.224,0,0,1,112.816,43.176Zm-.4-8.763a2.383,2.383,0,0,0-1.85.756,3.484,3.484,0,0,0-.813,2.092h5.036a3.208,3.208,0,0,0-.615-2.114A2.165,2.165,0,0,0,112.421,34.413ZM120.3,43h-1.459V29.324H120.3Zm11.619.176a4.111,4.111,0,0,1-3.239-1.288,5.3,5.3,0,0,1-1.147-3.643A5.46,5.46,0,0,1,128.7,34.51a4.193,4.193,0,0,1,3.318-1.318,6.584,6.584,0,0,1,1.389.149,4.575,4.575,0,0,1,1.09.352l-.448,1.239A6.86,6.86,0,0,0,133,34.611a4.709,4.709,0,0,0-1.011-.127q-2.936,0-2.936,3.744a4.458,4.458,0,0,0,.716,2.725,2.492,2.492,0,0,0,2.123.949,6.49,6.49,0,0,0,2.47-.519v1.292A5.264,5.264,0,0,1,131.924,43.176ZM138.1,43h-1.459V29.324H138.1Zm4.553,0H141.2V33.367h1.459Zm-1.582-12.243a.969.969,0,0,1,.246-.734.911.911,0,0,1,1.222,0,.951.951,0,0,1,.255.729.966.966,0,0,1-.255.734.893.893,0,0,1-1.222,0A.987.987,0,0,1,141.073,30.757Zm8.745,12.419a4.426,4.426,0,0,1-3.371-1.3,5.036,5.036,0,0,1-1.235-3.612,5.585,5.585,0,0,1,1.147-3.7,3.81,3.81,0,0,1,3.081-1.371,3.633,3.633,0,0,1,2.865,1.191,4.564,4.564,0,0,1,1.055,3.142v.923h-6.636a3.818,3.818,0,0,0,.857,2.575,2.964,2.964,0,0,0,2.29.879,7.759,7.759,0,0,0,3.076-.65v1.3a7.721,7.721,0,0,1-1.463.479A8.224,8.224,0,0,1,149.818,43.176Zm-.4-8.763a2.383,2.383,0,0,0-1.85.756,3.484,3.484,0,0,0-.813,2.092H151.8a3.208,3.208,0,0,0-.615-2.114A2.165,2.165,0,0,0,149.423,34.413ZM162.439,43V36.769a2.514,2.514,0,0,0-.536-1.758,2.184,2.184,0,0,0-1.679-.58,2.769,2.769,0,0,0-2.215.817,4.127,4.127,0,0,0-.7,2.7V43h-1.459V33.367h1.187l.237,1.318h.07a2.979,2.979,0,0,1,1.257-1.1,4.084,4.084,0,0,1,1.8-.391,3.659,3.659,0,0,1,2.619.839,3.572,3.572,0,0,1,.879,2.685V43Zm7.567-1.028a4.766,4.766,0,0,0,.747-.057,4.836,4.836,0,0,0,.571-.119v1.116a2.667,2.667,0,0,1-.7.189,5.247,5.247,0,0,1-.831.075q-2.795,0-2.795-2.944V34.5h-1.38v-.7l1.38-.606.615-2.057h.844v2.232h2.795V34.5H168.46V40.17a1.95,1.95,0,0,0,.413,1.336A1.438,1.438,0,0,0,170.007,41.972Zm7.313,1.2a4.426,4.426,0,0,1-3.371-1.3,5.036,5.036,0,0,1-1.235-3.612,5.585,5.585,0,0,1,1.147-3.7,3.81,3.81,0,0,1,3.081-1.371,3.633,3.633,0,0,1,2.865,1.191,4.564,4.564,0,0,1,1.055,3.142v.923h-6.636a3.818,3.818,0,0,0,.857,2.575,2.964,2.964,0,0,0,2.29.879,7.759,7.759,0,0,0,3.076-.65v1.3a7.721,7.721,0,0,1-1.463.479A8.224,8.224,0,0,1,177.319,43.176Zm-.4-8.763a2.383,2.383,0,0,0-1.85.756,3.484,3.484,0,0,0-.813,2.092H179.3a3.208,3.208,0,0,0-.615-2.114A2.165,2.165,0,0,0,176.924,34.413Zm14.159,3.656a13.245,13.245,0,0,1-.681,4.307,10.3,10.3,0,0,1-1.964,3.472h-1.406a12.66,12.66,0,0,0,1.872-3.669,13.366,13.366,0,0,0,.65-4.126,13.86,13.86,0,0,0-.637-4.175,12.391,12.391,0,0,0-1.9-3.727h1.424a10.782,10.782,0,0,1,1.969,3.573A13.684,13.684,0,0,1,191.083,38.069Z" transform="translate(632 7995)" fill="#00223d"/>
      <line id="Línea_110" data-name="Línea 110" x2="198" transform="translate(632.5 8020.5)" fill="none" stroke="#00223d" stroke-width="1"/>
    </g>
    <g id="Rectángulo_31795" data-name="Rectángulo 31795" transform="translate(1030 8034)" fill="none" stroke="#d268cc" stroke-width="1">
      <rect width="468" height="92" stroke="none"/>
      <rect x="0.5" y="0.5" width="467" height="91" fill="none"/>
    </g>
  </g>
</svg>
