<svg xmlns="http://www.w3.org/2000/svg" width="468" height="211" viewBox="0 0 468 211">
  <g id="Grupo_38624" data-name="Grupo 38624" transform="translate(-726 -8548)">
    <path id="Trazado_86147" data-name="Trazado 86147" d="M5.722,19H4.228V7.478H.158V6.15H9.791V7.478H5.722Zm10.266,0-.29-1.371h-.07a4.053,4.053,0,0,1-1.437,1.226,4.38,4.38,0,0,1-1.789.321,3.217,3.217,0,0,1-2.246-.738,2.693,2.693,0,0,1-.813-2.1q0-2.918,4.667-3.059l1.635-.053v-.6a2.442,2.442,0,0,0-.488-1.674,2.006,2.006,0,0,0-1.56-.541,6.357,6.357,0,0,0-2.725.738l-.448-1.116a6.856,6.856,0,0,1,1.56-.606,6.757,6.757,0,0,1,1.7-.22,3.669,3.669,0,0,1,2.553.765,3.192,3.192,0,0,1,.831,2.452V19Zm-3.3-1.028a2.961,2.961,0,0,0,2.14-.747,2.764,2.764,0,0,0,.778-2.092v-.87l-1.459.062a5.307,5.307,0,0,0-2.509.541,1.63,1.63,0,0,0-.769,1.49,1.5,1.5,0,0,0,.479,1.2A1.988,1.988,0,0,0,12.691,17.972Zm8.824-3.9a17.157,17.157,0,0,1,1.151-1.406l3.111-3.3H27.51l-3.9,4.1L27.782,19H26.016l-3.4-4.553-1.1.949V19H20.074V5.324h1.441v7.251q0,.483-.07,1.494Zm11.118,3.9a4.766,4.766,0,0,0,.747-.057,4.836,4.836,0,0,0,.571-.119v1.116a2.667,2.667,0,0,1-.7.189,5.247,5.247,0,0,1-.831.075q-2.795,0-2.795-2.944V10.5h-1.38V9.8l1.38-.606.615-2.057h.844V9.367h2.795V10.5H31.087V16.17a1.95,1.95,0,0,0,.413,1.336A1.438,1.438,0,0,0,32.634,17.972ZM44.728,19H43.233V7.478H39.164V6.15H48.8V7.478H44.728Zm7.242,0H50.511V9.367H51.97ZM50.388,6.757a.969.969,0,0,1,.246-.734.911.911,0,0,1,1.222,0,.951.951,0,0,1,.255.729.966.966,0,0,1-.255.734.893.893,0,0,1-1.222,0A.987.987,0,0,1,50.388,6.757ZM67.342,19V12.733a2.6,2.6,0,0,0-.492-1.727,1.9,1.9,0,0,0-1.529-.576,2.469,2.469,0,0,0-2.013.782,3.718,3.718,0,0,0-.65,2.408V19H61.2V12.733a2.6,2.6,0,0,0-.492-1.727,1.915,1.915,0,0,0-1.538-.576,2.382,2.382,0,0,0-2.008.822,4.447,4.447,0,0,0-.637,2.694V19H55.063V9.367H56.25l.237,1.318h.07a2.867,2.867,0,0,1,1.165-1.1,3.558,3.558,0,0,1,1.683-.4,2.862,2.862,0,0,1,2.953,1.635h.07a3.072,3.072,0,0,1,1.248-1.2,3.873,3.873,0,0,1,1.863-.439,3.262,3.262,0,0,1,2.448.839,3.755,3.755,0,0,1,.813,2.685V19Zm8.534.176a4.426,4.426,0,0,1-3.371-1.3,5.036,5.036,0,0,1-1.235-3.612,5.585,5.585,0,0,1,1.147-3.7A3.81,3.81,0,0,1,75.5,9.191a3.633,3.633,0,0,1,2.865,1.191,4.564,4.564,0,0,1,1.055,3.142v.923H72.782a3.818,3.818,0,0,0,.857,2.575,2.964,2.964,0,0,0,2.29.879A7.759,7.759,0,0,0,79,17.251v1.3a7.721,7.721,0,0,1-1.463.479A8.224,8.224,0,0,1,75.876,19.176Zm-.4-8.763a2.383,2.383,0,0,0-1.85.756,3.484,3.484,0,0,0-.813,2.092h5.036a3.208,3.208,0,0,0-.615-2.114A2.165,2.165,0,0,0,75.48,10.413Zm10.274,3.656a13.62,13.62,0,0,1,.681-4.359A10.838,10.838,0,0,1,88.4,6.15h1.424a12.391,12.391,0,0,0-1.9,3.727,13.86,13.86,0,0,0-.637,4.175,13.325,13.325,0,0,0,.65,4.122,12.8,12.8,0,0,0,1.872,3.674H88.4a10.358,10.358,0,0,1-1.969-3.489A13.267,13.267,0,0,1,85.755,14.069ZM96.082,19H94.588V7.478H90.519V6.15h9.633V7.478H96.082ZM106.743,6.15,101.953,19h-1.459l4.79-12.85ZM112.649,19h-1.494V7.478h-4.069V6.15h9.633V7.478h-4.069Zm8.842-4.931a13.245,13.245,0,0,1-.681,4.307,10.3,10.3,0,0,1-1.964,3.472h-1.406a12.66,12.66,0,0,0,1.872-3.669,13.366,13.366,0,0,0,.65-4.126,13.86,13.86,0,0,0-.637-4.175,12.391,12.391,0,0,0-1.9-3.727h1.424a10.782,10.782,0,0,1,1.969,3.573A13.684,13.684,0,0,1,121.491,14.069Zm6.442-2.61v-1.2h8.174v1.2Zm0,3.595v-1.2h8.174v1.2Z" transform="translate(833 8582)" fill="#00223d"/>
    <path id="Trazado_86148" data-name="Trazado 86148" d="M35.2,16.047H33.288V19h-1.4V16.047H25.642V14.772l6.1-8.692h1.547v8.64H35.2Zm-3.3-1.327V10.448q0-1.257.088-2.839h-.07a13.207,13.207,0,0,1-.791,1.4L27.1,14.72ZM44.4,9.174a2.93,2.93,0,0,1-.69,2.013,3.454,3.454,0,0,1-1.956,1.046v.07a3.678,3.678,0,0,1,2.294.984,2.9,2.9,0,0,1,.747,2.074,3.365,3.365,0,0,1-1.274,2.826,5.8,5.8,0,0,1-3.621.989,10.5,10.5,0,0,1-1.868-.154,6.392,6.392,0,0,1-1.648-.541V17.093a8.416,8.416,0,0,0,3.568.844q3.331,0,3.331-2.61,0-2.338-3.674-2.338H38.342V11.731h1.283a3.864,3.864,0,0,0,2.382-.664,2.177,2.177,0,0,0,.879-1.841A1.815,1.815,0,0,0,42.24,7.75a2.662,2.662,0,0,0-1.753-.536,5.41,5.41,0,0,0-1.591.229,7.119,7.119,0,0,0-1.705.844L36.452,7.3a6.155,6.155,0,0,1,1.824-.98,6.628,6.628,0,0,1,2.175-.356,4.445,4.445,0,0,1,2.909.857A2.886,2.886,0,0,1,44.4,9.174ZM55.173,19H46.727V17.743l3.384-3.4a24.918,24.918,0,0,0,2.039-2.232,5.7,5.7,0,0,0,.738-1.3,3.726,3.726,0,0,0,.246-1.362,2.16,2.16,0,0,0-.624-1.63,2.39,2.39,0,0,0-1.731-.6,4.354,4.354,0,0,0-1.516.264,6.043,6.043,0,0,0-1.6.958l-.773-.993a5.924,5.924,0,0,1,3.867-1.477,4.086,4.086,0,0,1,2.839.927,3.189,3.189,0,0,1,1.028,2.492,4.812,4.812,0,0,1-.686,2.417,15.345,15.345,0,0,1-2.566,3.023l-2.812,2.751v.07h6.609Zm10.362-6.442a9.384,9.384,0,0,1-1.05,4.975,3.879,3.879,0,0,1-6.368-.04,9.2,9.2,0,0,1-1.081-4.935,9.381,9.381,0,0,1,1.046-4.983,3.882,3.882,0,0,1,6.368.07A9.158,9.158,0,0,1,65.535,12.558Zm-7.022,0a9.411,9.411,0,0,0,.659,4.083,2.368,2.368,0,0,0,4.214-.018,9.483,9.483,0,0,0,.655-4.065A9.42,9.42,0,0,0,63.386,8.5a2.376,2.376,0,0,0-4.214-.018A9.348,9.348,0,0,0,58.513,12.558Zm17.314,0a9.384,9.384,0,0,1-1.05,4.975,3.879,3.879,0,0,1-6.368-.04,9.2,9.2,0,0,1-1.081-4.935,9.381,9.381,0,0,1,1.046-4.983,3.882,3.882,0,0,1,6.368.07A9.158,9.158,0,0,1,75.827,12.558Zm-7.022,0a9.411,9.411,0,0,0,.659,4.083,2.368,2.368,0,0,0,4.214-.018,9.483,9.483,0,0,0,.655-4.065A9.42,9.42,0,0,0,73.678,8.5a2.376,2.376,0,0,0-4.214-.018A9.348,9.348,0,0,0,68.8,12.558ZM89.16,16.372a2.413,2.413,0,0,1-1,2.074,4.71,4.71,0,0,1-2.812.729,6.116,6.116,0,0,1-2.988-.606V17.216a7.227,7.227,0,0,0,1.49.554,6.221,6.221,0,0,0,1.534.2,3.478,3.478,0,0,0,1.758-.365,1.256,1.256,0,0,0,.127-2.074,7.673,7.673,0,0,0-1.9-.945,10.318,10.318,0,0,1-1.912-.875,2.611,2.611,0,0,1-.844-.848,2.212,2.212,0,0,1-.277-1.134,2.161,2.161,0,0,1,.958-1.859,4.464,4.464,0,0,1,2.628-.681,7.689,7.689,0,0,1,3.041.633l-.519,1.187a6.98,6.98,0,0,0-2.628-.6,3.023,3.023,0,0,0-1.564.325,1.006,1.006,0,0,0-.527.9,1.092,1.092,0,0,0,.2.659,1.952,1.952,0,0,0,.637.519,14.24,14.24,0,0,0,1.688.712,6.3,6.3,0,0,1,2.316,1.257A2.216,2.216,0,0,1,89.16,16.372Zm6.442,2.8a4.426,4.426,0,0,1-3.371-1.3A5.036,5.036,0,0,1,91,14.263a5.585,5.585,0,0,1,1.147-3.7,3.81,3.81,0,0,1,3.081-1.371,3.633,3.633,0,0,1,2.865,1.191,4.564,4.564,0,0,1,1.055,3.142v.923H92.509a3.818,3.818,0,0,0,.857,2.575,2.964,2.964,0,0,0,2.29.879,7.759,7.759,0,0,0,3.076-.65v1.3a7.721,7.721,0,0,1-1.463.479A8.224,8.224,0,0,1,95.6,19.176Zm-.4-8.763a2.383,2.383,0,0,0-1.85.756,3.484,3.484,0,0,0-.813,2.092H97.58a3.208,3.208,0,0,0-.615-2.114A2.165,2.165,0,0,0,95.207,10.413Zm14.309-1.046v.923l-1.784.211a3.133,3.133,0,0,1,.633,1.925,2.848,2.848,0,0,1-.967,2.259,3.9,3.9,0,0,1-2.654.844,4.42,4.42,0,0,1-.809-.07A1.436,1.436,0,0,0,103,16.7a.63.63,0,0,0,.325.584,2.376,2.376,0,0,0,1.116.189h1.705a3.818,3.818,0,0,1,2.4.659,2.29,2.29,0,0,1,.839,1.916,2.735,2.735,0,0,1-1.283,2.439,6.868,6.868,0,0,1-3.744.839,5.115,5.115,0,0,1-2.914-.7,2.27,2.27,0,0,1-1.024-1.986,2.231,2.231,0,0,1,.563-1.521,2.864,2.864,0,0,1,1.582-.87,1.526,1.526,0,0,1-.62-.519,1.372,1.372,0,0,1-.25-.817,1.551,1.551,0,0,1,.281-.923,2.957,2.957,0,0,1,.888-.765,2.6,2.6,0,0,1-1.217-1.046,3.073,3.073,0,0,1-.47-1.687,3.117,3.117,0,0,1,.949-2.439,3.875,3.875,0,0,1,2.689-.857,4.891,4.891,0,0,1,1.362.176Zm-7.682,11.25a1.307,1.307,0,0,0,.659,1.187,3.638,3.638,0,0,0,1.89.4,5.273,5.273,0,0,0,2.72-.549,1.682,1.682,0,0,0,.883-1.49,1.179,1.179,0,0,0-.483-1.085,3.754,3.754,0,0,0-1.819-.3h-1.749a2.3,2.3,0,0,0-1.547.475A1.7,1.7,0,0,0,101.834,20.617Zm.791-8.165a1.961,1.961,0,0,0,.571,1.529,2.281,2.281,0,0,0,1.591.519,1.861,1.861,0,0,0,2.136-2.074,1.915,1.915,0,0,0-2.162-2.171,2.141,2.141,0,0,0-1.582.554A2.23,2.23,0,0,0,102.625,12.452Zm8.657,5.616a1.309,1.309,0,0,1,.268-.892.972.972,0,0,1,.769-.3,1.04,1.04,0,0,1,.8.3,1.255,1.255,0,0,1,.286.892,1.233,1.233,0,0,1-.29.879,1.153,1.153,0,0,1-1.534.031A1.2,1.2,0,0,1,111.282,18.068ZM34.4,43H32.98V33.842q0-1.143.07-2.162-.185.185-.413.387T30.546,33.78l-.773-1,3.4-2.628H34.4Zm13.4-6.442a9.384,9.384,0,0,1-1.05,4.975,3.879,3.879,0,0,1-6.368-.04,9.2,9.2,0,0,1-1.081-4.935,9.381,9.381,0,0,1,1.046-4.983,3.882,3.882,0,0,1,6.368.07A9.158,9.158,0,0,1,47.808,36.558Zm-7.022,0a9.411,9.411,0,0,0,.659,4.083,2.368,2.368,0,0,0,4.214-.018,9.483,9.483,0,0,0,.655-4.065,9.42,9.42,0,0,0-.655-4.056,2.376,2.376,0,0,0-4.214-.018A9.348,9.348,0,0,0,40.785,36.558Zm17.314,0a9.384,9.384,0,0,1-1.05,4.975,3.879,3.879,0,0,1-6.368-.04A9.2,9.2,0,0,1,49.6,36.558a9.381,9.381,0,0,1,1.046-4.983,3.882,3.882,0,0,1,6.368.07A9.158,9.158,0,0,1,58.1,36.558Zm-7.022,0a9.411,9.411,0,0,0,.659,4.083,2.368,2.368,0,0,0,4.214-.018,9.483,9.483,0,0,0,.655-4.065,9.42,9.42,0,0,0-.655-4.056,2.376,2.376,0,0,0-4.214-.018A9.348,9.348,0,0,0,51.077,36.558Zm17.314,0a9.384,9.384,0,0,1-1.05,4.975,3.879,3.879,0,0,1-6.368-.04,9.2,9.2,0,0,1-1.081-4.935,9.381,9.381,0,0,1,1.046-4.983,3.882,3.882,0,0,1,6.368.07A9.158,9.158,0,0,1,68.392,36.558Zm-7.022,0a9.411,9.411,0,0,0,.659,4.083,2.368,2.368,0,0,0,4.214-.018,9.483,9.483,0,0,0,.655-4.065,9.42,9.42,0,0,0-.655-4.056,2.376,2.376,0,0,0-4.214-.018A9.348,9.348,0,0,0,61.369,36.558Zm15.513-3.19v6.249a2.514,2.514,0,0,0,.536,1.758,2.184,2.184,0,0,0,1.679.58,2.739,2.739,0,0,0,2.21-.826,4.168,4.168,0,0,0,.7-2.7V33.367h1.459V43h-1.2l-.211-1.292h-.079a2.908,2.908,0,0,1-1.244,1.09,4.18,4.18,0,0,1-1.815.378,3.682,3.682,0,0,1-2.632-.835,3.554,3.554,0,0,1-.875-2.672v-6.3ZM93.15,43V36.769a2.514,2.514,0,0,0-.536-1.758,2.184,2.184,0,0,0-1.679-.58,2.769,2.769,0,0,0-2.215.817,4.127,4.127,0,0,0-.7,2.7V43H86.559V33.367h1.187l.237,1.318h.07a2.979,2.979,0,0,1,1.257-1.1,4.084,4.084,0,0,1,1.8-.391,3.659,3.659,0,0,1,2.619.839,3.572,3.572,0,0,1,.879,2.685V43Zm11.013-1.292h-.079a3.428,3.428,0,0,1-3.023,1.468,3.577,3.577,0,0,1-2.94-1.292,5.687,5.687,0,0,1-1.05-3.674,5.783,5.783,0,0,1,1.055-3.7,3.549,3.549,0,0,1,2.936-1.318,3.5,3.5,0,0,1,3.006,1.424h.114l-.062-.694-.035-.677v-3.92h1.459V43h-1.187Zm-2.918.246a2.656,2.656,0,0,0,2.167-.813,4.108,4.108,0,0,0,.672-2.624V38.21a4.834,4.834,0,0,0-.681-2.922,2.587,2.587,0,0,0-2.175-.875,2.233,2.233,0,0,0-1.964,1,4.96,4.96,0,0,0-.681,2.817,4.755,4.755,0,0,0,.677,2.786A2.292,2.292,0,0,0,101.245,41.954Zm7.181.114a1.309,1.309,0,0,1,.268-.892.972.972,0,0,1,.769-.3,1.04,1.04,0,0,1,.8.3,1.255,1.255,0,0,1,.286.892,1.233,1.233,0,0,1-.29.879,1.153,1.153,0,0,1-1.534.031A1.2,1.2,0,0,1,108.426,42.068Z" transform="translate(978 8569)" fill="#00223d"/>
    <path id="Trazado_86149" data-name="Trazado 86149" d="M0,0H131" transform="translate(978.5 8594.5)" fill="none" stroke="#00223d" stroke-width="1"/>
    <path id="Trazado_86150" data-name="Trazado 86150" d="M5.722,19H4.228V7.478H.158V6.15H9.791V7.478H5.722Zm10.266,0-.29-1.371h-.07a4.053,4.053,0,0,1-1.437,1.226,4.38,4.38,0,0,1-1.789.321,3.217,3.217,0,0,1-2.246-.738,2.693,2.693,0,0,1-.813-2.1q0-2.918,4.667-3.059l1.635-.053v-.6a2.442,2.442,0,0,0-.488-1.674,2.006,2.006,0,0,0-1.56-.541,6.357,6.357,0,0,0-2.725.738l-.448-1.116a6.856,6.856,0,0,1,1.56-.606,6.757,6.757,0,0,1,1.7-.22,3.669,3.669,0,0,1,2.553.765,3.192,3.192,0,0,1,.831,2.452V19Zm-3.3-1.028a2.961,2.961,0,0,0,2.14-.747,2.764,2.764,0,0,0,.778-2.092v-.87l-1.459.062a5.307,5.307,0,0,0-2.509.541,1.63,1.63,0,0,0-.769,1.49,1.5,1.5,0,0,0,.479,1.2A1.988,1.988,0,0,0,12.691,17.972Zm8.824-3.9a17.157,17.157,0,0,1,1.151-1.406l3.111-3.3H27.51l-3.9,4.1L27.782,19H26.016l-3.4-4.553-1.1.949V19H20.074V5.324h1.441v7.251q0,.483-.07,1.494Zm11.118,3.9a4.766,4.766,0,0,0,.747-.057,4.836,4.836,0,0,0,.571-.119v1.116a2.667,2.667,0,0,1-.7.189,5.247,5.247,0,0,1-.831.075q-2.795,0-2.795-2.944V10.5h-1.38V9.8l1.38-.606.615-2.057h.844V9.367h2.795V10.5H31.087V16.17a1.95,1.95,0,0,0,.413,1.336A1.438,1.438,0,0,0,32.634,17.972ZM44.728,19H43.233V7.478H39.164V6.15H48.8V7.478H44.728Zm7.242,0H50.511V9.367H51.97ZM50.388,6.757a.969.969,0,0,1,.246-.734.911.911,0,0,1,1.222,0,.951.951,0,0,1,.255.729.966.966,0,0,1-.255.734.893.893,0,0,1-1.222,0A.987.987,0,0,1,50.388,6.757ZM67.342,19V12.733a2.6,2.6,0,0,0-.492-1.727,1.9,1.9,0,0,0-1.529-.576,2.469,2.469,0,0,0-2.013.782,3.718,3.718,0,0,0-.65,2.408V19H61.2V12.733a2.6,2.6,0,0,0-.492-1.727,1.915,1.915,0,0,0-1.538-.576,2.382,2.382,0,0,0-2.008.822,4.447,4.447,0,0,0-.637,2.694V19H55.063V9.367H56.25l.237,1.318h.07a2.867,2.867,0,0,1,1.165-1.1,3.558,3.558,0,0,1,1.683-.4,2.862,2.862,0,0,1,2.953,1.635h.07a3.072,3.072,0,0,1,1.248-1.2,3.873,3.873,0,0,1,1.863-.439,3.262,3.262,0,0,1,2.448.839,3.755,3.755,0,0,1,.813,2.685V19Zm8.534.176a4.426,4.426,0,0,1-3.371-1.3,5.036,5.036,0,0,1-1.235-3.612,5.585,5.585,0,0,1,1.147-3.7A3.81,3.81,0,0,1,75.5,9.191a3.633,3.633,0,0,1,2.865,1.191,4.564,4.564,0,0,1,1.055,3.142v.923H72.782a3.818,3.818,0,0,0,.857,2.575,2.964,2.964,0,0,0,2.29.879A7.759,7.759,0,0,0,79,17.251v1.3a7.721,7.721,0,0,1-1.463.479A8.224,8.224,0,0,1,75.876,19.176Zm-.4-8.763a2.383,2.383,0,0,0-1.85.756,3.484,3.484,0,0,0-.813,2.092h5.036a3.208,3.208,0,0,0-.615-2.114A2.165,2.165,0,0,0,75.48,10.413Zm10.274,3.656a13.62,13.62,0,0,1,.681-4.359A10.838,10.838,0,0,1,88.4,6.15h1.424a12.391,12.391,0,0,0-1.9,3.727,13.86,13.86,0,0,0-.637,4.175,13.325,13.325,0,0,0,.65,4.122,12.8,12.8,0,0,0,1.872,3.674H88.4a10.358,10.358,0,0,1-1.969-3.489A13.267,13.267,0,0,1,85.755,14.069ZM96.082,19H94.588V7.478H90.519V6.15h9.633V7.478H96.082ZM106.743,6.15,101.953,19h-1.459l4.79-12.85ZM112.649,19h-1.494V7.478h-4.069V6.15h9.633V7.478h-4.069Zm8.842-4.931a13.245,13.245,0,0,1-.681,4.307,10.3,10.3,0,0,1-1.964,3.472h-1.406a12.66,12.66,0,0,0,1.872-3.669,13.366,13.366,0,0,0,.65-4.126,13.86,13.86,0,0,0-.637-4.175,12.391,12.391,0,0,0-1.9-3.727h1.424a10.782,10.782,0,0,1,1.969,3.573A13.684,13.684,0,0,1,121.491,14.069Zm6.442-2.61v-1.2h8.174v1.2Zm0,3.595v-1.2h8.174v1.2Zm23.854.993H149.88V19h-1.4V16.047h-6.249V14.772l6.1-8.692h1.547v8.64h1.907Zm-3.3-1.327V10.448q0-1.257.088-2.839h-.07a13.207,13.207,0,0,1-.791,1.4l-4.017,5.713Zm12.507-5.546a2.93,2.93,0,0,1-.69,2.013,3.454,3.454,0,0,1-1.956,1.046v.07a3.678,3.678,0,0,1,2.294.984,2.9,2.9,0,0,1,.747,2.074,3.365,3.365,0,0,1-1.274,2.826,5.8,5.8,0,0,1-3.621.989,10.5,10.5,0,0,1-1.868-.154,6.392,6.392,0,0,1-1.648-.541V17.093a8.416,8.416,0,0,0,3.568.844q3.331,0,3.331-2.61,0-2.338-3.674-2.338h-1.266V11.731h1.283a3.864,3.864,0,0,0,2.382-.664,2.177,2.177,0,0,0,.879-1.841,1.815,1.815,0,0,0-.646-1.477,2.662,2.662,0,0,0-1.753-.536,5.41,5.41,0,0,0-1.591.229,7.119,7.119,0,0,0-1.705.844l-.738-.984a6.155,6.155,0,0,1,1.824-.98,6.628,6.628,0,0,1,2.175-.356,4.445,4.445,0,0,1,2.909.857A2.886,2.886,0,0,1,160.989,9.174Zm2.786,8.895a1.309,1.309,0,0,1,.268-.892.972.972,0,0,1,.769-.3,1.04,1.04,0,0,1,.8.3,1.255,1.255,0,0,1,.286.892,1.233,1.233,0,0,1-.29.879,1.153,1.153,0,0,1-1.534.031A1.2,1.2,0,0,1,163.775,18.068ZM176.555,19h-8.446V17.743l3.384-3.4a24.918,24.918,0,0,0,2.039-2.232,5.7,5.7,0,0,0,.738-1.3,3.726,3.726,0,0,0,.246-1.362,2.16,2.16,0,0,0-.624-1.63,2.39,2.39,0,0,0-1.731-.6,4.354,4.354,0,0,0-1.516.264,6.043,6.043,0,0,0-1.6.958l-.773-.993a5.924,5.924,0,0,1,3.867-1.477,4.086,4.086,0,0,1,2.839.927,3.189,3.189,0,0,1,1.028,2.492,4.812,4.812,0,0,1-.686,2.417,15.345,15.345,0,0,1-2.566,3.023l-2.812,2.751v.07h6.609Zm13.4-2.628a2.413,2.413,0,0,1-1,2.074,4.71,4.71,0,0,1-2.812.729,6.116,6.116,0,0,1-2.988-.606V17.216a7.227,7.227,0,0,0,1.49.554,6.221,6.221,0,0,0,1.534.2,3.478,3.478,0,0,0,1.758-.365,1.256,1.256,0,0,0,.127-2.074,7.673,7.673,0,0,0-1.9-.945,10.318,10.318,0,0,1-1.912-.875,2.611,2.611,0,0,1-.844-.848,2.212,2.212,0,0,1-.277-1.134,2.161,2.161,0,0,1,.958-1.859,4.464,4.464,0,0,1,2.628-.681,7.689,7.689,0,0,1,3.041.633l-.519,1.187a6.98,6.98,0,0,0-2.628-.6,3.023,3.023,0,0,0-1.564.325,1.006,1.006,0,0,0-.527.9,1.092,1.092,0,0,0,.2.659,1.952,1.952,0,0,0,.637.519,14.24,14.24,0,0,0,1.688.712,6.3,6.3,0,0,1,2.316,1.257A2.216,2.216,0,0,1,189.958,16.372Zm6.442,2.8a4.426,4.426,0,0,1-3.371-1.3,5.036,5.036,0,0,1-1.235-3.612,5.585,5.585,0,0,1,1.147-3.7,3.81,3.81,0,0,1,3.081-1.371,3.633,3.633,0,0,1,2.865,1.191,4.564,4.564,0,0,1,1.055,3.142v.923h-6.636a3.818,3.818,0,0,0,.857,2.575,2.964,2.964,0,0,0,2.29.879,7.759,7.759,0,0,0,3.076-.65v1.3a7.721,7.721,0,0,1-1.463.479A8.224,8.224,0,0,1,196.4,19.176Zm-.4-8.763a2.383,2.383,0,0,0-1.85.756,3.484,3.484,0,0,0-.813,2.092h5.036a3.208,3.208,0,0,0-.615-2.114A2.165,2.165,0,0,0,196,10.413Zm14.309-1.046v.923l-1.784.211a3.133,3.133,0,0,1,.633,1.925,2.848,2.848,0,0,1-.967,2.259,3.9,3.9,0,0,1-2.654.844,4.42,4.42,0,0,1-.809-.07A1.436,1.436,0,0,0,203.8,16.7a.63.63,0,0,0,.325.584,2.376,2.376,0,0,0,1.116.189h1.705a3.818,3.818,0,0,1,2.4.659,2.29,2.29,0,0,1,.839,1.916,2.735,2.735,0,0,1-1.283,2.439,6.868,6.868,0,0,1-3.744.839,5.115,5.115,0,0,1-2.914-.7,2.27,2.27,0,0,1-1.024-1.986,2.231,2.231,0,0,1,.563-1.521,2.864,2.864,0,0,1,1.582-.87,1.526,1.526,0,0,1-.62-.519,1.372,1.372,0,0,1-.25-.817,1.551,1.551,0,0,1,.281-.923,2.957,2.957,0,0,1,.888-.765,2.6,2.6,0,0,1-1.217-1.046,3.073,3.073,0,0,1-.47-1.687,3.117,3.117,0,0,1,.949-2.439,3.875,3.875,0,0,1,2.689-.857,4.891,4.891,0,0,1,1.362.176Zm-7.682,11.25a1.307,1.307,0,0,0,.659,1.187,3.638,3.638,0,0,0,1.89.4,5.273,5.273,0,0,0,2.72-.549,1.682,1.682,0,0,0,.883-1.49,1.179,1.179,0,0,0-.483-1.085,3.754,3.754,0,0,0-1.819-.3h-1.749a2.3,2.3,0,0,0-1.547.475A1.7,1.7,0,0,0,202.632,20.617Zm.791-8.165a1.961,1.961,0,0,0,.571,1.529,2.281,2.281,0,0,0,1.591.519,1.861,1.861,0,0,0,2.136-2.074,1.915,1.915,0,0,0-2.162-2.171,2.141,2.141,0,0,0-1.582.554A2.23,2.23,0,0,0,203.423,12.452Zm8.657,5.616a1.309,1.309,0,0,1,.268-.892.972.972,0,0,1,.769-.3,1.04,1.04,0,0,1,.8.3,1.255,1.255,0,0,1,.286.892,1.233,1.233,0,0,1-.29.879,1.153,1.153,0,0,1-1.534.031A1.2,1.2,0,0,1,212.08,18.068Z" transform="translate(855 8708)" fill="#00223d"/>
    <g id="Trazado_86145" data-name="Trazado 86145" transform="translate(726 8548)" fill="none">
      <path d="M0,0H468V92H0Z" stroke="none"/>
      <path d="M 1 1 L 1 91 L 467 91 L 467 1 L 1 1 M 0 0 L 468 0 L 468 92 L 0 92 L 0 0 Z" stroke="none" fill="#d268cc"/>
    </g>
    <g id="Trazado_86146" data-name="Trazado 86146" transform="translate(726 8667)" fill="none">
      <path d="M0,0H468V92H0Z" stroke="none"/>
      <path d="M 1 1 L 1 91 L 467 91 L 467 1 L 1 1 M 0 0 L 468 0 L 468 92 L 0 92 L 0 0 Z" stroke="none" fill="#d268cc"/>
    </g>
  </g>
</svg>
