<svg xmlns="http://www.w3.org/2000/svg" width="184.54" height="641.657" viewBox="0 0 184.54 641.657">
  <g id="Grupo_38632" data-name="Grupo 38632" transform="translate(-475 -2603.188)">
    <g id="Grupo_38587" data-name="Grupo 38587" transform="translate(475 2927.535)">
      <g id="Grupo_38586" data-name="Grupo 38586">
        <rect id="Rect치ngulo_32593" data-name="Rect치ngulo 32593" width="26.187" height="43.592" transform="translate(80.143 135.526)" fill="#f7ae80"/>
        <path id="Trazado_75852" data-name="Trazado 75852" d="M202.246,291.48l3,1.757a17.354,17.354,0,0,0,5.943,1.226h8.546a17.391,17.391,0,0,0,5.943-1.226l2.752-1.613V275.451H202.246Z" transform="translate(-122.103 -133.522)" fill="#f7ae80" opacity="0.5" style="mix-blend-mode: multiply;isolation: isolate"/>
        <path id="Trazado_75853" data-name="Trazado 75853" d="M273.7,446.856l5.81-126.02c-1.414-13.444-15.559-14.86-15.559-14.86l-28.7-7.291h-26.83l-29.066,7.291s-14.152,1.416-15.571,14.86l6.11,126.02Z" transform="translate(-128.686 -129.545)" fill="#f7ae80"/>
        <path id="Trazado_75854" data-name="Trazado 75854" d="M278.118,446.856l1.391-126.02c-1.414-13.444-15.559-14.86-15.559-14.86l-28.7-7.291c-13.329,9.649-26.83,0-26.83,0l-29.066,7.291s-14.152,1.416-15.571,14.86l1.663,126.02Z" transform="translate(-128.686 -129.545)" fill="#c7131b"/>
        <g id="Grupo_38580" data-name="Grupo 38580" transform="translate(37.825)">
          <g id="Grupo_38570" data-name="Grupo 38570" transform="translate(0 86.547)">
            <g id="Grupo_38567" data-name="Grupo 38567" transform="translate(87.328 11.822)">
              <path id="Trazado_75855" data-name="Trazado 75855" d="M254.656,257.552a7.087,7.087,0,0,1-8.55,5.218h0a7.1,7.1,0,0,1-5.229-8.56l2.417-9.964a7.093,7.093,0,0,1,8.555-5.22h0a7.1,7.1,0,0,1,5.215,8.56Z" transform="translate(-240.677 -238.16)" fill="#f7ae80"/>
              <g id="Grupo_38566" data-name="Grupo 38566" transform="translate(0.012)">
                <path id="Trazado_75856" data-name="Trazado 75856" d="M245.942,263.518a7.781,7.781,0,0,1-5.2-4.224.685.685,0,0,1,.328-.892.675.675,0,0,1,.9.322,6.346,6.346,0,0,0,4.283,3.489A6.411,6.411,0,0,0,254,257.489l2.413-9.969a6.412,6.412,0,1,0-12.464-3.019.675.675,0,0,1-.817.494.668.668,0,0,1-.484-.806,7.755,7.755,0,1,1,15.074,3.655l-2.423,9.955A7.757,7.757,0,0,1,245.942,263.518Z" transform="translate(-240.688 -238.258)" fill="#dc9472"/>
              </g>
              <path id="Trazado_75857" data-name="Trazado 75857" d="M254.23,248.909c.49-1.9.389-3.779-1.04-5.211a4.836,4.836,0,0,0-2.169-.95c-3.379-.661-6.835,4.715-3.557,6.16a2.258,2.258,0,0,1-.4,2.928c-1.352,1.24-3.166,3.043-3.051,5.037.08,1.182,1.178,1.954,2.216,2.374.815.331,1.082-.375.439-.816a3.856,3.856,0,0,1-1.15-1.315,1.453,1.453,0,0,0-.073-.2.591.591,0,0,1-.069-.153,1.318,1.318,0,0,1,.069-.855,1.972,1.972,0,0,0,2.639.286c.753-.765.437-2.153.773-3.084a7.719,7.719,0,0,1,1.021-1.821c1.914-2.648-.844-3.476-.844-3.476a9.433,9.433,0,0,0-1.041-.045c-1.335-.99.561-3.1,1.464-3.371a2.575,2.575,0,0,1,2.9.929,4.907,4.907,0,0,1,.538,3.382,11.294,11.294,0,0,1-1.414,3.811c-.387.659-.876,1.442-1.284,2.1-.449.751.369,1.2.812.456C251.962,253.483,253.645,251.189,254.23,248.909Z" transform="translate(-240.108 -237.499)" fill="#dc9472"/>
            </g>
            <g id="Grupo_38569" data-name="Grupo 38569">
              <path id="Trazado_75858" data-name="Trazado 75858" d="M166.68,245.877a7.087,7.087,0,0,0,6.894,7.279h0a7.091,7.091,0,0,0,7.279-6.895l.268-10.248a7.085,7.085,0,0,0-6.888-7.281h0a7.1,7.1,0,0,0-7.274,6.9Z" transform="translate(-166.016 -228.067)" fill="#f7ae80"/>
              <g id="Grupo_38568" data-name="Grupo 38568">
                <path id="Trazado_75859" data-name="Trazado 75859" d="M173.653,253.923a7.694,7.694,0,0,0,6.112-2.719.671.671,0,1,0-1.019-.874,6.409,6.409,0,0,1-11.295-4.339l.264-10.245a6.42,6.42,0,0,1,12.836.348.668.668,0,1,0,1.336.036,7.751,7.751,0,1,0-15.5-.417l-.275,10.25A7.758,7.758,0,0,0,173.653,253.923Z" transform="translate(-166.112 -228.164)" fill="#dc9472"/>
              </g>
              <path id="Trazado_75860" data-name="Trazado 75860" d="M168.342,237.508c.027-1.953.608-3.748,2.369-4.756a4.848,4.848,0,0,1,2.34-.348c3.429.254,5.362,6.348,1.816,6.881a2.272,2.272,0,0,0-.37,2.937c.977,1.544,2.257,3.751,1.623,5.652a3.1,3.1,0,0,1-2.758,1.72c-.876.1-.936-.65-.213-.908a3.94,3.94,0,0,0,1.457-.966,2.144,2.144,0,0,1,.129-.173c.041-.048.062-.091.1-.142a1.275,1.275,0,0,0,.159-.83,1.991,1.991,0,0,1-2.63-.427c-.516-.924.156-2.181.071-3.17a8.1,8.1,0,0,0-.508-2.03c-1.159-3.053,1.716-3.133,1.716-3.133.432.077.746.162,1.025.238,1.535-.6.275-3.146-.533-3.642a2.569,2.569,0,0,0-3.042.135,4.991,4.991,0,0,0-1.418,3.125,11.505,11.505,0,0,0,.379,4.045c.2.75.473,1.621.691,2.36.238.844-.671,1.066-.906.235C169.331,242.522,168.3,239.868,168.342,237.508Z" transform="translate(-165.731 -227.441)" fill="#dc9472"/>
            </g>
          </g>
          <g id="Grupo_38579" data-name="Grupo 38579" transform="translate(8.656 29.309)">
            <path id="Trazado_75861" data-name="Trazado 75861" d="M221.767,179.485c-13.137-.855-42.32-.364-44.531,33.976l-3.7,63.19c-.6,4.507,6.737,11.014,6.737,11.014L199.1,301.44a19.671,19.671,0,0,0,6.165,2.05l9.1,1.212a19.769,19.769,0,0,0,6.487-.372l21.774-8.361S251.4,291.6,252,287.1l12.8-62.747c6.849-33.717-21.031-41.046-33.932-43.657Z" transform="translate(-173.503 -179.291)" fill="#f7ae80"/>
            <path id="Trazado_75862" data-name="Trazado 75862" d="M223.321,219.06l15.211,5.256a3.377,3.377,0,0,1,2.327,3.593s3.737-5.611-1.322-8.482l-14.6-5.055s-1.092-.621-1.749.206l-1.169,3.372S221.965,218.746,223.321,219.06Z" transform="translate(-165.198 -173.325)" fill="#5a2614"/>
            <path id="Trazado_75863" data-name="Trazado 75863" d="M204.884,220.969l-15.962-2.124a3.355,3.355,0,0,0-3.679,2.173s-.828-6.706,4.973-7l15.328,2.042s1.25-.074,1.471.967l-.475,3.531S206.241,221.3,204.884,220.969Z" transform="translate(-171.5 -173.347)" fill="#5a2614"/>
            <g id="Grupo_38573" data-name="Grupo 38573" transform="translate(23.231 50.874)">
              <g id="Grupo_38571" data-name="Grupo 38571" transform="translate(36.787 4.925)">
                <path id="Trazado_75864" data-name="Trazado 75864" d="M231.525,232.941c-.42,3.078-2.194,5.369-3.984,5.132s-2.9-2.926-2.5-6,2.189-5.357,3.981-5.124C230.81,227.2,231.928,229.879,231.525,232.941Z" transform="translate(-224.713 -226.935)" fill="#2e2e2d"/>
                <path id="Trazado_75865" data-name="Trazado 75865" d="M227.831,229.726a1.562,1.562,0,0,1-3.072-.41,1.564,1.564,0,0,1,3.072.41Z" transform="translate(-224.749 -226.725)" fill="#fff"/>
              </g>
              <g id="Grupo_38572" data-name="Grupo 38572">
                <path id="Trazado_75866" data-name="Trazado 75866" d="M193.422,227.87c-.406,3.072.712,5.748,2.505,5.991s3.559-2.058,3.971-5.129-.714-5.748-2.507-5.986S193.827,224.8,193.422,227.87Z" transform="translate(-193.339 -222.73)" fill="#2e2e2d"/>
                <path id="Trazado_75867" data-name="Trazado 75867" d="M197.151,225.649a1.566,1.566,0,1,0,1.725-1.141A1.465,1.465,0,0,0,197.151,225.649Z" transform="translate(-192.688 -222.428)" fill="#fff"/>
              </g>
            </g>
            <path id="Trazado_75868" data-name="Trazado 75868" d="M204.139,247.242a6.826,6.826,0,0,0,12.653,1.684Z" transform="translate(-168.259 -167.66)" fill="#dc9472"/>
            <g id="Grupo_38578" data-name="Grupo 38578" transform="translate(26.601 91.225)">
              <g id="Grupo_38574" data-name="Grupo 38574" transform="translate(1.552 3.385)">
                <path id="Trazado_75869" data-name="Trazado 75869" d="M215.73,265.445c-8.161,0-16.949-3.086-17.472-3.276a1.07,1.07,0,0,1-.654-1.374,1.089,1.089,0,0,1,1.381-.659c.172.057,17.516,6.149,25.163,1.245a1.08,1.08,0,1,1,1.171,1.815C222.735,264.859,219.292,265.445,215.73,265.445Z" transform="translate(-197.542 -260.074)" fill="#dc9472"/>
              </g>
              <g id="Grupo_38575" data-name="Grupo 38575">
                <path id="Trazado_75870" data-name="Trazado 75870" d="M197.3,264.332h-.033a1.085,1.085,0,0,1-1.049-1.118c.206-5.458,3.884-6,4.044-6.022a1.1,1.1,0,0,1,1.207.937,1.081,1.081,0,0,1-.912,1.206c-.1.02-2.033.425-2.175,3.961A1.073,1.073,0,0,1,197.3,264.332Z" transform="translate(-196.217 -257.184)" fill="#dc9472"/>
              </g>
              <g id="Grupo_38576" data-name="Grupo 38576" transform="translate(12.769 13.306)">
                <path id="Trazado_75871" data-name="Trazado 75871" d="M207.119,268.545a4.919,4.919,0,0,0,2.064.173,1.013,1.013,0,0,1-1.243.977S207.119,269.68,207.119,268.545Z" transform="translate(-207.119 -268.545)" fill="#dc9472"/>
              </g>
              <g id="Grupo_38577" data-name="Grupo 38577" transform="translate(7.35 8.74)">
                <path id="Trazado_75872" data-name="Trazado 75872" d="M211.258,268.272a22.915,22.915,0,0,1-8.1-1.539,1.083,1.083,0,1,1,.834-2,20.047,20.047,0,0,0,10.1,1.118,1.085,1.085,0,0,1,.408,2.132A18.142,18.142,0,0,1,211.258,268.272Z" transform="translate(-202.493 -264.646)" fill="#dc9472"/>
              </g>
            </g>
          </g>
          <path id="Trazado_75873" data-name="Trazado 75873" d="M235.912,196.657c15.3,3.461,11.438,22.81,11.438,22.81l-5.579,41.948,3.674.492s-.808-10.9,7.073-13.281l7.5-46.534s3.933-16.872-6.605-19.819Z" transform="translate(-154.165 -149.472)" fill="#5a2614"/>
          <path id="Trazado_75874" data-name="Trazado 75874" d="M174.07,190.25" transform="translate(-164.75 -148.106)" fill="#5a2614"/>
          <path id="Trazado_75875" data-name="Trazado 75875" d="M245.232,197.07s-21.571-6.129-26.018,1.473c0,0-1.429-5.649-11.741-6.662,0,0-21.153-5.426-26.008,16.763,0,0,.322-27.441,24.265-28.66C244.477,178.036,245.6,199.756,245.232,197.07Z" transform="translate(-163.484 -149.884)" fill="#4b2010"/>
          <path id="Trazado_75876" data-name="Trazado 75876" d="M245.232,197.057s-21.571-6.129-26.018,1.473c0,0-1.429-5.649-11.741-6.662,0,0-21.153-5.426-26.008,16.763,0,0,.3-28.106,24.265-28.66C247.766,179.026,245.6,199.742,245.232,197.057Z" transform="translate(-163.484 -149.871)" fill="#4b2010"/>
          <path id="Trazado_75877" data-name="Trazado 75877" d="M180.164,182.084l-7.31,55.141s4.174-1.779,3.25,14.045l3.6.48,9.12-68.516Z" transform="translate(-164.958 -149.504)" fill="#5a2614"/>
          <path id="Trazado_75878" data-name="Trazado 75878" d="M188.1,200.643s3.314-15.113,31.943-12.062c0,0,26.651,2.14,27.168,12.87l17.5-14.384s.857-24.127-29.122-29.825c0,0-36.5-9.967-51.851,6.576a15.66,15.66,0,0,1,9.1,1.219s-13.327.117-17.729,12.588c0,0,9.939-4.145,12.789,1.5,0,0-14.214-1.9-18.006,11.68,0,0,8.094-4.026,10.406-1.159C180.3,189.644,178.569,197.665,188.1,200.643Z" transform="translate(-165.465 -154.266)" fill="#5a2614"/>
          <path id="Trazado_75879" data-name="Trazado 75879" d="M248.925,186.113s-.385.861-1.072,2.075-1.637,2.811-2.7,4.332-2.2,2.976-3.1,4.042-1.589,1.723-1.589,1.723.386-.864,1.061-2.086c.691-1.219,1.643-2.807,2.709-4.322,1.049-1.532,2.21-2.978,3.108-4.049S248.925,186.113,248.925,186.113Z" transform="translate(-153.386 -148.814)" fill="#f7ae80"/>
        </g>
        <g id="Grupo_38581" data-name="Grupo 38581" transform="translate(128.298 177.993)">
          <path id="Trazado_75880" data-name="Trazado 75880" d="M299.543,418.4,271.668,316.211s-4.011-12.974-18.29-9.317c0,0-12.156,4.01-9.683,21.348l30.142,93.323s3.48,16.2,17.4,15.262C291.235,436.827,300.445,434.007,299.543,418.4Z" transform="translate(-243.363 -306.244)" fill="#a21316"/>
        </g>
        <g id="Grupo_38582" data-name="Grupo 38582" transform="translate(0 178.88)">
          <path id="Trazado_75881" data-name="Trazado 75881" d="M168.135,445.432l-7.716-14.538L193.327,329c2.472-17.338-9.679-21.343-9.679-21.343-14.273-3.66-18.29,9.319-18.29,9.319l-31.542,115.6,8.333,12.858Z" transform="translate(-133.816 -307.002)" fill="#a21316"/>
        </g>
        <path id="Trazado_75882" data-name="Trazado 75882" d="M243.645,292.362l.036.02a26.366,26.366,0,0,1-.931-17.524c-1.185-4.064-4.829-1.008-4.829-1.008-5.637,6.3-3.557,10.922-3.557,10.922l-25.178-12.881c-1.409-.716-3.109-.643-3.827.762s.508,2.987,1.917,3.7l10.959,6.821-.475-.053a3.342,3.342,0,0,0-3.252,2.621,2.826,2.826,0,0,0,.929,3.285L219.5,292a3.205,3.205,0,0,0-3.843,1.219s-1.445,1.978.936,4.243c0,0-1.267-.032-2.1,2.544,0,0-.675,1.963,1.6,3.823,0,0-2.846,4.453,2.265,6.54l17.613,2.866s8.6,1.133,11.8-4.589A22.067,22.067,0,0,0,243.645,292.362Z" transform="translate(-121.606 -134.208)" fill="#d2d1d1" style="mix-blend-mode: multiply;isolation: isolate"/>
        <g id="Grupo_38584" data-name="Grupo 38584" transform="translate(84.901 139.996)">
          <g id="Grupo_38583" data-name="Grupo 38583">
            <path id="Trazado_75883" data-name="Trazado 75883" d="M206.523,275.016c.719-1.409,2.407-1.49,3.816-.766l25.187,12.884a2.865,2.865,0,0,1,1.241,3.853h0c-.718,1.409-2.381,3.742-3.785,3.024l-24.549-15.3c-1.414-.723-2.633-2.292-1.91-3.694Z" transform="translate(-206.309 -273.801)" fill="#f7ae80"/>
            <path id="Trazado_75884" data-name="Trazado 75884" d="M215.927,304.485s-2.852,4.454,2.265,6.533l17.611,2.871s8.589,1.13,11.8-4.586c0,0,3.141-15.432-13.413-23.877l-12.112-1.145-4.5-.5a3.347,3.347,0,0,0-3.252,2.613,2.848,2.848,0,0,0,.936,3.291l4.058,2.969a3.208,3.208,0,0,0-3.839,1.218s-1.445,1.98.931,4.249c0,0-1.267-.041-2.086,2.544C214.321,300.663,213.639,302.616,215.927,304.485Z" transform="translate(-204.97 -272.093)" fill="#f7ae80"/>
          </g>
          <path id="Trazado_75885" data-name="Trazado 75885" d="M231.311,286.943s-2.083-4.63,3.559-10.927c0,0,3.634-3.051,4.824,1.014a26.363,26.363,0,0,0,.926,17.524Z" transform="translate(-202.093 -273.61)" fill="#f7ae80"/>
          <path id="Trazado_75886" data-name="Trazado 75886" d="M228.521,310l7.668,11.327,15.715-8.457-6.579-10.936Z" transform="translate(-202.507 -268.986)" fill="#f7ae80"/>
        </g>
        <g id="Grupo_38585" data-name="Grupo 38585" transform="translate(110.239 181.239)">
          <path id="Trazado_75887" data-name="Trazado 75887" d="M227.943,320.834l46.179,103.11s6.286,15.341,19.816,11.969c0,0,8.575-4.408,4.939-19.6l-46.4-107.294Z" transform="translate(-227.943 -309.016)" fill="#a21316"/>
        </g>
      </g>
    </g>
    <g id="Grupo_38588" data-name="Grupo 38588" transform="translate(502.621 2603.188)">
      <path id="Trazado_75888" data-name="Trazado 75888" d="M165.095,48.1a73.959,73.959,0,0,1,147.9,2.437c-.828,50.277-39.768,79.959-45.067,111.009-11.971-.2-49.482-.812-61.453-1.011C212.406,139.876,164.292,96.782,165.095,48.1Z" transform="translate(-165.085 24.645)" fill="#ffb900"/>
      <path id="Trazado_75889" data-name="Trazado 75889" d="M165.095,48.1a73.959,73.959,0,0,1,147.9,2.437c-.828,50.277-39.768,79.959-45.067,111.009-11.971-.2-49.482-.812-61.453-1.011C212.406,139.876,164.292,96.782,165.095,48.1Z" transform="translate(-165.085 24.645)" fill="#ffe800"/>
      <path id="Trazado_75890" data-name="Trazado 75890" d="M190.659,153.117c11.136-2.8,22.349-9.234,30.5-15.231,8.518-6.271,18.09-13.268,24.032-22.213,11.1-16.706,18.85-35.835,20.794-55.906,3.164-32.612-8.474-62.782-32.441-83.944a73.96,73.96,0,0,1,63.441,74.414c-.828,50.276-39.768,79.959-45.067,111.009l-61.453-1.011A16.092,16.092,0,0,0,190.659,153.117Z" transform="translate(-149.074 24.941)" fill="#e9cac2" style="mix-blend-mode: multiply;isolation: isolate"/>
      <path id="Trazado_75891" data-name="Trazado 75891" d="M224.365,149.069c17.629-15.734,27.266-36.56,33.77-58.937,3.515-12.116,7.866-24.554,8.414-37.254a109.37,109.37,0,0,0-4.017-34.4,171.266,171.266,0,0,0-14.879-35.934A73.876,73.876,0,0,1,281.684,46c-.828,50.276-39.768,79.959-45.067,111.009l-21.907-.362A98.646,98.646,0,0,0,224.365,149.069Z" transform="translate(-133.775 29.182)" fill="#e9cac2" style="mix-blend-mode: multiply;isolation: isolate"/>
      <path id="Trazado_75892" data-name="Trazado 75892" d="M219.618,14.618c-1.574,12.429-4.2,26.09-13.621,35.04C197.33,57.9,182.9,65,170.688,64.985a82.5,82.5,0,0,1-2.174-19.675,73.924,73.924,0,0,1,41.863-65.392C221.611-13.743,221.048,3.289,219.618,14.618Z" transform="translate(-162.927 27.524)" fill="#fff" style="mix-blend-mode: soft-light;isolation: isolate"/>
      <path id="Trazado_75893" data-name="Trazado 75893" d="M207.1,128.871s-.184-6.467-1.089-16.078c-.426-4.818-1.024-10.415-1.776-16.392-.395-2.989-.736-6.082-1.2-9.21s-.923-6.313-1.378-9.5c-.512-3.174-1.031-6.346-1.541-9.468-.479-3.12-1.093-6.181-1.61-9.148-1.08-5.93-2.187-11.452-3.226-16.169-2.026-9.44-3.8-15.668-3.8-15.668s.186,6.472,1.085,16.087c.427,4.81,1.024,10.41,1.776,16.386.395,2.991.732,6.088,1.212,9.215.452,3.13.915,6.31,1.378,9.49.51,3.175,1.024,6.346,1.535,9.469.494,3.123,1.093,6.178,1.615,9.149,1.083,5.925,2.194,11.444,3.228,16.166C205.336,122.647,207.1,128.871,207.1,128.871Z" transform="translate(-148.432 57.383)" fill="#003966"/>
      <path id="Trazado_75894" data-name="Trazado 75894" d="M217.245,128.926s1.97-6.171,4.309-15.543c1.191-4.676,2.482-10.161,3.761-16.048.615-2.95,1.324-5.987,1.911-9.094.616-3.1,1.228-6.255,1.854-9.41.566-3.164,1.13-6.326,1.691-9.441.584-3.107,1.011-6.194,1.509-9.166.946-5.953,1.737-11.526,2.318-16.319,1.218-9.582,1.613-16.047,1.613-16.047s-1.982,6.167-4.319,15.536C230.7,48.08,229.41,53.56,228.14,59.446c-.618,2.949-1.331,5.987-1.911,9.1-.612,3.1-1.233,6.253-1.854,9.407-.568,3.166-1.13,6.325-1.683,9.438-.571,3.112-1.018,6.193-1.512,9.172-.943,5.955-1.729,11.529-2.314,16.317C217.646,122.456,217.245,128.926,217.245,128.926Z" transform="translate(-132.176 57.771)" fill="#003966"/>
      <path id="Trazado_75895" data-name="Trazado 75895" d="M202.357,125.8c-.086,5.069,5.353,9.265,12.149,9.379s12.359-3.9,12.442-8.975Z" transform="translate(-141.569 119.564)" fill="#cdcdcd"/>
      <path id="Trazado_75896" data-name="Trazado 75896" d="M186.542,91.744a6.38,6.38,0,0,0,6.279,6.491l65.725,1.078a6.375,6.375,0,0,0,6.485-6.276h0a6.376,6.376,0,0,0-6.274-6.483l-65.721-1.081a6.377,6.377,0,0,0-6.493,6.271Z" transform="translate(-151.547 94.121)" fill="#cdcdcd"/>
      <path id="Trazado_75897" data-name="Trazado 75897" d="M264.987,90.287a4.871,4.871,0,0,1,.044.528,6.375,6.375,0,0,1-6.485,6.276l-65.725-1.078a6.38,6.38,0,0,1-6.279-6.491,4.515,4.515,0,0,1,.067-.527Z" transform="translate(-151.547 96.344)" fill="#c3c3c3" style="mix-blend-mode: multiply;isolation: isolate"/>
      <path id="Trazado_75898" data-name="Trazado 75898" d="M186.427,98.757a6.381,6.381,0,0,0,6.286,6.489l65.716,1.083a6.387,6.387,0,0,0,6.489-6.274h0a6.4,6.4,0,0,0-6.282-6.5l-65.723-1.081a6.39,6.39,0,0,0-6.486,6.281Z" transform="translate(-151.62 98.54)" fill="#cdcdcd"/>
      <path id="Trazado_75899" data-name="Trazado 75899" d="M264.872,97.295a5.126,5.126,0,0,1,.047.537,6.387,6.387,0,0,1-6.489,6.274l-65.716-1.083a6.381,6.381,0,0,1-6.286-6.489c0-.183.044-.356.06-.533Z" transform="translate(-151.62 100.763)" fill="#c3c3c3" style="mix-blend-mode: multiply;isolation: isolate"/>
      <rect id="Rect치ngulo_32594" data-name="Rect치ngulo 32594" width="15.85" height="65.733" transform="translate(40.818 219.889) rotate(-89.058)" fill="#cdcdcd"/>
      <path id="Trazado_75900" data-name="Trazado 75900" d="M186.2,112.545a6.387,6.387,0,0,0,6.279,6.483l65.73,1.086a6.386,6.386,0,0,0,6.486-6.277h0a6.388,6.388,0,0,0-6.277-6.489l-65.728-1.08a6.386,6.386,0,0,0-6.489,6.277Z" transform="translate(-151.764 107.241)" fill="#cdcdcd"/>
      <path id="Trazado_75901" data-name="Trazado 75901" d="M264.646,111.082c.013.181.047.352.047.532a6.386,6.386,0,0,1-6.486,6.277l-65.73-1.086a6.387,6.387,0,0,1-6.279-6.483c0-.183.051-.354.064-.532Z" transform="translate(-151.764 109.464)" fill="#c3c3c3" style="mix-blend-mode: multiply;isolation: isolate"/>
      <path id="Trazado_75902" data-name="Trazado 75902" d="M189.823,114.091c-.191,11.686,14.447,21.391,32.7,21.691s33.2-8.92,33.4-20.605Z" transform="translate(-149.478 112.177)" fill="#cdcdcd"/>
      <path id="Trazado_75903" data-name="Trazado 75903" d="M200.081,114.256c2.422,10.076,15.867,17.965,32.276,18.232a49.8,49.8,0,0,0,10.9-1.018,45.716,45.716,0,0,1-20.737,4.312c-18.25-.3-32.888-10.006-32.7-21.691Z" transform="translate(-149.478 112.177)" fill="#e8e8e8" style="mix-blend-mode: multiply;isolation: isolate"/>
      <path id="Trazado_75904" data-name="Trazado 75904" d="M250.953,34.008a10.067,10.067,0,0,1-.889,1.7,6.417,6.417,0,0,1-4.048,3,6.315,6.315,0,0,1-6.457-3.037,4.352,4.352,0,0,1-.4-.935,3.407,3.407,0,0,1-.188-1.034,2.162,2.162,0,0,1,.573-1.652,2.447,2.447,0,0,1,1.647-.69c.656,0,.943.261.939.486a3.125,3.125,0,0,1-.515,1.739,4.7,4.7,0,0,1-1.781,1.566,11.171,11.171,0,0,1-5.516,1.326c-1.96-.041-3.562-.851-3.749-2.05.024-.026.044.077.044.036a.958.958,0,0,1,.013-.209,2.637,2.637,0,0,1,.109-.515,4.2,4.2,0,0,1,.488-1.073,2.158,2.158,0,0,1,.634-.652c.2-.106.214-.1.359-.068-.113.029-.3-.168-.212-.047a2.774,2.774,0,0,1,.176.926,6.5,6.5,0,0,1-.1,1.38,5.971,5.971,0,0,1-.16.643c-.036.144-.2.44-.086.238a2.538,2.538,0,0,1-.442.553,2.572,2.572,0,0,1-.378.323,3.248,3.248,0,0,1-1.065.51,6.667,6.667,0,0,1-2.831.181,7.611,7.611,0,0,1-5.077-2.777,2.917,2.917,0,0,1-.473-1.029,2.119,2.119,0,0,1-.075-.519,1.062,1.062,0,0,1,0-.269l.007-.13,0-.067,0-.039c-.021.1.041-.251-.039.2l.111-.489c.029-.018.013.119-.028.147.007.011.041-.038.08-.077a.983.983,0,0,1,.483-.192.624.624,0,0,1,.393.067c.038.039.054,0,.108.183-.07-.3.2.726.1.491a1.307,1.307,0,0,1-.01.228,1.414,1.414,0,0,1-.344.682,5.247,5.247,0,0,1-2.226,1.421,14.538,14.538,0,0,1-3.275.683c-2.29.279-4.428-.166-5.134-1.12a2.441,2.441,0,0,1-.481-.925l-.055-.13c.031.161-.021-.086-.028-.116a3.974,3.974,0,0,1-.082-.408c-.011-.119-.021-.281-.026-.493a1.846,1.846,0,0,1,.452-1.362.63.63,0,0,1,.422-.07,1.937,1.937,0,0,1,.838.287,1.338,1.338,0,0,1,.411,1.235,3.152,3.152,0,0,1-.225,1.054,2.593,2.593,0,0,1-.644.946,7.24,7.24,0,0,1-2.2,1.381,13.376,13.376,0,0,1-5.718,1.088,6.442,6.442,0,0,1-1.27-.157c-.059-.016-.277-.062-.217-.047l-.372-.137c-.137-.086-.2-.086-.375-.209a4.568,4.568,0,0,1-1.517-1.677,3.653,3.653,0,0,1-.447-2.035,2.345,2.345,0,0,1,.24-.838,3.006,3.006,0,0,1,.292-.452,2.045,2.045,0,0,1,.277-.3c.77-.7,1.637-.279,1.832,1.218a4.645,4.645,0,0,1-1.217,3.513,6.928,6.928,0,0,1-2.885,2.016,5.452,5.452,0,0,1-4.943-.458,5.617,5.617,0,0,1-1.088-.907c-.212-.238-.329-.373-.329-.373s.1.147.279.414a6.017,6.017,0,0,0,.964,1.086,5.906,5.906,0,0,0,5.4,1.2,8.1,8.1,0,0,0,3.67-1.965,6.189,6.189,0,0,0,2.073-4.725c0-.3-.038-.439-.052-.667a4.6,4.6,0,0,0-.225-.837,3.158,3.158,0,0,0-4.921-1.494,4.181,4.181,0,0,0-.742.636,6.232,6.232,0,0,0-.528.675,4.859,4.859,0,0,0-.744,1.817,6.392,6.392,0,0,0,.449,3.7,7.435,7.435,0,0,0,2.335,3.032,6.172,6.172,0,0,0,.969.607l.354.171a4.913,4.913,0,0,0,.551.188,9.3,9.3,0,0,0,1.892.409,16.991,16.991,0,0,0,7.419-.951,10.708,10.708,0,0,0,3.753-2.218,6.577,6.577,0,0,0,1.414-1.931,7.359,7.359,0,0,0,.7-2.419,5.566,5.566,0,0,0-2.233-5.219,6.266,6.266,0,0,0-2.609-1.013,5.108,5.108,0,0,0-3.2.532,6,6,0,0,0-2.862,5.092,7.822,7.822,0,0,0,.057,1.421,5.337,5.337,0,0,0,.09.533l.073.359.091.325a7.215,7.215,0,0,0,1.236,2.508,7.8,7.8,0,0,0,4.638,2.8,15.169,15.169,0,0,0,4.669.227c2.791-.315,6.209-.82,8.859-3.8a6.329,6.329,0,0,0,1.391-2.885,6.01,6.01,0,0,0,.07-1.77,5.783,5.783,0,0,0-.308-1.465,5.124,5.124,0,0,0-2.319-2.9,5.68,5.68,0,0,0-3.49-.682,5.817,5.817,0,0,0-3.141,1.4,5.605,5.605,0,0,0-1.181,1.484,7.591,7.591,0,0,0-.422,1.067l-.1.489c-.09.5-.033.188-.049.318l0,.095-.018.179-.031.37a7.066,7.066,0,0,0,.021.739,6.929,6.929,0,0,0,.232,1.458,8.049,8.049,0,0,0,1.207,2.575,12.318,12.318,0,0,0,8.471,4.759,10.965,10.965,0,0,0,4.948-.447,7.932,7.932,0,0,0,2.386-1.277,6.8,6.8,0,0,0,1.058-.982,7.928,7.928,0,0,0,.736-.987,5.616,5.616,0,0,0,.68-1.538,9.932,9.932,0,0,0,.269-1.236,10.514,10.514,0,0,0,.09-2.443,6.759,6.759,0,0,0-.778-2.742,4.17,4.17,0,0,0-3.157-2.164,4.8,4.8,0,0,0-3.213.791,6.408,6.408,0,0,0-1.908,2.021,8.079,8.079,0,0,0-.943,2.306A7.979,7.979,0,0,0,226.491,34c-.015.214,0,.471.01.7a6.088,6.088,0,0,0,.16.931,6.181,6.181,0,0,0,3.407,3.745,9.6,9.6,0,0,0,4.244.8,14.112,14.112,0,0,0,7.264-2.207,7.861,7.861,0,0,0,2.711-2.872,5.489,5.489,0,0,0,.525-4.157,3.25,3.25,0,0,0-1.7-1.858,4.063,4.063,0,0,0-2.11-.318,4.755,4.755,0,0,0-3.252,1.783,4.433,4.433,0,0,0-.84,3.363,5.91,5.91,0,0,0,.413,1.45,6.1,6.1,0,0,0,.7,1.288,7.553,7.553,0,0,0,8.231,2.976,6.856,6.856,0,0,0,4.04-3.8A10.133,10.133,0,0,0,250.953,34.008Z" transform="translate(-147.871 56.675)" fill="#003966"/>
    </g>
  </g>
</svg>
