<svg xmlns="http://www.w3.org/2000/svg" width="491.2" height="341.809" viewBox="0 0 491.2 341.809">
  <g id="Grupo_37988" data-name="Grupo 37988" transform="translate(-181.07 -158.096)">
    <g id="Grupo_37960" data-name="Grupo 37960" transform="translate(324.115 212.601)">
      <g id="Grupo_37947" data-name="Grupo 37947" transform="translate(0 0)">
        <path id="Trazado_71452" data-name="Trazado 71452" d="M765.919,564.744H592.12V314.671H785.014V548.456C785.014,557.452,776.465,564.744,765.919,564.744Z" transform="translate(-592.075 -314.671)" fill="#fff"/>
        <rect id="Rectángulo_31651" data-name="Rectángulo 31651" width="192.572" height="11.61" transform="translate(0 0)" fill="#145566"/>
      </g>
      <g id="Grupo_37949" data-name="Grupo 37949" transform="translate(45.689 134.594)">
        <g id="Grupo_37948" data-name="Grupo 37948">
          <path id="Trazado_71453" data-name="Trazado 71453" d="M821.848,704.251c2.6,0,2.6-2.936,0-2.936h-96.66c-2.6,0-2.6,2.936,0,2.936h96.66Z" transform="translate(-723.24 -701.315)" fill="#d1e7f5"/>
        </g>
      </g>
      <g id="Grupo_37950" data-name="Grupo 37950" transform="translate(41.313 19.663)">
        <path id="Trazado_71454" data-name="Trazado 71454" d="M783.972,371.155a51.13,51.13,0,0,0-38.748,17.7l38.748,33.575,38.748-33.575A51.131,51.131,0,0,0,783.972,371.155Z" transform="translate(-733.195 -371.155)" fill="#c8d6a1"/>
        <path id="Trazado_71455" data-name="Trazado 71455" d="M917.891,496.858l-50.747,7.3v51.272a51.242,51.242,0,0,0,51.272-51.272A51.814,51.814,0,0,0,917.891,496.858Z" transform="translate(-812.674 -453.1)" fill="#145566"/>
        <path id="Trazado_71456" data-name="Trazado 71456" d="M722.753,422.48a51.253,51.253,0,0,0,12.073,76.549l27.129-43.5Z" transform="translate(-710.67 -404.613)" fill="#d1e7f5"/>
        <path id="Trazado_71457" data-name="Trazado 71457" d="M805.888,568.883a51.033,51.033,0,0,1-27.717-8.142l27.723-43.128Z" transform="translate(-754.673 -466.63)" fill="#3ababa"/>
        <path id="Trazado_71458" data-name="Trazado 71458" d="M925.38,439.534a51.04,51.04,0,0,0-12-26.278l-38.748,33.575Z" transform="translate(-817.555 -398.6)" fill="#b5d6ca"/>
      </g>
      <g id="Grupo_37955" data-name="Grupo 37955" transform="translate(22.723 150.32)">
        <g id="Grupo_37951" data-name="Grupo 37951" transform="translate(0 25.583)">
          <rect id="Rectángulo_31652" data-name="Rectángulo 31652" width="18.835" height="45.368" transform="translate(0 17.567)" fill="#3ababa"/>
          <rect id="Rectángulo_31653" data-name="Rectángulo 31653" width="18.835" height="21.32" fill="#b5d6ca"/>
        </g>
        <g id="Grupo_37952" data-name="Grupo 37952" transform="translate(123.998 6.907)">
          <rect id="Rectángulo_31654" data-name="Rectángulo 31654" width="18.835" height="45.368" transform="translate(0 38.29)" fill="#3ababa"/>
          <rect id="Rectángulo_31655" data-name="Rectángulo 31655" width="18.958" height="42.042" fill="#b5d6ca"/>
        </g>
        <g id="Grupo_37953" data-name="Grupo 37953" transform="translate(82.666 37.352)">
          <rect id="Rectángulo_31656" data-name="Rectángulo 31656" width="18.835" height="47.926" transform="translate(0 4.264)" fill="#3ababa"/>
          <rect id="Rectángulo_31657" data-name="Rectángulo 31657" width="18.835" height="31.809" fill="#b5d6ca"/>
        </g>
        <g id="Grupo_37954" data-name="Grupo 37954" transform="translate(41.333)">
          <rect id="Rectángulo_31658" data-name="Rectángulo 31658" width="18.835" height="64.363" transform="translate(0 24.923)" fill="#3ababa"/>
          <rect id="Rectángulo_31659" data-name="Rectángulo 31659" width="18.835" height="51.48" fill="#b5d6ca"/>
        </g>
      </g>
      <g id="Grupo_37959" data-name="Grupo 37959" transform="translate(4.881 4.134)">
        <g id="Grupo_37956" data-name="Grupo 37956">
          <path id="Trazado_71459" data-name="Trazado 71459" d="M608.488,331.5a2.477,2.477,0,1,1,2.477-2.477A2.48,2.48,0,0,1,608.488,331.5Zm0-4.541a2.064,2.064,0,1,0,2.064,2.064A2.066,2.066,0,0,0,608.488,326.961Z" transform="translate(-606.011 -326.548)" fill="#fff"/>
        </g>
        <g id="Grupo_37957" data-name="Grupo 37957" transform="translate(7.637)">
          <path id="Trazado_71460" data-name="Trazado 71460" d="M630.427,331.5a2.477,2.477,0,1,1,2.477-2.477A2.48,2.48,0,0,1,630.427,331.5Zm0-4.541a2.064,2.064,0,1,0,2.064,2.064A2.066,2.066,0,0,0,630.427,326.961Z" transform="translate(-627.95 -326.548)" fill="#fff"/>
        </g>
        <g id="Grupo_37958" data-name="Grupo 37958" transform="translate(15.274)">
          <path id="Trazado_71461" data-name="Trazado 71461" d="M652.366,331.5a2.477,2.477,0,1,1,2.477-2.477A2.48,2.48,0,0,1,652.366,331.5Zm0-4.541a2.064,2.064,0,1,0,2.064,2.064A2.066,2.066,0,0,0,652.366,326.961Z" transform="translate(-649.889 -326.548)" fill="#fff"/>
        </g>
      </g>
    </g>
    <path id="Trazado_71462" data-name="Trazado 71462" d="M376.785,698.361H253.83V508.468H388.2V686.943A11.418,11.418,0,0,1,376.785,698.361Z" transform="translate(-47.432 -228.405)" fill="#2e4661" opacity="0.07"/>
    <g id="Grupo_37962" data-name="Grupo 37962" transform="translate(191.131 265.697)">
      <g id="Grupo_37961" data-name="Grupo 37961" transform="translate(0 0)">
        <path id="Trazado_71463" data-name="Trazado 71463" d="M338.124,666.147H209.972V467.2H354.76V649.51A16.637,16.637,0,0,1,338.124,666.147Z" transform="translate(-209.972 -467.198)" fill="#c8d6a1"/>
      </g>
      <rect id="Rectángulo_31660" data-name="Rectángulo 31660" width="117.21" height="74.118" transform="translate(15.367 15.886)" fill="#fff"/>
      <path id="Trazado_71464" data-name="Trazado 71464" d="M346.61,550.664a4.9,4.9,0,0,0,2.921,2.414c2.968,1.108,6.958.308,8.669-2.177,2.86-4.154,2.056-10.1,5.133-14.416a10.1,10.1,0,0,1,5.4-3.813,9.235,9.235,0,0,1,6.819.648c3.254,1.793,4.381,5.5,4.412,8.859a104.712,104.712,0,0,1-2,19.5c-.563,3.083-1.429,6.25-3.664,8.686-3.03,3.3-8.021,4.68-12.793,5.415-12.074,1.861-24.459.723-36.65-.419l-29.418-2.757c-2.764-.259-10.9.159-12.558-1.756-1.616-1.87-.346-8.208.6-10.164,2.1-4.357,7.861-6.815,13.264-6.538,12.187.624,7.369-12.1,11.27-18.146,2.072-3.21,6.636-5.518,10.566-4.18,3.748,1.276,5.314,5.038,7.161,8.161.959,1.621,2.322,3.3,4.372,3.652,3.485.6,6.393-2.946,9.941-2.811a5.935,5.935,0,0,1,4.8,3.156C346.08,546.235,345.649,548.726,346.61,550.664Z" transform="translate(-256.994 -509.073)" fill="#d1e7f5"/>
      <path id="Trazado_71465" data-name="Trazado 71465" d="M375.987,607.534c-.005,0,.019-5.334.02-5.628.029-7.961.028-15.922.037-23.883.009-7.607.636-15.21.513-22.8-.055-3.51-1.571-5.344-5.268-4.4a17.087,17.087,0,0,0-9.259,6.068c-1.552,2.019-2.841,4.547-5.254,5.359-4.312,1.453-7.841-3.4-11.714-5.794a12.04,12.04,0,0,0-13.715,1.024c-4.522,3.824-5.559,10.434-9.385,14.953a15.447,15.447,0,0,1-17.773,3.911c-2.428-1.128-4.515-2.885-6.909-4.085-9.492-4.759-22.689,2.088-24.264,12.589v21.728S376.178,607.726,375.987,607.534Z" transform="translate(-251.071 -521.553)" fill="#b5d6ca"/>
      <rect id="Rectángulo_31661" data-name="Rectángulo 31661" width="8.81" height="8.81" transform="translate(17.282 101.303)" fill="#eac5b0"/>
      <rect id="Rectángulo_31662" data-name="Rectángulo 31662" width="8.81" height="8.81" transform="translate(17.282 114.326)" fill="#ffd559"/>
      <rect id="Rectángulo_31663" data-name="Rectángulo 31663" width="25.664" height="2.681" transform="translate(33.37 103.984)" fill="#fff"/>
      <rect id="Rectángulo_31664" data-name="Rectángulo 31664" width="25.664" height="2.681" transform="translate(32.987 118.157)" fill="#fff"/>
      <rect id="Rectángulo_31665" data-name="Rectángulo 31665" width="111.847" height="2.897" transform="translate(18.432 138.158)" fill="#fff"/>
      <rect id="Rectángulo_31666" data-name="Rectángulo 31666" width="49.795" height="39.692" transform="translate(18.432 146.573)" fill="#fff"/>
      <rect id="Rectángulo_31667" data-name="Rectángulo 31667" width="54.391" height="17.285" transform="translate(75.887 146.956)" fill="#fff"/>
      <rect id="Rectángulo_31668" data-name="Rectángulo 31668" width="54.391" height="17.285" transform="translate(75.313 168.789)" fill="#fff"/>
    </g>
    <g id="Grupo_37964" data-name="Grupo 37964" transform="translate(181.07 183.48)">
      <path id="Trazado_71466" data-name="Trazado 71466" d="M273.218,231.015H181.708a.669.669,0,0,0-.638.7v48.477c0,11.952,8.892,21.64,19.861,21.64h37.942l15.514,21.766a.74.74,0,0,0,1.342-.418l.319-21.348h17.17a.669.669,0,0,0,.638-.7V231.711A.669.669,0,0,0,273.218,231.015Z" transform="translate(-181.07 -231.015)" fill="#fff"/>
      <g id="Grupo_37963" data-name="Grupo 37963" transform="translate(11.983 11.585)">
        <rect id="Rectángulo_31669" data-name="Rectángulo 31669" width="57.001" height="2.375" fill="#9ea6ad"/>
        <rect id="Rectángulo_31670" data-name="Rectángulo 31670" width="67.986" height="2.375" transform="translate(0 18.11)" fill="#9ea6ad"/>
        <rect id="Rectángulo_31671" data-name="Rectángulo 31671" width="67.986" height="2.375" transform="translate(0 36.22)" fill="#9ea6ad"/>
      </g>
    </g>
    <g id="Grupo_37967" data-name="Grupo 37967" transform="translate(264.882 158.096)">
      <g id="Grupo_37965" data-name="Grupo 37965" transform="translate(0)">
        <path id="Trazado_71467" data-name="Trazado 71467" d="M489.708,206.208H421.834V158.1h63.557L499,172.473v23.8C499,201.761,494.841,206.208,489.708,206.208Z" transform="translate(-421.834 -158.096)" fill="#3ababa"/>
        <path id="Trazado_71468" data-name="Trazado 71468" d="M617.77,172.587l-13.665.344V158.1Z" transform="translate(-540.655 -158.096)" fill="#ffd559"/>
      </g>
      <g id="Grupo_37966" data-name="Grupo 37966" transform="translate(11.754 12.486)">
        <rect id="Rectángulo_31672" data-name="Rectángulo 31672" width="43.3" height="2.062" transform="translate(6.859)" fill="#fff"/>
        <rect id="Rectángulo_31673" data-name="Rectángulo 31673" width="50.16" height="2.062" transform="translate(0 9.966)" fill="#fff"/>
        <rect id="Rectángulo_31674" data-name="Rectángulo 31674" width="50.16" height="2.062" transform="translate(0 19.932)" fill="#fff"/>
      </g>
    </g>
    <g id="Grupo_37971" data-name="Grupo 37971" transform="translate(468.762 238.309)">
      <g id="Grupo_37968" data-name="Grupo 37968" transform="translate(0 61.076)">
        <path id="Trazado_71469" data-name="Trazado 71469" d="M1008.22,567.1a.522.522,0,0,1-.517-.451c-.1-.705-.161-1.422-.189-2.131a.522.522,0,1,1,1.043-.041c.027.675.087,1.358.18,2.029a.522.522,0,0,1-.446.589A.549.549,0,0,1,1008.22,567.1Z" transform="translate(-1007.514 -563.974)" fill="#145566"/>
      </g>
      <g id="Grupo_37969" data-name="Grupo 37969" transform="translate(0.234 5.692)">
        <path id="Trazado_71470" data-name="Trazado 71470" d="M1008.709,457.15a.558.558,0,0,1-.079-.006.522.522,0,0,1-.438-.595,24.507,24.507,0,0,1,1.006-4.125.522.522,0,0,1,.99.333,23.479,23.479,0,0,0-.964,3.949A.522.522,0,0,1,1008.709,457.15Zm2.612-7.862a.522.522,0,0,1-.464-.762,32.825,32.825,0,0,1,2.182-3.62.522.522,0,1,1,.859.594,31.774,31.774,0,0,0-2.113,3.5A.522.522,0,0,1,1011.32,449.288Zm4.707-6.842a.522.522,0,0,1-.393-.865c.9-1.036,1.887-2.056,2.924-3.033a.522.522,0,1,1,.716.76c-1.012.953-1.972,1.949-2.853,2.959A.522.522,0,0,1,1016.027,442.446Zm6.046-5.709a.522.522,0,0,1-.323-.933c1.094-.859,2.244-1.685,3.418-2.454a.522.522,0,1,1,.572.873c-1.149.753-2.274,1.561-3.345,2.4A.52.52,0,0,1,1022.073,436.737Zm6.956-4.564a.523.523,0,0,1-.252-.98c1.214-.666,2.47-1.309,3.734-1.908a.522.522,0,0,1,.448.944c-1.246.591-2.484,1.223-3.679,1.88A.52.52,0,0,1,1029.028,432.173Zm7.517-3.569a.522.522,0,0,1-.2-1.006c1.276-.518,2.6-1.012,3.925-1.469a.522.522,0,0,1,.339.988c-1.31.45-2.612.938-3.871,1.449A.522.522,0,0,1,1036.545,428.6Zm7.867-2.71a.522.522,0,0,1-.144-1.024c1.32-.379,2.682-.736,4.051-1.059a.522.522,0,0,1,.24,1.017c-1.352.319-2.7.671-4,1.046A.521.521,0,0,1,1044.411,425.894Zm66.577-1.479-.424,0a.522.522,0,0,1-.518-.526.513.513,0,0,1,.526-.519l.416,0c1.291,0,2.536-.046,3.7-.136a.522.522,0,1,1,.081,1.041C1113.578,424.368,1112.306,424.414,1110.988,424.414Zm-4.579-.16h-.034c-1.243-.081-2.605-.2-4.166-.349a.522.522,0,0,1,.1-1.039c1.549.153,2.9.266,4.131.346a.522.522,0,0,1-.033,1.043Zm-53.9-.276a.522.522,0,0,1-.1-1.035c1.345-.255,2.733-.488,4.125-.692a.522.522,0,1,1,.152,1.033c-1.378.2-2.751.433-4.083.685A.553.553,0,0,1,1052.508,423.977Zm66.344-.246a.522.522,0,0,1-.1-1.035,28.939,28.939,0,0,0,3.948-1.049.522.522,0,1,1,.341.987,30.016,30.016,0,0,1-4.091,1.087A.543.543,0,0,1,1118.852,423.731Zm-20.73-.264a.533.533,0,0,1-.057,0l-1.239-.135q-1.443-.156-2.895-.3a.522.522,0,0,1,.1-1.039q1.456.142,2.906.3l1.24.135a.522.522,0,0,1-.056,1.041Zm-37.382-.7a.522.522,0,0,1-.055-1.041c1.358-.147,2.758-.273,4.163-.376a.522.522,0,0,1,.076,1.042c-1.392.1-2.781.227-4.127.372A.519.519,0,0,1,1060.74,422.764Zm29.1-.1-.042,0c-1.4-.112-2.792-.21-4.142-.291a.522.522,0,0,1,.063-1.043c1.358.082,2.758.181,4.163.293a.522.522,0,0,1-.041,1.043Zm-8.31-.5h-.021c-1.4-.054-2.8-.092-4.149-.112a.522.522,0,0,1-.514-.53.515.515,0,0,1,.53-.514c1.361.02,2.765.058,4.173.113a.522.522,0,0,1-.02,1.044Zm-12.485-.011a.522.522,0,0,1-.021-1.044c1.364-.056,2.769-.092,4.176-.109a.53.53,0,0,1,.528.516.522.522,0,0,1-.516.528c-1.4.016-2.792.053-4.146.108ZM1126.681,421a.522.522,0,0,1-.248-.982,26.536,26.536,0,0,0,3.427-2.208.522.522,0,1,1,.63.832,27.592,27.592,0,0,1-3.562,2.3A.525.525,0,0,1,1126.681,421Zm6.627-4.988a.522.522,0,0,1-.369-.892,35.4,35.4,0,0,0,2.723-3.064.522.522,0,0,1,.819.649,36.489,36.489,0,0,1-2.8,3.154A.52.52,0,0,1,1133.308,416.008Zm5.178-6.5a.522.522,0,0,1-.439-.8c.72-1.12,1.419-2.316,2.078-3.556a.522.522,0,1,1,.922.49c-.672,1.266-1.386,2.487-2.122,3.631A.522.522,0,0,1,1138.486,409.511Z" transform="translate(-1008.186 -404.873)" fill="#145566"/>
      </g>
      <g id="Grupo_37970" data-name="Grupo 37970" transform="translate(133.937)">
        <path id="Trazado_71471" data-name="Trazado 71471" d="M1392.793,391.49a.522.522,0,0,1-.477-.733c.274-.62.545-1.263.805-1.909a.522.522,0,0,1,.969.391c-.265.657-.54,1.309-.819,1.94A.522.522,0,0,1,1392.793,391.49Z" transform="translate(-1392.271 -388.522)" fill="#145566"/>
      </g>
    </g>
    <g id="Grupo_37972" data-name="Grupo 37972" transform="translate(585.662 198.227)">
      <path id="Trazado_71472" data-name="Trazado 71472" d="M1386.693,274.806l-2.182,49.524-16.353-17.167s18.6-33.746,18.733-33.188l-.714-.6c.551-.157-19.9,32.5-19.9,32.5l-22.951-5.947,42.219-25.979Z" transform="translate(-1343.329 -273.379)" fill="#3ababa"/>
    </g>
    <g id="Grupo_37976" data-name="Grupo 37976" transform="translate(503.601 355.986)">
      <rect id="Rectángulo_31675" data-name="Rectángulo 31675" width="96.504" height="69.766" transform="translate(0 4.048)" fill="#2e4661" opacity="0.07"/>
      <g id="Grupo_37975" data-name="Grupo 37975" transform="translate(3.297)">
        <g id="Grupo_37974" data-name="Grupo 37974">
          <g id="Grupo_37973" data-name="Grupo 37973">
            <rect id="Rectángulo_31676" data-name="Rectángulo 31676" width="97.16" height="69.973" fill="#fff"/>
            <rect id="Rectángulo_31677" data-name="Rectángulo 31677" width="97.027" height="5.57" fill="#b5d6ca"/>
          </g>
          <path id="Trazado_71473" data-name="Trazado 71473" d="M1214.655,754.8v-.216h-11.926v-11.7h-.216v11.7h-14.3v-11.7H1188v11.7h-14.3v-11.7h-.216v11.7h-14.3v-11.7h-.216v11.7h-14.3v-11.7h-.216v11.7h-14.3v-11.7h-.216v11.7h-11.908v.216h11.908v13.223h-11.908v.216h11.908v13.223h-11.908v.216h11.908V794.9h-11.908v.216h11.908v12.3h.216v-12.3h14.3v12.3h.216v-12.3h14.3v12.3h.216v-12.3h14.3v12.3h.216v-12.3H1188v12.3h.216v-12.3h14.3v12.3h.216v-12.3h11.926V794.9h-11.926V781.673h11.926v-.216h-11.926V768.234h11.926v-.216h-11.926V754.8Zm-26.655,0v13.223h-14.3V754.8Zm-28.811,13.439h14.3v13.223h-14.3Zm-.216,13.223h-14.3V768.234h14.3Zm14.729-13.223H1188v13.223h-14.3Zm-.216-13.439v13.223h-14.3V754.8Zm-14.513,0v13.223h-14.3V754.8Zm-28.811,0h14.3v13.223h-14.3Zm0,13.439h14.3v13.223h-14.3Zm0,26.662V781.673h14.3V794.9Zm14.513,0V781.673h14.3V794.9Zm14.513,0V781.673h14.3V794.9Zm14.513,0V781.673H1188V794.9Zm28.811,0h-14.3V781.673h14.3Zm0-13.439h-14.3V768.234h14.3Zm0-13.439h-14.3V754.8h14.3Z" transform="translate(-1117.7 -737.199)" fill="#272525" opacity="0.03"/>
        </g>
        <path id="Trazado_71474" data-name="Trazado 71474" d="M1211.094,768.338a2.964,2.964,0,0,0-2.081,5.075l-10.313,8.881-.784.675a2.963,2.963,0,1,0-3.469,4.794l-2.259,5.439-.963,2.319a2.949,2.949,0,0,0-3.232,1.4l-9.963-6.3-7.382-4.666a2.963,2.963,0,1,0-5.653-.495l-13.972,5.7-1.37.559a2.963,2.963,0,1,0-4.751,3.334l-2.075,2.355-9.9,11.243a2.983,2.983,0,1,0,.768.758l8.457-9.6,3.67-4.166a2.962,2.962,0,0,0,4.08-2.746c0-.04,0-.079-.006-.118l.2-.082,15.308-6.248a2.957,2.957,0,0,0,4.667.415l6.7,4.232,10.861,6.865a2.963,2.963,0,1,0,4.582-2.017l3.228-7.771a2.963,2.963,0,0,0,3.588-2.9,2.948,2.948,0,0,0-.406-1.493l1.825-1.571,7.813-6.728,1.686-1.452a2.965,2.965,0,1,0,1.152-5.7Z" transform="translate(-1124.389 -753.797)" fill="#ffd559"/>
      </g>
    </g>
    <g id="Grupo_37987" data-name="Grupo 37987" transform="translate(410.461 180.453)">
      <g id="Grupo_37985" data-name="Grupo 37985" transform="translate(0 0)">
        <g id="Grupo_37983" data-name="Grupo 37983">
          <g id="Grupo_37980" data-name="Grupo 37980">
            <g id="Grupo_37978" data-name="Grupo 37978" transform="translate(124.209 103.106)">
              <g id="Grupo_37977" data-name="Grupo 37977">
                <path id="Trazado_71475" data-name="Trazado 71475" d="M1274.444,560.071l-11.627,18.623-65.973-41.562,11.626-18.623Z" transform="translate(-1196.845 -518.51)" fill="#fff"/>
                <path id="Trazado_71476" data-name="Trazado 71476" d="M1362.587,626.279l-.134.215c-3.667,5.874-10.212,8.407-14.618,5.656l-50.641-31.084,13.308-22.381,50.748,31.976C1365.656,613.412,1366.255,620.4,1362.587,626.279Z" transform="translate(-1262.261 -557.738)" fill="#145566"/>
              </g>
              <path id="Trazado_71477" data-name="Trazado 71477" d="M1210.1,541.506l3.194,2.326,28.909-7.5-24.086-15.369Z" transform="translate(-1205.488 -520.107)" fill="#bbbcbf" opacity="0.2" style="mix-blend-mode: multiply;isolation: isolate"/>
            </g>
            <g id="Grupo_37979" data-name="Grupo 37979">
              <path id="Trazado_71478" data-name="Trazado 71478" d="M982.214,273.449a66.084,66.084,0,1,0,21.06,91.053A66.084,66.084,0,0,0,982.214,273.449Zm13.227,86.162a56.849,56.849,0,1,1-18.117-78.329A56.849,56.849,0,0,1,995.441,359.611Z" transform="translate(-866.821 -249.109)" fill="#3ababa"/>
              <circle id="Elipse_496" data-name="Elipse 496" cx="56.849" cy="56.849" r="56.849" transform="translate(0 80.397) rotate(-45)" fill="#d1e7f5" opacity="0.5"/>
            </g>
          </g>
          <g id="Grupo_37982" data-name="Grupo 37982" transform="translate(31.482 29.122)">
            <g id="Grupo_37981" data-name="Grupo 37981" opacity="0.22">
              <path id="Trazado_71479" data-name="Trazado 71479" d="M938.417,354.964a40.037,40.037,0,0,1,74.619-21.225c2.587,4.413,9.622.725,7.031-3.694a48.577,48.577,0,0,0-51.932-23.008c-20.127,4.283-34.976,21.582-37.4,41.8a43.818,43.818,0,0,0-.261,5.9c.079,5.1,8.019,5.369,7.94.231Z" transform="translate(-930.47 -305.98)" fill="#fff"/>
            </g>
            <circle id="Elipse_497" data-name="Elipse 497" cx="5.231" cy="5.231" r="5.231" transform="translate(85.793 35.463) rotate(-7.528)" fill="#fff" opacity="0.31"/>
          </g>
        </g>
        <path id="Trazado_71480" data-name="Trazado 71480" d="M1293.295,595.973l12.661-21.294a1.658,1.658,0,0,0-.438-2.18l-.222-.164a1.658,1.658,0,0,0-2.42.5l-12.469,21.442a1.658,1.658,0,0,0,.628,2.283l.029.016A1.658,1.658,0,0,0,1293.295,595.973Z" transform="translate(-1133.482 -450.279)" fill="#3ababa"/>
        <g id="Grupo_37984" data-name="Grupo 37984" transform="translate(20.343 21.529)">
          <path id="Trazado_71481" data-name="Trazado 71481" d="M1013.981,343.442a56.258,56.258,0,1,1-7.547-28.164,56.682,56.682,0,0,1,7.547,28.164,1.513,1.513,0,0,0,3.025,0,59.279,59.279,0,1,0-18.786,43.293,59.949,59.949,0,0,0,18.786-43.293A1.513,1.513,0,0,0,1013.981,343.442Z" transform="translate(-898.471 -284.168)" fill="#fff"/>
        </g>
      </g>
      <path id="Trazado_71482" data-name="Trazado 71482" d="M1354.979,605.836c2.136-5.608,5.231-16.695,7.01-22.077-3.9-13.111-11.92-35.011-12.752-35.252-4.862-1.408-9.2-2.7-14.043-4.1-.224-.065-1.646,7.186-1.869,7.122a10.336,10.336,0,0,1-.312-3.158v0l-.934-9.425a1.779,1.779,0,0,0-1.331-1.662c-2.84-.738-8.974-2.177-9.241-1.732-.1.164-.628,8.345-1.068,10.682l-1.024-.534-1.335-15.267s-10.608-2.673-10.816-2.181c-.245.579-2.6,13.531-2.6,13.531s-4.1,30.91-4.57,33.107c-.683,3.218-2.833,6.1-2.523,9.311.346,3.583,1.915,6.91,3.465,10.173l11.227,23.63c.817,5.346,1.673,17.593,2.9,22.855,13.841-2.793,27.744-4.907,43.149-9.81C1358.748,630.914,1354.059,608.254,1354.979,605.836Z" transform="translate(-1138.277 -421.718)" fill="#edd0b3"/>
      <g id="Grupo_37986" data-name="Grupo 37986" transform="translate(165.035 190.682)">
        <path id="Trazado_71483" data-name="Trazado 71483" d="M1331.259,818.674l-3.2-28.1,55.336-20.491,9.62,34.253-61.572,18.382Z" transform="translate(-1323.212 -770.088)" fill="#efefef"/>
        <path id="Trazado_71484" data-name="Trazado 71484" d="M1386.061,817.74s-56.917,32.525-68.686,35.606l-3.25,76.576H1410.9Z" transform="translate(-1314.125 -801.152)" fill="#145566"/>
        <path id="Trazado_71485" data-name="Trazado 71485" d="M1350.226,854.378a3.155,3.155,0,1,1-2.241-3.858A3.155,3.155,0,0,1,1350.226,854.378Z" transform="translate(-1333.614 -822.451)" fill="#59595b"/>
      </g>
      <path id="Trazado_71486" data-name="Trazado 71486" d="M1254.1,640.054l-7.382-11.64-10.685-9.95s-2.076-6,4.619-6.165,11.2,5.432,14.166,9.875c1.3,1.954,7.6,7.641,12.493,11.12,6.4,4.551-.286,24.591-.286,24.591S1254.842,641.164,1254.1,640.054Z" transform="translate(-1097.984 -476.542)" fill="#edd0b3"/>
    </g>
  </g>
</svg>
