<svg xmlns="http://www.w3.org/2000/svg" width="594.805" height="141.192" viewBox="0 0 594.805 141.192">
  <g id="Grupo_43265" data-name="Grupo 43265" transform="translate(-378.703 -2240.597)">
    <path id="Trazado_112846" data-name="Trazado 112846" d="M6.812.737a5.291,5.291,0,0,1,3.806,1.292,4.563,4.563,0,0,1,1.5,2.936H10.415A3.549,3.549,0,0,0,9.259,2.987a3.663,3.663,0,0,0-2.43-.729A3.9,3.9,0,0,0,3.749,3.6,6.11,6.11,0,0,0,2.575,7.707a5.968,5.968,0,0,0,1.059,3.678A3.7,3.7,0,0,0,6.794,12.8a3.338,3.338,0,0,0,2.944-1.485,5.649,5.649,0,0,0,.8-2.057h1.705a5.826,5.826,0,0,1-1.512,3.419,5.379,5.379,0,0,1-4.148,1.661A5.475,5.475,0,0,1,2.8,12.972Q.791,11.17.791,7.408A7.107,7.107,0,0,1,2.3,2.724,5.522,5.522,0,0,1,6.812.737ZM17.895,12.98a2.182,2.182,0,0,0,2.158-1.191,5.933,5.933,0,0,0,.584-2.65A4.718,4.718,0,0,0,20.215,7a2.373,2.373,0,0,0-2.3-1.3A2.271,2.271,0,0,0,15.8,6.8a5.133,5.133,0,0,0-.659,2.672,4.465,4.465,0,0,0,.659,2.5A2.322,2.322,0,0,0,17.895,12.98Zm.062-8.666a4.262,4.262,0,0,1,3.076,1.213A4.736,4.736,0,0,1,22.289,9.1a6.122,6.122,0,0,1-1.107,3.762,4.006,4.006,0,0,1-3.437,1.485,3.88,3.88,0,0,1-3.085-1.314A5.19,5.19,0,0,1,13.518,9.5a5.615,5.615,0,0,1,1.2-3.779A4.041,4.041,0,0,1,17.956,4.314Zm6.214.272h1.5V5.923a4.215,4.215,0,0,1,1.415-1.187,3.773,3.773,0,0,1,1.661-.36,2.739,2.739,0,0,1,2.707,1.4,4.962,4.962,0,0,1,.387,2.188V14H30.234V8.067a3.212,3.212,0,0,0-.255-1.389A1.545,1.545,0,0,0,28.45,5.8a3.114,3.114,0,0,0-.923.114,2.377,2.377,0,0,0-1.143.773,2.329,2.329,0,0,0-.514.962,6.478,6.478,0,0,0-.119,1.419V14H24.17ZM34.576,3.154a2.821,2.821,0,0,1,.343-1.441A2.423,2.423,0,0,1,37.055.9q.149,0,.308.009t.36.026V2.381q-.246-.018-.356-.022t-.207,0q-.721,0-.861.374a7.385,7.385,0,0,0-.141,1.9h1.564V5.879H36.141V14H34.576V5.879h-1.31V4.631h1.31Zm4.667-.272V1.089h1.582V2.882Zm0,1.749h1.582V14H39.243Zm5.15,6.864a1.3,1.3,0,0,0,.5,1.081,1.857,1.857,0,0,0,1.187.4,3.608,3.608,0,0,0,1.617-.387,2.176,2.176,0,0,0,1.318-2.1V9.21a2.707,2.707,0,0,1-.747.308,6.366,6.366,0,0,1-.9.176l-.958.123a3.664,3.664,0,0,0-1.292.36A1.4,1.4,0,0,0,44.394,11.5Zm3.832-3.2a.859.859,0,0,0,.729-.457,1.391,1.391,0,0,0,.105-.606,1.285,1.285,0,0,0-.576-1.173,3.089,3.089,0,0,0-1.648-.365,2.094,2.094,0,0,0-1.758.668,2.2,2.2,0,0,0-.378,1.1H43.225A2.718,2.718,0,0,1,44.354,5.04a4.637,4.637,0,0,1,2.518-.681,5.124,5.124,0,0,1,2.7.633A2.147,2.147,0,0,1,50.6,6.96v5.423a.694.694,0,0,0,.1.4.487.487,0,0,0,.426.149q.105,0,.237-.013t.281-.04v1.169a4.406,4.406,0,0,1-.562.132,4.111,4.111,0,0,1-.527.026,1.3,1.3,0,0,1-1.187-.58,2.239,2.239,0,0,1-.272-.87,4.025,4.025,0,0,1-1.389,1.1,4.3,4.3,0,0,1-2,.466,2.967,2.967,0,0,1-2.14-.8,2.642,2.642,0,0,1-.831-1.991,2.564,2.564,0,0,1,.817-2.03A3.889,3.889,0,0,1,45.7,8.612Zm4.843-7.251h1.538V5.729a3.447,3.447,0,0,1,2.8-1.389,3.667,3.667,0,0,1,2.852,1.208,5.148,5.148,0,0,1,1.094,3.564,6.112,6.112,0,0,1-1.081,3.709,3.507,3.507,0,0,1-3,1.477,3.071,3.071,0,0,1-1.811-.519,4.372,4.372,0,0,1-.94-.984V14H53.068ZM57.182,12.9a2.114,2.114,0,0,0,1.92-1.02,5.02,5.02,0,0,0,.637-2.689A4.414,4.414,0,0,0,59.1,6.731a2.1,2.1,0,0,0-1.876-.976,2.617,2.617,0,0,0-1.894.8,3.592,3.592,0,0,0-.813,2.637,5.827,5.827,0,0,0,.334,2.153A2.308,2.308,0,0,0,57.182,12.9ZM63.2,4.631h1.608V14H63.2Zm0-3.542h1.608V2.882H63.2Zm4.043,0h1.582V14H67.245ZM71.2,4.631h1.608V14H71.2Zm0-3.542h1.608V2.882H71.2Zm5,8.314a4.666,4.666,0,0,0,.642,2.531,2.248,2.248,0,0,0,2.057,1.02,2.166,2.166,0,0,0,1.806-.945A4.462,4.462,0,0,0,81.413,9.3a4.009,4.009,0,0,0-.729-2.641,2.276,2.276,0,0,0-1.8-.857,2.378,2.378,0,0,0-1.938.914A4.186,4.186,0,0,0,76.2,9.4ZM78.583,4.42a3.349,3.349,0,0,1,1.811.457,4.253,4.253,0,0,1,.958.923V1.045h1.521V14H81.448V12.69a3.423,3.423,0,0,1-1.31,1.257,3.748,3.748,0,0,1-1.731.387,3.506,3.506,0,0,1-2.725-1.323,5.172,5.172,0,0,1-1.151-3.52,6.076,6.076,0,0,1,1.05-3.564A3.439,3.439,0,0,1,78.583,4.42Zm7.84,7.075a1.3,1.3,0,0,0,.5,1.081,1.857,1.857,0,0,0,1.187.4,3.608,3.608,0,0,0,1.617-.387,2.176,2.176,0,0,0,1.318-2.1V9.21a2.707,2.707,0,0,1-.747.308,6.366,6.366,0,0,1-.9.176l-.958.123a3.664,3.664,0,0,0-1.292.36A1.4,1.4,0,0,0,86.423,11.5Zm3.832-3.2a.859.859,0,0,0,.729-.457,1.391,1.391,0,0,0,.105-.606,1.285,1.285,0,0,0-.576-1.173,3.089,3.089,0,0,0-1.648-.365,2.094,2.094,0,0,0-1.758.668,2.2,2.2,0,0,0-.378,1.1H85.254A2.718,2.718,0,0,1,86.383,5.04,4.637,4.637,0,0,1,88.9,4.358a5.124,5.124,0,0,1,2.7.633A2.147,2.147,0,0,1,92.628,6.96v5.423a.694.694,0,0,0,.1.4.487.487,0,0,0,.426.149q.105,0,.237-.013t.281-.04v1.169a4.406,4.406,0,0,1-.562.132,4.111,4.111,0,0,1-.527.026,1.3,1.3,0,0,1-1.187-.58,2.239,2.239,0,0,1-.272-.87,4.025,4.025,0,0,1-1.389,1.1,4.3,4.3,0,0,1-2,.466,2.967,2.967,0,0,1-2.14-.8,2.642,2.642,0,0,1-.831-1.991,2.564,2.564,0,0,1,.817-2.03,3.889,3.889,0,0,1,2.145-.888ZM96.223,9.4a4.666,4.666,0,0,0,.642,2.531,2.248,2.248,0,0,0,2.057,1.02,2.166,2.166,0,0,0,1.806-.945,4.462,4.462,0,0,0,.708-2.711,4.009,4.009,0,0,0-.729-2.641A2.276,2.276,0,0,0,98.9,5.8a2.378,2.378,0,0,0-1.938.914A4.186,4.186,0,0,0,96.223,9.4ZM98.6,4.42a3.349,3.349,0,0,1,1.811.457,4.253,4.253,0,0,1,.958.923V1.045h1.521V14H101.47V12.69a3.423,3.423,0,0,1-1.31,1.257,3.748,3.748,0,0,1-1.731.387A3.506,3.506,0,0,1,95.7,13.011a5.172,5.172,0,0,1-1.151-3.52A6.076,6.076,0,0,1,95.6,5.927,3.439,3.439,0,0,1,98.6,4.42Zm7,7.664h1.837V14h-1.837Z" transform="translate(378 2241.5)" fill="#00223d"/>
    <path id="Trazado_112847" data-name="Trazado 112847" d="M6.943.737a5.911,5.911,0,0,1,5.063,2.2A7.121,7.121,0,0,1,13.289,7.32a7.675,7.675,0,0,1-1.468,4.808,5.821,5.821,0,0,1-4.913,2.25,5.872,5.872,0,0,1-4.685-1.969A7.434,7.434,0,0,1,.7,7.61,7.633,7.633,0,0,1,2,3.128,5.635,5.635,0,0,1,6.943.737Zm.176,12.076a3.641,3.641,0,0,0,3.344-1.657A7.052,7.052,0,0,0,11.5,7.347a5.435,5.435,0,0,0-1.191-3.665A4.065,4.065,0,0,0,7.049,2.293a4.24,4.24,0,0,0-3.27,1.375A5.8,5.8,0,0,0,2.514,7.725,5.926,5.926,0,0,0,3.6,11.341,4.082,4.082,0,0,0,7.119,12.813Zm12.015.123a2.257,2.257,0,0,0,1.841-.927,4.413,4.413,0,0,0,.734-2.773A5.176,5.176,0,0,0,21.384,7.3a2.244,2.244,0,0,0-2.25-1.556,2.244,2.244,0,0,0-2.25,1.644,6.514,6.514,0,0,0-.325,2.232,4.732,4.732,0,0,0,.325,1.854A2.243,2.243,0,0,0,19.134,12.937Zm-4.1-8.306h1.538V5.879a3.84,3.84,0,0,1,1.037-.993,3.338,3.338,0,0,1,1.881-.527A3.537,3.537,0,0,1,22.21,5.584a5.023,5.023,0,0,1,1.116,3.5q0,3.076-1.608,4.395a3.634,3.634,0,0,1-2.373.835,3.221,3.221,0,0,1-1.784-.466,4.111,4.111,0,0,1-.94-.905v4.808H15.038Zm13.869,8.35a2.182,2.182,0,0,0,2.158-1.191,5.933,5.933,0,0,0,.584-2.65A4.718,4.718,0,0,0,31.228,7a2.373,2.373,0,0,0-2.3-1.3A2.271,2.271,0,0,0,26.815,6.8a5.133,5.133,0,0,0-.659,2.672,4.465,4.465,0,0,0,.659,2.5A2.322,2.322,0,0,0,28.907,12.98Zm.062-8.666a4.262,4.262,0,0,1,3.076,1.213A4.736,4.736,0,0,1,33.3,9.1a6.122,6.122,0,0,1-1.107,3.762,4.006,4.006,0,0,1-3.437,1.485,3.88,3.88,0,0,1-3.085-1.314A5.19,5.19,0,0,1,24.53,9.5a5.615,5.615,0,0,1,1.2-3.779A4.041,4.041,0,0,1,28.969,4.314Zm6.258.272h1.5V6.213a3.592,3.592,0,0,1,.905-1.156A2.347,2.347,0,0,1,39.3,4.376q.044,0,.149.009t.36.035V6.09a2.363,2.363,0,0,0-.259-.035q-.119-.009-.259-.009a2.258,2.258,0,0,0-1.837.769,2.684,2.684,0,0,0-.642,1.771V14H35.227Zm6.267-2.628h1.6V4.587h1.5V5.879h-1.5v6.144a.665.665,0,0,0,.334.659,1.42,1.42,0,0,0,.615.1q.114,0,.246,0t.308-.022V14a3.532,3.532,0,0,1-.567.114,5.39,5.39,0,0,1-.637.035,1.717,1.717,0,0,1-1.5-.567,2.519,2.519,0,0,1-.4-1.472V5.879H40.219V4.587h1.274ZM47.76,4.587v6.249a2.635,2.635,0,0,0,.229,1.178,1.6,1.6,0,0,0,1.573.844,2.224,2.224,0,0,0,2.25-1.477,5.858,5.858,0,0,0,.325-2.171V4.587h1.582V14H52.225l.018-1.389a3.191,3.191,0,0,1-.765.905,3.365,3.365,0,0,1-2.2.738,2.834,2.834,0,0,1-2.742-1.345,4,4,0,0,1-.4-1.925v-6.4Zm8.429,0h1.5V5.923a4.215,4.215,0,0,1,1.415-1.187,3.773,3.773,0,0,1,1.661-.36,2.739,2.739,0,0,1,2.707,1.4,4.962,4.962,0,0,1,.387,2.188V14H62.253V8.067A3.212,3.212,0,0,0,62,6.679,1.545,1.545,0,0,0,60.469,5.8a3.114,3.114,0,0,0-.923.114,2.377,2.377,0,0,0-1.143.773,2.329,2.329,0,0,0-.514.962,6.478,6.478,0,0,0-.119,1.419V14H56.188ZM66.2,4.631h1.608V14H66.2Zm0-3.542h1.608V2.882H66.2Zm5,8.314a4.666,4.666,0,0,0,.642,2.531,2.248,2.248,0,0,0,2.057,1.02,2.166,2.166,0,0,0,1.806-.945A4.462,4.462,0,0,0,76.412,9.3a4.009,4.009,0,0,0-.729-2.641,2.276,2.276,0,0,0-1.8-.857,2.378,2.378,0,0,0-1.938.914A4.186,4.186,0,0,0,71.2,9.4ZM73.582,4.42a3.349,3.349,0,0,1,1.811.457,4.253,4.253,0,0,1,.958.923V1.045h1.521V14H76.447V12.69a3.423,3.423,0,0,1-1.31,1.257,3.748,3.748,0,0,1-1.731.387,3.506,3.506,0,0,1-2.725-1.323,5.172,5.172,0,0,1-1.151-3.52,6.076,6.076,0,0,1,1.05-3.564A3.439,3.439,0,0,1,73.582,4.42Zm7.84,7.075a1.3,1.3,0,0,0,.5,1.081,1.857,1.857,0,0,0,1.187.4,3.608,3.608,0,0,0,1.617-.387,2.176,2.176,0,0,0,1.318-2.1V9.21a2.707,2.707,0,0,1-.747.308,6.366,6.366,0,0,1-.9.176l-.958.123a3.664,3.664,0,0,0-1.292.36A1.4,1.4,0,0,0,81.422,11.5Zm3.832-3.2a.859.859,0,0,0,.729-.457,1.391,1.391,0,0,0,.105-.606,1.285,1.285,0,0,0-.576-1.173,3.089,3.089,0,0,0-1.648-.365,2.094,2.094,0,0,0-1.758.668,2.2,2.2,0,0,0-.378,1.1H80.253A2.718,2.718,0,0,1,81.382,5.04,4.637,4.637,0,0,1,83.9,4.358a5.124,5.124,0,0,1,2.7.633A2.147,2.147,0,0,1,87.627,6.96v5.423a.694.694,0,0,0,.1.4.487.487,0,0,0,.426.149q.105,0,.237-.013t.281-.04v1.169a4.406,4.406,0,0,1-.562.132,4.111,4.111,0,0,1-.527.026,1.3,1.3,0,0,1-1.187-.58,2.239,2.239,0,0,1-.272-.87,4.025,4.025,0,0,1-1.389,1.1,4.3,4.3,0,0,1-2,.466,2.967,2.967,0,0,1-2.14-.8,2.642,2.642,0,0,1-.831-1.991,2.564,2.564,0,0,1,.817-2.03,3.889,3.889,0,0,1,2.145-.888ZM91.222,9.4a4.666,4.666,0,0,0,.642,2.531,2.248,2.248,0,0,0,2.057,1.02,2.166,2.166,0,0,0,1.806-.945A4.462,4.462,0,0,0,96.434,9.3,4.009,4.009,0,0,0,95.7,6.657,2.276,2.276,0,0,0,93.9,5.8a2.378,2.378,0,0,0-1.938.914A4.186,4.186,0,0,0,91.222,9.4ZM93.6,4.42a3.349,3.349,0,0,1,1.811.457,4.253,4.253,0,0,1,.958.923V1.045h1.521V14H96.469V12.69a3.423,3.423,0,0,1-1.31,1.257,3.748,3.748,0,0,1-1.731.387A3.506,3.506,0,0,1,90.7,13.011a5.172,5.172,0,0,1-1.151-3.52A6.076,6.076,0,0,1,90.6,5.927,3.439,3.439,0,0,1,93.6,4.42Zm7,7.664h1.837V14h-1.837Z" transform="translate(378 2322.5)" fill="#00223d"/>
    <path id="Trazado_112848" data-name="Trazado 112848" d="M1.538,1.089h5.81a3.938,3.938,0,0,1,2.777.971A3.524,3.524,0,0,1,11.18,4.789a3.968,3.968,0,0,1-.94,2.632A3.563,3.563,0,0,1,7.348,8.542H3.287V14H1.538ZM9.413,4.8A1.943,1.943,0,0,0,8.358,2.864a3.808,3.808,0,0,0-1.591-.272H3.287V7.065h3.48a3.326,3.326,0,0,0,1.912-.5A1.985,1.985,0,0,0,9.413,4.8Zm3.8-.211h1.5V6.213a3.592,3.592,0,0,1,.905-1.156,2.347,2.347,0,0,1,1.661-.681q.044,0,.149.009t.36.035V6.09a2.363,2.363,0,0,0-.259-.035q-.119-.009-.259-.009a2.258,2.258,0,0,0-1.837.769,2.684,2.684,0,0,0-.642,1.771V14H13.21Zm9.87-.211a4.294,4.294,0,0,1,1.942.47,3.582,3.582,0,0,1,1.433,1.217,4.2,4.2,0,0,1,.633,1.661A10.868,10.868,0,0,1,27.229,9.8h-6.9a4.026,4.026,0,0,0,.677,2.3,2.266,2.266,0,0,0,1.96.866,2.534,2.534,0,0,0,1.978-.817,2.755,2.755,0,0,0,.6-1.1H27.1a3.276,3.276,0,0,1-.409,1.156,4.111,4.111,0,0,1-.778,1.042,3.687,3.687,0,0,1-1.784.949,5.42,5.42,0,0,1-1.292.141,3.964,3.964,0,0,1-2.979-1.279,4.976,4.976,0,0,1-1.222-3.582,5.41,5.41,0,0,1,1.23-3.683A4.059,4.059,0,0,1,23.08,4.376ZM25.6,8.542A4.1,4.1,0,0,0,25.154,6.9a2.3,2.3,0,0,0-2.171-1.143,2.406,2.406,0,0,0-1.828.787,2.972,2.972,0,0,0-.782,2Zm7.2-4.228a4.1,4.1,0,0,1,2.588.773,3.705,3.705,0,0,1,1.2,2.663H35.051a2.839,2.839,0,0,0-.642-1.446A2.027,2.027,0,0,0,32.8,5.729a2.222,2.222,0,0,0-2.162,1.477,5.865,5.865,0,0,0-.422,2.364,4.449,4.449,0,0,0,.6,2.382,2.317,2.317,0,0,0,3.441.365,3.311,3.311,0,0,0,.8-1.648h1.538a4.129,4.129,0,0,1-1.318,2.738,4.113,4.113,0,0,1-2.7.866,3.6,3.6,0,0,1-2.944-1.349,5.164,5.164,0,0,1-1.1-3.371,5.678,5.678,0,0,1,1.2-3.858A3.891,3.891,0,0,1,32.8,4.314Zm5.37.316h1.608V14H38.171Zm0-3.542h1.608V2.882H38.171Zm4.939,9.958a2.3,2.3,0,0,0,.4,1.213,2.485,2.485,0,0,0,2.074.765,3.059,3.059,0,0,0,1.547-.382,1.27,1.27,0,0,0,.668-1.182,1.011,1.011,0,0,0-.536-.923,6.374,6.374,0,0,0-1.354-.448l-1.257-.316A6.131,6.131,0,0,1,42.873,9.1a2,2,0,0,1-1.02-1.775,2.713,2.713,0,0,1,.962-2.162A3.839,3.839,0,0,1,45.4,4.341a3.593,3.593,0,0,1,3.067,1.248,2.708,2.708,0,0,1,.571,1.705H47.549a1.83,1.83,0,0,0-.378-.976,2.41,2.41,0,0,0-1.89-.624,2.259,2.259,0,0,0-1.358.343,1.074,1.074,0,0,0-.461.905,1.114,1.114,0,0,0,.606.984,3.644,3.644,0,0,0,1.037.387l1.046.255a8.087,8.087,0,0,1,2.285.8,2.118,2.118,0,0,1,.923,1.907,2.906,2.906,0,0,1-.954,2.171,4.059,4.059,0,0,1-2.9.914,3.9,3.9,0,0,1-2.975-.954,3.606,3.606,0,0,1-.936-2.36Zm8.06-6.416h1.608V14H51.17Zm0-3.542h1.608V2.882H51.17ZM58.9,12.98a2.182,2.182,0,0,0,2.158-1.191,5.933,5.933,0,0,0,.584-2.65A4.718,4.718,0,0,0,61.225,7a2.373,2.373,0,0,0-2.3-1.3A2.271,2.271,0,0,0,56.813,6.8a5.133,5.133,0,0,0-.659,2.672,4.465,4.465,0,0,0,.659,2.5A2.322,2.322,0,0,0,58.9,12.98Zm.062-8.666a4.262,4.262,0,0,1,3.076,1.213A4.736,4.736,0,0,1,63.3,9.1a6.122,6.122,0,0,1-1.107,3.762,4.006,4.006,0,0,1-3.437,1.485,3.88,3.88,0,0,1-3.085-1.314A5.19,5.19,0,0,1,54.527,9.5a5.615,5.615,0,0,1,1.2-3.779A4.041,4.041,0,0,1,58.966,4.314ZM60.8.8l-2.347,2.54H57.243L58.852.8ZM65.18,4.587h1.5V5.923A4.215,4.215,0,0,1,68.1,4.736a3.773,3.773,0,0,1,1.661-.36,2.739,2.739,0,0,1,2.707,1.4,4.962,4.962,0,0,1,.387,2.188V14H71.244V8.067a3.212,3.212,0,0,0-.255-1.389A1.545,1.545,0,0,0,69.46,5.8a3.114,3.114,0,0,0-.923.114,2.377,2.377,0,0,0-1.143.773,2.329,2.329,0,0,0-.514.962,6.478,6.478,0,0,0-.119,1.419V14H65.18Zm10.345,11.25a1.109,1.109,0,0,0,.853-.853,2.413,2.413,0,0,0,.132-.765q0-.062,0-.11a.605.605,0,0,0-.022-.11h-.958V12.084h1.881v1.775a3.846,3.846,0,0,1-.422,1.837,1.922,1.922,0,0,1-1.459.976Zm10.608-4.79a2.3,2.3,0,0,0,.4,1.213,2.485,2.485,0,0,0,2.074.765,3.059,3.059,0,0,0,1.547-.382,1.27,1.27,0,0,0,.668-1.182,1.011,1.011,0,0,0-.536-.923,6.374,6.374,0,0,0-1.354-.448l-1.257-.316A6.131,6.131,0,0,1,85.9,9.1a2,2,0,0,1-1.02-1.775,2.713,2.713,0,0,1,.962-2.162,3.839,3.839,0,0,1,2.588-.826,3.593,3.593,0,0,1,3.067,1.248,2.708,2.708,0,0,1,.571,1.705H90.571a1.83,1.83,0,0,0-.378-.976,2.41,2.41,0,0,0-1.89-.624,2.259,2.259,0,0,0-1.358.343,1.074,1.074,0,0,0-.461.905,1.114,1.114,0,0,0,.606.984,3.644,3.644,0,0,0,1.037.387l1.046.255a8.087,8.087,0,0,1,2.285.8,2.118,2.118,0,0,1,.923,1.907,2.906,2.906,0,0,1-.954,2.171,4.059,4.059,0,0,1-2.9.914,3.9,3.9,0,0,1-2.975-.954,3.606,3.606,0,0,1-.936-2.36Zm8.06-6.416H95.8V14H94.192Zm0-3.542H95.8V2.882H94.192Zm4,3.5h1.5V5.923a4.215,4.215,0,0,1,1.415-1.187,3.773,3.773,0,0,1,1.661-.36,2.739,2.739,0,0,1,2.707,1.4,4.962,4.962,0,0,1,.387,2.188V14h-1.608V8.067A3.212,3.212,0,0,0,104,6.679a1.545,1.545,0,0,0-1.529-.879,3.114,3.114,0,0,0-.923.114,2.377,2.377,0,0,0-1.143.773,2.329,2.329,0,0,0-.514.962,6.478,6.478,0,0,0-.119,1.419V14H98.191ZM114.416,11.5a1.3,1.3,0,0,0,.5,1.081,1.857,1.857,0,0,0,1.187.4,3.608,3.608,0,0,0,1.617-.387,2.176,2.176,0,0,0,1.318-2.1V9.21a2.707,2.707,0,0,1-.747.308,6.366,6.366,0,0,1-.9.176l-.958.123a3.664,3.664,0,0,0-1.292.36A1.4,1.4,0,0,0,114.416,11.5Zm3.832-3.2a.859.859,0,0,0,.729-.457,1.391,1.391,0,0,0,.105-.606,1.285,1.285,0,0,0-.576-1.173,3.089,3.089,0,0,0-1.648-.365,2.094,2.094,0,0,0-1.758.668,2.2,2.2,0,0,0-.378,1.1h-1.477a2.718,2.718,0,0,1,1.129-2.421,4.637,4.637,0,0,1,2.518-.681,5.124,5.124,0,0,1,2.7.633,2.147,2.147,0,0,1,1.028,1.969v5.423a.694.694,0,0,0,.1.4.487.487,0,0,0,.426.149q.105,0,.237-.013t.281-.04v1.169a4.406,4.406,0,0,1-.562.132,4.111,4.111,0,0,1-.527.026,1.3,1.3,0,0,1-1.187-.58,2.239,2.239,0,0,1-.272-.87,4.025,4.025,0,0,1-1.389,1.1,4.3,4.3,0,0,1-2,.466,2.967,2.967,0,0,1-2.14-.8,2.642,2.642,0,0,1-.831-1.991,2.564,2.564,0,0,1,.817-2.03,3.889,3.889,0,0,1,2.145-.888Zm4.966-3.709h1.564V5.923a5.258,5.258,0,0,1,1.02-1.011,3.066,3.066,0,0,1,1.775-.536,2.794,2.794,0,0,1,1.811.554,2.894,2.894,0,0,1,.7.932,3.419,3.419,0,0,1,1.239-1.121,3.457,3.457,0,0,1,1.6-.365,2.616,2.616,0,0,1,2.584,1.371,4.482,4.482,0,0,1,.369,1.986V14h-1.644V7.461a1.523,1.523,0,0,0-.47-1.292,1.861,1.861,0,0,0-1.147-.352,2.277,2.277,0,0,0-1.6.624,2.74,2.74,0,0,0-.672,2.083V14h-1.608V7.856a3.192,3.192,0,0,0-.229-1.4A1.394,1.394,0,0,0,127.16,5.8a2.32,2.32,0,0,0-1.63.694,3.4,3.4,0,0,0-.734,2.514V14h-1.582Zm14.871-3.542h1.538V5.729a3.447,3.447,0,0,1,2.8-1.389,3.667,3.667,0,0,1,2.852,1.208,5.148,5.148,0,0,1,1.094,3.564,6.112,6.112,0,0,1-1.081,3.709,3.507,3.507,0,0,1-3,1.477,3.071,3.071,0,0,1-1.811-.519,4.372,4.372,0,0,1-.94-.984V14h-1.459ZM142.2,12.9a2.114,2.114,0,0,0,1.92-1.02,5.02,5.02,0,0,0,.637-2.689,4.414,4.414,0,0,0-.637-2.461,2.1,2.1,0,0,0-1.876-.976,2.617,2.617,0,0,0-1.894.8,3.592,3.592,0,0,0-.813,2.637,5.827,5.827,0,0,0,.334,2.153A2.308,2.308,0,0,0,142.2,12.9Zm6.021-8.271h1.608V14h-1.608Zm0-3.542h1.608V2.882h-1.608ZM155.54,4.42a3.431,3.431,0,0,1,1.934.545,4.343,4.343,0,0,1,.914.9V4.675h1.459v8.561a6.313,6.313,0,0,1-.527,2.83,3.786,3.786,0,0,1-3.718,1.916,4.56,4.56,0,0,1-2.558-.681,2.656,2.656,0,0,1-1.16-2.131h1.608a1.79,1.79,0,0,0,.457.976,2.893,2.893,0,0,0,4.069-.756,7.227,7.227,0,0,0,.308-2.7,3.1,3.1,0,0,1-1.143,1.072,4.1,4.1,0,0,1-4.443-.734,4.774,4.774,0,0,1-1.147-3.59,5.437,5.437,0,0,1,1.156-3.691A3.574,3.574,0,0,1,155.54,4.42Zm2.848,4.834a3.924,3.924,0,0,0-.721-2.593,2.309,2.309,0,0,0-1.837-.844,2.268,2.268,0,0,0-2.285,1.564,6.134,6.134,0,0,0-.325,2.188,3.885,3.885,0,0,0,.646,2.421,2.085,2.085,0,0,0,1.736.831,2.437,2.437,0,0,0,2.4-1.538A4.961,4.961,0,0,0,158.388,9.254Zm5.423-4.667v6.249a2.635,2.635,0,0,0,.229,1.178,1.6,1.6,0,0,0,1.573.844,2.224,2.224,0,0,0,2.25-1.477,5.858,5.858,0,0,0,.325-2.171V4.587h1.582V14h-1.494l.018-1.389a3.191,3.191,0,0,1-.765.905,3.365,3.365,0,0,1-2.2.738,2.834,2.834,0,0,1-2.742-1.345,4,4,0,0,1-.4-1.925v-6.4ZM166.72,1.3h1.644V3.128H166.72Zm-2.9,0h1.644V3.128h-1.644Zm12.34,3.076a4.294,4.294,0,0,1,1.942.47,3.582,3.582,0,0,1,1.433,1.217,4.2,4.2,0,0,1,.633,1.661,10.868,10.868,0,0,1,.141,2.074h-6.9a4.026,4.026,0,0,0,.677,2.3,2.266,2.266,0,0,0,1.96.866,2.534,2.534,0,0,0,1.978-.817,2.755,2.755,0,0,0,.6-1.1h1.556a3.276,3.276,0,0,1-.409,1.156,4.111,4.111,0,0,1-.778,1.042,3.687,3.687,0,0,1-1.784.949,5.42,5.42,0,0,1-1.292.141,3.964,3.964,0,0,1-2.979-1.279,4.976,4.976,0,0,1-1.222-3.582,5.41,5.41,0,0,1,1.23-3.683A4.059,4.059,0,0,1,176.159,4.376Zm2.522,4.166a4.1,4.1,0,0,0-.448-1.644,2.3,2.3,0,0,0-2.171-1.143,2.406,2.406,0,0,0-1.828.787,2.972,2.972,0,0,0-.782,2Zm4.57.861a4.666,4.666,0,0,0,.642,2.531,2.248,2.248,0,0,0,2.057,1.02,2.166,2.166,0,0,0,1.806-.945,4.462,4.462,0,0,0,.708-2.711,4.009,4.009,0,0,0-.729-2.641,2.276,2.276,0,0,0-1.8-.857,2.378,2.378,0,0,0-1.938.914A4.186,4.186,0,0,0,183.252,9.4Zm2.382-4.983a3.349,3.349,0,0,1,1.811.457,4.253,4.253,0,0,1,.958.923V1.045h1.521V14H188.5V12.69a3.423,3.423,0,0,1-1.31,1.257,3.748,3.748,0,0,1-1.731.387,3.506,3.506,0,0,1-2.725-1.323,5.172,5.172,0,0,1-1.151-3.52,6.076,6.076,0,0,1,1.05-3.564A3.439,3.439,0,0,1,185.634,4.42Zm7.84,7.075a1.3,1.3,0,0,0,.5,1.081,1.857,1.857,0,0,0,1.187.4,3.608,3.608,0,0,0,1.617-.387,2.176,2.176,0,0,0,1.318-2.1V9.21a2.707,2.707,0,0,1-.747.308,6.366,6.366,0,0,1-.9.176l-.958.123a3.664,3.664,0,0,0-1.292.36A1.4,1.4,0,0,0,193.474,11.5Zm3.832-3.2a.859.859,0,0,0,.729-.457,1.391,1.391,0,0,0,.105-.606,1.285,1.285,0,0,0-.576-1.173,3.089,3.089,0,0,0-1.648-.365,2.094,2.094,0,0,0-1.758.668,2.2,2.2,0,0,0-.378,1.1H192.3a2.718,2.718,0,0,1,1.129-2.421,4.637,4.637,0,0,1,2.518-.681,5.124,5.124,0,0,1,2.7.633,2.147,2.147,0,0,1,1.028,1.969v5.423a.694.694,0,0,0,.1.4.487.487,0,0,0,.426.149q.105,0,.237-.013t.281-.04v1.169a4.406,4.406,0,0,1-.562.132,4.111,4.111,0,0,1-.527.026,1.3,1.3,0,0,1-1.187-.58,2.239,2.239,0,0,1-.272-.87,4.025,4.025,0,0,1-1.389,1.1,4.3,4.3,0,0,1-2,.466,2.967,2.967,0,0,1-2.14-.8,2.642,2.642,0,0,1-.831-1.991,2.564,2.564,0,0,1,.817-2.03,3.889,3.889,0,0,1,2.145-.888ZM203.273,9.4a4.666,4.666,0,0,0,.642,2.531,2.248,2.248,0,0,0,2.057,1.02,2.166,2.166,0,0,0,1.806-.945,4.462,4.462,0,0,0,.708-2.711,4.009,4.009,0,0,0-.729-2.641,2.276,2.276,0,0,0-1.8-.857,2.378,2.378,0,0,0-1.938.914A4.186,4.186,0,0,0,203.273,9.4Zm2.382-4.983a3.349,3.349,0,0,1,1.811.457,4.253,4.253,0,0,1,.958.923V1.045h1.521V14h-1.424V12.69a3.423,3.423,0,0,1-1.31,1.257,3.748,3.748,0,0,1-1.731.387,3.506,3.506,0,0,1-2.725-1.323,5.172,5.172,0,0,1-1.151-3.52,6.076,6.076,0,0,1,1.05-3.564A3.439,3.439,0,0,1,205.655,4.42ZM216.2,4.376a4.294,4.294,0,0,1,1.942.47,3.582,3.582,0,0,1,1.433,1.217,4.2,4.2,0,0,1,.633,1.661,10.868,10.868,0,0,1,.141,2.074h-6.9a4.026,4.026,0,0,0,.677,2.3,2.266,2.266,0,0,0,1.96.866,2.534,2.534,0,0,0,1.978-.817,2.755,2.755,0,0,0,.6-1.1h1.556a3.276,3.276,0,0,1-.409,1.156,4.111,4.111,0,0,1-.778,1.042,3.687,3.687,0,0,1-1.784.949,5.42,5.42,0,0,1-1.292.141,3.964,3.964,0,0,1-2.979-1.279,4.976,4.976,0,0,1-1.222-3.582,5.41,5.41,0,0,1,1.23-3.683A4.059,4.059,0,0,1,216.2,4.376Zm2.522,4.166a4.1,4.1,0,0,0-.448-1.644,2.3,2.3,0,0,0-2.171-1.143,2.406,2.406,0,0,0-1.828.787,2.972,2.972,0,0,0-.782,2Zm4.509,2.5a2.3,2.3,0,0,0,.4,1.213,2.485,2.485,0,0,0,2.074.765,3.059,3.059,0,0,0,1.547-.382,1.27,1.27,0,0,0,.668-1.182,1.011,1.011,0,0,0-.536-.923,6.374,6.374,0,0,0-1.354-.448l-1.257-.316A6.131,6.131,0,0,1,223,9.1a2,2,0,0,1-1.02-1.775,2.713,2.713,0,0,1,.962-2.162,3.839,3.839,0,0,1,2.588-.826,3.593,3.593,0,0,1,3.067,1.248,2.708,2.708,0,0,1,.571,1.705h-1.494a1.83,1.83,0,0,0-.378-.976,2.41,2.41,0,0,0-1.89-.624,2.259,2.259,0,0,0-1.358.343,1.074,1.074,0,0,0-.461.905,1.114,1.114,0,0,0,.606.984,3.644,3.644,0,0,0,1.037.387l1.046.255a8.087,8.087,0,0,1,2.285.8,2.118,2.118,0,0,1,.923,1.907,2.906,2.906,0,0,1-.954,2.171,4.059,4.059,0,0,1-2.9.914,3.9,3.9,0,0,1-2.975-.954,3.606,3.606,0,0,1-.936-2.36Zm8.438,1.037h1.837V14h-1.837Z" transform="translate(740 2242.5)" fill="#00223d"/>
    <path id="Trazado_112849" data-name="Trazado 112849" d="M7.374,7a3.389,3.389,0,0,0,1.947-.492,2,2,0,0,0,.716-1.775,1.9,1.9,0,0,0-1-1.881A3.274,3.274,0,0,0,7.6,2.592H3.331V7ZM1.582,1.089H7.559a5.961,5.961,0,0,1,2.435.431,3.049,3.049,0,0,1,1.819,3.05,3.43,3.43,0,0,1-.479,1.9,3.461,3.461,0,0,1-1.34,1.187,2.641,2.641,0,0,1,1.138.809,2.9,2.9,0,0,1,.426,1.626l.062,1.731a5.323,5.323,0,0,0,.123,1.1,1.08,1.08,0,0,0,.563.791V14H10.16a1.613,1.613,0,0,1-.141-.431,8.266,8.266,0,0,1-.088-1.02L9.826,10.4a1.809,1.809,0,0,0-.94-1.7,3.89,3.89,0,0,0-1.573-.237H3.331V14H1.582Zm16.5,3.287a4.294,4.294,0,0,1,1.942.47,3.582,3.582,0,0,1,1.433,1.217,4.2,4.2,0,0,1,.633,1.661A10.868,10.868,0,0,1,22.228,9.8h-6.9A4.026,4.026,0,0,0,16,12.1a2.266,2.266,0,0,0,1.96.866,2.534,2.534,0,0,0,1.978-.817,2.755,2.755,0,0,0,.6-1.1H22.1a3.276,3.276,0,0,1-.409,1.156,4.111,4.111,0,0,1-.778,1.042,3.687,3.687,0,0,1-1.784.949,5.42,5.42,0,0,1-1.292.141,3.964,3.964,0,0,1-2.979-1.279,4.976,4.976,0,0,1-1.222-3.582,5.41,5.41,0,0,1,1.23-3.683A4.059,4.059,0,0,1,18.079,4.376ZM20.6,8.542A4.1,4.1,0,0,0,20.153,6.9a2.3,2.3,0,0,0-2.171-1.143,2.406,2.406,0,0,0-1.828.787,2.972,2.972,0,0,0-.782,2Zm3.612-7.453H25.8V14H24.214Zm7.875,3.287a4.294,4.294,0,0,1,1.942.47,3.582,3.582,0,0,1,1.433,1.217A4.2,4.2,0,0,1,36.1,7.725,10.868,10.868,0,0,1,36.237,9.8h-6.9a4.026,4.026,0,0,0,.677,2.3,2.266,2.266,0,0,0,1.96.866,2.534,2.534,0,0,0,1.978-.817,2.755,2.755,0,0,0,.6-1.1h1.556A3.276,3.276,0,0,1,35.7,12.2a4.111,4.111,0,0,1-.778,1.042,3.687,3.687,0,0,1-1.784.949,5.42,5.42,0,0,1-1.292.141,3.964,3.964,0,0,1-2.979-1.279,4.976,4.976,0,0,1-1.222-3.582,5.41,5.41,0,0,1,1.23-3.683A4.059,4.059,0,0,1,32.089,4.376Zm2.522,4.166A4.1,4.1,0,0,0,34.163,6.9a2.3,2.3,0,0,0-2.171-1.143,2.406,2.406,0,0,0-1.828.787,2.972,2.972,0,0,0-.782,2Zm4.342-3.955,2.514,7.664,2.628-7.664h1.731L42.275,14H40.588L37.116,4.587ZM48.393,11.5a1.3,1.3,0,0,0,.5,1.081,1.857,1.857,0,0,0,1.187.4,3.608,3.608,0,0,0,1.617-.387,2.176,2.176,0,0,0,1.318-2.1V9.21a2.707,2.707,0,0,1-.747.308,6.366,6.366,0,0,1-.9.176l-.958.123a3.664,3.664,0,0,0-1.292.36A1.4,1.4,0,0,0,48.393,11.5Zm3.832-3.2a.859.859,0,0,0,.729-.457,1.391,1.391,0,0,0,.105-.606,1.285,1.285,0,0,0-.576-1.173,3.089,3.089,0,0,0-1.648-.365,2.094,2.094,0,0,0-1.758.668,2.2,2.2,0,0,0-.378,1.1H47.224A2.718,2.718,0,0,1,48.353,5.04a4.637,4.637,0,0,1,2.518-.681,5.124,5.124,0,0,1,2.7.633A2.147,2.147,0,0,1,54.6,6.96v5.423a.694.694,0,0,0,.1.4.487.487,0,0,0,.426.149q.105,0,.237-.013t.281-.04v1.169a4.406,4.406,0,0,1-.562.132,4.111,4.111,0,0,1-.527.026,1.3,1.3,0,0,1-1.187-.58,2.239,2.239,0,0,1-.272-.87,4.025,4.025,0,0,1-1.389,1.1,4.3,4.3,0,0,1-2,.466,2.967,2.967,0,0,1-2.14-.8,2.642,2.642,0,0,1-.831-1.991,2.564,2.564,0,0,1,.817-2.03A3.889,3.889,0,0,1,49.7,8.612ZM57.19,4.587h1.5V5.923a4.215,4.215,0,0,1,1.415-1.187,3.773,3.773,0,0,1,1.661-.36,2.739,2.739,0,0,1,2.707,1.4,4.962,4.962,0,0,1,.387,2.188V14H63.255V8.067A3.212,3.212,0,0,0,63,6.679,1.545,1.545,0,0,0,61.471,5.8a3.114,3.114,0,0,0-.923.114,2.377,2.377,0,0,0-1.143.773,2.329,2.329,0,0,0-.514.962,6.478,6.478,0,0,0-.119,1.419V14H57.19Zm13.641-.272a4.1,4.1,0,0,1,2.588.773,3.705,3.705,0,0,1,1.2,2.663H73.081a2.839,2.839,0,0,0-.642-1.446,2.027,2.027,0,0,0-1.608-.576,2.222,2.222,0,0,0-2.162,1.477,5.865,5.865,0,0,0-.422,2.364,4.449,4.449,0,0,0,.6,2.382,2.317,2.317,0,0,0,3.441.365,3.311,3.311,0,0,0,.8-1.648h1.538A4.129,4.129,0,0,1,73.3,13.407a4.113,4.113,0,0,1-2.7.866,3.6,3.6,0,0,1-2.944-1.349,5.164,5.164,0,0,1-1.1-3.371,5.678,5.678,0,0,1,1.2-3.858A3.891,3.891,0,0,1,70.831,4.314Zm5.37.316H77.81V14H76.2Zm0-3.542H77.81V2.882H76.2ZM81.413,11.5a1.3,1.3,0,0,0,.5,1.081,1.857,1.857,0,0,0,1.187.4,3.608,3.608,0,0,0,1.617-.387,2.176,2.176,0,0,0,1.318-2.1V9.21a2.707,2.707,0,0,1-.747.308,6.366,6.366,0,0,1-.9.176l-.958.123a3.664,3.664,0,0,0-1.292.36A1.4,1.4,0,0,0,81.413,11.5Zm3.832-3.2a.859.859,0,0,0,.729-.457,1.391,1.391,0,0,0,.105-.606A1.285,1.285,0,0,0,85.5,6.059a3.089,3.089,0,0,0-1.648-.365,2.094,2.094,0,0,0-1.758.668,2.2,2.2,0,0,0-.378,1.1H80.244A2.718,2.718,0,0,1,81.374,5.04a4.637,4.637,0,0,1,2.518-.681,5.124,5.124,0,0,1,2.7.633A2.147,2.147,0,0,1,87.618,6.96v5.423a.694.694,0,0,0,.1.4.487.487,0,0,0,.426.149q.105,0,.237-.013t.281-.04v1.169a4.406,4.406,0,0,1-.562.132,4.111,4.111,0,0,1-.527.026,1.3,1.3,0,0,1-1.187-.58,2.239,2.239,0,0,1-.272-.87,4.025,4.025,0,0,1-1.389,1.1,4.3,4.3,0,0,1-2,.466,2.967,2.967,0,0,1-2.14-.8,2.642,2.642,0,0,1-.831-1.991,2.564,2.564,0,0,1,.817-2.03,3.889,3.889,0,0,1,2.145-.888Zm5.344,3.788h1.837V14H90.589Z" transform="translate(740 2330.5)" fill="#00223d"/>
    <g id="Grupo_42935" data-name="Grupo 42935" transform="translate(101 -2)">
      <g id="Grupo_42933" data-name="Grupo 42933" transform="translate(421.082 2242.597)">
        <g id="Grupo_42911" data-name="Grupo 42911" transform="translate(0 0)">
          <path id="Trazado_112409" data-name="Trazado 112409" d="M391.048,261.679c-52.652,0-95.331,23.21-95.331,51.833s42.679,51.831,95.331,51.831,95.321-23.21,95.321-51.831S443.69,261.679,391.048,261.679Zm0,83.057c-38,0-68.807-13.983-68.807-31.224s30.8-31.226,68.807-31.226,68.8,13.983,68.8,31.226S429.044,344.736,391.048,344.736Z" transform="translate(-295.717 -226.04)" fill="#bbb8f6" opacity="0.5" style="mix-blend-mode: multiply;isolation: isolate"/>
          <path id="Trazado_112410" data-name="Trazado 112410" d="M483.658,284.765s-14.106-34.972-93.391-34.972-93.389,51.269-93.389,51.269v17.6c0,28.04,41.81,50.778,93.394,50.778s93.386-22.738,93.386-50.778Zm-93.386,64.482c-37.233,0-67.411-13.7-67.411-30.59s30.178-30.592,67.411-30.592,67.4,13.7,67.4,30.592S427.495,349.247,390.272,349.247Z" transform="translate(-294.941 -233.987)" fill="#15579f"/>
          <path id="Trazado_112411" data-name="Trazado 112411" d="M390.272,240.32c-51.584,0-93.394,22.738-93.394,50.778s41.81,50.78,93.394,50.78,93.386-22.739,93.386-50.78S441.846,240.32,390.272,240.32Zm0,81.368c-37.233,0-67.411-13.7-67.411-30.59s30.178-30.59,67.411-30.59,67.4,13.7,67.4,30.59S427.495,321.688,390.272,321.688Z" transform="translate(-294.941 -240.32)" fill="#58a5f8"/>
        </g>
        <g id="Grupo_42912" data-name="Grupo 42912" transform="translate(93.576 75.607)">
          <path id="Trazado_112412" data-name="Trazado 112412" d="M409.961,291.479c-12.039,8.341-32.8,13.854-56.408,13.854-.589,0-1.171-.013-1.755-.02v40.136c.586.007,1.166.025,1.755.025,26.8,0,50.947-6.143,68.211-16.114a68.164,68.164,0,0,0,13.241-9.836V285.632S412.63,292.316,409.961,291.479Z" transform="translate(-351.798 -285.632)" fill="#ffc74a"/>
        </g>
        <g id="Grupo_42913" data-name="Grupo 42913" transform="translate(93.576 67.514)">
          <path id="Trazado_112413" data-name="Trazado 112413" d="M409.961,280.782c-12.039,8.341-32.8,13.854-56.408,13.854-.589,0-1.171-.013-1.755-.02V314.8c.586.007,1.166.025,1.755.025,34.984,0,65.455-10.469,81.452-25.951-5.688-1.832-11.363-3.714-17.041-5.58C415.3,282.421,412.63,281.62,409.961,280.782Z" transform="translate(-351.798 -280.782)" fill="#f6dd03"/>
        </g>
        <g id="Grupo_42914" data-name="Grupo 42914" transform="translate(1.936 52.083)">
          <path id="Trazado_112414" data-name="Trazado 112414" d="M388.9,320.585c-32.452,1.155-67.461-17.2-65.971-35.112-8.705,0-26.057-13.939-26.057-13.939V304.14c0,27.792,41.077,50.359,92.027,50.76Z" transform="translate(-296.877 -271.534)" fill="#00cdc4"/>
          <path id="Trazado_112415" data-name="Trazado 112415" d="M388.88,300.8c-35.638-.324-64.481-13.19-65.971-29.27H296.914c1.265,27.188,41.818,49.061,91.966,49.455Z" transform="translate(-296.852 -271.534)" fill="#6fd8d8"/>
        </g>
      </g>
      <g id="Grupo_42934" data-name="Grupo 42934" transform="translate(530.928 2263.041)">
        <path id="Trazado_112433" data-name="Trazado 112433" d="M364.359,255.739c-.506,3.084-1.572,8.051-2.077,11.134a11.958,11.958,0,0,0-.23,3.292,4.021,4.021,0,0,0,1.5,2.84c1.163.831,2.726.723,4.146.579l6.386-.644a11.746,11.746,0,0,0,3.23-.637,3.956,3.956,0,0,0,2.326-2.208,5.919,5.919,0,0,0-.512-3.975q-1.271-3.379-2.546-6.758a30.209,30.209,0,0,0-1.3-3.09" transform="translate(-361.241 -250.455)" fill="#3d00bd"/>
        <path id="Trazado_112434" data-name="Trazado 112434" d="M387.627,318.032l-.3,6.744,13.252,5.75-6.435-10.015-1.714-3.931Z" transform="translate(-344.311 -209.778)" fill="#130159"/>
        <path id="Trazado_112435" data-name="Trazado 112435" d="M393.6,315.41l-.3,6.744,14.435,1.664-7.618-5.929-1.714-3.93Z" transform="translate(-340.319 -211.531)" fill="#130159"/>
        <path id="Trazado_112436" data-name="Trazado 112436" d="M368.358,282.894c-2.3,9.651,2.87,11.8,8.792,13.938,6.342,2.291,19.027,4.175,19.027,4.175L409.8,338.046c2.349,1.68,4.837,1.09,7.42-1.08L405.69,294.718,382.905,281.99Z" transform="translate(-357.37 -232.904)" fill="#8acc59"/>
        <path id="Trazado_112437" data-name="Trazado 112437" d="M364.7,285.689c-2.3,9.651,2.87,11.8,8.792,13.939,6.342,2.291,19.027,4.175,19.027,4.175l9.384,36.312c1.967,1.79,4.644,1.523,7.751,0l-9.024-42.07-20.547-13.232Z" transform="translate(-359.817 -231.017)" fill="#8acc59"/>
        <path id="Trazado_112438" data-name="Trazado 112438" d="M388.325,295.726c-.39-2.585-5.555-1.954-5.059-13.237.319-7.285-.869-16.681-4.957-18.85-3.437-1.825-10.415,1.382-12.271,2.563-3.948,2.516-1.951,4-2.795,8.608s-.559,25.092-.559,29.772c0,1.785,16.077,5.4,24.687-5.777" transform="translate(-360.821 -245.541)" fill="#d268cc"/>
        <g id="Grupo_42918" data-name="Grupo 42918" transform="translate(14.207 45.415)">
          <path id="Trazado_112439" data-name="Trazado 112439" d="M382.289,300.406l-12.112-7.045a.231.231,0,0,1,.007-.4l22.194-12.9a.24.24,0,0,1,.237,0l12.092,7.036a.235.235,0,0,1,0,.407l-22.192,12.9A.215.215,0,0,1,382.289,300.406Z" transform="translate(-370.063 -279.63)" fill="#827fde"/>
          <path id="Trazado_112440" data-name="Trazado 112440" d="M404.594,287.307l-22.077,12.828a.292.292,0,0,1-.3,0l-11.975-6.968a.293.293,0,0,1,0-.507l22.075-12.83a.292.292,0,0,1,.3,0l11.977,6.968A.3.3,0,0,1,404.594,287.307Z" transform="translate(-370.038 -279.79)" fill="#dfe3ff"/>
        </g>
        <path id="Trazado_112441" data-name="Trazado 112441" d="M383.205,281.22c2.011.439,5.715,2.927,5.338,3.644s-2.331,2.481-6.916-1.822S383.205,281.22,383.205,281.22Z" transform="translate(-349.259 -233.895)" fill="#fed4bd"/>
        <path id="Trazado_112442" data-name="Trazado 112442" d="M377.625,286.267l7.283,3.367c.177-1.727,1.961-2.558,3.888-2.568l-12.109-8.094-1.677-6.047s-.058,4.193,0,5.825C375.124,281.937,375.931,284.747,377.625,286.267Z" transform="translate(-352.566 -238.965)" fill="#d268cc"/>
        <path id="Trazado_112443" data-name="Trazado 112443" d="M366.85,267.791c-.105,1.6,4.547.637,3.933-.621l-.926-5.084a3.745,3.745,0,0,0-.557-1.6c-1.288-1.722-2.268-.4-2.343.984C366.845,263.567,366.885,265.688,366.85,267.791Z" transform="translate(-358.006 -247.83)" fill="#fed4bd"/>
        <path id="Trazado_112444" data-name="Trazado 112444" d="M374.005,261.851a7.856,7.856,0,0,0,.05-5.344,4.784,4.784,0,0,0-4.111-3.1,4.973,4.973,0,0,0-4.425,3.2,9.6,9.6,0,0,0-.237,5.71,7.545,7.545,0,0,0,2.173,4.238C371.074,269.656,373.066,264.681,374.005,261.851Z" transform="translate(-359.264 -252.017)" fill="#fed4bd"/>
        <path id="Trazado_112445" data-name="Trazado 112445" d="M370.789,260.16a1.437,1.437,0,0,0,2.765.537,1.454,1.454,0,0,0,1.717.989,2.163,2.163,0,0,0,1.493-1.48,4.391,4.391,0,0,0,.042-2.178,9.233,9.233,0,0,0-.642-2.051,6.865,6.865,0,0,0-1.236-1.922c-1.273-1.355-5.042-2.219-6.883-.621-3.764-.481-4.64,3.047-4.687,6.114-.259,1.7.974,2.983,1.508,4.617a1.634,1.634,0,0,0,1.989,1.1c.8-.117-1.341-1.794-.9-3.919.232-1.1,1.33,1.353,1.707,1.22-.023.008.3-2.408.377-2.543C368.785,260.581,370.025,261.47,370.789,260.16Z" transform="translate(-360.363 -252.572)" fill="#3d00bd"/>
        <path id="Trazado_112446" data-name="Trazado 112446" d="M374.841,285.843c2.012.439,5.715,2.925,5.339,3.642s-2.331,2.481-6.918-1.822S374.841,285.843,374.841,285.843Z" transform="translate(-354.851 -230.805)" fill="#fed4bd"/>
        <path id="Trazado_112447" data-name="Trazado 112447" d="M365.954,265.423c-5.728.969-4.909,22.369-2.9,26.649s16.851,9.768,16.851,9.768c.562-1.954,1.55-2.983,2.908-3.205L368.679,288.3s-.028-9.384.072-12.746C368.819,273.255,370.813,264.6,365.954,265.423Z" transform="translate(-361.549 -244.017)" fill="#d268cc"/>
        <g id="Grupo_42919" data-name="Grupo 42919" transform="translate(26.21 39.03)">
          <path id="Trazado_112448" data-name="Trazado 112448" d="M377.272,302.281l3.953-13.309a.638.638,0,0,1,.3-.372l21.658-12.588a.358.358,0,0,1,.522.41l-3.95,13.3a.645.645,0,0,1-.3.377L377.8,302.687A.356.356,0,0,1,377.272,302.281Z" transform="translate(-377.257 -275.964)" fill="#8285df"/>
          <path id="Trazado_112449" data-name="Trazado 112449" d="M377.612,302.434c.836-2.822,3.481-11.725,3.951-13.309a.636.636,0,0,1,.3-.374l21.66-12.586a.356.356,0,0,1,.521.41l-3.95,13.3a.648.648,0,0,1-.3.379l-21.658,12.586A.355.355,0,0,1,377.612,302.434Z" transform="translate(-377.03 -275.862)" fill="#d9dff6"/>
        </g>
      </g>
    </g>
  </g>
</svg>
