<svg xmlns="http://www.w3.org/2000/svg" width="504.6" height="251.373" viewBox="0 0 504.6 251.373">
  <g id="Grupo_38089" data-name="Grupo 38089" transform="translate(-291.707 -418.292)">
    <g id="Grupo_38087" data-name="Grupo 38087" transform="translate(291.707 418.292)">
      <g id="Grupo_38086" data-name="Grupo 38086" transform="translate(0 0)">
        <g id="Grupo_38071" data-name="Grupo 38071" transform="translate(407.115 54.994)">
          <path id="Trazado_71583" data-name="Trazado 71583" d="M2375.32,748.5c17.013-9.159,21.361-25.4,21.856-29.279a36.153,36.153,0,0,0,1.058-8.259c.187-13.258-6.571-24.1-15.093-24.223s-15.584,10.53-15.771,23.787a35.591,35.591,0,0,0,1.174,9.7l-.034-.038.048.087a27.708,27.708,0,0,0,2.743,6.7,22.264,22.264,0,0,1-2.695,17.473,8.981,8.981,0,0,0-1.359,5.065l.775,23.166,16.562-12.422S2374.549,748.929,2375.32,748.5Zm-2.65-37.9a26.777,26.777,0,0,1,3.877-14.056c1.919-2.9,4.3-4.537,6.518-4.506a4.9,4.9,0,0,1,1.289.194c4.329,1.249,8.722,8.568,8.58,18.655a26.781,26.781,0,0,1-3.878,14.056c-1.919,2.9-4.295,4.537-6.518,4.506a4.9,4.9,0,0,1-1.288-.194C2376.92,728.01,2372.528,720.691,2372.67,710.6Z" transform="translate(-2349.167 -686.741)" fill="#287982"/>
          <path id="Trazado_71584" data-name="Trazado 71584" d="M2360.514,1124.054l15.587-.245c1.694,31.42-7.07,84.6-7.07,84.6C2360.6,1189.827,2360.514,1124.054,2360.514,1124.054Z" transform="translate(-2343.817 -1034.272)" fill="#696969"/>
          <path id="Trazado_71585" data-name="Trazado 71585" d="M2418.843,767.018c-6.719-1.938-14.089,3.847-16.778,13.171a22.283,22.283,0,0,0-.6,10.374l-.045-.006c-.058,12.307-19.322,26.221-34.744,27.939-1.6,4.407-5.921,21.656-5.921,21.656l14.979,4.32,6.394-22.169c10.463-2.885,34.107-19.514,38.671-25.881a22.162,22.162,0,0,0,5.229-9.321C2428.72,777.777,2425.563,768.955,2418.843,767.018Zm-8.294,28.759c-4.136-1.193-5.923-7.592-3.99-14.293s6.852-11.166,10.989-9.973,5.923,7.592,3.99,14.293S2414.685,796.97,2410.549,795.777Z" transform="translate(-2344.012 -750.275)" fill="#2e8c96"/>
          <circle id="Elipse_498" data-name="Elipse 498" cx="3.741" cy="3.741" r="3.741" transform="translate(21.975 79.28) rotate(-45)" fill="#287982"/>
          <rect id="Rectángulo_31766" data-name="Rectángulo 31766" width="6.08" height="1.078" transform="translate(24.495 77.92) rotate(16.088)" fill="#22666e"/>
          <path id="Trazado_71586" data-name="Trazado 71586" d="M2295.756,1125.461l14.979,4.32c-7.56,30.544-31.478,78.839-31.478,78.839C2276.626,1188.391,2295.756,1125.461,2295.756,1125.461Z" transform="translate(-2279.009 -1035.586)" fill="#878787"/>
        </g>
        <g id="Grupo_38072" data-name="Grupo 38072" transform="translate(104.907 220.591)">
          <rect id="Rectángulo_31767" data-name="Rectángulo 31767" width="21.521" height="15.11" fill="#363636"/>
          <rect id="Rectángulo_31768" data-name="Rectángulo 31768" width="21.521" height="15.11" transform="translate(228.767)" fill="#363636"/>
        </g>
        <rect id="Rectángulo_31769" data-name="Rectángulo 31769" width="225.058" height="359.67" rx="16.044" transform="translate(409.886 0) rotate(90)" fill="#404040"/>
        <rect id="Rectángulo_31770" data-name="Rectángulo 31770" width="15.451" height="382.797" rx="7.726" transform="translate(38.653 246.946) rotate(-90)" fill="#404040"/>
        <rect id="Rectángulo_31771" data-name="Rectángulo 31771" width="206.533" height="352.723" rx="14" transform="translate(406.413 3.474) rotate(90)" fill="#737373"/>
        <rect id="Rectángulo_31772" data-name="Rectángulo 31772" width="341.917" height="195.726" transform="translate(59.093 8.877)" fill="#c0d1a5"/>
        <rect id="Rectángulo_31773" data-name="Rectángulo 31773" width="164.594" height="310.784" transform="translate(385.443 24.443) rotate(90)" fill="#fff"/>
        <rect id="Rectángulo_31774" data-name="Rectángulo 31774" width="97.092" height="68.077" transform="translate(112.773 111.911)" fill="#78ccc0"/>
        <rect id="Rectángulo_31775" data-name="Rectángulo 31775" width="97.092" height="68.077" transform="translate(272.582 34.687)" fill="#78ccc0"/>
        <rect id="Rectángulo_31776" data-name="Rectángulo 31776" width="146.922" height="10.987" transform="translate(249.897 44.85) rotate(180)" fill="#78ccc0"/>
        <rect id="Rectángulo_31777" data-name="Rectángulo 31777" width="146.922" height="10.987" transform="translate(374.26 128.35) rotate(180)" fill="#78ccc0"/>
        <rect id="Rectángulo_31778" data-name="Rectángulo 31778" width="146.922" height="4.41" transform="translate(374.26 143.182) rotate(180)" fill="#ccf0eb"/>
        <rect id="Rectángulo_31779" data-name="Rectángulo 31779" width="146.922" height="4.41" transform="translate(249.897 81.168) rotate(180)" fill="#ccf0eb"/>
        <rect id="Rectángulo_31780" data-name="Rectángulo 31780" width="146.922" height="4.41" transform="translate(249.897 93.803) rotate(180)" fill="#ccf0eb"/>
        <rect id="Rectángulo_31781" data-name="Rectángulo 31781" width="79.502" height="4.41" transform="translate(306.841 157.572) rotate(180)" fill="#ccf0eb"/>
        <rect id="Rectángulo_31782" data-name="Rectángulo 31782" width="68.03" height="10.987" transform="translate(210.451 66.259) rotate(180)" fill="#78ccc0"/>
        <path id="Rectángulo_31783" data-name="Rectángulo 31783" d="M4.5,0H481.3a4.5,4.5,0,0,1,4.5,4.5v0a0,0,0,0,1,0,0H0a0,0,0,0,1,0,0v0A4.5,4.5,0,0,1,4.5,0Z" transform="translate(18.793 246.869)" fill="#8c4c26"/>
        <g id="Grupo_38073" data-name="Grupo 38073" transform="translate(0 141.336)">
          <path id="Trazado_71587" data-name="Trazado 71587" d="M459.806,1133.047c-6.344-23.791,23.791-35.015,21.229,1.952-1.952,16.714-2.928,19.765-2.928,19.765s-12.322,0-12.444-.854S459.806,1133.047,459.806,1133.047Z" transform="translate(-424.67 -1110.516)" fill="#056b5a"/>
          <path id="Trazado_71588" data-name="Trazado 71588" d="M497.03,1133.931a.312.312,0,0,0-.44-.033l-4.207,3.616-.4-18.6a.312.312,0,0,0-.623.014l.191,8.809-4.707-4.486a.312.312,0,1,0-.43.451l5.156,4.914.278,12.842a.312.312,0,0,0,.312.305h.007a.312.312,0,0,0,.3-.319l-.068-3.127,4.6-3.95A.312.312,0,0,0,497.03,1133.931Z" transform="translate(-446.448 -1116.483)" fill="#07947e"/>
          <path id="Trazado_71589" data-name="Trazado 71589" d="M315.131,1152.381c-35.381-21.717-24.889-49.777-6.344-43.189s16.349,42.945,16.349,42.945Z" transform="translate(-291.707 -1108.213)" fill="#06806c"/>
          <path id="Trazado_71590" data-name="Trazado 71590" d="M354.975,1180.226l-13.646-22.013,2.21-8.366a.624.624,0,1,0-1.206-.319l-1.909,7.226-5.946-9.591a.624.624,0,1,0-1.06.657l10.912,17.6-9.934-1.305a.624.624,0,1,0-.162,1.236l10.946,1.438,8.736,14.092a.624.624,0,1,0,1.06-.657Z" transform="translate(-324.799 -1138.949)" fill="#07947e"/>
          <path id="Trazado_71591" data-name="Trazado 71591" d="M554.76,1203.135c30.745-28.549,10.248-36.113-.732-28.3s-7.32,28.061-7.32,28.061Z" transform="translate(-494.003 -1158.887)" fill="#06806c"/>
          <path id="Trazado_71592" data-name="Trazado 71592" d="M568.26,1195.995c.953-1.376,1.9-2.75,2.816-4.064l-.081-7.724a.624.624,0,0,1,.617-.63.632.632,0,0,1,.63.617l.062,5.966c2.868-4.133,5.065-7.292,5.065-7.292a.624.624,0,0,1,1.024.712c-2.983,4.288-6.6,9.5-9.828,14.162l5.464-.257a.624.624,0,1,1,.059,1.246l-6.415.3c-3.964,5.733-7.14,10.355-7.438,10.871a.624.624,0,0,1-1.2-.246c0-.189,0-.281,2.8-4.363l-2.038-6.428a.624.624,0,1,1,1.189-.377l1.745,5.5Z" transform="translate(-504.274 -1167.362)" fill="#07947e"/>
          <path id="Trazado_71593" data-name="Trazado 71593" d="M432.8,1214.138c-7.32-17.325-5.368-27.085,3.9-28.3s9.516,18.667,4.758,28.549Z" transform="translate(-400.346 -1169.89)" fill="#07947e"/>
          <path id="Trazado_71594" data-name="Trazado 71594" d="M449.2,1201.833a.624.624,0,0,0-1.243.1l.493,5.917-3.1-2.925a.624.624,0,0,0-.855.908l4.114,3.877,1.3,15.648a.623.623,0,0,0,.621.572l.052,0a.624.624,0,0,0,.57-.673Z" transform="translate(-413.037 -1182.2)" fill="#08a48c"/>
          <path id="Trazado_71595" data-name="Trazado 71595" d="M528.288,1288.2c5.978-11.59-9.516-13.3-5.612.488Z" transform="translate(-474.852 -1243.95)" fill="#07947e"/>
          <path id="Trazado_71596" data-name="Trazado 71596" d="M479.526,1259.087c-6.1-8.418-3.172-16.836,3.782-17.081s7.808,10.126,4.88,16.959Z" transform="translate(-438.411 -1214.595)" fill="#08a48c"/>
          <path id="Trazado_71597" data-name="Trazado 71597" d="M495.076,1256.751a.312.312,0,0,0-.432.088l-2.476,3.747-.939-10.273a.312.312,0,0,0-.621.057l.521,5.7-3.514-2.8a.312.312,0,0,0-.388.488l3.98,3.168.412,4.505a.306.306,0,0,0,.029.321l.261,2.851a.312.312,0,0,0,.31.283h.029a.312.312,0,0,0,.282-.339l-.271-2.967,2.9-4.4A.312.312,0,0,0,495.076,1256.751Z" transform="translate(-447.08 -1220.978)" fill="#11bda2"/>
          <rect id="Rectángulo_31784" data-name="Rectángulo 31784" width="39.041" height="61.896" transform="translate(22.448 43.598)" fill="#76cfd9"/>
        </g>
        <g id="Grupo_38074" data-name="Grupo 38074" transform="translate(327.532 90.099)">
          <path id="Trazado_71598" data-name="Trazado 71598" d="M1954.574,1046.788h-16.708l7.412,54.175,19.318,4.693h21.467Z" transform="translate(-1928.168 -1008.134)" fill="#1e595e"/>
          <path id="Trazado_71599" data-name="Trazado 71599" d="M1952.7,1105.585c-.069,0-.139,0-.209-.006l-18.865-1.14a6.088,6.088,0,0,1-5.708-5.472l-4.995-48.5a3.415,3.415,0,0,1,6.794-.7l4.932,47.894,18.254,1.1a3.415,3.415,0,0,1-.2,6.824Z" transform="translate(-1916.271 -1008.064)" fill="#287982"/>
          <path id="Trazado_71600" data-name="Trazado 71600" d="M2142.952,1053.16c0,2.9,6.042,12.433,7.437,13.943s-6.275,1.395-6.275,1.395-5.345-4.416-5.461-5.345-.116-8.831-.116-9.179S2142.952,1053.16,2142.952,1053.16Z" transform="translate(-2087.73 -1013.201)" fill="#ff8762"/>
          <rect id="Rectángulo_31785" data-name="Rectángulo 31785" width="0.755" height="9.761" transform="translate(74.453 41.818)" fill="#878787"/>
          <rect id="Rectángulo_31786" data-name="Rectángulo 31786" width="4.261" height="8.056" transform="matrix(0.985, -0.17, 0.17, 0.985, 78.581, 55.603)" fill="#ebccb8"/>
          <path id="Trazado_71601" data-name="Trazado 71601" d="M1986.9,982.07c-8.754,1.123-12.162,1.9-14.873,5.384a77.336,77.336,0,0,0-5.732,9.218,4.205,4.205,0,0,0,1.627,2.014s4.8,6.662,5.345,7.514c2.169,4.338,4.106,9.218.93,13.091s-7.049,15.105-3.486,22.155,29.126,6.972,29.669,8.521,5.849,35.847,6.2,38.113,4.532,5.055,4.88,4.532,23.7-50.546,23.7-50.546-25.97-12.724-29.282-13.769c-6.275-3.311-5.926-14.989-4.357-18.127s3.428-6.6,1.879-10.477a12.309,12.309,0,0,0,4.725-3.331s-5.422-7.669-7.049-9.218-5.616-3.021-5.616-3.021l-4.144-.387Z" transform="translate(-1950.774 -956.674)" fill="#6295c7"/>
          <path id="Trazado_71602" data-name="Trazado 71602" d="M1954.994,1063.18c2.479,1.859,9.76,4.261,9.76,4.261l-4.571,14.254c7.049,1.937,17.43,4.415,19.986,4.493s8.637-1.2,9.567-.891,2.285.31,2.479.5,2.246,1.82,2.246,1.82a4.121,4.121,0,0,1-2.556-1.123l1.666,1.549a4.611,4.611,0,0,1-2.44,1.046c-.891,0-8.134.852-9.877.813a47.728,47.728,0,0,0-6.74.775c-3.409.465-21.69.542-24.479-1.24C1950.036,1085.257,1954.994,1063.18,1954.994,1063.18Z" transform="translate(-1937.845 -1021.168)" fill="#ff8762"/>
          <path id="Trazado_71603" data-name="Trazado 71603" d="M2050.1,860.472a9.906,9.906,0,0,0-13.479.581c-2.614,2.9-.348,8.308-3.892,10.458s-5.132,9.741,6.991,10.826c2.6.039,4.977-.252,5.094.039,4.648,1.336,7.669,1.917,9.586-1.453s-2.44-7.379-.464-11.1S2057.134,861.808,2050.1,860.472Z" transform="translate(-2001.563 -858.102)" fill="#2b1710"/>
          <path id="Trazado_71604" data-name="Trazado 71604" d="M2079.687,881.3a9.248,9.248,0,0,1,2.363,7.63c-.426,2.014.349,2.634-.271,4.842s-2.672,5.113-3.6,5.422a8.135,8.135,0,0,1-2.711.077c-1.627.968-1.82,4.338-.348,4.725,2.13,2.944,1.085,4.26-1.976,3.6a8.56,8.56,0,0,1-6.584-5.655c4.377-2.246,3.37-8.831,3.37-8.831-3.873-.5-4.067-4.067-2.634-5a1.96,1.96,0,0,1,2.828.775c.581-1.317.542-3.137,4.415-4.144S2079.687,881.3,2079.687,881.3Z" transform="translate(-2030.429 -876.545)" fill="#ff8762"/>
          <path id="Trazado_71605" data-name="Trazado 71605" d="M2113.013,945.931c3.457-.7,3.979-.349,3.718.494-.465.174.465,1.278-1.017,1.481S2113.013,945.931,2113.013,945.931Z" transform="translate(-2067.435 -927.642)" fill="#f54a4a"/>
          <path id="Trazado_71606" data-name="Trazado 71606" d="M2111.979,920.3c0,.5-.234.91-.523.91s-.523-.407-.523-.91.234-.91.523-.91S2111.979,919.8,2111.979,920.3Z" transform="translate(-2065.781 -906.838)" fill="#2b1710"/>
          <ellipse id="Elipse_499" data-name="Elipse 499" cx="0.523" cy="0.91" rx="0.523" ry="0.91" transform="translate(49.829 12.934)" fill="#2b1710"/>
          <path id="Trazado_71607" data-name="Trazado 71607" d="M2100.818,904.761a6.063,6.063,0,0,1,4.474-.232A2.478,2.478,0,0,0,2100.818,904.761Z" transform="translate(-2057.739 -893.968)" fill="#2b1710"/>
          <path id="Trazado_71608" data-name="Trazado 71608" d="M2073.527,921.4a1.3,1.3,0,0,1-1.372-1.219.883.883,0,0,1,.3-.677,1.305,1.305,0,0,1,.779-.283,1.823,1.823,0,0,0-1.043-1.057.934.934,0,0,0-.912.411.1.1,0,1,1-.158-.135,1.124,1.124,0,0,1,1.115-.478,2.072,2.072,0,0,1,1.243,1.331.1.1,0,0,1-.018.091.1.1,0,0,1-.082.041,1.187,1.187,0,0,0-.787.237.672.672,0,0,0-.233.52,1.1,1.1,0,0,0,1.165,1.011.1.1,0,0,1,0,.208Z" transform="translate(-2034.107 -905.682)" fill="#e0b3a8" style="mix-blend-mode: multiply;isolation: isolate"/>
          <path id="Trazado_71609" data-name="Trazado 71609" d="M2095.931,956.923a.107.107,0,0,1-.038-.007,8.214,8.214,0,0,1-3.507-2.655.1.1,0,1,1,.175-.112,8.159,8.159,0,0,0,3.407,2.573.1.1,0,0,1-.038.2Z" transform="translate(-2051.021 -934.435)" fill="#e0b3a8" style="mix-blend-mode: multiply;isolation: isolate"/>
          <path id="Trazado_71610" data-name="Trazado 71610" d="M2113.164,946.69a7.376,7.376,0,0,1-3.591-.909.1.1,0,0,1,.119-.171c1.128.781,3.8,1.1,4.568.691a.1.1,0,0,1,.1.183A2.717,2.717,0,0,1,2113.164,946.69Z" transform="translate(-2064.664 -927.669)" fill="#2b1710"/>
          <path id="Trazado_71611" data-name="Trazado 71611" d="M2128.067,919.869a.1.1,0,0,1-.027-.2,7.916,7.916,0,0,0,1.871-.67c0-.119-.312-.369-.54-.551a2.728,2.728,0,0,1-.7-.694,4.954,4.954,0,0,1,.7-3.586.1.1,0,0,1,.177.108,4.8,4.8,0,0,0-.693,3.385,2.72,2.72,0,0,0,.644.625c.379.3.612.5.623.691a.217.217,0,0,1-.066.169,8.167,8.167,0,0,1-1.965.724A.109.109,0,0,1,2128.067,919.869Z" transform="translate(-2079.322 -902.639)" fill="#2b1710"/>
          <path id="Trazado_71612" data-name="Trazado 71612" d="M2125.8,939.512a.1.1,0,0,1-.073-.177,1.116,1.116,0,0,1,.871-.291.1.1,0,0,1-.026.206.919.919,0,0,0-.7.232A.1.1,0,0,1,2125.8,939.512Z" transform="translate(-2077.518 -922.456)" fill="#2b1710"/>
          <path id="Trazado_71613" data-name="Trazado 71613" d="M2123.232,937.935a.1.1,0,0,1-.068-.026.549.549,0,0,1-.221-.45.751.751,0,0,1,.317-.5.1.1,0,1,1,.117.172.552.552,0,0,0-.228.34.358.358,0,0,0,.15.281.1.1,0,0,1-.068.182Z" transform="translate(-2075.33 -920.792)" fill="#e0b3a8" style="mix-blend-mode: multiply;isolation: isolate"/>
          <path id="Trazado_71614" data-name="Trazado 71614" d="M2118.426,959.051a4.1,4.1,0,0,1-1.314-.211.1.1,0,1,1,.071-.2,4.017,4.017,0,0,0,1.326.2.105.105,0,0,1,.108.1.1.1,0,0,1-.1.108Z" transform="translate(-2070.639 -938.043)" fill="#e0b3a8" style="mix-blend-mode: multiply;isolation: isolate"/>
          <path id="Trazado_71615" data-name="Trazado 71615" d="M2135.7,909.06c1.075,0,1.395.668,1.365,1.046C2137.561,908.131,2136.224,907.985,2135.7,909.06Z" transform="translate(-2085.475 -898.092)" fill="#2b1710"/>
          <path id="Trazado_71616" data-name="Trazado 71616" d="M2016.533,1007.872a.149.149,0,0,1-.148-.141,6.061,6.061,0,0,0-1.042-2.818c-1.282-1.847-3.437-2.748-6.417-2.677a.148.148,0,1,1-.007-.3c7.374-.175,7.76,5.717,7.763,5.776a.148.148,0,0,1-.141.156Z" transform="translate(-1984.55 -972.47)" fill="#c7c7c7" style="mix-blend-mode: multiply;isolation: isolate"/>
          <path id="Trazado_71617" data-name="Trazado 71617" d="M2027.924,1069.947a.148.148,0,0,1-.127-.225,41.43,41.43,0,0,1,2.392-3.617.149.149,0,0,1,.235.182,41.063,41.063,0,0,0-2.372,3.588A.148.148,0,0,1,2027.924,1069.947Z" transform="translate(-1999.659 -1023.448)" fill="#c7c7c7" style="mix-blend-mode: multiply;isolation: isolate"/>
          <path id="Trazado_71618" data-name="Trazado 71618" d="M2038.726,1105.373a7.9,7.9,0,0,1-6.671-3.642.148.148,0,1,1,.244-.169,7.575,7.575,0,0,0,7.857,3.369.148.148,0,1,1,.077.287A6.563,6.563,0,0,1,2038.726,1105.373Z" transform="translate(-2003.041 -1051.636)" fill="#c7c7c7" style="mix-blend-mode: multiply;isolation: isolate"/>
          <path id="Trazado_71619" data-name="Trazado 71619" d="M2133.769,1032.629a.148.148,0,0,1-.133-.082c-.107-.212-2.63-5.241-2.63-8.607a.148.148,0,1,1,.3,0c0,3.3,2.572,8.422,2.6,8.473a.149.149,0,0,1-.132.216Z" transform="translate(-2081.742 -989.848)" fill="#c7c7c7" style="mix-blend-mode: multiply;isolation: isolate"/>
          <rect id="Rectángulo_31787" data-name="Rectángulo 31787" width="115.732" height="4.706" transform="translate(1.249 74.76)" fill="#734436"/>
          <rect id="Rectángulo_31788" data-name="Rectángulo 31788" width="32.942" height="4.706" transform="translate(1.249 74.76)" fill="#9c5c49"/>
          <path id="Trazado_71620" data-name="Trazado 71620" d="M2098.353,1110.33v5.623a2.829,2.829,0,0,0,2.829,2.829h2.154a2.829,2.829,0,0,0,2.662-1.871l.048-.131a2.83,2.83,0,0,1,2.662-1.871h12.581a2.83,2.83,0,0,1,2.775,2.272l1.029,5.106a2.831,2.831,0,0,1-2.775,3.39h-20.943a3.486,3.486,0,0,0-3.486,3.486v1.782h41.366l-3.724-21.24a3.153,3.153,0,0,0-3.118-2.609c-6.6.025-23.715.083-30.856.046A3.187,3.187,0,0,0,2098.353,1110.33Z" transform="translate(-2055.408 -1056.088)" fill="#ffdec8"/>
          <rect id="Rectángulo_31789" data-name="Rectángulo 31789" width="4.764" height="7.611" transform="translate(72.42 42.98)" fill="#f04f5f"/>
          <path id="Trazado_71621" data-name="Trazado 71621" d="M2114.9,1183.354c7.979-3.137,14.718-6.507,29.591,0s27.132,33.058,32.187,41.6,16.384,14.292,29.107,26.144,31.722,19,31.722,19H2119.164c-.523-3.835.7-13.421,5.577-22.833s8.351-35.857,8.018-46.188C2132.237,1184.865,2114.9,1183.354,2114.9,1183.354Z" transform="translate(-2068.938 -1113.765)" fill="#f04f5f"/>
          <path id="Trazado_71622" data-name="Trazado 71622" d="M2255.454,1363.244l-.039,0c-8.372-1.085-14.166-3.925-17.713-8.683-6.3-8.453-4.223-21.295-2.212-33.714,1.362-8.411,2.649-16.356,1.2-22.317a.3.3,0,1,1,.577-.14c1.478,6.077.182,14.08-1.19,22.552-1.991,12.3-4.051,25.013,2.1,33.264,3.446,4.622,9.109,7.385,17.314,8.449a.3.3,0,0,1-.038.591Z" transform="translate(-2163.222 -1208.011)" fill="#c7c7c7" style="mix-blend-mode: multiply;isolation: isolate"/>
          <path id="Trazado_71623" data-name="Trazado 71623" d="M2411.787,1457.279a.3.3,0,0,1-.094-.015,78.617,78.617,0,0,1-18.56-8.85,51.663,51.663,0,0,1-11.84-10.659c-7.076-8.865-8.033-16.987-7.973-21.04a.3.3,0,0,1,.3-.293h0a.3.3,0,0,1,.292.3c-.058,3.973.883,11.94,7.844,20.66,6.664,8.35,16.8,14.848,30.124,19.316a.3.3,0,0,1-.095.578Z" transform="translate(-2274.414 -1302.046)" fill="#c7c7c7" style="mix-blend-mode: multiply;isolation: isolate"/>
          <circle id="Elipse_500" data-name="Elipse 500" cx="1.511" cy="1.511" r="1.511" transform="translate(62.15 73.191) rotate(-45)" fill="#ffb780"/>
          <circle id="Elipse_501" data-name="Elipse 501" cx="1.511" cy="1.511" r="1.511" transform="translate(77.532 75.283)" fill="#ffb780"/>
          <circle id="Elipse_502" data-name="Elipse 502" cx="1.511" cy="1.511" r="1.511" transform="translate(69.631 85.973)" fill="#ffb780"/>
          <circle id="Elipse_503" data-name="Elipse 503" cx="1.511" cy="1.511" r="1.511" transform="translate(85.621 95.734) rotate(-45)" fill="#ffb780"/>
          <circle id="Elipse_504" data-name="Elipse 504" cx="1.511" cy="1.511" r="1.511" transform="matrix(0.16, -0.987, 0.987, 0.16, 79.169, 112.204)" fill="#ffb780"/>
          <circle id="Elipse_505" data-name="Elipse 505" cx="1.511" cy="1.511" r="1.511" transform="translate(95.236 109.987) rotate(-76.717)" fill="#ffb780"/>
          <circle id="Elipse_506" data-name="Elipse 506" cx="1.511" cy="1.511" r="1.511" transform="translate(83.807 125.248)" fill="#ffb780"/>
          <circle id="Elipse_507" data-name="Elipse 507" cx="1.511" cy="1.511" r="1.511" transform="translate(65.332 116.533)" fill="#ffb780"/>
          <circle id="Elipse_508" data-name="Elipse 508" cx="1.511" cy="1.511" r="1.511" transform="translate(56.617 136.054)" fill="#ffb780"/>
          <circle id="Elipse_509" data-name="Elipse 509" cx="1.511" cy="1.511" r="1.511" transform="translate(67 151.353) rotate(-76.717)" fill="#ffb780"/>
          <circle id="Elipse_510" data-name="Elipse 510" cx="1.511" cy="1.511" r="1.511" transform="matrix(0.16, -0.987, 0.987, 0.16, 94.275, 142.416)" fill="#ffb780"/>
          <circle id="Elipse_511" data-name="Elipse 511" cx="1.511" cy="1.511" r="1.511" transform="translate(108.557 149.3)" fill="#ffb780"/>
          <circle id="Elipse_512" data-name="Elipse 512" cx="1.511" cy="1.511" r="1.511" transform="translate(118.085 132.219)" fill="#ffb780"/>
          <circle id="Elipse_513" data-name="Elipse 513" cx="1.511" cy="1.511" r="1.511" transform="translate(132.493 144.885)" fill="#ffb780"/>
          <path id="Trazado_71624" data-name="Trazado 71624" d="M1890.527,1322.767l14.98-76.947,26.415.078,12.365,76.884-4.531-.01L1928.2,1249h-18.359l-15.512,73.756Z" transform="translate(-1890.527 -1166.393)" fill="#543228"/>
          <path id="Trazado_71625" data-name="Trazado 71625" d="M2134.067,1297.708a4.044,4.044,0,0,1-1.954-.491c-.218-.119-.507-.31-.491-.59.023-.411.689-.681,1.609-1.055a6.589,6.589,0,0,0,2.365-1.332c.182-.21.222-.344.182-.384-.3-.3-2.8.33-4.077,1.445-.615.538-.922.461-1.072.3-.416-.445.193-2.166,1.412-3.384a.148.148,0,0,1,.209.21c-1.226,1.226-1.624,2.736-1.4,2.971.049.052.243.043.659-.322,1.235-1.081,3.958-1.951,4.482-1.432.126.125.2.364-.166.788a6.761,6.761,0,0,1-2.479,1.413c-.661.269-1.411.574-1.424.8,0,.029.018.138.337.312a4.07,4.07,0,0,0,3.278.188.148.148,0,1,1,.117.272A4.318,4.318,0,0,1,2134.067,1297.708Z" transform="translate(-2081.339 -1203.251)" fill="#c7c7c7" style="mix-blend-mode: multiply;isolation: isolate"/>
        </g>
        <g id="Grupo_38076" data-name="Grupo 38076" transform="translate(54.599 67.651)">
          <g id="Grupo_38075" data-name="Grupo 38075">
            <path id="Trazado_71626" data-name="Trazado 71626" d="M559.286,1017.074c-2.717-16.547-1.235-40.257,16.794-57.3s8.15-38.281,3.952-49.395c-.741-1.235-16.053-13.337-18.77-20.252,0,0,6.915-12.6,16.547-19.758s26.591-9.056,26.591-9.056l32.216,1.921c16.355,4.5,22.694,26.893,22.694,26.893.247,2.223-5.927,5.927-5.927,5.927s9.385,9.385,5.186,22.969-18.77,30.872-12.1,47.419,18.029,34.823,17.041,50.629Z" transform="translate(-558.226 -838.21)" fill="#ffdac2"/>
            <ellipse id="Elipse_514" data-name="Elipse 514" cx="16.684" cy="4.5" rx="16.684" ry="4.5" transform="translate(45.021 20.526)" fill="#543228"/>
            <path id="Rectángulo_31790" data-name="Rectángulo 31790" d="M0,0H5.488a0,0,0,0,1,0,0V12.4a2.744,2.744,0,0,1-2.744,2.744h0A2.744,2.744,0,0,1,0,12.4V0A0,0,0,0,1,0,0Z" transform="translate(58.961 9.22)" fill="#734437"/>
            <circle id="Elipse_515" data-name="Elipse 515" cx="7.574" cy="7.574" r="7.574" transform="translate(54.351)" fill="#543228"/>
            <path id="Trazado_71627" data-name="Trazado 71627" d="M843.935,748.778a7.57,7.57,0,0,1-5.367,13.618,7.573,7.573,0,1,0,5.367-13.618Z" transform="translate(-781.138 -748.727)" fill="#f5ceb5" style="mix-blend-mode: multiply;isolation: isolate"/>
            <path id="Trazado_71628" data-name="Trazado 71628" d="M961.031,920.207a.629.629,0,0,1-.455-.194c-.48-.5-11.772-12.4-13.261-25.309a.631.631,0,1,1,1.254-.145c1.44,12.478,12.8,24.46,12.918,24.58a.631.631,0,0,1-.456,1.068Z" transform="translate(-867.603 -864.199)" fill="#c7c7c7" style="mix-blend-mode: multiply;isolation: isolate"/>
            <path id="Trazado_71629" data-name="Trazado 71629" d="M756.014,1158.153c-7.366,0-15.751-1.8-21.831-6.222a.631.631,0,0,1,.742-1.021c4.783,3.478,11.514,5.585,18.953,5.931,6.3.293,12.346-.783,15.406-2.741a.631.631,0,0,1,.68,1.063C767.063,1157.02,761.86,1158.153,756.014,1158.153Z" transform="translate(-697.93 -1068.382)" fill="#c7c7c7" style="mix-blend-mode: multiply;isolation: isolate"/>
          </g>
          <path id="Trazado_71630" data-name="Trazado 71630" d="M646.471,975.932c-6.668-16.547,7.9-33.835,12.1-47.419s-5.187-22.969-5.187-22.969,6.174-3.7,5.927-5.927c0,0-5.915-20.888-21.055-26.369-3.92,11.987,8.655,42.1,1.215,56.335-7.574,14.489-27,13.172-44.126,31.283-7.97,8.429-20.219,17.358-31.038,24.5-6.759,14.039-6.953,29.431-5.02,41.2H663.512C664.5,1010.756,653.139,992.479,646.471,975.932Z" transform="translate(-558.229 -847.698)" fill="#f5ceb5" style="mix-blend-mode: multiply;isolation: isolate"/>
          <path id="Trazado_71631" data-name="Trazado 71631" d="M722.6,852.972c-7.936,2.764,13.763,18.192,30.349,17.924-28.714,7.4-49.849-11.593-48.6-14s3.121-1.605,6.331-2.854S717.869,850.3,722.6,852.972Z" transform="translate(-674.369 -830.629)" fill="#f04f5f"/>
          <path id="Trazado_71632" data-name="Trazado 71632" d="M918.28,854.937c7.357,4.682,4.815,18.325,4.815,18.325,8.516-5.841,9.586-11.994,7.58-13.6s-4.013-2.274-4.949-3.879S918.28,854.937,918.28,854.937Z" transform="translate(-844.52 -832.996)" fill="#f04f5f"/>
          <circle id="Elipse_516" data-name="Elipse 516" cx="1.546" cy="1.546" r="1.546" transform="translate(77.268 39.226)" fill="#f04f5f"/>
          <path id="Trazado_71633" data-name="Trazado 71633" d="M921.884,949.293c-4.637,2.2-4.815,7.372-3.8,11.236C923.192,956.605,921.884,949.293,921.884,949.293Z" transform="translate(-843.963 -908.164)" fill="#f04f5f"/>
          <path id="Trazado_71634" data-name="Trazado 71634" d="M945.4,950.163a6.583,6.583,0,0,1,5.767,6.3C944.513,956.227,945.4,950.163,945.4,950.163Z" transform="translate(-866.056 -908.856)" fill="#f04f5f"/>
          <path id="Trazado_71635" data-name="Trazado 71635" d="M755.03,877.789a.338.338,0,0,1-.144-.032c-.581-.271-14.237-6.7-13.87-12.518a.342.342,0,0,1,.682.043c-.338,5.353,13.339,11.791,13.477,11.856a.342.342,0,0,1-.145.652Z" transform="translate(-703.564 -841.074)" fill="#c7c7c7" style="mix-blend-mode: multiply;isolation: isolate"/>
          <path id="Trazado_71636" data-name="Trazado 71636" d="M956.42,879.287a.342.342,0,0,1-.316-.471,16.188,16.188,0,0,0,.64-9.116.342.342,0,0,1,.661-.176,16.585,16.585,0,0,1-.668,9.551A.342.342,0,0,1,956.42,879.287Z" transform="translate(-874.575 -844.535)" fill="#c7c7c7" style="mix-blend-mode: multiply;isolation: isolate"/>
          <path id="Trazado_71637" data-name="Trazado 71637" d="M768.437,862.7a.74.74,0,1,1-.74-.74A.739.739,0,0,1,768.437,862.7Z" transform="translate(-724.198 -838.722)" fill="#ffb780"/>
          <path id="Trazado_71638" data-name="Trazado 71638" d="M773.951,888.237a.74.74,0,1,1-.74-.739A.74.74,0,0,1,773.951,888.237Z" transform="translate(-728.582 -859.029)" fill="#ffb780"/>
          <path id="Trazado_71639" data-name="Trazado 71639" d="M791.073,928.575a.74.74,0,1,1-.74-.739A.74.74,0,0,1,791.073,928.575Z" transform="translate(-742.196 -891.103)" fill="#ffb780"/>
          <path id="Trazado_71640" data-name="Trazado 71640" d="M835.183,927.415a.74.74,0,1,1-.74-.74A.74.74,0,0,1,835.183,927.415Z" transform="translate(-777.27 -890.18)" fill="#ffb780"/>
          <path id="Trazado_71641" data-name="Trazado 71641" d="M871.168,940.474a.74.74,0,1,1-.74-.74A.74.74,0,0,1,871.168,940.474Z" transform="translate(-805.883 -900.564)" fill="#ffb780"/>
          <path id="Trazado_71642" data-name="Trazado 71642" d="M936.463,862.99a.74.74,0,1,1-.74-.739A.74.74,0,0,1,936.463,862.99Z" transform="translate(-857.802 -838.954)" fill="#ffb780"/>
          <path id="Trazado_71643" data-name="Trazado 71643" d="M972.448,880.982a.739.739,0,1,1-.739-.74A.74.74,0,0,1,972.448,880.982Z" transform="translate(-886.415 -853.26)" fill="#ffb780"/>
          <path id="Trazado_71644" data-name="Trazado 71644" d="M949.522,895.2a.74.74,0,1,1-.74-.74A.74.74,0,0,1,949.522,895.2Z" transform="translate(-868.186 -864.567)" fill="#ffb780"/>
          <path id="Trazado_71645" data-name="Trazado 71645" d="M940.526,942.794a.739.739,0,1,1-.739-.74A.739.739,0,0,1,940.526,942.794Z" transform="translate(-861.033 -902.409)" fill="#ffb780"/>
          <path id="Trazado_71646" data-name="Trazado 71646" d="M921.663,974.137a.74.74,0,1,1-.74-.74A.74.74,0,0,1,921.663,974.137Z" transform="translate(-846.034 -927.331)" fill="#ffb780"/>
          <path id="Trazado_71647" data-name="Trazado 71647" d="M932.11,960.5a.74.74,0,1,1-.74-.739A.739.739,0,0,1,932.11,960.5Z" transform="translate(-854.341 -916.485)" fill="#ffb780"/>
          <path id="Trazado_71648" data-name="Trazado 71648" d="M958.228,965.721a.74.74,0,1,1-.74-.74A.74.74,0,0,1,958.228,965.721Z" transform="translate(-875.108 -920.639)" fill="#ffb780"/>
        </g>
        <g id="Grupo_38084" data-name="Grupo 38084" transform="translate(34.921 209.5)">
          <path id="Trazado_71649" data-name="Trazado 71649" d="M516.731,1490.79a18.2,18.2,0,0,0-16.885,24.95l33.753.04a18.2,18.2,0,0,0-16.868-24.991Z" transform="translate(-491.094 -1480.58)" fill="#f04f5f"/>
          <path id="Trazado_71650" data-name="Trazado 71650" d="M533.6,1516.584a18.2,18.2,0,0,0-14.116-24.783c4.686,10.191-7.509,19.337-20.921,17.229-.01.248-.017.5-.017.749a18.133,18.133,0,0,0,1.3,6.765Z" transform="translate(-491.094 -1481.384)" fill="#ccac97" style="mix-blend-mode: multiply;isolation: isolate"/>
          <rect id="Rectángulo_31791" data-name="Rectángulo 31791" width="43.014" height="4.197" rx="2.098" transform="translate(4.129 32.941)" fill="#f04f5f"/>
          <g id="Grupo_38077" data-name="Grupo 38077" transform="translate(8.382)">
            <rect id="Rectángulo_31792" data-name="Rectángulo 31792" width="0.816" height="13.755" transform="translate(3.052 4.208) rotate(-34.326)" fill="#878787"/>
            <path id="Trazado_71651" data-name="Trazado 71651" d="M507.771,1442.068a2.564,2.564,0,1,1-3.564-.672A2.565,2.565,0,0,1,507.771,1442.068Z" transform="translate(-503.088 -1440.949)" fill="#2e8c96"/>
            <path id="Trazado_71652" data-name="Trazado 71652" d="M510.726,1441.154a2.563,2.563,0,0,1,.7,4.569,2.582,2.582,0,0,1-.446.243,2.564,2.564,0,1,0-.25-4.812Z" transform="translate(-509.161 -1440.951)" fill="#c7c7c7" style="mix-blend-mode: multiply;isolation: isolate"/>
          </g>
          <g id="Grupo_38078" data-name="Grupo 38078" transform="translate(0 18.929)">
            <path id="Trazado_71653" data-name="Trazado 71653" d="M492.011,1550.92l-.236.781-8.75-2.668.236-.781Z" transform="translate(-478.753 -1545.199)" fill="#878787"/>
            <circle id="Elipse_517" data-name="Elipse 517" cx="2.565" cy="2.565" r="2.565" transform="translate(0 5.09) rotate(-82.919)" fill="#f04f5f"/>
            <path id="Trazado_71654" data-name="Trazado 71654" d="M465.1,1536.147a2.563,2.563,0,0,1,3.41,3.119,2.581,2.581,0,0,1-.194.469,2.564,2.564,0,1,0-3.216-3.589Z" transform="translate(-464.501 -1534.496)" fill="#c7c7c7" style="mix-blend-mode: multiply;isolation: isolate"/>
          </g>
          <g id="Grupo_38079" data-name="Grupo 38079" transform="translate(36.266 18.268)">
            <path id="Trazado_71655" data-name="Trazado 71655" d="M639.449,1546.131l-.247-.778,8.727-2.74.247.778Z" transform="translate(-639.202 -1540.055)" fill="#878787"/>
            <path id="Trazado_71656" data-name="Trazado 71656" d="M680.99,1535.134a2.564,2.564,0,1,1,1.669-3.22A2.564,2.564,0,0,1,680.99,1535.134Z" transform="translate(-669.773 -1530.124)" fill="#f04f5f"/>
            <path id="Trazado_71657" data-name="Trazado 71657" d="M682.766,1536.842a2.564,2.564,0,0,1-4.681-1.146,2.564,2.564,0,1,0,4.681,1.146Z" transform="translate(-669.775 -1534.555)" fill="#c7c7c7" style="mix-blend-mode: multiply;isolation: isolate"/>
          </g>
          <g id="Grupo_38080" data-name="Grupo 38080" transform="translate(27.998 21.824)">
            <path id="Trazado_71658" data-name="Trazado 71658" d="M602.18,1552.489a2.565,2.565,0,1,1,1.669-3.22A2.565,2.565,0,0,1,602.18,1552.489Z" transform="translate(-598.84 -1547.479)" fill="#2e8c96"/>
            <path id="Trazado_71659" data-name="Trazado 71659" d="M603.956,1554.2a2.564,2.564,0,0,1-4.681-1.145,2.564,2.564,0,1,0,4.681,1.145Z" transform="translate(-598.841 -1551.91)" fill="#c7c7c7" style="mix-blend-mode: multiply;isolation: isolate"/>
          </g>
          <g id="Grupo_38081" data-name="Grupo 38081" transform="translate(18.672 26.253)">
            <path id="Trazado_71660" data-name="Trazado 71660" d="M556.658,1574.111a2.565,2.565,0,1,1,1.669-3.22A2.564,2.564,0,0,1,556.658,1574.111Z" transform="translate(-553.317 -1569.102)" fill="#11bda2"/>
            <path id="Trazado_71661" data-name="Trazado 71661" d="M558.434,1575.819a2.564,2.564,0,0,1-4.681-1.145,2.564,2.564,0,1,0,4.681,1.145Z" transform="translate(-553.319 -1573.533)" fill="#c7c7c7" style="mix-blend-mode: multiply;isolation: isolate"/>
          </g>
          <g id="Grupo_38082" data-name="Grupo 38082" transform="translate(13.705 17.148)">
            <circle id="Elipse_518" data-name="Elipse 518" cx="2.565" cy="2.565" r="2.565" transform="translate(0 0.52) rotate(-5.818)" fill="#ffdec8"/>
            <path id="Trazado_71662" data-name="Trazado 71662" d="M535.388,1532.573a2.563,2.563,0,0,1-4.68-1.145,2.564,2.564,0,1,0,4.68,1.145Z" transform="translate(-530.027 -1530.04)" fill="#c7c7c7" style="mix-blend-mode: multiply;isolation: isolate"/>
          </g>
          <g id="Grupo_38083" data-name="Grupo 38083" transform="translate(32.579 1.594)">
            <rect id="Rectángulo_31793" data-name="Rectángulo 31793" width="0.816" height="13.755" transform="translate(2.926 4.048) rotate(12.283)" fill="#878787"/>
            <path id="Trazado_71663" data-name="Trazado 71663" d="M632.233,1451.842a2.565,2.565,0,1,1-1.96-3.051A2.564,2.564,0,0,1,632.233,1451.842Z" transform="translate(-625.941 -1448.732)" fill="#11bda2"/>
            <path id="Trazado_71664" data-name="Trazado 71664" d="M631.8,1449.786a2.564,2.564,0,0,1-3.325,3.488,2.564,2.564,0,1,0,3.325-3.488Z" transform="translate(-626.984 -1449.57)" fill="#c7c7c7" style="mix-blend-mode: multiply;isolation: isolate"/>
          </g>
        </g>
        <g id="Grupo_38085" data-name="Grupo 38085" transform="translate(308.945 199.145)">
          <path id="Trazado_71665" data-name="Trazado 71665" d="M1894.309,1403.112c-3.469-13.007,13.007-19.144,11.607,1.067-1.067,9.138-1.6,10.806-1.6,10.806s-6.737,0-6.8-.467S1894.309,1403.112,1894.309,1403.112Z" transform="translate(-1874.565 -1390.971)" fill="#057563"/>
          <path id="Trazado_71666" data-name="Trazado 71666" d="M1914.661,1403.6a.17.17,0,0,0-.24-.018l-2.3,1.977-.22-10.167a.17.17,0,1,0-.341.007l.1,4.816-2.573-2.453a.17.17,0,0,0-.235.247l2.819,2.687.152,7.021a.171.171,0,0,0,.171.167h0a.17.17,0,0,0,.167-.174l-.037-1.709,2.512-2.16A.17.17,0,0,0,1914.661,1403.6Z" transform="translate(-1886.472 -1394.233)" fill="#06806c"/>
          <path id="Trazado_71667" data-name="Trazado 71667" d="M1812.6,1414.551c-19.344-11.873-13.608-27.215-3.469-23.613s8.939,23.48,8.939,23.48Z" transform="translate(-1799.797 -1390.403)" fill="#06806c"/>
          <path id="Trazado_71668" data-name="Trazado 71668" d="M1834.388,1429.775l-7.461-12.035,1.208-4.574a.341.341,0,1,0-.659-.174l-1.044,3.95-3.251-5.244a.341.341,0,0,0-.579.359l5.966,9.624-5.432-.714a.341.341,0,1,0-.089.676l5.984.786,4.776,7.7a.341.341,0,0,0,.579-.359Z" transform="translate(-1817.889 -1407.207)" fill="#078f78"/>
          <path id="Trazado_71669" data-name="Trazado 71669" d="M1948.178,1442.084c16.81-15.609,5.6-19.745-.4-15.475s-4,15.342-4,15.342Z" transform="translate(-1914.026 -1417.936)" fill="#06806c"/>
          <path id="Trazado_71670" data-name="Trazado 71670" d="M1955.559,1438.18c.521-.753,1.042-1.5,1.54-2.222l-.044-4.223a.341.341,0,0,1,.338-.344.346.346,0,0,1,.344.337l.034,3.262c1.568-2.26,2.769-3.987,2.769-3.987a.341.341,0,1,1,.56.389c-1.631,2.344-3.611,5.2-5.373,7.744l2.987-.141a.341.341,0,0,1,.032.681l-3.507.165c-2.168,3.135-3.9,5.662-4.067,5.943a.341.341,0,0,1-.654-.134c0-.1,0-.153,1.531-2.386l-1.115-3.515a.341.341,0,0,1,.65-.206l.954,3.008Z" transform="translate(-1919.641 -1422.569)" fill="#07947d"/>
          <path id="Trazado_71671" data-name="Trazado 71671" d="M1879.543,1447.449c-4-9.472-2.935-14.808,2.134-15.475s5.2,10.206,2.6,15.609Z" transform="translate(-1861.266 -1423.434)" fill="#07947e"/>
          <path id="Trazado_71672" data-name="Trazado 71672" d="M1888.51,1440.721a.341.341,0,0,0-.679.057l.27,3.235-1.7-1.6a.341.341,0,1,0-.467.5l2.249,2.12.713,8.556a.341.341,0,0,0,.339.313h.029a.341.341,0,0,0,.312-.368Z" transform="translate(-1868.204 -1430.164)" fill="#08a890"/>
          <path id="Trazado_71673" data-name="Trazado 71673" d="M1931.751,1487.94c3.269-6.337-5.2-7.271-3.068.267Z" transform="translate(-1902.001 -1463.926)" fill="#07947e"/>
          <path id="Trazado_71674" data-name="Trazado 71674" d="M1905.09,1472.024c-3.335-4.6-1.734-9.205,2.068-9.339s4.269,5.536,2.668,9.272Z" transform="translate(-1882.077 -1447.876)" fill="#08a48c"/>
          <path id="Trazado_71675" data-name="Trazado 71675" d="M1913.593,1470.746a.171.171,0,0,0-.236.048l-1.353,2.049-.513-5.617a.171.171,0,1,0-.34.031l.285,3.115-1.921-1.529a.17.17,0,0,0-.212.267l2.176,1.732.225,2.463a.167.167,0,0,0,.016.175l.143,1.559a.17.17,0,0,0,.169.155h.016a.171.171,0,0,0,.154-.185l-.148-1.622,1.588-2.4A.17.17,0,0,0,1913.593,1470.746Z" transform="translate(-1886.817 -1451.365)" fill="#09b89c"/>
          <rect id="Rectángulo_31794" data-name="Rectángulo 31794" width="21.346" height="23.263" transform="translate(12.807 24.148)" fill="#76cfd9"/>
        </g>
      </g>
    </g>
    <g id="Grupo_38088" data-name="Grupo 38088" transform="translate(595.016 446.29)">
      <path id="Trazado_71676" data-name="Trazado 71676" d="M1808.9,554.964a36.614,36.614,0,1,0,36.614,36.613A36.611,36.611,0,0,0,1808.9,554.964Zm2.764,67.571v-2.461a2.763,2.763,0,1,0-5.526,0v2.461a31.129,31.129,0,0,1-28.2-28.281h2.381a2.763,2.763,0,0,0,0-5.527h-2.369a31.133,31.133,0,0,1,28.188-28.108v2.289a2.763,2.763,0,1,0,5.526,0V560.62a31.132,31.132,0,0,1,28.188,28.108h-2.368a2.763,2.763,0,1,0,0,5.527h2.381A31.129,31.129,0,0,1,1811.664,622.535Z" transform="translate(-1772.287 -554.964)" fill="#3e4349"/>
      <path id="Trazado_71677" data-name="Trazado 71677" d="M1899.1,644.124l-16.368,17.151c-.03,0-.062,0-.093,0a3.132,3.132,0,0,0-.6.059l-13.7-10.351a2.073,2.073,0,0,0-2.493,3.314l13.695,10.347a3.107,3.107,0,0,0,6.2-.26c0-.082-.006-.162-.012-.243l16.365-17.152a2.073,2.073,0,1,0-3-2.86Z" transform="translate(-1846.026 -625.347)" fill="#3e4349"/>
    </g>
    <text id="_" data-name="$" transform="translate(449.943 584.854)" fill="#3e4349" font-size="61" font-family="MyriadPro-Regular, Myriad Pro"><tspan x="0" y="0">$</tspan></text>
  </g>
</svg>
