<svg xmlns="http://www.w3.org/2000/svg" width="376" height="462.391" viewBox="0 0 376 462.391">
  <g id="Grupo_42603" data-name="Grupo 42603" transform="translate(-1700.489 -1125.525)">
    <rect id="Rectángulo_32189" data-name="Rectángulo 32189" width="285.413" height="261.352" rx="27.871" transform="translate(1739.413 1125.525)" fill="#eaeaeb"/>
    <path id="Trazado_110678" data-name="Trazado 110678" d="M2058.18,1184.289h67.149a4.529,4.529,0,0,0,4.53-4.529h0a4.53,4.53,0,0,0-4.53-4.529H2058.18a4.529,4.529,0,0,0-4.529,4.529h0A4.528,4.528,0,0,0,2058.18,1184.289Z" transform="translate(-147.936 -18.699)" fill="#1487e3"/>
    <path id="Trazado_110679" data-name="Trazado 110679" d="M2058.18,1209.623h67.149a4.529,4.529,0,0,0,4.53-4.529h0a4.529,4.529,0,0,0-4.53-4.529H2058.18a4.528,4.528,0,0,0-4.529,4.529h0A4.528,4.528,0,0,0,2058.18,1209.623Z" transform="translate(-147.936 -28.231)" fill="#4aafff"/>
    <path id="Trazado_110680" data-name="Trazado 110680" d="M2058.18,1234.957h67.149a4.529,4.529,0,0,0,4.53-4.529h0a4.529,4.529,0,0,0-4.53-4.529H2058.18a4.528,4.528,0,0,0-4.529,4.529h0A4.528,4.528,0,0,0,2058.18,1234.957Z" transform="translate(-147.936 -37.762)" fill="#4aafff"/>
    <g id="Grupo_42564" data-name="Grupo 42564" transform="translate(1763.675 1146.584)">
      <g id="Grupo_42557" data-name="Grupo 42557">
        <g id="Grupo_42556" data-name="Grupo 42556">
          <path id="Trazado_110681" data-name="Trazado 110681" d="M1939.531,1203.224a66.219,66.219,0,1,0-124.7,44.6q.751,2.1,1.63,4.128a66.221,66.221,0,0,0,123.073-48.727ZM1893.9,1272.27a49.594,49.594,0,0,1-62.243-26.935q-.658-1.516-1.223-3.1a49.647,49.647,0,1,1,63.465,30.03Z" transform="translate(-1810.941 -1159.285)" fill="#4aafff"/>
        </g>
      </g>
      <g id="Grupo_42559" data-name="Grupo 42559" transform="translate(3.024 0.03)">
        <g id="Grupo_42558" data-name="Grupo 42558">
          <path id="Trazado_110682" data-name="Trazado 110682" d="M1831.609,1210.743l-15.82-4.941a66.316,66.316,0,0,1,61.234-46.47l.495,16.568a49.724,49.724,0,0,0-45.909,34.843Z" transform="translate(-1815.789 -1159.332)" fill="#1a598c"/>
        </g>
      </g>
      <g id="Grupo_42561" data-name="Grupo 42561" transform="translate(0 46.5)">
        <g id="Grupo_42560" data-name="Grupo 42560">
          <path id="Trazado_110683" data-name="Trazado 110683" d="M1831.655,1273.379l-15.2,6.615q-.875-2.021-1.63-4.128a65.924,65.924,0,0,1-.863-42.037l15.82,4.941a49.418,49.418,0,0,0,.647,31.514Q1831,1271.862,1831.655,1273.379Z" transform="translate(-1810.941 -1233.829)" fill="#2273b5"/>
        </g>
      </g>
      <g id="Grupo_42563" data-name="Grupo 42563" transform="translate(5.516 86.05)">
        <g id="Grupo_42562" data-name="Grupo 42562">
          <path id="Trazado_110684" data-name="Trazado 110684" d="M1830.051,1320.333a65.879,65.879,0,0,1-10.266-16.484l15.2-6.615a49.377,49.377,0,0,0,7.7,12.361Z" transform="translate(-1819.785 -1297.233)" fill="#3788cc"/>
        </g>
      </g>
    </g>
    <g id="Grupo_42573" data-name="Grupo 42573" transform="translate(1902.436 1227.609)">
      <g id="Grupo_42566" data-name="Grupo 42566" transform="translate(0 0)">
        <g id="Grupo_42565" data-name="Grupo 42565">
          <path id="Trazado_110685" data-name="Trazado 110685" d="M2085.537,1292.979a27.392,27.392,0,1,0-23.431,49.52q.836.4,1.685.731a27.392,27.392,0,0,0,21.746-50.25Zm6.848,33.543a20.512,20.512,0,0,1-26.084,10.327q-.636-.251-1.263-.548a20.537,20.537,0,1,1,27.347-9.779Z" transform="translate(-2046.423 -1290.341)" fill="#4aafff"/>
        </g>
      </g>
      <g id="Grupo_42568" data-name="Grupo 42568" transform="translate(0 8.612)">
        <g id="Grupo_42567" data-name="Grupo 42567">
          <path id="Trazado_110686" data-name="Trazado 110686" d="M2055.631,1332.467l-6.072,3.182a27.432,27.432,0,0,1,4.318-31.5l4.991,4.7a20.567,20.567,0,0,0-3.237,23.619Z" transform="translate(-2046.423 -1304.146)" fill="#1a598c"/>
        </g>
      </g>
      <g id="Grupo_42570" data-name="Grupo 42570" transform="translate(3.136 36.933)">
        <g id="Grupo_42569" data-name="Grupo 42569">
          <path id="Trazado_110687" data-name="Trazado 110687" d="M2068.192,1359.124l-2.51,6.38q-.849-.334-1.686-.73a27.266,27.266,0,0,1-12.547-12.043l6.072-3.182a20.44,20.44,0,0,0,9.407,9.028Q2067.555,1358.873,2068.192,1359.124Z" transform="translate(-2051.45 -1349.548)" fill="#4aafff"/>
        </g>
      </g>
      <g id="Grupo_42572" data-name="Grupo 42572" transform="translate(17.369 46.508)">
        <g id="Grupo_42571" data-name="Grupo 42571">
          <path id="Trazado_110688" data-name="Trazado 110688" d="M2082.091,1373.1a27.244,27.244,0,0,1-7.824-1.82l2.509-6.38a20.434,20.434,0,0,0,5.866,1.365Z" transform="translate(-2074.267 -1364.899)" fill="#4aafff"/>
        </g>
      </g>
    </g>
    <g id="Grupo_42574" data-name="Grupo 42574" transform="translate(1872.457 1277.41)">
      <path id="Trazado_110689" data-name="Trazado 110689" d="M2046.006,1393.3h-51.149v-1.017h50.133v-21.669h1.016Z" transform="translate(-1994.857 -1370.619)" fill="#4aafff"/>
    </g>
    <g id="Grupo_42575" data-name="Grupo 42575" transform="translate(1873.218 1288.464)">
      <rect id="Rectángulo_32190" data-name="Rectángulo 32190" width="26.923" height="6.1" fill="#e0e0e0"/>
    </g>
    <g id="Grupo_42587" data-name="Grupo 42587" transform="translate(1700.489 1211.271)">
      <g id="Grupo_42576" data-name="Grupo 42576" transform="translate(18.76 0)">
        <path id="Trazado_110690" data-name="Trazado 110690" d="M1749.772,1267.724s-12.678-.426-16.724,9.966-.992,18.362.162,22.146c3.013,9.885,3.26,13.474,1.8,19.44-1.293,5.288-2.482,8.019-3.974,12.963s1,4.394,1.213,4.755,49.649,4.926,49.649,4.926-1.322-10.707-4.8-13.194-6.921-2.99-4.272-13.586,4.327-15.516,2.843-23.2c-1.72-8.905-2.8-14.47-11.175-20.307A22.507,22.507,0,0,0,1749.772,1267.724Z" transform="translate(-1730.564 -1267.634)" fill="#3b3b40"/>
      </g>
      <path id="Trazado_110691" data-name="Trazado 110691" d="M1731.549,1827.956s6.974,10.355,9.784,12.852c0,0,6.244,2.291,6.869,6.662s.52,7.287-6.869,7.5-12.234-1.119-13.587-5.594a20.38,20.38,0,0,0-4.314-7.521v9.367h-1.665s-.417-9.054-.521-10.72-1.2-8.067,2.316-10.9A9.746,9.746,0,0,1,1731.549,1827.956Z" transform="translate(-1708.208 -1478.34)" fill="#d46946"/>
      <path id="Trazado_110692" data-name="Trazado 110692" d="M1786.372,1813.421a29.864,29.864,0,0,0,3.486,5.827c1.672,2.181,6.869,11.136,9.158,11.76s9.366,1.874,9.991,5.829.936,6.764-6.037,7.077-11.551.728-14.882-4.163a36.241,36.241,0,0,0-8.638-8.43v12.762h-2.705s-1.249-13.282-1.977-14.219-2.6-11.135,3.851-16.443S1786.372,1813.421,1786.372,1813.421Z" transform="translate(-1728.125 -1472.079)" fill="#d46946"/>
      <path id="Trazado_110693" data-name="Trazado 110693" d="M1721.263,1505.464s-7.835,11.651-10.224,25.233.442,58.961.338,65.674-6.348,23.416-5.1,36.06,11.682,74.541,11.682,74.541l7.986-1.638s-.78-64.16,0-69.468,2.348-24.654,2.66-26.84,19.819-59.573,19.819-69.365S1742.493,1489.489,1721.263,1505.464Z" transform="translate(-1702.604 -1355.718)" fill="#eea886"/>
      <path id="Trazado_110694" data-name="Trazado 110694" d="M1783.05,1513.138s14.465,55.21,16.183,62.86,4.2,13.957,4.2,17.2c0,7.536-2.8,19.636-2.8,19.636l-22.23,87.42-9.22,1.448s5.333-53.721,5.6-64.028c.262-10.329,8.214-25,6.652-29.368s-25.133-54.793-25.133-54.793S1738.454,1497.111,1783.05,1513.138Z" transform="translate(-1720.16 -1358.918)" fill="#eea886"/>
      <path id="Trazado_110695" data-name="Trazado 110695" d="M1742.875,1840.96s-7.14,3.992-11.739-1.133a36.244,36.244,0,0,1-6.031-10.081l7.986-1.638Z" transform="translate(-1709.75 -1478.492)" fill="#eea886"/>
      <path id="Trazado_110696" data-name="Trazado 110696" d="M1800.95,1831.585s-6.244,1.561-8.638,0-10.531-15.316-13.226-16.139c0,0,2.61-5.3,9.22-1.448C1788.306,1814,1799.181,1829.3,1800.95,1831.585Z" transform="translate(-1730.058 -1472.656)" fill="#eea886"/>
      <path id="Trazado_110697" data-name="Trazado 110697" d="M1783.766,1592.439s-33.46,14.365-83.277,14.365c0,0,5.247-75.486,12.49-91.741s51.552,1.641,51.552,1.641S1783.766,1578.82,1783.766,1592.439Z" transform="translate(-1700.489 -1358.153)" fill="#494f80"/>
      <g id="Grupo_42577" data-name="Grupo 42577" transform="translate(50.443 60.574)">
        <path id="Trazado_110698" data-name="Trazado 110698" d="M1851.824,1429.094s-30.517,2.627-38.068-.735c-3.78-1.682-8.9-8.656-13.631-16.306-.8-1.3-1.6-2.621-2.368-3.937-5.783-9.856-10.456-19.537-10.456-19.537s-13.96-17.563.9-23.838a18.041,18.041,0,0,1,9.354,7.152c3.587,5.547,6.391,13.87,7.1,16.616s12.655,26.875,13.4,27.555,8.258.226,14.046.772c9.444.891,19.4,1.411,19.4,1.411Z" transform="translate(-1781.354 -1364.741)" fill="#494f80"/>
      </g>
      <g id="Grupo_42578" data-name="Grupo 42578" transform="translate(6.072 55.81)">
        <path id="Trazado_110699" data-name="Trazado 110699" d="M1772.225,1401.714c-3.755,8.69-.214,11.589-1.931,20.279s-2.33,33.448-2.009,38.276-42.8,9.79-52.777.993c0,0,3.326-18.781,9.435-30.458,1.161-2.217.606-10.956-.574-13.96-.363-.92-1.807-4.472-3.64-8.963l-.005-.008c-1.908-4.667-4.234-10.351-6.195-15.136-2.322-5.67-4.135-10.088-4.135-10.088s-1.489-13.981,4.318-18.49c5.044-3.916,18.788-5.312,21.255-6.172s9.647-1.231,14.691-.481c0,0,7.724,3.648,10.408,4.187s13.09,14.055,14.915,18.991S1775.982,1393.022,1772.225,1401.714Z" transform="translate(-1710.224 -1357.103)" fill="#494f80"/>
      </g>
      <g id="Grupo_42579" data-name="Grupo 42579" transform="translate(32.486 36.725)">
        <path id="Trazado_110700" data-name="Trazado 110700" d="M1770.276,1337.083s-1.541,14.172-1.219,18.786c0,0-6.456,7.846-15.586-9.588,0,0,2.271-6.988-.62-16.779S1770.276,1337.083,1770.276,1337.083Z" transform="translate(-1752.568 -1326.508)" fill="#eea886"/>
      </g>
      <path id="Trazado_110701" data-name="Trazado 110701" d="M1741.607,1359.4s5.523,16.31,20.684,15.11,7.188-13.772,7.188-13.772a33.493,33.493,0,0,0-4.843-2.371c-1.064-.2-15.046-.8-15.046-.8Z" transform="translate(-1715.958 -1301.47)" fill="#eea886"/>
      <path id="Rectángulo_32191" data-name="Rectángulo 32191" d="M4.606,0H37.277a4.606,4.606,0,0,1,4.606,4.606v50.62a4.607,4.607,0,0,1-4.607,4.607H4.606A4.606,4.606,0,0,1,0,55.227V4.606A4.606,4.606,0,0,1,4.606,0Z" transform="translate(84.297 71.248)" fill="#434343"/>
      <rect id="Rectángulo_32192" data-name="Rectángulo 32192" width="36.188" height="51.697" transform="translate(87.144 75.316)" fill="#dbdff0"/>
      <path id="Trazado_110702" data-name="Trazado 110702" d="M1817.509,1455.458a4.191,4.191,0,0,0,2.269-.653c1.553-1.171,2.113-4.057,4.855-3.847s4.015,8.81,3.327,10.438-4.494,2.442-10.123,1.321S1817.509,1455.458,1817.509,1455.458Z" transform="translate(-1743.663 -1336.599)" fill="#eea886"/>
      <path id="Trazado_110703" data-name="Trazado 110703" d="M1828.153,1449.149a85.766,85.766,0,0,1,8.492-2.328c3.992-.863,8.761-1.145,9.226-.453.518.77-3.888,1.436-7.8,2.547-3.6,1.022-2.743,1.4-2.743,1.4s-.238-.121,3.873-.505c4.421-.413,8.974-.4,9.424.48.218.429.064.72-1.528,1.123.957-.043,1.092.205,1.13.59.189,1.992-6.258,3.576-8.82,4.2,1.97-.471,3.458-.615,2.748.719-.811,1.526-10.012,3.373-13.257,4.337C1825.357,1462.315,1828.153,1449.149,1828.153,1449.149Z" transform="translate(-1748.124 -1334.73)" fill="#eea886"/>
      <g id="Grupo_42580" data-name="Grupo 42580" transform="translate(121.33 82.402)">
        <path id="Trazado_110704" data-name="Trazado 110704" d="M1895.07,1400.067s5.953-1.385,7.868,1.482a11.165,11.165,0,0,1,1.508,8.267c-.477,1.707-2.021,6.1-4.035,5.2C1893.949,1412.117,1895.07,1400.067,1895.07,1400.067Z" transform="translate(-1894.996 -1399.733)" fill="#eea886"/>
      </g>
      <g id="Grupo_42581" data-name="Grupo 42581" transform="translate(124.094 79.383)">
        <path id="Trazado_110705" data-name="Trazado 110705" d="M1902.629,1398.309s-.833-4.023-2.443-3.335-.156,3.342-.156,3.342Z" transform="translate(-1899.426 -1394.894)" fill="#eea886"/>
      </g>
      <g id="Grupo_42582" data-name="Grupo 42582" transform="translate(121.405 81.733)">
        <path id="Trazado_110706" data-name="Trazado 110706" d="M1895.115,1399.664s.1-2.3,4.259.066S1895.115,1399.664,1895.115,1399.664Z" transform="translate(-1895.115 -1398.661)" fill="#eea886"/>
      </g>
      <path id="Trazado_110707" data-name="Trazado 110707" d="M1807.65,1426.295s4.539-10.788,4.734-13.219a79.572,79.572,0,0,1-2.367,17.16c-.8-1.3-1.6-2.62-2.368-3.937Z" transform="translate(-1740.805 -1322.351)" fill="#2b2f4d"/>
      <path id="Trazado_110708" data-name="Trazado 110708" d="M1815.24,1412.953c0-.134,0-.2,0-.2A1.964,1.964,0,0,1,1815.24,1412.953Z" transform="translate(-1743.66 -1322.228)" fill="#d1c0ba"/>
      <path id="Trazado_110709" data-name="Trazado 110709" d="M1766.529,1438.116l-18.9-33.28s6.6,33.2,11.6,34.316S1766.529,1438.116,1766.529,1438.116Z" transform="translate(-1718.222 -1319.251)" fill="#2b2f4d"/>
      <g id="Grupo_42583" data-name="Grupo 42583" transform="translate(4.763 62.039)">
        <path id="Trazado_110710" data-name="Trazado 110710" d="M1714.722,1367.309s-9.068,4.515-5.942,16.2,6.236,15.042,9.223,19.412c2.82,4.126,8.575,15.235,9.279,16.482s7.638,19.38,14,21.441c6.394,2.073,37.878-7.958,38.589-6.863s-.041-11.047-.041-11.047-14.631,1.08-17.858.86c-5.244-.356-13.655,1.788-15.678-2.753-2.376-5.335-10.9-22.869-11.8-25.758S1723.133,1364.341,1714.722,1367.309Z" transform="translate(-1708.125 -1367.089)" fill="#494f80"/>
      </g>
      <g id="Grupo_42584" data-name="Grupo 42584" transform="translate(26.672 4.397)">
        <path id="Trazado_110711" data-name="Trazado 110711" d="M1764.429,1277.027s13.987,9.13,9.441,31.2-21.059,9.936-22.852,8.684-7.338-15.064-7.554-21.089C1743.26,1290.148,1740.3,1267.4,1764.429,1277.027Z" transform="translate(-1743.247 -1274.682)" fill="#eea987"/>
      </g>
      <g id="Grupo_42585" data-name="Grupo 42585" transform="translate(25.427 2.341)">
        <path id="Trazado_110712" data-name="Trazado 110712" d="M1762.717,1280.217c-1.46-.43-6.381,9.084-9.032,11.431s-7.522,8.241-8,14.7-5.926-14.111-4.04-21.743,4.4-18.824,21.445-9.948,12.636,24.746,12.636,24.746S1770.088,1282.393,1762.717,1280.217Z" transform="translate(-1741.251 -1271.387)" fill="#3b3b40"/>
      </g>
      <g id="Grupo_42586" data-name="Grupo 42586" transform="translate(28.952 23.376)">
        <path id="Trazado_110713" data-name="Trazado 110713" d="M1753.033,1308.138c-.45-2.612-6.214-4.821-6.129-.9s3.268,8.454,5.066,8.168S1753.449,1310.547,1753.033,1308.138Z" transform="translate(-1746.902 -1305.108)" fill="#eea987"/>
      </g>
      <path id="Trazado_110714" data-name="Trazado 110714" d="M1757.861,1343.848c.1.195,3.43,6.59,13.612,8.2.226-2.5.543-5.552.543-5.552A16.371,16.371,0,0,1,1757.861,1343.848Z" transform="translate(-1722.073 -1296.307)" fill="#a87860"/>
    </g>
    <path id="Rectángulo_32193" data-name="Rectángulo 32193" d="M18.82,0h217.4a18.822,18.822,0,0,1,18.822,18.822V94.465a18.821,18.821,0,0,1-18.821,18.821H18.82A18.82,18.82,0,0,1,0,94.466V18.82A18.82,18.82,0,0,1,18.82,0Z" transform="translate(1821.445 1313.771)" fill="#ebebeb" style="mix-blend-mode: hard-light;isolation: isolate"/>
    <g id="Grupo_42602" data-name="Grupo 42602" transform="translate(1859.083 1328.526)">
      <g id="Grupo_42588" data-name="Grupo 42588" transform="translate(0 8.336)">
        <rect id="Rectángulo_32194" data-name="Rectángulo 32194" width="11.307" height="74.985" fill="#e0e0e0"/>
      </g>
      <g id="Grupo_42589" data-name="Grupo 42589" transform="translate(28.077 23.573)">
        <rect id="Rectángulo_32195" data-name="Rectángulo 32195" width="11.307" height="59.748" fill="#e0e0e0"/>
      </g>
      <g id="Grupo_42590" data-name="Grupo 42590" transform="translate(56.154 12.361)">
        <rect id="Rectángulo_32196" data-name="Rectángulo 32196" width="11.307" height="70.96" fill="#e0e0e0"/>
      </g>
      <g id="Grupo_42591" data-name="Grupo 42591" transform="translate(84.231 34.497)">
        <rect id="Rectángulo_32197" data-name="Rectángulo 32197" width="11.307" height="48.824" fill="#e0e0e0"/>
      </g>
      <g id="Grupo_42592" data-name="Grupo 42592" transform="translate(112.308 14.661)">
        <rect id="Rectángulo_32198" data-name="Rectángulo 32198" width="11.307" height="68.66" fill="#e0e0e0"/>
      </g>
      <g id="Grupo_42593" data-name="Grupo 42593" transform="translate(140.384 4.312)">
        <rect id="Rectángulo_32199" data-name="Rectángulo 32199" width="11.309" height="79.009" fill="#e0e0e0"/>
      </g>
      <g id="Grupo_42594" data-name="Grupo 42594" transform="translate(168.462)">
        <rect id="Rectángulo_32200" data-name="Rectángulo 32200" width="11.307" height="83.321" fill="#e0e0e0"/>
      </g>
      <g id="Grupo_42595" data-name="Grupo 42595" transform="translate(0 36.278)">
        <rect id="Rectángulo_32201" data-name="Rectángulo 32201" width="11.307" height="47.043" fill="#3788cc"/>
      </g>
      <g id="Grupo_42596" data-name="Grupo 42596" transform="translate(28.077 45.837)">
        <rect id="Rectángulo_32202" data-name="Rectángulo 32202" width="11.307" height="37.484" fill="#3788cc"/>
      </g>
      <g id="Grupo_42597" data-name="Grupo 42597" transform="translate(56.154 38.803)">
        <rect id="Rectángulo_32203" data-name="Rectángulo 32203" width="11.307" height="44.518" fill="#3788cc"/>
      </g>
      <g id="Grupo_42598" data-name="Grupo 42598" transform="translate(84.231 52.69)">
        <rect id="Rectángulo_32204" data-name="Rectángulo 32204" width="11.307" height="30.631" fill="#3788cc"/>
      </g>
      <g id="Grupo_42599" data-name="Grupo 42599" transform="translate(112.308 40.246)">
        <rect id="Rectángulo_32205" data-name="Rectángulo 32205" width="11.307" height="43.075" fill="#3788cc"/>
      </g>
      <g id="Grupo_42600" data-name="Grupo 42600" transform="translate(140.384 33.753)">
        <rect id="Rectángulo_32206" data-name="Rectángulo 32206" width="11.309" height="49.568" fill="#3788cc"/>
      </g>
      <g id="Grupo_42601" data-name="Grupo 42601" transform="translate(168.462 31.047)">
        <rect id="Rectángulo_32207" data-name="Rectángulo 32207" width="11.307" height="52.274" fill="#3788cc"/>
      </g>
    </g>
  </g>
</svg>
