<svg xmlns="http://www.w3.org/2000/svg" width="782" height="123.684" viewBox="0 0 782 123.684">
  <g id="Grupo_36299" data-name="Grupo 36299" transform="translate(-393.508 -3628)">
    <rect id="Rectángulo_31595" data-name="Rectángulo 31595" width="762" height="100" rx="15" transform="translate(393.508 3628)" fill="#d268cc" opacity="0.225"/>
    <path id="Trazado_86398" data-name="Trazado 86398" d="M6.943.737a5.911,5.911,0,0,1,5.063,2.2A7.121,7.121,0,0,1,13.289,7.32a7.675,7.675,0,0,1-1.468,4.808,5.821,5.821,0,0,1-4.913,2.25,5.872,5.872,0,0,1-4.685-1.969A7.434,7.434,0,0,1,.7,7.61,7.633,7.633,0,0,1,2,3.128,5.635,5.635,0,0,1,6.943.737Zm.176,12.076a3.641,3.641,0,0,0,3.344-1.657A7.052,7.052,0,0,0,11.5,7.347a5.435,5.435,0,0,0-1.191-3.665A4.065,4.065,0,0,0,7.049,2.293a4.24,4.24,0,0,0-3.27,1.375A5.8,5.8,0,0,0,2.514,7.725,5.926,5.926,0,0,0,3.6,11.341,4.082,4.082,0,0,0,7.119,12.813ZM15.038,1.045h1.538V5.729a3.447,3.447,0,0,1,2.8-1.389,3.667,3.667,0,0,1,2.852,1.208,5.148,5.148,0,0,1,1.094,3.564,6.112,6.112,0,0,1-1.081,3.709,3.507,3.507,0,0,1-3,1.477,3.071,3.071,0,0,1-1.811-.519,4.372,4.372,0,0,1-.94-.984V14H15.038ZM19.151,12.9a2.114,2.114,0,0,0,1.92-1.02,5.02,5.02,0,0,0,.637-2.689,4.414,4.414,0,0,0-.637-2.461A2.1,2.1,0,0,0,19.2,5.756a2.617,2.617,0,0,0-1.894.8,3.592,3.592,0,0,0-.813,2.637,5.827,5.827,0,0,0,.334,2.153A2.308,2.308,0,0,0,19.151,12.9Zm6.961-1.854a2.3,2.3,0,0,0,.4,1.213,2.485,2.485,0,0,0,2.074.765,3.059,3.059,0,0,0,1.547-.382A1.27,1.27,0,0,0,30.8,11.46a1.011,1.011,0,0,0-.536-.923,6.374,6.374,0,0,0-1.354-.448L27.65,9.772A6.131,6.131,0,0,1,25.875,9.1a2,2,0,0,1-1.02-1.775,2.713,2.713,0,0,1,.962-2.162,3.839,3.839,0,0,1,2.588-.826,3.593,3.593,0,0,1,3.067,1.248,2.708,2.708,0,0,1,.571,1.705H30.551a1.83,1.83,0,0,0-.378-.976,2.41,2.41,0,0,0-1.89-.624,2.259,2.259,0,0,0-1.358.343,1.074,1.074,0,0,0-.461.905,1.114,1.114,0,0,0,.606.984,3.644,3.644,0,0,0,1.037.387l1.046.255a8.087,8.087,0,0,1,2.285.8,2.118,2.118,0,0,1,.923,1.907,2.906,2.906,0,0,1-.954,2.171,4.059,4.059,0,0,1-2.9.914,3.9,3.9,0,0,1-2.975-.954,3.606,3.606,0,0,1-.936-2.36ZM38.092,4.376a4.294,4.294,0,0,1,1.942.47,3.582,3.582,0,0,1,1.433,1.217A4.2,4.2,0,0,1,42.1,7.725,10.868,10.868,0,0,1,42.24,9.8h-6.9a4.026,4.026,0,0,0,.677,2.3,2.266,2.266,0,0,0,1.96.866,2.534,2.534,0,0,0,1.978-.817,2.755,2.755,0,0,0,.6-1.1h1.556A3.276,3.276,0,0,1,41.7,12.2a4.111,4.111,0,0,1-.778,1.042,3.687,3.687,0,0,1-1.784.949,5.42,5.42,0,0,1-1.292.141,3.964,3.964,0,0,1-2.979-1.279,4.976,4.976,0,0,1-1.222-3.582,5.41,5.41,0,0,1,1.23-3.683A4.059,4.059,0,0,1,38.092,4.376Zm2.522,4.166A4.1,4.1,0,0,0,40.166,6.9,2.3,2.3,0,0,0,38,5.756a2.406,2.406,0,0,0-1.828.787,2.972,2.972,0,0,0-.782,2Zm3.612-3.955h1.5V6.213a3.592,3.592,0,0,1,.905-1.156A2.347,2.347,0,0,1,48.3,4.376q.044,0,.149.009t.36.035V6.09a2.363,2.363,0,0,0-.259-.035q-.119-.009-.259-.009a2.258,2.258,0,0,0-1.837.769,2.684,2.684,0,0,0-.642,1.771V14H44.227Zm6.724,0,2.514,7.664,2.628-7.664h1.731L54.272,14H52.585L49.113,4.587ZM63.1,4.376a4.294,4.294,0,0,1,1.942.47,3.582,3.582,0,0,1,1.433,1.217A4.2,4.2,0,0,1,67.1,7.725,10.868,10.868,0,0,1,67.245,9.8h-6.9a4.026,4.026,0,0,0,.677,2.3,2.266,2.266,0,0,0,1.96.866,2.534,2.534,0,0,0,1.978-.817,2.755,2.755,0,0,0,.6-1.1h1.556A3.276,3.276,0,0,1,66.7,12.2a4.111,4.111,0,0,1-.778,1.042,3.687,3.687,0,0,1-1.784.949,5.42,5.42,0,0,1-1.292.141,3.964,3.964,0,0,1-2.979-1.279,4.976,4.976,0,0,1-1.222-3.582,5.41,5.41,0,0,1,1.23-3.683A4.059,4.059,0,0,1,63.1,4.376Zm2.522,4.166A4.1,4.1,0,0,0,65.171,6.9,2.3,2.3,0,0,0,63,5.756a2.406,2.406,0,0,0-1.828.787,2.972,2.972,0,0,0-.782,2ZM75.771,4.587v6.249A2.635,2.635,0,0,0,76,12.014a1.6,1.6,0,0,0,1.573.844,2.224,2.224,0,0,0,2.25-1.477,5.858,5.858,0,0,0,.325-2.171V4.587h1.582V14H80.235l.018-1.389a3.191,3.191,0,0,1-.765.905,3.365,3.365,0,0,1-2.2.738,2.834,2.834,0,0,1-2.742-1.345,4,4,0,0,1-.4-1.925v-6.4Zm8.429,0h1.5V5.923a4.215,4.215,0,0,1,1.415-1.187,3.773,3.773,0,0,1,1.661-.36,2.739,2.739,0,0,1,2.707,1.4,4.962,4.962,0,0,1,.387,2.188V14H90.264V8.067a3.212,3.212,0,0,0-.255-1.389A1.545,1.545,0,0,0,88.479,5.8a3.114,3.114,0,0,0-.923.114,2.377,2.377,0,0,0-1.143.773,2.329,2.329,0,0,0-.514.962,6.478,6.478,0,0,0-.119,1.419V14H84.2Zm18.932-.211a4.294,4.294,0,0,1,1.942.47,3.582,3.582,0,0,1,1.433,1.217,4.2,4.2,0,0,1,.633,1.661,10.868,10.868,0,0,1,.141,2.074h-6.9a4.026,4.026,0,0,0,.677,2.3,2.266,2.266,0,0,0,1.96.866,2.534,2.534,0,0,0,1.978-.817,2.755,2.755,0,0,0,.6-1.1h1.556a3.276,3.276,0,0,1-.409,1.156,4.111,4.111,0,0,1-.778,1.042,3.687,3.687,0,0,1-1.784.949,5.42,5.42,0,0,1-1.292.141,3.964,3.964,0,0,1-2.979-1.279,4.976,4.976,0,0,1-1.222-3.582,5.41,5.41,0,0,1,1.23-3.683A4.059,4.059,0,0,1,103.131,4.376Zm2.522,4.166a4.1,4.1,0,0,0-.448-1.644,2.3,2.3,0,0,0-2.171-1.143,2.406,2.406,0,0,0-1.828.787,2.972,2.972,0,0,0-.782,2Zm5.15-5.625h-1.582V1.089H110.8Zm-3.076,13.465a3.149,3.149,0,0,0,1.279-.189q.215-.154.215-.962V4.631H110.8V15.4a2.84,2.84,0,0,1-.334,1.538,2.31,2.31,0,0,1-2.1.861q-.114,0-.242-.009t-.4-.035Zm9.413-12.006a4.294,4.294,0,0,1,1.942.47,3.582,3.582,0,0,1,1.433,1.217,4.2,4.2,0,0,1,.633,1.661,10.868,10.868,0,0,1,.141,2.074h-6.9a4.026,4.026,0,0,0,.677,2.3,2.266,2.266,0,0,0,1.96.866A2.534,2.534,0,0,0,119,12.146a2.755,2.755,0,0,0,.6-1.1h1.556a3.276,3.276,0,0,1-.409,1.156,4.111,4.111,0,0,1-.778,1.042,3.687,3.687,0,0,1-1.784.949,5.42,5.42,0,0,1-1.292.141,3.964,3.964,0,0,1-2.979-1.279,4.976,4.976,0,0,1-1.222-3.582,5.41,5.41,0,0,1,1.23-3.683A4.059,4.059,0,0,1,117.141,4.376Zm2.522,4.166a4.1,4.1,0,0,0-.448-1.644,2.3,2.3,0,0,0-2.171-1.143,2.406,2.406,0,0,0-1.828.787,2.972,2.972,0,0,0-.782,2Zm3.568-3.955H124.8V5.923a5.258,5.258,0,0,1,1.02-1.011,3.066,3.066,0,0,1,1.775-.536,2.794,2.794,0,0,1,1.811.554,2.894,2.894,0,0,1,.7.932,3.419,3.419,0,0,1,1.239-1.121,3.457,3.457,0,0,1,1.6-.365,2.616,2.616,0,0,1,2.584,1.371,4.482,4.482,0,0,1,.369,1.986V14h-1.644V7.461a1.523,1.523,0,0,0-.47-1.292,1.861,1.861,0,0,0-1.147-.352,2.277,2.277,0,0,0-1.6.624,2.74,2.74,0,0,0-.672,2.083V14h-1.608V7.856a3.192,3.192,0,0,0-.229-1.4,1.394,1.394,0,0,0-1.345-.659,2.32,2.32,0,0,0-1.63.694,3.4,3.4,0,0,0-.734,2.514V14h-1.582Zm18.967,8.35a2.257,2.257,0,0,0,1.841-.927,4.413,4.413,0,0,0,.734-2.773,5.176,5.176,0,0,0-.325-1.934,2.383,2.383,0,0,0-4.5.088,6.514,6.514,0,0,0-.325,2.232,4.732,4.732,0,0,0,.325,1.854A2.243,2.243,0,0,0,142.2,12.937Zm-4.1-8.306h1.538V5.879a3.84,3.84,0,0,1,1.037-.993,3.338,3.338,0,0,1,1.881-.527,3.537,3.537,0,0,1,2.716,1.226,5.023,5.023,0,0,1,1.116,3.5q0,3.076-1.608,4.395a3.634,3.634,0,0,1-2.373.835,3.221,3.221,0,0,1-1.784-.466,4.111,4.111,0,0,1-.94-.905v4.808H138.1ZM148.28,1.089h1.582V14H148.28Zm7.69,11.892a2.182,2.182,0,0,0,2.158-1.191,5.933,5.933,0,0,0,.584-2.65A4.718,4.718,0,0,0,158.291,7a2.373,2.373,0,0,0-2.3-1.3A2.271,2.271,0,0,0,153.879,6.8a5.133,5.133,0,0,0-.659,2.672,4.465,4.465,0,0,0,.659,2.5A2.322,2.322,0,0,0,155.971,12.98Zm.062-8.666a4.262,4.262,0,0,1,3.076,1.213A4.736,4.736,0,0,1,160.365,9.1a6.122,6.122,0,0,1-1.107,3.762,4.006,4.006,0,0,1-3.437,1.485,3.88,3.88,0,0,1-3.085-1.314A5.19,5.19,0,0,1,151.594,9.5a5.615,5.615,0,0,1,1.2-3.779A4.041,4.041,0,0,1,156.032,4.314ZM168.249,9.4a4.666,4.666,0,0,0,.642,2.531,2.248,2.248,0,0,0,2.057,1.02,2.166,2.166,0,0,0,1.806-.945,4.462,4.462,0,0,0,.708-2.711,4.009,4.009,0,0,0-.729-2.641,2.276,2.276,0,0,0-1.8-.857,2.378,2.378,0,0,0-1.938.914A4.186,4.186,0,0,0,168.249,9.4Zm2.382-4.983a3.349,3.349,0,0,1,1.811.457,4.253,4.253,0,0,1,.958.923V1.045h1.521V14H173.5V12.69a3.423,3.423,0,0,1-1.31,1.257,3.748,3.748,0,0,1-1.731.387,3.506,3.506,0,0,1-2.725-1.323,5.172,5.172,0,0,1-1.151-3.52,6.076,6.076,0,0,1,1.05-3.564A3.439,3.439,0,0,1,170.631,4.42Zm10.547-.044a4.294,4.294,0,0,1,1.942.47,3.582,3.582,0,0,1,1.433,1.217,4.2,4.2,0,0,1,.633,1.661,10.868,10.868,0,0,1,.141,2.074h-6.9a4.026,4.026,0,0,0,.677,2.3,2.266,2.266,0,0,0,1.96.866,2.534,2.534,0,0,0,1.978-.817,2.755,2.755,0,0,0,.6-1.1h1.556a3.276,3.276,0,0,1-.409,1.156,4.111,4.111,0,0,1-.778,1.042,3.687,3.687,0,0,1-1.784.949,5.42,5.42,0,0,1-1.292.141,3.964,3.964,0,0,1-2.979-1.279,4.976,4.976,0,0,1-1.222-3.582,5.41,5.41,0,0,1,1.23-3.683A4.059,4.059,0,0,1,181.178,4.376ZM183.7,8.542a4.1,4.1,0,0,0-.448-1.644,2.3,2.3,0,0,0-2.171-1.143,2.406,2.406,0,0,0-1.828.787,2.972,2.972,0,0,0-.782,2Zm3.612-7.453h1.582V14h-1.582ZM197.271,9.4a4.666,4.666,0,0,0,.642,2.531,2.248,2.248,0,0,0,2.057,1.02,2.166,2.166,0,0,0,1.806-.945,4.462,4.462,0,0,0,.708-2.711,4.009,4.009,0,0,0-.729-2.641,2.276,2.276,0,0,0-1.8-.857,2.378,2.378,0,0,0-1.938.914A4.186,4.186,0,0,0,197.271,9.4Zm2.382-4.983a3.349,3.349,0,0,1,1.811.457,4.253,4.253,0,0,1,.958.923V1.045h1.521V14h-1.424V12.69a3.423,3.423,0,0,1-1.31,1.257,3.748,3.748,0,0,1-1.731.387,3.506,3.506,0,0,1-2.725-1.323,5.172,5.172,0,0,1-1.151-3.52,6.076,6.076,0,0,1,1.05-3.564A3.439,3.439,0,0,1,199.652,4.42Zm10.362,8.561a2.182,2.182,0,0,0,2.158-1.191,5.933,5.933,0,0,0,.584-2.65A4.718,4.718,0,0,0,212.335,7a2.373,2.373,0,0,0-2.3-1.3A2.271,2.271,0,0,0,207.923,6.8a5.133,5.133,0,0,0-.659,2.672,4.465,4.465,0,0,0,.659,2.5A2.322,2.322,0,0,0,210.015,12.98Zm.062-8.666a4.262,4.262,0,0,1,3.076,1.213A4.736,4.736,0,0,1,214.409,9.1a6.122,6.122,0,0,1-1.107,3.762,4.006,4.006,0,0,1-3.437,1.485,3.88,3.88,0,0,1-3.085-1.314A5.19,5.19,0,0,1,205.638,9.5a5.615,5.615,0,0,1,1.2-3.779A4.041,4.041,0,0,1,210.076,4.314Zm9.844,0a4.1,4.1,0,0,1,2.588.773,3.705,3.705,0,0,1,1.2,2.663H222.17a2.839,2.839,0,0,0-.642-1.446,2.027,2.027,0,0,0-1.608-.576,2.222,2.222,0,0,0-2.162,1.477,5.865,5.865,0,0,0-.422,2.364,4.449,4.449,0,0,0,.6,2.382,2.317,2.317,0,0,0,3.441.365,3.311,3.311,0,0,0,.8-1.648h1.538a4.129,4.129,0,0,1-1.318,2.738,4.113,4.113,0,0,1-2.7.866,3.6,3.6,0,0,1-2.944-1.349,5.164,5.164,0,0,1-1.1-3.371,5.678,5.678,0,0,1,1.2-3.858A3.891,3.891,0,0,1,219.92,4.314Zm6.952.272v6.249a2.635,2.635,0,0,0,.229,1.178,1.6,1.6,0,0,0,1.573.844,2.224,2.224,0,0,0,2.25-1.477,5.858,5.858,0,0,0,.325-2.171V4.587h1.582V14h-1.494l.018-1.389a3.191,3.191,0,0,1-.765.905,3.365,3.365,0,0,1-2.2.738,2.834,2.834,0,0,1-2.742-1.345,4,4,0,0,1-.4-1.925v-6.4Zm8.429,0h1.564V5.923a5.258,5.258,0,0,1,1.02-1.011,3.066,3.066,0,0,1,1.775-.536,2.794,2.794,0,0,1,1.811.554,2.894,2.894,0,0,1,.7.932,3.419,3.419,0,0,1,1.239-1.121,3.457,3.457,0,0,1,1.6-.365A2.616,2.616,0,0,1,247.6,5.747a4.482,4.482,0,0,1,.369,1.986V14h-1.644V7.461a1.523,1.523,0,0,0-.47-1.292,1.861,1.861,0,0,0-1.147-.352,2.277,2.277,0,0,0-1.6.624,2.74,2.74,0,0,0-.672,2.083V14H240.82V7.856a3.192,3.192,0,0,0-.229-1.4,1.394,1.394,0,0,0-1.345-.659,2.32,2.32,0,0,0-1.63.694,3.4,3.4,0,0,0-.734,2.514V14H235.3Zm18.914-.211a4.294,4.294,0,0,1,1.942.47,3.582,3.582,0,0,1,1.433,1.217,4.2,4.2,0,0,1,.633,1.661,10.868,10.868,0,0,1,.141,2.074h-6.9a4.026,4.026,0,0,0,.677,2.3,2.266,2.266,0,0,0,1.96.866,2.534,2.534,0,0,0,1.978-.817,2.755,2.755,0,0,0,.6-1.1h1.556a3.276,3.276,0,0,1-.409,1.156,4.111,4.111,0,0,1-.778,1.042,3.687,3.687,0,0,1-1.784.949,5.42,5.42,0,0,1-1.292.141,3.964,3.964,0,0,1-2.979-1.279,4.976,4.976,0,0,1-1.222-3.582A5.41,5.41,0,0,1,251,5.791,4.059,4.059,0,0,1,254.215,4.376Zm2.522,4.166a4.1,4.1,0,0,0-.448-1.644,2.3,2.3,0,0,0-2.171-1.143,2.406,2.406,0,0,0-1.828.787,2.972,2.972,0,0,0-.782,2Zm3.568-3.955h1.5V5.923a4.215,4.215,0,0,1,1.415-1.187,3.773,3.773,0,0,1,1.661-.36,2.739,2.739,0,0,1,2.707,1.4,4.962,4.962,0,0,1,.387,2.188V14H266.37V8.067a3.212,3.212,0,0,0-.255-1.389,1.545,1.545,0,0,0-1.529-.879,3.114,3.114,0,0,0-.923.114,2.377,2.377,0,0,0-1.143.773,2.329,2.329,0,0,0-.514.962,6.478,6.478,0,0,0-.119,1.419V14h-1.582Zm10.327-2.628h1.6V4.587h1.5V5.879h-1.5v6.144a.665.665,0,0,0,.334.659,1.42,1.42,0,0,0,.615.1q.114,0,.246,0t.308-.022V14a3.532,3.532,0,0,1-.567.114,5.39,5.39,0,0,1-.637.035,1.717,1.717,0,0,1-1.5-.567,2.519,2.519,0,0,1-.4-1.472V5.879h-1.274V4.587h1.274Zm8.42,11.021a2.182,2.182,0,0,0,2.158-1.191,5.933,5.933,0,0,0,.584-2.65A4.718,4.718,0,0,0,281.373,7a2.373,2.373,0,0,0-2.3-1.3A2.271,2.271,0,0,0,276.961,6.8a5.133,5.133,0,0,0-.659,2.672,4.465,4.465,0,0,0,.659,2.5A2.322,2.322,0,0,0,279.053,12.98Zm.062-8.666a4.262,4.262,0,0,1,3.076,1.213A4.736,4.736,0,0,1,283.447,9.1a6.122,6.122,0,0,1-1.107,3.762,4.006,4.006,0,0,1-3.437,1.485,3.88,3.88,0,0,1-3.085-1.314A5.19,5.19,0,0,1,274.676,9.5a5.615,5.615,0,0,1,1.2-3.779A4.041,4.041,0,0,1,279.114,4.314Zm12.234,5.106a5.361,5.361,0,0,0,.343,2.048,2.178,2.178,0,0,0,2.171,1.468,2.271,2.271,0,0,0,2.276-1.547,5.9,5.9,0,0,0,.343-2.18,4.855,4.855,0,0,0-.378-2.039,2.285,2.285,0,0,0-2.259-1.4,2.214,2.214,0,0,0-1.762.892A4.289,4.289,0,0,0,291.349,9.421Zm2.338-5.045a3.229,3.229,0,0,1,1.969.589,3.492,3.492,0,0,1,.844.932V4.587H298V17.753h-1.591V12.919a2.839,2.839,0,0,1-1.094,1.006,3.67,3.67,0,0,1-1.745.374,3.722,3.722,0,0,1-2.689-1.178A4.856,4.856,0,0,1,289.7,9.535a5.922,5.922,0,0,1,1.112-3.709A3.466,3.466,0,0,1,293.687,4.376Zm8.235.211v6.249a2.635,2.635,0,0,0,.229,1.178,1.6,1.6,0,0,0,1.573.844,2.224,2.224,0,0,0,2.25-1.477A5.858,5.858,0,0,0,306.3,9.21V4.587h1.582V14h-1.494l.018-1.389a3.191,3.191,0,0,1-.765.905,3.365,3.365,0,0,1-2.2.738A2.834,2.834,0,0,1,300.7,12.91a4,4,0,0,1-.4-1.925v-6.4Zm12.349-.211a4.294,4.294,0,0,1,1.942.47,3.582,3.582,0,0,1,1.433,1.217,4.2,4.2,0,0,1,.633,1.661,10.868,10.868,0,0,1,.141,2.074h-6.9a4.026,4.026,0,0,0,.677,2.3,2.266,2.266,0,0,0,1.96.866,2.534,2.534,0,0,0,1.978-.817,2.755,2.755,0,0,0,.6-1.1h1.556a3.276,3.276,0,0,1-.409,1.156,4.111,4.111,0,0,1-.778,1.042,3.687,3.687,0,0,1-1.784.949,5.42,5.42,0,0,1-1.292.141,3.964,3.964,0,0,1-2.979-1.279,4.976,4.976,0,0,1-1.222-3.582,5.41,5.41,0,0,1,1.23-3.683A4.059,4.059,0,0,1,314.271,4.376Zm2.522,4.166a4.1,4.1,0,0,0-.448-1.644,2.3,2.3,0,0,0-2.171-1.143,2.406,2.406,0,0,0-1.828.787,2.972,2.972,0,0,0-.782,2Zm8.613-3.955h1.5V6.213a3.592,3.592,0,0,1,.905-1.156,2.347,2.347,0,0,1,1.661-.681q.044,0,.149.009t.36.035V6.09a2.363,2.363,0,0,0-.259-.035q-.119-.009-.259-.009a2.258,2.258,0,0,0-1.837.769,2.684,2.684,0,0,0-.642,1.771V14h-1.582Zm9.87-.211a4.294,4.294,0,0,1,1.942.47,3.582,3.582,0,0,1,1.433,1.217,4.2,4.2,0,0,1,.633,1.661,10.868,10.868,0,0,1,.141,2.074h-6.9a4.026,4.026,0,0,0,.677,2.3,2.266,2.266,0,0,0,1.96.866,2.534,2.534,0,0,0,1.978-.817,2.755,2.755,0,0,0,.6-1.1h1.556a3.276,3.276,0,0,1-.409,1.156,4.111,4.111,0,0,1-.778,1.042,3.687,3.687,0,0,1-1.784.949,5.42,5.42,0,0,1-1.292.141,3.964,3.964,0,0,1-2.979-1.279,4.976,4.976,0,0,1-1.222-3.582,5.41,5.41,0,0,1,1.23-3.683A4.059,4.059,0,0,1,335.276,4.376ZM337.8,8.542a4.1,4.1,0,0,0-.448-1.644,2.3,2.3,0,0,0-2.171-1.143,2.406,2.406,0,0,0-1.828.787,2.972,2.972,0,0,0-.782,2Zm6.891-4.122a3.431,3.431,0,0,1,1.934.545,4.343,4.343,0,0,1,.914.9V4.675H349v8.561a6.313,6.313,0,0,1-.527,2.83,3.786,3.786,0,0,1-3.718,1.916,4.56,4.56,0,0,1-2.558-.681,2.656,2.656,0,0,1-1.16-2.131h1.608a1.79,1.79,0,0,0,.457.976,2.893,2.893,0,0,0,4.069-.756,7.227,7.227,0,0,0,.308-2.7,3.1,3.1,0,0,1-1.143,1.072,4.1,4.1,0,0,1-4.443-.734,4.774,4.774,0,0,1-1.147-3.59A5.437,5.437,0,0,1,341.9,5.747,3.574,3.574,0,0,1,344.689,4.42Zm2.848,4.834a3.924,3.924,0,0,0-.721-2.593,2.309,2.309,0,0,0-1.837-.844,2.268,2.268,0,0,0-2.285,1.564,6.134,6.134,0,0,0-.325,2.188,3.885,3.885,0,0,0,.646,2.421,2.085,2.085,0,0,0,1.736.831,2.437,2.437,0,0,0,2.4-1.538A4.961,4.961,0,0,0,347.537,9.254Zm3.841-4.623h1.608V14h-1.608Zm0-3.542h1.608V2.882h-1.608Zm4.939,9.958a2.3,2.3,0,0,0,.4,1.213,2.485,2.485,0,0,0,2.074.765,3.059,3.059,0,0,0,1.547-.382A1.27,1.27,0,0,0,361,11.46a1.011,1.011,0,0,0-.536-.923,6.374,6.374,0,0,0-1.354-.448l-1.257-.316A6.131,6.131,0,0,1,356.08,9.1a2,2,0,0,1-1.02-1.775,2.713,2.713,0,0,1,.962-2.162,3.839,3.839,0,0,1,2.588-.826,3.593,3.593,0,0,1,3.067,1.248,2.708,2.708,0,0,1,.571,1.705h-1.494a1.83,1.83,0,0,0-.378-.976,2.41,2.41,0,0,0-1.89-.624,2.259,2.259,0,0,0-1.358.343,1.074,1.074,0,0,0-.461.905,1.114,1.114,0,0,0,.606.984,3.644,3.644,0,0,0,1.037.387l1.046.255a8.087,8.087,0,0,1,2.285.8,2.118,2.118,0,0,1,.923,1.907,2.906,2.906,0,0,1-.954,2.171,4.059,4.059,0,0,1-2.9.914,3.9,3.9,0,0,1-2.975-.954,3.606,3.606,0,0,1-.936-2.36Zm8.376-9.088h1.6V4.587h1.5V5.879h-1.5v6.144a.665.665,0,0,0,.334.659,1.42,1.42,0,0,0,.615.1q.114,0,.246,0t.308-.022V14a3.532,3.532,0,0,1-.567.114,5.39,5.39,0,0,1-.637.035,1.717,1.717,0,0,1-1.5-.567,2.519,2.519,0,0,1-.4-1.472V5.879h-1.274V4.587h1.274Zm4.729,2.628h1.5V6.213a3.592,3.592,0,0,1,.905-1.156,2.347,2.347,0,0,1,1.661-.681q.044,0,.149.009t.36.035V6.09a2.363,2.363,0,0,0-.259-.035q-.119-.009-.259-.009a2.258,2.258,0,0,0-1.837.769A2.684,2.684,0,0,0,371,8.586V14h-1.582Zm7.163,6.908a1.3,1.3,0,0,0,.5,1.081,1.857,1.857,0,0,0,1.187.4,3.608,3.608,0,0,0,1.617-.387,2.176,2.176,0,0,0,1.318-2.1V9.21a2.707,2.707,0,0,1-.747.308,6.366,6.366,0,0,1-.9.176l-.958.123a3.664,3.664,0,0,0-1.292.36A1.4,1.4,0,0,0,376.585,11.5Zm3.832-3.2a.859.859,0,0,0,.729-.457,1.391,1.391,0,0,0,.105-.606,1.285,1.285,0,0,0-.576-1.173,3.089,3.089,0,0,0-1.648-.365,2.094,2.094,0,0,0-1.758.668,2.2,2.2,0,0,0-.378,1.1h-1.477a2.718,2.718,0,0,1,1.129-2.421,4.637,4.637,0,0,1,2.518-.681,5.124,5.124,0,0,1,2.7.633A2.147,2.147,0,0,1,382.79,6.96v5.423a.694.694,0,0,0,.1.4.487.487,0,0,0,.426.149q.105,0,.237-.013t.281-.04v1.169a4.406,4.406,0,0,1-.562.132,4.111,4.111,0,0,1-.527.026,1.3,1.3,0,0,1-1.187-.58,2.239,2.239,0,0,1-.272-.87,4.025,4.025,0,0,1-1.389,1.1,4.3,4.3,0,0,1-2,.466,2.967,2.967,0,0,1-2.14-.8,2.642,2.642,0,0,1-.831-1.991,2.564,2.564,0,0,1,.817-2.03,3.889,3.889,0,0,1,2.145-.888Zm10.011-7.207h1.582V14h-1.582Zm7.69,11.892a2.182,2.182,0,0,0,2.158-1.191,5.933,5.933,0,0,0,.584-2.65A4.718,4.718,0,0,0,400.438,7a2.373,2.373,0,0,0-2.3-1.3A2.271,2.271,0,0,0,396.026,6.8a5.133,5.133,0,0,0-.659,2.672,4.465,4.465,0,0,0,.659,2.5A2.322,2.322,0,0,0,398.118,12.98Zm.062-8.666a4.262,4.262,0,0,1,3.076,1.213A4.736,4.736,0,0,1,402.513,9.1a6.122,6.122,0,0,1-1.107,3.762,4.006,4.006,0,0,1-3.437,1.485,3.88,3.88,0,0,1-3.085-1.314A5.19,5.19,0,0,1,393.741,9.5a5.615,5.615,0,0,1,1.2-3.779A4.041,4.041,0,0,1,398.18,4.314Zm7.154,6.732a2.3,2.3,0,0,0,.4,1.213,2.485,2.485,0,0,0,2.074.765,3.059,3.059,0,0,0,1.547-.382,1.27,1.27,0,0,0,.668-1.182,1.011,1.011,0,0,0-.536-.923,6.374,6.374,0,0,0-1.354-.448l-1.257-.316A6.131,6.131,0,0,1,405.1,9.1a2,2,0,0,1-1.02-1.775,2.713,2.713,0,0,1,.962-2.162,3.839,3.839,0,0,1,2.588-.826A3.593,3.593,0,0,1,410.7,5.589a2.708,2.708,0,0,1,.571,1.705h-1.494a1.83,1.83,0,0,0-.378-.976,2.41,2.41,0,0,0-1.89-.624,2.259,2.259,0,0,0-1.358.343,1.074,1.074,0,0,0-.461.905,1.114,1.114,0,0,0,.606.984,3.644,3.644,0,0,0,1.037.387l1.046.255a8.087,8.087,0,0,1,2.285.8,2.118,2.118,0,0,1,.923,1.907,2.906,2.906,0,0,1-.954,2.171,4.059,4.059,0,0,1-2.9.914,3.9,3.9,0,0,1-2.975-.954,3.606,3.606,0,0,1-.936-2.36Zm17.033,1.89a2.257,2.257,0,0,0,1.841-.927,4.413,4.413,0,0,0,.734-2.773,5.176,5.176,0,0,0-.325-1.934,2.383,2.383,0,0,0-4.5.088,6.514,6.514,0,0,0-.325,2.232,4.732,4.732,0,0,0,.325,1.854A2.243,2.243,0,0,0,422.367,12.937Zm-4.1-8.306h1.538V5.879a3.84,3.84,0,0,1,1.037-.993,3.338,3.338,0,0,1,1.881-.527,3.537,3.537,0,0,1,2.716,1.226,5.023,5.023,0,0,1,1.116,3.5q0,3.076-1.608,4.395a3.634,3.634,0,0,1-2.373.835,3.221,3.221,0,0,1-1.784-.466,4.111,4.111,0,0,1-.94-.905v4.808h-1.582Zm10.178-.044h1.5V6.213a3.592,3.592,0,0,1,.905-1.156,2.347,2.347,0,0,1,1.661-.681q.044,0,.149.009t.36.035V6.09a2.363,2.363,0,0,0-.259-.035q-.119-.009-.259-.009a2.258,2.258,0,0,0-1.837.769,2.684,2.684,0,0,0-.642,1.771V14h-1.582Zm9.686,8.394a2.182,2.182,0,0,0,2.158-1.191,5.933,5.933,0,0,0,.584-2.65A4.718,4.718,0,0,0,440.455,7a2.373,2.373,0,0,0-2.3-1.3A2.271,2.271,0,0,0,436.043,6.8a5.133,5.133,0,0,0-.659,2.672,4.465,4.465,0,0,0,.659,2.5A2.322,2.322,0,0,0,438.135,12.98Zm.062-8.666a4.262,4.262,0,0,1,3.076,1.213A4.736,4.736,0,0,1,442.529,9.1a6.122,6.122,0,0,1-1.107,3.762,4.006,4.006,0,0,1-3.437,1.485,3.88,3.88,0,0,1-3.085-1.314A5.19,5.19,0,0,1,433.758,9.5a5.615,5.615,0,0,1,1.2-3.779A4.041,4.041,0,0,1,438.2,4.314Zm9.844,0a4.1,4.1,0,0,1,2.588.773,3.705,3.705,0,0,1,1.2,2.663H450.29a2.839,2.839,0,0,0-.642-1.446,2.027,2.027,0,0,0-1.608-.576,2.222,2.222,0,0,0-2.162,1.477,5.865,5.865,0,0,0-.422,2.364,4.449,4.449,0,0,0,.6,2.382,2.317,2.317,0,0,0,3.441.365,3.311,3.311,0,0,0,.8-1.648h1.538a4.129,4.129,0,0,1-1.318,2.738,4.113,4.113,0,0,1-2.7.866,3.6,3.6,0,0,1-2.944-1.349,5.164,5.164,0,0,1-1.1-3.371,5.678,5.678,0,0,1,1.2-3.858A3.891,3.891,0,0,1,448.04,4.314Zm9.29.062a4.294,4.294,0,0,1,1.942.47,3.582,3.582,0,0,1,1.433,1.217,4.2,4.2,0,0,1,.633,1.661,10.868,10.868,0,0,1,.141,2.074h-6.9a4.026,4.026,0,0,0,.677,2.3,2.266,2.266,0,0,0,1.96.866,2.534,2.534,0,0,0,1.978-.817,2.755,2.755,0,0,0,.6-1.1h1.556a3.276,3.276,0,0,1-.409,1.156,4.111,4.111,0,0,1-.778,1.042,3.687,3.687,0,0,1-1.784.949,5.42,5.42,0,0,1-1.292.141,3.964,3.964,0,0,1-2.979-1.279,4.976,4.976,0,0,1-1.222-3.582,5.41,5.41,0,0,1,1.23-3.683A4.059,4.059,0,0,1,457.33,4.376Zm2.522,4.166A4.1,4.1,0,0,0,459.4,6.9a2.3,2.3,0,0,0-2.171-1.143,2.406,2.406,0,0,0-1.828.787,2.972,2.972,0,0,0-.782,2Zm4.57.861a4.666,4.666,0,0,0,.642,2.531,2.248,2.248,0,0,0,2.057,1.02,2.166,2.166,0,0,0,1.806-.945,4.462,4.462,0,0,0,.708-2.711,4.009,4.009,0,0,0-.729-2.641,2.276,2.276,0,0,0-1.8-.857,2.378,2.378,0,0,0-1.938.914A4.186,4.186,0,0,0,464.423,9.4ZM466.8,4.42a3.349,3.349,0,0,1,1.811.457,4.253,4.253,0,0,1,.958.923V1.045h1.521V14H469.67V12.69a3.423,3.423,0,0,1-1.31,1.257,3.748,3.748,0,0,1-1.731.387,3.506,3.506,0,0,1-2.725-1.323,5.172,5.172,0,0,1-1.151-3.52,6.076,6.076,0,0,1,1.05-3.564A3.439,3.439,0,0,1,466.8,4.42Zm6.627.211h1.608V14h-1.608Zm0-3.542h1.608V2.882h-1.608Zm4,3.5H479V5.923a5.258,5.258,0,0,1,1.02-1.011,3.066,3.066,0,0,1,1.775-.536,2.794,2.794,0,0,1,1.811.554,2.894,2.894,0,0,1,.7.932,3.419,3.419,0,0,1,1.239-1.121,3.457,3.457,0,0,1,1.6-.365,2.616,2.616,0,0,1,2.584,1.371,4.482,4.482,0,0,1,.369,1.986V14h-1.644V7.461a1.523,1.523,0,0,0-.47-1.292,1.861,1.861,0,0,0-1.147-.352,2.277,2.277,0,0,0-1.6.624,2.74,2.74,0,0,0-.672,2.083V14H482.95V7.856a3.192,3.192,0,0,0-.229-1.4,1.394,1.394,0,0,0-1.345-.659,2.32,2.32,0,0,0-1.63.694,3.4,3.4,0,0,0-.734,2.514V14h-1.582Zm14.994.044h1.608V14h-1.608Zm0-3.542h1.608V2.882h-1.608Zm7.919,3.287a4.294,4.294,0,0,1,1.942.47,3.582,3.582,0,0,1,1.433,1.217,4.2,4.2,0,0,1,.633,1.661,10.868,10.868,0,0,1,.141,2.074h-6.9a4.026,4.026,0,0,0,.677,2.3,2.266,2.266,0,0,0,1.96.866,2.534,2.534,0,0,0,1.978-.817,2.755,2.755,0,0,0,.6-1.1h1.556a3.276,3.276,0,0,1-.409,1.156,4.111,4.111,0,0,1-.778,1.042,3.687,3.687,0,0,1-1.784.949,5.42,5.42,0,0,1-1.292.141,3.964,3.964,0,0,1-2.979-1.279A4.976,4.976,0,0,1,495.9,9.474a5.41,5.41,0,0,1,1.23-3.683A4.059,4.059,0,0,1,500.344,4.376Zm2.522,4.166a4.1,4.1,0,0,0-.448-1.644,2.3,2.3,0,0,0-2.171-1.143,2.406,2.406,0,0,0-1.828.787,2.972,2.972,0,0,0-.782,2Zm3.568-3.955h1.5V5.923a4.215,4.215,0,0,1,1.415-1.187,3.773,3.773,0,0,1,1.661-.36,2.739,2.739,0,0,1,2.707,1.4,4.962,4.962,0,0,1,.387,2.188V14H512.5V8.067a3.212,3.212,0,0,0-.255-1.389,1.545,1.545,0,0,0-1.529-.879,3.114,3.114,0,0,0-.923.114,2.377,2.377,0,0,0-1.143.773,2.329,2.329,0,0,0-.514.962,6.478,6.478,0,0,0-.119,1.419V14h-1.582Zm10.327-2.628h1.6V4.587h1.5V5.879h-1.5v6.144a.665.665,0,0,0,.334.659,1.42,1.42,0,0,0,.615.1q.114,0,.246,0t.308-.022V14a3.532,3.532,0,0,1-.567.114,5.39,5.39,0,0,1-.637.035,1.717,1.717,0,0,1-1.5-.567,2.519,2.519,0,0,1-.4-1.472V5.879h-1.274V4.587h1.274Zm8.42,11.021a2.182,2.182,0,0,0,2.158-1.191,5.933,5.933,0,0,0,.584-2.65A4.718,4.718,0,0,0,527.5,7a2.373,2.373,0,0,0-2.3-1.3A2.271,2.271,0,0,0,523.09,6.8a5.133,5.133,0,0,0-.659,2.672,4.465,4.465,0,0,0,.659,2.5A2.322,2.322,0,0,0,525.182,12.98Zm.062-8.666a4.262,4.262,0,0,1,3.076,1.213A4.736,4.736,0,0,1,529.576,9.1a6.122,6.122,0,0,1-1.107,3.762,4.006,4.006,0,0,1-3.437,1.485,3.88,3.88,0,0,1-3.085-1.314A5.19,5.19,0,0,1,520.8,9.5a5.615,5.615,0,0,1,1.2-3.779A4.041,4.041,0,0,1,525.243,4.314Zm7.154,6.732a2.3,2.3,0,0,0,.4,1.213,2.485,2.485,0,0,0,2.074.765,3.059,3.059,0,0,0,1.547-.382,1.27,1.27,0,0,0,.668-1.182,1.011,1.011,0,0,0-.536-.923,6.374,6.374,0,0,0-1.354-.448l-1.257-.316A6.131,6.131,0,0,1,532.16,9.1a2,2,0,0,1-1.02-1.775,2.713,2.713,0,0,1,.962-2.162,3.839,3.839,0,0,1,2.588-.826,3.593,3.593,0,0,1,3.067,1.248,2.708,2.708,0,0,1,.571,1.705h-1.494a1.83,1.83,0,0,0-.378-.976,2.41,2.41,0,0,0-1.89-.624,2.259,2.259,0,0,0-1.358.343,1.074,1.074,0,0,0-.461.905,1.114,1.114,0,0,0,.606.984,3.644,3.644,0,0,0,1.037.387l1.046.255a8.087,8.087,0,0,1,2.285.8,2.118,2.118,0,0,1,.923,1.907,2.906,2.906,0,0,1-.954,2.171,4.059,4.059,0,0,1-2.9.914,3.9,3.9,0,0,1-2.975-.954,3.606,3.606,0,0,1-.936-2.36Zm18.94-6.46h1.749q-.334.905-1.485,4.131-.861,2.426-1.441,3.955a26.739,26.739,0,0,1-1.934,4.395,2.21,2.21,0,0,1-1.934.791,3.794,3.794,0,0,1-.514-.026,4.062,4.062,0,0,1-.444-.1V16.294a5.458,5.458,0,0,0,.6.141,2.333,2.333,0,0,0,.325.026,1.139,1.139,0,0,0,.646-.145,1.338,1.338,0,0,0,.347-.356q.044-.07.316-.721t.4-.967l-3.48-9.686h1.793l2.522,7.664Zm9.062,6.46a2.3,2.3,0,0,0,.4,1.213,2.485,2.485,0,0,0,2.074.765,3.059,3.059,0,0,0,1.547-.382,1.27,1.27,0,0,0,.668-1.182,1.011,1.011,0,0,0-.536-.923,6.374,6.374,0,0,0-1.354-.448l-1.257-.316a6.131,6.131,0,0,1-1.775-.668,2,2,0,0,1-1.02-1.775,2.713,2.713,0,0,1,.962-2.162,3.839,3.839,0,0,1,2.588-.826,3.593,3.593,0,0,1,3.067,1.248,2.708,2.708,0,0,1,.571,1.705h-1.494a1.83,1.83,0,0,0-.378-.976,2.41,2.41,0,0,0-1.89-.624,2.259,2.259,0,0,0-1.358.343,1.074,1.074,0,0,0-.461.905,1.114,1.114,0,0,0,.606.984,3.644,3.644,0,0,0,1.037.387l1.046.255a8.087,8.087,0,0,1,2.285.8,2.118,2.118,0,0,1,.923,1.907,2.906,2.906,0,0,1-.954,2.171,4.059,4.059,0,0,1-2.9.914,3.9,3.9,0,0,1-2.975-.954,3.606,3.606,0,0,1-.936-2.36Zm9.642-6.46v6.249a2.635,2.635,0,0,0,.229,1.178,1.6,1.6,0,0,0,1.573.844,2.224,2.224,0,0,0,2.25-1.477,5.858,5.858,0,0,0,.325-2.171V4.587H576V14h-1.494l.018-1.389a3.191,3.191,0,0,1-.765.905,3.365,3.365,0,0,1-2.2.738,2.834,2.834,0,0,1-2.742-1.345,4,4,0,0,1-.4-1.925v-6.4ZM5.08,28.376a4.294,4.294,0,0,1,1.942.47,3.582,3.582,0,0,1,1.433,1.217,4.2,4.2,0,0,1,.633,1.661A10.868,10.868,0,0,1,9.229,33.8h-6.9a4.026,4.026,0,0,0,.677,2.3,2.266,2.266,0,0,0,1.96.866,2.534,2.534,0,0,0,1.978-.817,2.755,2.755,0,0,0,.6-1.1H9.1A3.276,3.276,0,0,1,8.688,36.2a4.111,4.111,0,0,1-.778,1.042,3.687,3.687,0,0,1-1.784.949,5.42,5.42,0,0,1-1.292.141,3.964,3.964,0,0,1-2.979-1.279A4.976,4.976,0,0,1,.633,33.474a5.41,5.41,0,0,1,1.23-3.683A4.059,4.059,0,0,1,5.08,28.376ZM7.6,32.542A4.1,4.1,0,0,0,7.154,30.9a2.3,2.3,0,0,0-2.171-1.143,2.406,2.406,0,0,0-1.828.787,2.972,2.972,0,0,0-.782,2Zm4.509,2.5a2.3,2.3,0,0,0,.4,1.213,2.485,2.485,0,0,0,2.074.765,3.059,3.059,0,0,0,1.547-.382A1.27,1.27,0,0,0,16.8,35.46a1.011,1.011,0,0,0-.536-.923,6.374,6.374,0,0,0-1.354-.448l-1.257-.316a6.131,6.131,0,0,1-1.775-.668,2,2,0,0,1-1.02-1.775,2.713,2.713,0,0,1,.962-2.162,3.839,3.839,0,0,1,2.588-.826,3.593,3.593,0,0,1,3.067,1.248,2.708,2.708,0,0,1,.571,1.705H16.55a1.83,1.83,0,0,0-.378-.976,2.41,2.41,0,0,0-1.89-.624,2.259,2.259,0,0,0-1.358.343,1.074,1.074,0,0,0-.461.905,1.114,1.114,0,0,0,.606.984,3.644,3.644,0,0,0,1.037.387l1.046.255a8.087,8.087,0,0,1,2.285.8,2.118,2.118,0,0,1,.923,1.907,2.906,2.906,0,0,1-.954,2.171,4.059,4.059,0,0,1-2.9.914,3.9,3.9,0,0,1-2.975-.954,3.606,3.606,0,0,1-.936-2.36Zm8.376-9.088h1.6v2.628h1.5v1.292h-1.5v6.144a.665.665,0,0,0,.334.659,1.42,1.42,0,0,0,.615.1q.114,0,.246,0t.308-.022V38a3.532,3.532,0,0,1-.567.114,5.39,5.39,0,0,1-.637.035,1.717,1.717,0,0,1-1.5-.567,2.519,2.519,0,0,1-.4-1.472V29.879H19.213V28.587h1.274Zm4.729,2.628h1.5v1.626a3.592,3.592,0,0,1,.905-1.156,2.347,2.347,0,0,1,1.661-.681q.044,0,.149.009t.36.035v1.67a2.363,2.363,0,0,0-.259-.035q-.119-.009-.259-.009a2.258,2.258,0,0,0-1.837.769,2.684,2.684,0,0,0-.642,1.771V38H25.216Zm7.532,0v6.249a2.635,2.635,0,0,0,.229,1.178,1.6,1.6,0,0,0,1.573.844,2.224,2.224,0,0,0,2.25-1.477,5.858,5.858,0,0,0,.325-2.171V28.587h1.582V38H37.213l.018-1.389a3.191,3.191,0,0,1-.765.905,3.365,3.365,0,0,1-2.2.738,2.834,2.834,0,0,1-2.742-1.345,4,4,0,0,1-.4-1.925v-6.4Zm12.059-.272a4.1,4.1,0,0,1,2.588.773,3.705,3.705,0,0,1,1.2,2.663H47.057a2.839,2.839,0,0,0-.642-1.446,2.027,2.027,0,0,0-1.608-.576,2.222,2.222,0,0,0-2.162,1.477,5.865,5.865,0,0,0-.422,2.364,4.449,4.449,0,0,0,.6,2.382,2.317,2.317,0,0,0,3.441.365,3.311,3.311,0,0,0,.8-1.648h1.538a3.72,3.72,0,0,1-4.017,3.6,3.6,3.6,0,0,1-2.944-1.349,5.164,5.164,0,0,1-1.1-3.371,5.678,5.678,0,0,1,1.2-3.858A3.891,3.891,0,0,1,44.807,28.314Zm5.687-2.355h1.6v2.628h1.5v1.292h-1.5v6.144a.665.665,0,0,0,.334.659,1.42,1.42,0,0,0,.615.1q.114,0,.246,0t.308-.022V38a3.532,3.532,0,0,1-.567.114,5.39,5.39,0,0,1-.637.035,1.717,1.717,0,0,1-1.5-.567,2.519,2.519,0,0,1-.4-1.472V29.879H49.219V28.587h1.274Zm6.267,2.628v6.249a2.635,2.635,0,0,0,.229,1.178,1.6,1.6,0,0,0,1.573.844,2.224,2.224,0,0,0,2.25-1.477,5.858,5.858,0,0,0,.325-2.171V28.587h1.582V38H61.225l.018-1.389a3.191,3.191,0,0,1-.765.905,3.365,3.365,0,0,1-2.2.738,2.834,2.834,0,0,1-2.742-1.345,4,4,0,0,1-.4-1.925v-6.4Zm8.473,0h1.5v1.626a3.592,3.592,0,0,1,.905-1.156,2.347,2.347,0,0,1,1.661-.681q.044,0,.149.009t.36.035v1.67a2.363,2.363,0,0,0-.259-.035q-.119-.009-.259-.009a2.258,2.258,0,0,0-1.837.769,2.684,2.684,0,0,0-.642,1.771V38H65.232ZM72.4,35.5a1.3,1.3,0,0,0,.5,1.081,1.857,1.857,0,0,0,1.187.4,3.608,3.608,0,0,0,1.617-.387,2.176,2.176,0,0,0,1.318-2.1V33.21a2.707,2.707,0,0,1-.747.308,6.366,6.366,0,0,1-.9.176l-.958.123a3.664,3.664,0,0,0-1.292.36A1.4,1.4,0,0,0,72.4,35.5Zm3.832-3.2a.859.859,0,0,0,.729-.457,1.391,1.391,0,0,0,.105-.606,1.285,1.285,0,0,0-.576-1.173,3.089,3.089,0,0,0-1.648-.365,2.094,2.094,0,0,0-1.758.668,2.2,2.2,0,0,0-.378,1.1H71.227a2.718,2.718,0,0,1,1.129-2.421,4.637,4.637,0,0,1,2.518-.681,5.124,5.124,0,0,1,2.7.633A2.147,2.147,0,0,1,78.6,30.96v5.423a.694.694,0,0,0,.1.4.487.487,0,0,0,.426.149q.105,0,.237-.013t.281-.04v1.169a4.406,4.406,0,0,1-.562.132,4.111,4.111,0,0,1-.527.026,1.3,1.3,0,0,1-1.187-.58,2.239,2.239,0,0,1-.272-.87,4.025,4.025,0,0,1-1.389,1.1,4.3,4.3,0,0,1-2,.466,2.967,2.967,0,0,1-2.14-.8,2.642,2.642,0,0,1-.831-1.991,2.564,2.564,0,0,1,.817-2.03,3.889,3.889,0,0,1,2.145-.888Zm13.887-3.92a4.294,4.294,0,0,1,1.942.47,3.582,3.582,0,0,1,1.433,1.217,4.2,4.2,0,0,1,.633,1.661,10.868,10.868,0,0,1,.141,2.074h-6.9a4.026,4.026,0,0,0,.677,2.3,2.266,2.266,0,0,0,1.96.866,2.534,2.534,0,0,0,1.978-.817,2.755,2.755,0,0,0,.6-1.1h1.556a3.276,3.276,0,0,1-.409,1.156,4.111,4.111,0,0,1-.778,1.042,3.687,3.687,0,0,1-1.784.949,5.42,5.42,0,0,1-1.292.141,3.964,3.964,0,0,1-2.979-1.279,4.976,4.976,0,0,1-1.222-3.582,5.41,5.41,0,0,1,1.23-3.683A4.059,4.059,0,0,1,90.114,28.376Zm2.522,4.166a4.1,4.1,0,0,0-.448-1.644,2.3,2.3,0,0,0-2.171-1.143,2.406,2.406,0,0,0-1.828.787,2.972,2.972,0,0,0-.782,2Zm3.568-3.955h1.5v1.336a4.215,4.215,0,0,1,1.415-1.187,3.773,3.773,0,0,1,1.661-.36,2.739,2.739,0,0,1,2.707,1.4,4.962,4.962,0,0,1,.387,2.188V38H102.27V32.067a3.212,3.212,0,0,0-.255-1.389,1.545,1.545,0,0,0-1.529-.879,3.114,3.114,0,0,0-.923.114,2.377,2.377,0,0,0-1.143.773,2.329,2.329,0,0,0-.514.962,6.478,6.478,0,0,0-.119,1.419V38H96.205Zm18.932-.211a4.294,4.294,0,0,1,1.942.47,3.582,3.582,0,0,1,1.433,1.217,4.2,4.2,0,0,1,.633,1.661,10.868,10.868,0,0,1,.141,2.074h-6.9a4.026,4.026,0,0,0,.677,2.3,2.266,2.266,0,0,0,1.96.866A2.534,2.534,0,0,0,117,36.146a2.755,2.755,0,0,0,.6-1.1h1.556a3.276,3.276,0,0,1-.409,1.156,4.111,4.111,0,0,1-.778,1.042,3.687,3.687,0,0,1-1.784.949,5.42,5.42,0,0,1-1.292.141,3.964,3.964,0,0,1-2.979-1.279,4.976,4.976,0,0,1-1.222-3.582,5.41,5.41,0,0,1,1.23-3.683A4.059,4.059,0,0,1,115.137,28.376Zm2.522,4.166a4.1,4.1,0,0,0-.448-1.644,2.3,2.3,0,0,0-2.171-1.143,2.406,2.406,0,0,0-1.828.787,2.972,2.972,0,0,0-.782,2Zm3.612-7.453h1.582V38h-1.582Zm8.956,3.5h1.564v1.336a5.258,5.258,0,0,1,1.02-1.011,3.066,3.066,0,0,1,1.775-.536,2.794,2.794,0,0,1,1.811.554,2.894,2.894,0,0,1,.7.932,3.419,3.419,0,0,1,1.239-1.121,3.457,3.457,0,0,1,1.6-.365,2.616,2.616,0,0,1,2.584,1.371,4.482,4.482,0,0,1,.369,1.986V38h-1.644V31.461a1.523,1.523,0,0,0-.47-1.292,1.861,1.861,0,0,0-1.147-.352,2.277,2.277,0,0,0-1.6.624,2.74,2.74,0,0,0-.672,2.083V38h-1.608V31.856a3.192,3.192,0,0,0-.229-1.4,1.394,1.394,0,0,0-1.345-.659,2.32,2.32,0,0,0-1.63.694,3.4,3.4,0,0,0-.734,2.514V38h-1.582ZM146.435,35.5a1.3,1.3,0,0,0,.5,1.081,1.857,1.857,0,0,0,1.187.4,3.608,3.608,0,0,0,1.617-.387,2.176,2.176,0,0,0,1.318-2.1V33.21a2.707,2.707,0,0,1-.747.308,6.366,6.366,0,0,1-.9.176l-.958.123a3.664,3.664,0,0,0-1.292.36A1.4,1.4,0,0,0,146.435,35.5Zm3.832-3.2a.859.859,0,0,0,.729-.457,1.391,1.391,0,0,0,.105-.606,1.285,1.285,0,0,0-.576-1.173,3.089,3.089,0,0,0-1.648-.365,2.094,2.094,0,0,0-1.758.668,2.2,2.2,0,0,0-.378,1.1h-1.477A2.718,2.718,0,0,1,146.4,29.04a4.637,4.637,0,0,1,2.518-.681,5.124,5.124,0,0,1,2.7.633,2.147,2.147,0,0,1,1.028,1.969v5.423a.694.694,0,0,0,.1.4.487.487,0,0,0,.426.149q.105,0,.237-.013t.281-.04v1.169a4.406,4.406,0,0,1-.562.132,4.111,4.111,0,0,1-.527.026,1.3,1.3,0,0,1-1.187-.58,2.239,2.239,0,0,1-.272-.87,4.025,4.025,0,0,1-1.389,1.1,4.3,4.3,0,0,1-2,.466,2.967,2.967,0,0,1-2.14-.8,2.642,2.642,0,0,1-.831-1.991,2.564,2.564,0,0,1,.817-2.03,3.889,3.889,0,0,1,2.145-.888Zm5.282-6.337h1.6v2.628h1.5v1.292h-1.5v6.144a.665.665,0,0,0,.334.659,1.42,1.42,0,0,0,.615.1q.114,0,.246,0t.308-.022V38a3.532,3.532,0,0,1-.567.114,5.39,5.39,0,0,1-.637.035,1.717,1.717,0,0,1-1.5-.567,2.519,2.519,0,0,1-.4-1.472V29.879h-1.274V28.587h1.274Zm8.6,2.417a4.294,4.294,0,0,1,1.942.47,3.582,3.582,0,0,1,1.433,1.217,4.2,4.2,0,0,1,.633,1.661A10.868,10.868,0,0,1,168.3,33.8h-6.9a4.026,4.026,0,0,0,.677,2.3,2.266,2.266,0,0,0,1.96.866,2.534,2.534,0,0,0,1.978-.817,2.755,2.755,0,0,0,.6-1.1h1.556a3.276,3.276,0,0,1-.409,1.156,4.111,4.111,0,0,1-.778,1.042,3.687,3.687,0,0,1-1.784.949,5.42,5.42,0,0,1-1.292.141,3.964,3.964,0,0,1-2.979-1.279,4.976,4.976,0,0,1-1.222-3.582,5.41,5.41,0,0,1,1.23-3.683A4.059,4.059,0,0,1,164.153,28.376Zm2.522,4.166a4.1,4.1,0,0,0-.448-1.644,2.3,2.3,0,0,0-2.171-1.143,2.406,2.406,0,0,0-1.828.787,2.972,2.972,0,0,0-.782,2Zm3.612-3.955h1.5v1.626a3.592,3.592,0,0,1,.905-1.156,2.347,2.347,0,0,1,1.661-.681q.044,0,.149.009t.36.035v1.67a2.363,2.363,0,0,0-.259-.035q-.119-.009-.259-.009a2.258,2.258,0,0,0-1.837.769,2.684,2.684,0,0,0-.642,1.771V38h-1.582Zm5.95.044h1.608V38h-1.608Zm0-3.542h1.608v1.793h-1.608ZM181.45,35.5a1.3,1.3,0,0,0,.5,1.081,1.857,1.857,0,0,0,1.187.4,3.608,3.608,0,0,0,1.617-.387,2.176,2.176,0,0,0,1.318-2.1V33.21a2.707,2.707,0,0,1-.747.308,6.366,6.366,0,0,1-.9.176l-.958.123a3.664,3.664,0,0,0-1.292.36A1.4,1.4,0,0,0,181.45,35.5Zm3.832-3.2a.859.859,0,0,0,.729-.457,1.391,1.391,0,0,0,.105-.606,1.285,1.285,0,0,0-.576-1.173,3.089,3.089,0,0,0-1.648-.365,2.094,2.094,0,0,0-1.758.668,2.2,2.2,0,0,0-.378,1.1h-1.477a2.718,2.718,0,0,1,1.129-2.421,4.637,4.637,0,0,1,2.518-.681,5.124,5.124,0,0,1,2.7.633,2.147,2.147,0,0,1,1.028,1.969v5.423a.694.694,0,0,0,.1.4.487.487,0,0,0,.426.149q.105,0,.237-.013t.281-.04v1.169a4.406,4.406,0,0,1-.562.132,4.111,4.111,0,0,1-.527.026,1.3,1.3,0,0,1-1.187-.58,2.239,2.239,0,0,1-.272-.87,4.025,4.025,0,0,1-1.389,1.1,4.3,4.3,0,0,1-2,.466,2.967,2.967,0,0,1-2.14-.8,2.642,2.642,0,0,1-.831-1.991,2.564,2.564,0,0,1,.817-2.03,3.889,3.889,0,0,1,2.145-.888Zm5.01-7.207h1.582V38h-1.582Zm12.586,3.226a4.1,4.1,0,0,1,2.588.773,3.705,3.705,0,0,1,1.2,2.663h-1.538a2.839,2.839,0,0,0-.642-1.446,2.027,2.027,0,0,0-1.608-.576,2.222,2.222,0,0,0-2.162,1.477,5.865,5.865,0,0,0-.422,2.364,4.449,4.449,0,0,0,.6,2.382,2.317,2.317,0,0,0,3.441.365,3.311,3.311,0,0,0,.8-1.648h1.538a3.72,3.72,0,0,1-4.017,3.6,3.6,3.6,0,0,1-2.944-1.349,5.164,5.164,0,0,1-1.1-3.371,5.678,5.678,0,0,1,1.2-3.858A3.891,3.891,0,0,1,202.878,28.314Zm9.105,8.666a2.182,2.182,0,0,0,2.158-1.191,5.933,5.933,0,0,0,.584-2.65A4.718,4.718,0,0,0,214.3,31a2.373,2.373,0,0,0-2.3-1.3,2.271,2.271,0,0,0-2.109,1.107,5.133,5.133,0,0,0-.659,2.672,4.465,4.465,0,0,0,.659,2.5A2.322,2.322,0,0,0,211.983,36.98Zm.062-8.666a4.262,4.262,0,0,1,3.076,1.213,4.736,4.736,0,0,1,1.257,3.568,6.122,6.122,0,0,1-1.107,3.762,4.006,4.006,0,0,1-3.437,1.485,3.88,3.88,0,0,1-3.085-1.314,5.19,5.19,0,0,1-1.143-3.529,5.615,5.615,0,0,1,1.2-3.779A4.041,4.041,0,0,1,212.045,28.314Zm6.214.272h1.564v1.336a5.258,5.258,0,0,1,1.02-1.011,3.066,3.066,0,0,1,1.775-.536,2.794,2.794,0,0,1,1.811.554,2.894,2.894,0,0,1,.7.932,3.419,3.419,0,0,1,1.239-1.121,3.457,3.457,0,0,1,1.6-.365,2.616,2.616,0,0,1,2.584,1.371,4.482,4.482,0,0,1,.369,1.986V38H229.28V31.461a1.523,1.523,0,0,0-.47-1.292,1.861,1.861,0,0,0-1.147-.352,2.277,2.277,0,0,0-1.6.624,2.74,2.74,0,0,0-.672,2.083V38h-1.608V31.856a3.192,3.192,0,0,0-.229-1.4,1.394,1.394,0,0,0-1.345-.659,2.32,2.32,0,0,0-1.63.694,3.4,3.4,0,0,0-.734,2.514V38h-1.582Zm18.967,8.35a2.257,2.257,0,0,0,1.841-.927,4.413,4.413,0,0,0,.734-2.773,5.176,5.176,0,0,0-.325-1.934,2.383,2.383,0,0,0-4.5.088,6.514,6.514,0,0,0-.325,2.232,4.732,4.732,0,0,0,.325,1.854A2.243,2.243,0,0,0,237.226,36.937Zm-4.1-8.306h1.538v1.248a3.84,3.84,0,0,1,1.037-.993,3.338,3.338,0,0,1,1.881-.527,3.537,3.537,0,0,1,2.716,1.226,5.023,5.023,0,0,1,1.116,3.5q0,3.076-1.608,4.395a3.634,3.634,0,0,1-2.373.835,3.221,3.221,0,0,1-1.784-.466,4.111,4.111,0,0,1-.94-.905v4.808H233.13Zm10.178-3.542h1.582V38h-1.582Zm7.875,3.287a4.294,4.294,0,0,1,1.942.47,3.582,3.582,0,0,1,1.433,1.217,4.2,4.2,0,0,1,.633,1.661,10.868,10.868,0,0,1,.141,2.074h-6.9a4.026,4.026,0,0,0,.677,2.3,2.266,2.266,0,0,0,1.96.866,2.534,2.534,0,0,0,1.978-.817,2.755,2.755,0,0,0,.6-1.1H255.2a3.276,3.276,0,0,1-.409,1.156,4.111,4.111,0,0,1-.778,1.042,3.687,3.687,0,0,1-1.784.949,5.42,5.42,0,0,1-1.292.141,3.964,3.964,0,0,1-2.979-1.279,4.976,4.976,0,0,1-1.222-3.582,5.41,5.41,0,0,1,1.23-3.683A4.059,4.059,0,0,1,251.183,28.376Zm2.522,4.166a4.1,4.1,0,0,0-.448-1.644,2.3,2.3,0,0,0-2.171-1.143,2.406,2.406,0,0,0-1.828.787,2.972,2.972,0,0,0-.782,2Zm3.568-3.955h1.564v1.336a5.258,5.258,0,0,1,1.02-1.011,3.066,3.066,0,0,1,1.775-.536,2.794,2.794,0,0,1,1.811.554,2.894,2.894,0,0,1,.7.932,3.419,3.419,0,0,1,1.239-1.121,3.457,3.457,0,0,1,1.6-.365,2.616,2.616,0,0,1,2.584,1.371,4.482,4.482,0,0,1,.369,1.986V38h-1.644V31.461a1.523,1.523,0,0,0-.47-1.292,1.861,1.861,0,0,0-1.147-.352,2.277,2.277,0,0,0-1.6.624,2.74,2.74,0,0,0-.672,2.083V38h-1.608V31.856a3.192,3.192,0,0,0-.229-1.4,1.394,1.394,0,0,0-1.345-.659,2.32,2.32,0,0,0-1.63.694,3.4,3.4,0,0,0-.734,2.514V38h-1.582Zm18.914-.211a4.294,4.294,0,0,1,1.942.47,3.582,3.582,0,0,1,1.433,1.217,4.2,4.2,0,0,1,.633,1.661,10.868,10.868,0,0,1,.141,2.074h-6.9a4.026,4.026,0,0,0,.677,2.3,2.266,2.266,0,0,0,1.96.866,2.534,2.534,0,0,0,1.978-.817,2.755,2.755,0,0,0,.6-1.1H280.2A3.276,3.276,0,0,1,279.8,36.2a4.111,4.111,0,0,1-.778,1.042,3.687,3.687,0,0,1-1.784.949,5.42,5.42,0,0,1-1.292.141,3.964,3.964,0,0,1-2.979-1.279,4.976,4.976,0,0,1-1.222-3.582,5.41,5.41,0,0,1,1.23-3.683A4.059,4.059,0,0,1,276.188,28.376Zm2.522,4.166a4.1,4.1,0,0,0-.448-1.644,2.3,2.3,0,0,0-2.171-1.143,2.406,2.406,0,0,0-1.828.787,2.972,2.972,0,0,0-.782,2Zm3.568-3.955h1.5v1.336a4.215,4.215,0,0,1,1.415-1.187,3.773,3.773,0,0,1,1.661-.36,2.739,2.739,0,0,1,2.707,1.4,4.962,4.962,0,0,1,.387,2.188V38h-1.608V32.067a3.212,3.212,0,0,0-.255-1.389,1.545,1.545,0,0,0-1.529-.879,3.114,3.114,0,0,0-.923.114,2.377,2.377,0,0,0-1.143.773,2.329,2.329,0,0,0-.514.962,6.478,6.478,0,0,0-.119,1.419V38h-1.582Zm10.327-2.628h1.6v2.628h1.5v1.292h-1.5v6.144a.665.665,0,0,0,.334.659,1.42,1.42,0,0,0,.615.1q.114,0,.246,0t.308-.022V38a3.532,3.532,0,0,1-.567.114,5.39,5.39,0,0,1-.637.035,1.717,1.717,0,0,1-1.5-.567,2.519,2.519,0,0,1-.4-1.472V29.879h-1.274V28.587h1.274Zm5.9,9.536a1.3,1.3,0,0,0,.5,1.081,1.857,1.857,0,0,0,1.187.4,3.608,3.608,0,0,0,1.617-.387,2.176,2.176,0,0,0,1.318-2.1V33.21a2.707,2.707,0,0,1-.747.308,6.366,6.366,0,0,1-.9.176l-.958.123a3.664,3.664,0,0,0-1.292.36A1.4,1.4,0,0,0,298.5,35.5Zm3.832-3.2a.859.859,0,0,0,.729-.457,1.391,1.391,0,0,0,.105-.606,1.285,1.285,0,0,0-.576-1.173,3.089,3.089,0,0,0-1.648-.365,2.094,2.094,0,0,0-1.758.668,2.2,2.2,0,0,0-.378,1.1h-1.477a2.718,2.718,0,0,1,1.129-2.421,4.637,4.637,0,0,1,2.518-.681,5.124,5.124,0,0,1,2.7.633,2.147,2.147,0,0,1,1.028,1.969v5.423a.694.694,0,0,0,.1.4.487.487,0,0,0,.426.149q.105,0,.237-.013t.281-.04v1.169a4.406,4.406,0,0,1-.562.132,4.111,4.111,0,0,1-.527.026,1.3,1.3,0,0,1-1.187-.58,2.239,2.239,0,0,1-.272-.87,4.025,4.025,0,0,1-1.389,1.1,4.3,4.3,0,0,1-2,.466,2.967,2.967,0,0,1-2.14-.8,2.642,2.642,0,0,1-.831-1.991,2.564,2.564,0,0,1,.817-2.03,3.889,3.889,0,0,1,2.145-.888Zm5.01-3.709h1.5v1.626a3.592,3.592,0,0,1,.905-1.156,2.347,2.347,0,0,1,1.661-.681q.044,0,.149.009t.36.035v1.67a2.363,2.363,0,0,0-.259-.035q-.119-.009-.259-.009a2.258,2.258,0,0,0-1.837.769,2.684,2.684,0,0,0-.642,1.771V38h-1.582Zm5.95.044H314.9V38h-1.608Zm0-3.542H314.9v1.793h-1.608Zm7.734,11.892a2.182,2.182,0,0,0,2.158-1.191,5.933,5.933,0,0,0,.584-2.65A4.718,4.718,0,0,0,323.35,31a2.373,2.373,0,0,0-2.3-1.3,2.271,2.271,0,0,0-2.109,1.107,5.133,5.133,0,0,0-.659,2.672,4.465,4.465,0,0,0,.659,2.5A2.322,2.322,0,0,0,321.029,36.98Zm.062-8.666a4.262,4.262,0,0,1,3.076,1.213,4.736,4.736,0,0,1,1.257,3.568,6.122,6.122,0,0,1-1.107,3.762,4.006,4.006,0,0,1-3.437,1.485,3.88,3.88,0,0,1-3.085-1.314,5.19,5.19,0,0,1-1.143-3.529,5.615,5.615,0,0,1,1.2-3.779A4.041,4.041,0,0,1,321.091,28.314Zm6.592,7.77h1.837V38h-1.837Zm10-11h5.81a3.938,3.938,0,0,1,2.777.971,3.524,3.524,0,0,1,1.055,2.729,3.968,3.968,0,0,1-.94,2.632,3.563,3.563,0,0,1-2.892,1.121h-4.061V38h-1.749ZM345.56,28.8a1.943,1.943,0,0,0-1.055-1.934,3.808,3.808,0,0,0-1.591-.272h-3.48v4.474h3.48a3.326,3.326,0,0,0,1.912-.5A1.985,1.985,0,0,0,345.56,28.8Zm3.8-3.709h1.582V38h-1.582ZM354.524,35.5a1.3,1.3,0,0,0,.5,1.081,1.857,1.857,0,0,0,1.187.4,3.608,3.608,0,0,0,1.617-.387,2.176,2.176,0,0,0,1.318-2.1V33.21a2.707,2.707,0,0,1-.747.308,6.366,6.366,0,0,1-.9.176l-.958.123a3.664,3.664,0,0,0-1.292.36A1.4,1.4,0,0,0,354.524,35.5Zm3.832-3.2a.859.859,0,0,0,.729-.457,1.391,1.391,0,0,0,.105-.606,1.285,1.285,0,0,0-.576-1.173,3.089,3.089,0,0,0-1.648-.365,2.094,2.094,0,0,0-1.758.668,2.2,2.2,0,0,0-.378,1.1h-1.477a2.718,2.718,0,0,1,1.129-2.421A4.637,4.637,0,0,1,357,28.358a5.124,5.124,0,0,1,2.7.633,2.147,2.147,0,0,1,1.028,1.969v5.423a.694.694,0,0,0,.1.4.487.487,0,0,0,.426.149q.105,0,.237-.013t.281-.04v1.169a4.406,4.406,0,0,1-.562.132,4.111,4.111,0,0,1-.527.026,1.3,1.3,0,0,1-1.187-.58,2.239,2.239,0,0,1-.272-.87,4.025,4.025,0,0,1-1.389,1.1,4.3,4.3,0,0,1-2,.466,2.967,2.967,0,0,1-2.14-.8,2.642,2.642,0,0,1-.831-1.991,2.564,2.564,0,0,1,.817-2.03,3.889,3.889,0,0,1,2.145-.888Zm4.966-3.709h1.5v1.336a4.215,4.215,0,0,1,1.415-1.187,3.773,3.773,0,0,1,1.661-.36,2.739,2.739,0,0,1,2.707,1.4A4.962,4.962,0,0,1,371,31.962V38h-1.608V32.067a3.212,3.212,0,0,0-.255-1.389A1.545,1.545,0,0,0,367.6,29.8a3.114,3.114,0,0,0-.923.114,2.377,2.377,0,0,0-1.143.773,2.329,2.329,0,0,0-.514.962,6.478,6.478,0,0,0-.119,1.419V38h-1.582Zm10.327-2.628h1.6v2.628h1.5v1.292h-1.5v6.144a.665.665,0,0,0,.334.659,1.42,1.42,0,0,0,.615.1q.114,0,.246,0t.308-.022V38a3.532,3.532,0,0,1-.567.114,5.39,5.39,0,0,1-.637.035,1.717,1.717,0,0,1-1.5-.567,2.519,2.519,0,0,1-.4-1.472V29.879h-1.274V28.587h1.274Zm4.685,2.672h1.608V38h-1.608Zm0-3.542h1.608v1.793h-1.608Zm4.043,0h1.582V38h-1.582Zm4,0h1.582V38h-1.582ZM391.544,35.5a1.3,1.3,0,0,0,.5,1.081,1.857,1.857,0,0,0,1.187.4,3.608,3.608,0,0,0,1.617-.387,2.176,2.176,0,0,0,1.318-2.1V33.21a2.707,2.707,0,0,1-.747.308,6.366,6.366,0,0,1-.9.176l-.958.123a3.664,3.664,0,0,0-1.292.36A1.4,1.4,0,0,0,391.544,35.5Zm3.832-3.2a.859.859,0,0,0,.729-.457,1.391,1.391,0,0,0,.105-.606,1.285,1.285,0,0,0-.576-1.173,3.089,3.089,0,0,0-1.648-.365,2.094,2.094,0,0,0-1.758.668,2.2,2.2,0,0,0-.378,1.1h-1.477A2.718,2.718,0,0,1,391.5,29.04a4.637,4.637,0,0,1,2.518-.681,5.124,5.124,0,0,1,2.7.633,2.147,2.147,0,0,1,1.028,1.969v5.423a.694.694,0,0,0,.1.4.487.487,0,0,0,.426.149q.105,0,.237-.013t.281-.04v1.169a4.406,4.406,0,0,1-.562.132,4.111,4.111,0,0,1-.527.026,1.3,1.3,0,0,1-1.187-.58,2.239,2.239,0,0,1-.272-.87,4.025,4.025,0,0,1-1.389,1.1,4.3,4.3,0,0,1-2,.466,2.967,2.967,0,0,1-2.14-.8,2.642,2.642,0,0,1-.831-1.991,2.564,2.564,0,0,1,.817-2.03,3.889,3.889,0,0,1,2.145-.888ZM406.345,33.4a4.666,4.666,0,0,0,.642,2.531,2.248,2.248,0,0,0,2.057,1.02,2.166,2.166,0,0,0,1.806-.945,4.462,4.462,0,0,0,.708-2.711,4.009,4.009,0,0,0-.729-2.641,2.276,2.276,0,0,0-1.8-.857,2.378,2.378,0,0,0-1.938.914A4.186,4.186,0,0,0,406.345,33.4Zm2.382-4.983a3.349,3.349,0,0,1,1.811.457,4.253,4.253,0,0,1,.958.923V25.045h1.521V38h-1.424V36.69a3.423,3.423,0,0,1-1.31,1.257,3.748,3.748,0,0,1-1.731.387,3.506,3.506,0,0,1-2.725-1.323,5.172,5.172,0,0,1-1.151-3.52,6.076,6.076,0,0,1,1.05-3.564A3.439,3.439,0,0,1,408.727,28.42Zm10.547-.044a4.294,4.294,0,0,1,1.942.47,3.582,3.582,0,0,1,1.433,1.217,4.2,4.2,0,0,1,.633,1.661,10.868,10.868,0,0,1,.141,2.074h-6.9a4.026,4.026,0,0,0,.677,2.3,2.266,2.266,0,0,0,1.96.866,2.534,2.534,0,0,0,1.978-.817,2.755,2.755,0,0,0,.6-1.1h1.556a3.276,3.276,0,0,1-.409,1.156,4.111,4.111,0,0,1-.778,1.042,3.687,3.687,0,0,1-1.784.949,5.42,5.42,0,0,1-1.292.141,3.964,3.964,0,0,1-2.979-1.279,4.976,4.976,0,0,1-1.222-3.582,5.41,5.41,0,0,1,1.23-3.683A4.059,4.059,0,0,1,419.273,28.376Zm2.522,4.166a4.1,4.1,0,0,0-.448-1.644,2.3,2.3,0,0,0-2.171-1.143,2.406,2.406,0,0,0-1.828.787,2.972,2.972,0,0,0-.782,2Zm12.542,4.395a2.257,2.257,0,0,0,1.841-.927,4.413,4.413,0,0,0,.734-2.773,5.176,5.176,0,0,0-.325-1.934,2.383,2.383,0,0,0-4.5.088,6.514,6.514,0,0,0-.325,2.232,4.732,4.732,0,0,0,.325,1.854A2.243,2.243,0,0,0,434.338,36.937Zm-4.1-8.306h1.538v1.248a3.84,3.84,0,0,1,1.037-.993,3.338,3.338,0,0,1,1.881-.527,3.537,3.537,0,0,1,2.716,1.226,5.023,5.023,0,0,1,1.116,3.5q0,3.076-1.608,4.395a3.634,3.634,0,0,1-2.373.835,3.221,3.221,0,0,1-1.784-.466,4.111,4.111,0,0,1-.94-.905v4.808h-1.582Zm10.178-.044h1.5v1.626a3.592,3.592,0,0,1,.905-1.156,2.347,2.347,0,0,1,1.661-.681q.044,0,.149.009t.36.035v1.67a2.363,2.363,0,0,0-.259-.035q-.119-.009-.259-.009a2.258,2.258,0,0,0-1.837.769A2.684,2.684,0,0,0,442,32.586V38H440.42Zm9.686,8.394a2.182,2.182,0,0,0,2.158-1.191,5.933,5.933,0,0,0,.584-2.65A4.718,4.718,0,0,0,452.426,31a2.373,2.373,0,0,0-2.3-1.3,2.271,2.271,0,0,0-2.109,1.107,5.133,5.133,0,0,0-.659,2.672,4.465,4.465,0,0,0,.659,2.5A2.322,2.322,0,0,0,450.105,36.98Zm.062-8.666a4.262,4.262,0,0,1,3.076,1.213A4.736,4.736,0,0,1,454.5,33.1a6.122,6.122,0,0,1-1.107,3.762,4.006,4.006,0,0,1-3.437,1.485,3.88,3.88,0,0,1-3.085-1.314,5.19,5.19,0,0,1-1.143-3.529,5.615,5.615,0,0,1,1.2-3.779A4.041,4.041,0,0,1,450.167,28.314Zm9.844,0a4.1,4.1,0,0,1,2.588.773,3.705,3.705,0,0,1,1.2,2.663h-1.538a2.839,2.839,0,0,0-.642-1.446,2.027,2.027,0,0,0-1.608-.576,2.222,2.222,0,0,0-2.162,1.477,5.865,5.865,0,0,0-.422,2.364,4.449,4.449,0,0,0,.6,2.382,2.317,2.317,0,0,0,3.441.365,3.311,3.311,0,0,0,.8-1.648H463.8a3.72,3.72,0,0,1-4.017,3.6,3.6,3.6,0,0,1-2.944-1.349,5.164,5.164,0,0,1-1.1-3.371,5.678,5.678,0,0,1,1.2-3.858A3.891,3.891,0,0,1,460.011,28.314Zm9.29.062a4.294,4.294,0,0,1,1.942.47,3.582,3.582,0,0,1,1.433,1.217,4.2,4.2,0,0,1,.633,1.661,10.868,10.868,0,0,1,.141,2.074h-6.9a4.026,4.026,0,0,0,.677,2.3,2.266,2.266,0,0,0,1.96.866,2.534,2.534,0,0,0,1.978-.817,2.755,2.755,0,0,0,.6-1.1h1.556a3.276,3.276,0,0,1-.409,1.156,4.111,4.111,0,0,1-.778,1.042,3.687,3.687,0,0,1-1.784.949,5.42,5.42,0,0,1-1.292.141,3.964,3.964,0,0,1-2.979-1.279,4.976,4.976,0,0,1-1.222-3.582,5.41,5.41,0,0,1,1.23-3.683A4.059,4.059,0,0,1,469.3,28.376Zm2.522,4.166a4.1,4.1,0,0,0-.448-1.644,2.3,2.3,0,0,0-2.171-1.143,2.406,2.406,0,0,0-1.828.787,2.972,2.972,0,0,0-.782,2Zm4.57.861a4.666,4.666,0,0,0,.642,2.531,2.248,2.248,0,0,0,2.057,1.02,2.166,2.166,0,0,0,1.806-.945,4.462,4.462,0,0,0,.708-2.711,4.009,4.009,0,0,0-.729-2.641,2.276,2.276,0,0,0-1.8-.857,2.378,2.378,0,0,0-1.938.914A4.186,4.186,0,0,0,476.394,33.4Zm2.382-4.983a3.349,3.349,0,0,1,1.811.457,4.253,4.253,0,0,1,.958.923V25.045h1.521V38h-1.424V36.69a3.423,3.423,0,0,1-1.31,1.257,3.748,3.748,0,0,1-1.731.387,3.506,3.506,0,0,1-2.725-1.323,5.172,5.172,0,0,1-1.151-3.52,6.076,6.076,0,0,1,1.05-3.564A3.439,3.439,0,0,1,478.775,28.42Zm6.627.211h1.608V38H485.4Zm0-3.542h1.608v1.793H485.4Zm4,3.5h1.564v1.336a5.258,5.258,0,0,1,1.02-1.011,3.066,3.066,0,0,1,1.775-.536,2.794,2.794,0,0,1,1.811.554,2.894,2.894,0,0,1,.7.932,3.419,3.419,0,0,1,1.239-1.121,3.457,3.457,0,0,1,1.6-.365,2.616,2.616,0,0,1,2.584,1.371,4.482,4.482,0,0,1,.369,1.986V38h-1.644V31.461a1.523,1.523,0,0,0-.47-1.292,1.861,1.861,0,0,0-1.147-.352,2.277,2.277,0,0,0-1.6.624,2.74,2.74,0,0,0-.672,2.083V38h-1.608V31.856a3.192,3.192,0,0,0-.229-1.4,1.394,1.394,0,0,0-1.345-.659,2.32,2.32,0,0,0-1.63.694,3.4,3.4,0,0,0-.734,2.514V38H489.4Zm14.994.044H506V38H504.4Zm0-3.542H506v1.793H504.4Zm7.919,3.287a4.294,4.294,0,0,1,1.942.47,3.582,3.582,0,0,1,1.433,1.217,4.2,4.2,0,0,1,.633,1.661,10.868,10.868,0,0,1,.141,2.074h-6.9a4.026,4.026,0,0,0,.677,2.3,2.266,2.266,0,0,0,1.96.866,2.534,2.534,0,0,0,1.978-.817,2.755,2.755,0,0,0,.6-1.1h1.556a3.276,3.276,0,0,1-.409,1.156,4.111,4.111,0,0,1-.778,1.042,3.687,3.687,0,0,1-1.784.949,5.42,5.42,0,0,1-1.292.141,3.964,3.964,0,0,1-2.979-1.279,4.976,4.976,0,0,1-1.222-3.582,5.41,5.41,0,0,1,1.23-3.683A4.059,4.059,0,0,1,512.314,28.376Zm2.522,4.166a4.1,4.1,0,0,0-.448-1.644,2.3,2.3,0,0,0-2.171-1.143,2.406,2.406,0,0,0-1.828.787,2.972,2.972,0,0,0-.782,2Zm3.568-3.955h1.5v1.336a4.215,4.215,0,0,1,1.415-1.187,3.773,3.773,0,0,1,1.661-.36,2.739,2.739,0,0,1,2.707,1.4,4.962,4.962,0,0,1,.387,2.188V38H524.47V32.067a3.212,3.212,0,0,0-.255-1.389,1.545,1.545,0,0,0-1.529-.879,3.114,3.114,0,0,0-.923.114,2.377,2.377,0,0,0-1.143.773,2.329,2.329,0,0,0-.514.962,6.478,6.478,0,0,0-.119,1.419V38h-1.582Zm10.327-2.628h1.6v2.628h1.5v1.292h-1.5v6.144a.665.665,0,0,0,.334.659,1.42,1.42,0,0,0,.615.1q.114,0,.246,0t.308-.022V38a3.532,3.532,0,0,1-.567.114,5.39,5.39,0,0,1-.637.035,1.717,1.717,0,0,1-1.5-.567,2.519,2.519,0,0,1-.4-1.472V29.879h-1.274V28.587h1.274Zm8.42,11.021a2.182,2.182,0,0,0,2.158-1.191,5.933,5.933,0,0,0,.584-2.65A4.718,4.718,0,0,0,539.473,31a2.373,2.373,0,0,0-2.3-1.3,2.271,2.271,0,0,0-2.109,1.107,5.133,5.133,0,0,0-.659,2.672,4.465,4.465,0,0,0,.659,2.5A2.322,2.322,0,0,0,537.152,36.98Zm.062-8.666a4.262,4.262,0,0,1,3.076,1.213,4.736,4.736,0,0,1,1.257,3.568,6.122,6.122,0,0,1-1.107,3.762A4.006,4.006,0,0,1,537,38.343a3.88,3.88,0,0,1-3.085-1.314,5.19,5.19,0,0,1-1.143-3.529,5.615,5.615,0,0,1,1.2-3.779A4.041,4.041,0,0,1,537.214,28.314Zm6.592,7.77h1.837V38h-1.837Z" transform="translate(424.5 3642.5)" fill="#00223d"/>
    <g id="Grupo_33682" data-name="Grupo 33682" transform="translate(937.508 3690.527)">
      <g id="Grupo_28535" data-name="Grupo 28535">
        <path id="Trazado_71256" data-name="Trazado 71256" d="M655.688,96.982v.058H462.818V77.19H650.905c16.084,0,33.83-.731,49.913-9.424v19.85C692.163,94.3,671.464,96.605,655.688,96.982Z" transform="translate(-462.818 -67.766)" fill="#43433b" fill-rule="evenodd"/>
        <path id="Trazado_71257" data-name="Trazado 71257" d="M655.688,103.63v-.059H462.818v19.851H650.905c16.084,0,33.83.729,49.913,9.423V113C692.163,106.306,671.464,104.006,655.688,103.63Z" transform="translate(-462.818 -71.69)" fill="#43433b" fill-rule="evenodd"/>
      </g>
      <rect id="Rectángulo_29892" data-name="Rectángulo 29892" width="4.231" height="10.709" transform="translate(172.764 30.438)" fill="#d268cc"/>
      <rect id="Rectángulo_29893" data-name="Rectángulo 29893" width="4.231" height="10.709" transform="translate(164.3 30.438)" fill="#d268cc"/>
      <rect id="Rectángulo_29894" data-name="Rectángulo 29894" width="4.231" height="10.709" transform="translate(155.837 30.438)" fill="#d268cc"/>
      <rect id="Rectángulo_29895" data-name="Rectángulo 29895" width="4.231" height="10.709" transform="translate(147.375 30.438)" fill="#d268cc"/>
      <rect id="Rectángulo_29896" data-name="Rectángulo 29896" width="4.233" height="10.709" transform="translate(138.911 30.438)" fill="#d268cc"/>
      <rect id="Rectángulo_29897" data-name="Rectángulo 29897" width="4.231" height="10.709" transform="translate(130.449 30.438)" fill="#d268cc"/>
      <rect id="Rectángulo_29898" data-name="Rectángulo 29898" width="4.231" height="10.709" transform="translate(121.986 30.438)" fill="#d268cc"/>
      <rect id="Rectángulo_29899" data-name="Rectángulo 29899" width="4.231" height="10.709" transform="translate(113.524 30.438)" fill="#d268cc"/>
      <rect id="Rectángulo_29900" data-name="Rectángulo 29900" width="4.233" height="10.709" transform="translate(105.06 30.438)" fill="#d268cc"/>
      <rect id="Rectángulo_29901" data-name="Rectángulo 29901" width="4.231" height="10.709" transform="translate(96.597 30.438)" fill="#d268cc"/>
      <rect id="Rectángulo_29902" data-name="Rectángulo 29902" width="4.231" height="10.709" transform="translate(88.135 30.438)" fill="#d268cc"/>
      <rect id="Rectángulo_29903" data-name="Rectángulo 29903" width="4.231" height="10.709" transform="translate(79.673 30.438)" fill="#d268cc"/>
      <rect id="Rectángulo_29904" data-name="Rectángulo 29904" width="4.231" height="10.709" transform="translate(71.209 30.438)" fill="#d268cc"/>
      <rect id="Rectángulo_29905" data-name="Rectángulo 29905" width="4.231" height="10.709" transform="translate(62.746 30.438)" fill="#d268cc"/>
      <rect id="Rectángulo_29906" data-name="Rectángulo 29906" width="4.231" height="10.709" transform="translate(54.284 30.438)" fill="#d268cc"/>
      <rect id="Rectángulo_29907" data-name="Rectángulo 29907" width="4.233" height="10.709" transform="translate(45.82 30.438)" fill="#d268cc"/>
      <rect id="Rectángulo_29908" data-name="Rectángulo 29908" width="4.231" height="10.709" transform="translate(37.357 30.438)" fill="#d268cc"/>
      <rect id="Rectángulo_29909" data-name="Rectángulo 29909" width="4.231" height="10.709" transform="translate(28.895 30.438)" fill="#d268cc"/>
      <rect id="Rectángulo_29910" data-name="Rectángulo 29910" width="4.231" height="10.709" transform="translate(20.433 30.438)" fill="#d268cc"/>
      <rect id="Rectángulo_29911" data-name="Rectángulo 29911" width="4.231" height="10.709" transform="translate(11.969 30.438)" fill="#d268cc"/>
      <path id="Trazado_71258" data-name="Trazado 71258" d="M685.806,100.95h0a9.434,9.434,0,0,1-9.405,9.406h-.048a9.434,9.434,0,0,1-9.405-9.406h0a9.433,9.433,0,0,1,9.405-9.4h.048A9.433,9.433,0,0,1,685.806,100.95Z" transform="translate(-485.189 -70.372)" fill="#d268cc" fill-rule="evenodd"/>
      <rect id="Rectángulo_29912" data-name="Rectángulo 29912" width="4.233" height="10.71" transform="translate(168.531 19.728)" fill="#d268cc"/>
      <rect id="Rectángulo_29913" data-name="Rectángulo 29913" width="4.231" height="10.71" transform="translate(160.069 19.728)" fill="#d268cc"/>
      <rect id="Rectángulo_29914" data-name="Rectángulo 29914" width="4.231" height="10.71" transform="translate(151.606 19.728)" fill="#d268cc"/>
      <rect id="Rectángulo_29915" data-name="Rectángulo 29915" width="4.233" height="10.71" transform="translate(143.142 19.728)" fill="#d268cc"/>
      <rect id="Rectángulo_29916" data-name="Rectángulo 29916" width="4.231" height="10.71" transform="translate(134.68 19.728)" fill="#d268cc"/>
      <rect id="Rectángulo_29917" data-name="Rectángulo 29917" width="4.231" height="10.71" transform="translate(126.217 19.728)" fill="#d268cc"/>
      <rect id="Rectángulo_29918" data-name="Rectángulo 29918" width="4.231" height="10.71" transform="translate(117.755 19.728)" fill="#d268cc"/>
      <rect id="Rectángulo_29919" data-name="Rectángulo 29919" width="4.233" height="10.71" transform="translate(109.291 19.728)" fill="#d268cc"/>
      <rect id="Rectángulo_29920" data-name="Rectángulo 29920" width="4.231" height="10.71" transform="translate(100.829 19.728)" fill="#d268cc"/>
      <rect id="Rectángulo_29921" data-name="Rectángulo 29921" width="4.231" height="10.71" transform="translate(92.366 19.728)" fill="#d268cc"/>
      <rect id="Rectángulo_29922" data-name="Rectángulo 29922" width="4.231" height="10.71" transform="translate(83.904 19.728)" fill="#d268cc"/>
      <rect id="Rectángulo_29923" data-name="Rectángulo 29923" width="4.231" height="10.71" transform="translate(75.44 19.728)" fill="#d268cc"/>
      <rect id="Rectángulo_29924" data-name="Rectángulo 29924" width="4.231" height="10.71" transform="translate(66.977 19.728)" fill="#d268cc"/>
      <rect id="Rectángulo_29925" data-name="Rectángulo 29925" width="4.231" height="10.71" transform="translate(58.515 19.728)" fill="#d268cc"/>
      <rect id="Rectángulo_29926" data-name="Rectángulo 29926" width="4.233" height="10.71" transform="translate(50.051 19.728)" fill="#d268cc"/>
      <rect id="Rectángulo_29927" data-name="Rectángulo 29927" width="4.231" height="10.71" transform="translate(41.589 19.728)" fill="#d268cc"/>
      <rect id="Rectángulo_29928" data-name="Rectángulo 29928" width="4.231" height="10.71" transform="translate(33.126 19.728)" fill="#d268cc"/>
      <rect id="Rectángulo_29929" data-name="Rectángulo 29929" width="4.231" height="10.71" transform="translate(24.664 19.728)" fill="#d268cc"/>
      <rect id="Rectángulo_29930" data-name="Rectángulo 29930" width="4.231" height="10.71" transform="translate(16.2 19.728)" fill="#d268cc"/>
      <rect id="Rectángulo_29931" data-name="Rectángulo 29931" width="4.231" height="10.71" transform="translate(7.737 19.728)" fill="#d268cc"/>
    </g>
  </g>
</svg>
