<svg xmlns="http://www.w3.org/2000/svg" width="366" height="58" viewBox="0 0 366 58">
  <g id="Grupo_42662" data-name="Grupo 42662" transform="translate(-232 -3498.594)">
    <g id="Rect치ngulo_32209" data-name="Rect치ngulo 32209" transform="translate(292 3498.594)" fill="#ffc74a" stroke="#ffc74a" stroke-width="4">
      <rect width="245" height="58" rx="15" stroke="none"/>
      <rect x="2" y="2" width="241" height="54" rx="13" fill="none"/>
    </g>
    <rect id="Rect치ngulo_32210" data-name="Rect치ngulo 32210" width="366" height="33" transform="translate(232 3510.594)" fill="#fff"/>
    <path id="Trazado_112814" data-name="Trazado 112814" d="M3.7,10.557a2.956,2.956,0,0,0,.537,1.475,3.09,3.09,0,0,0,2.51.889,5.3,5.3,0,0,0,1.729-.234,1.67,1.67,0,0,0,1.26-1.67,1.232,1.232,0,0,0-.625-1.1,6.721,6.721,0,0,0-1.963-.674L5.625,8.9a9.627,9.627,0,0,1-3.105-1.1A3.51,3.51,0,0,1,1.064,4.678,4.16,4.16,0,0,1,2.471,1.465,5.946,5.946,0,0,1,6.6.186a6.281,6.281,0,0,1,3.882,1.206,4.306,4.306,0,0,1,1.685,3.5H9.277A2.065,2.065,0,0,0,8.145,3.047,3.8,3.8,0,0,0,6.4,2.686a3.264,3.264,0,0,0-1.855.469,1.493,1.493,0,0,0-.693,1.309,1.239,1.239,0,0,0,.684,1.152,8.368,8.368,0,0,0,1.875.6l2.48.6a6.413,6.413,0,0,1,2.461,1.045,3.519,3.519,0,0,1,1.289,2.939,4.148,4.148,0,0,1-1.509,3.276,6.321,6.321,0,0,1-4.263,1.3,6.914,6.914,0,0,1-4.424-1.284A4.267,4.267,0,0,1,.83,10.557ZM25.322.605V3.154H21.016V15H17.988V3.154H13.662V.605Zm4.219,8.955h3.652L31.4,3.9ZM29.727.605h3.4L38.223,15H34.961l-.928-2.959h-5.3l-1,2.959H24.59Zm19.307,0V3.154H44.727V15H41.7V3.154H37.373V.605ZM60.469,5.1A2.818,2.818,0,0,0,58.8,3.037a4.1,4.1,0,0,0-1.65-.322,3.584,3.584,0,0,0-2.856,1.313,5.97,5.97,0,0,0-1.118,3.95,4.907,4.907,0,0,0,1.211,3.76,3.976,3.976,0,0,0,2.754,1.1,3.557,3.557,0,0,0,2.48-.874,3.778,3.778,0,0,0,1.191-2.29H57.48v-2.4h6V15H61.484l-.3-1.8a6.9,6.9,0,0,1-1.562,1.445,5.5,5.5,0,0,1-2.93.732A6.087,6.087,0,0,1,52,13.4a7.56,7.56,0,0,1-1.9-5.449,8,8,0,0,1,1.924-5.605A6.556,6.556,0,0,1,57.109.234a6.651,6.651,0,0,1,4.409,1.392A5.174,5.174,0,0,1,63.428,5.1Zm8.887-1.992V6.973h3.408a3.8,3.8,0,0,0,1.523-.234,1.6,1.6,0,0,0,.9-1.621,1.789,1.789,0,0,0-.869-1.758,3.285,3.285,0,0,0-1.465-.254Zm4.121-2.5a6.578,6.578,0,0,1,2.329.371,3.639,3.639,0,0,1,1.382,1.006,4.457,4.457,0,0,1,.742,1.211A3.947,3.947,0,0,1,78.2,4.707a4.313,4.313,0,0,1-.518,2.017,2.893,2.893,0,0,1-1.709,1.4,2.688,2.688,0,0,1,1.411,1.138,4.736,4.736,0,0,1,.415,2.251v.967a7.4,7.4,0,0,0,.078,1.338,1.2,1.2,0,0,0,.547.82V15H75.117q-.137-.479-.2-.771a7.088,7.088,0,0,1-.127-1.24l-.02-1.338a2.614,2.614,0,0,0-.5-1.836,2.668,2.668,0,0,0-1.812-.459H69.355V15H66.416V.605Zm11.25,8.955h3.652L86.582,3.9ZM84.912.605h3.4L93.408,15H90.146l-.928-2.959h-5.3L82.92,15H79.775Zm18.428,4.58a1.948,1.948,0,0,0-.591-1.6,2.564,2.564,0,0,0-1.655-.479h-2.8V7.344h2.8a2.43,2.43,0,0,0,1.655-.518A2.073,2.073,0,0,0,103.34,5.186Zm2.979-.02a4.418,4.418,0,0,1-1.289,3.6,5.677,5.677,0,0,1-3.682,1.055H98.291V15H95.3V.605h6.27a5.107,5.107,0,0,1,3.457,1.113A4.314,4.314,0,0,1,106.318,5.166ZM108.555,15V.605h2.979V6.094h5.625V.605h2.988V15h-2.988V8.574h-5.625V15Zm17.217,0h-2.988V.605h2.988Zm2.178-7.08a7.905,7.905,0,0,1,2.021-5.811,6.834,6.834,0,0,1,9.785.605,5.159,5.159,0,0,1,1,2.686h-3.008a4.063,4.063,0,0,0-.752-1.562,3.059,3.059,0,0,0-2.432-.937,3.014,3.014,0,0,0-2.588,1.323,6.361,6.361,0,0,0-.947,3.745,5.583,5.583,0,0,0,1,3.628A3.163,3.163,0,0,0,134.57,12.8a2.91,2.91,0,0,0,2.412-1.035,4.5,4.5,0,0,0,.762-1.67h2.979a6.461,6.461,0,0,1-2,3.828,5.85,5.85,0,0,1-4.116,1.475,6.209,6.209,0,0,1-4.883-1.992A7.974,7.974,0,0,1,127.949,7.92ZM145.2,10.557a2.956,2.956,0,0,0,.537,1.475,3.09,3.09,0,0,0,2.51.889,5.3,5.3,0,0,0,1.729-.234,1.67,1.67,0,0,0,1.26-1.67,1.232,1.232,0,0,0-.625-1.1,6.721,6.721,0,0,0-1.963-.674L147.119,8.9a9.627,9.627,0,0,1-3.105-1.1,3.51,3.51,0,0,1-1.455-3.115,4.16,4.16,0,0,1,1.406-3.213A5.946,5.946,0,0,1,148.1.186a6.281,6.281,0,0,1,3.882,1.206,4.306,4.306,0,0,1,1.685,3.5h-2.891a2.065,2.065,0,0,0-1.133-1.846,3.8,3.8,0,0,0-1.748-.361,3.264,3.264,0,0,0-1.855.469,1.493,1.493,0,0,0-.693,1.309,1.239,1.239,0,0,0,.684,1.152,8.368,8.368,0,0,0,1.875.6l2.48.6a6.413,6.413,0,0,1,2.461,1.045,3.519,3.519,0,0,1,1.289,2.939,4.148,4.148,0,0,1-1.509,3.276,6.321,6.321,0,0,1-4.263,1.3,6.914,6.914,0,0,1-4.424-1.284,4.267,4.267,0,0,1-1.611-3.53ZM161.289,7.92a7.905,7.905,0,0,1,2.021-5.811,6.834,6.834,0,0,1,9.785.605,5.159,5.159,0,0,1,1,2.686h-3.008a4.063,4.063,0,0,0-.752-1.562A3.059,3.059,0,0,0,167.9,2.9a3.014,3.014,0,0,0-2.588,1.323,6.361,6.361,0,0,0-.947,3.745,5.583,5.583,0,0,0,1,3.628A3.163,3.163,0,0,0,167.91,12.8a2.91,2.91,0,0,0,2.412-1.035,4.5,4.5,0,0,0,.762-1.67h2.979a6.461,6.461,0,0,1-2,3.828,5.85,5.85,0,0,1-4.116,1.475,6.209,6.209,0,0,1-4.883-1.992A7.974,7.974,0,0,1,161.289,7.92ZM187,3.154h-7.617V6.211h6.992v2.5h-6.992v3.7h7.969V15H176.445V.605H187ZM189.648.605H192.8l5.732,10.049V.605h2.8V15H198.33L192.451,4.775V15h-2.8Zm24.951,0V3.154h-4.307V15h-3.027V3.154h-4.326V.605Zm1.758,0h3.057V9.453a5,5,0,0,0,.352,2.168,2.94,2.94,0,0,0,4.756,0,5,5,0,0,0,.352-2.168V.605h3.057V9.453a7.411,7.411,0,0,1-.713,3.574q-1.328,2.344-5.068,2.344t-5.078-2.344a7.411,7.411,0,0,1-.713-3.574Zm17.451,2.5V6.973h3.408a3.8,3.8,0,0,0,1.523-.234,1.6,1.6,0,0,0,.9-1.621,1.789,1.789,0,0,0-.869-1.758,3.285,3.285,0,0,0-1.465-.254Zm4.121-2.5a6.578,6.578,0,0,1,2.329.371,3.639,3.639,0,0,1,1.382,1.006,4.457,4.457,0,0,1,.742,1.211,3.947,3.947,0,0,1,.273,1.514,4.313,4.313,0,0,1-.518,2.017,2.893,2.893,0,0,1-1.709,1.4,2.688,2.688,0,0,1,1.411,1.138,4.736,4.736,0,0,1,.415,2.251v.967a7.4,7.4,0,0,0,.078,1.338,1.2,1.2,0,0,0,.547.82V15H239.57q-.137-.479-.2-.771a7.089,7.089,0,0,1-.127-1.24l-.02-1.338a2.614,2.614,0,0,0-.5-1.836,2.668,2.668,0,0,0-1.812-.459h-3.105V15h-2.939V.605ZM248,15H245.01V.605H248Zm9.17-2.148A3.436,3.436,0,0,0,260,11.533a5.891,5.891,0,0,0,1.05-3.75A5.9,5.9,0,0,0,260,4.038a3.431,3.431,0,0,0-2.837-1.323,3.477,3.477,0,0,0-2.852,1.318,5.833,5.833,0,0,0-1.064,3.75,5.833,5.833,0,0,0,1.064,3.75A3.477,3.477,0,0,0,257.168,12.852Zm6.895-5.068a7.785,7.785,0,0,1-2.178,5.938,7.463,7.463,0,0,1-9.434,0,7.765,7.765,0,0,1-2.187-5.937q0-3.955,2.188-5.937a7.463,7.463,0,0,1,9.434,0Q264.062,3.828,264.063,7.783ZM266.309.605h3.154L275.2,10.654V.605H278V15H274.99L269.111,4.775V15h-2.8Z" transform="translate(272 3514.594)" fill="#15579f"/>
  </g>
</svg>
