<svg xmlns="http://www.w3.org/2000/svg" width="366" height="62" viewBox="0 0 366 62">
  <g id="Grupo_42663" data-name="Grupo 42663" transform="translate(-232 -3494.594)">
    <g id="Rect치ngulo_32209" data-name="Rect치ngulo 32209" transform="translate(292 3494.594)" fill="#ffc74a" stroke="#ffc74a" stroke-width="4">
      <rect width="245" height="62" rx="15" stroke="none"/>
      <rect x="2" y="2" width="241" height="58" rx="13" fill="none"/>
    </g>
    <rect id="Rect치ngulo_32210" data-name="Rect치ngulo 32210" width="366" height="33" transform="translate(232 3510.594)" fill="#fff"/>
    <path id="Trazado_112816" data-name="Trazado 112816" d="M3.7,10.557a2.956,2.956,0,0,0,.537,1.475,3.09,3.09,0,0,0,2.51.889,5.3,5.3,0,0,0,1.729-.234,1.67,1.67,0,0,0,1.26-1.67,1.232,1.232,0,0,0-.625-1.1,6.721,6.721,0,0,0-1.963-.674L5.625,8.9a9.627,9.627,0,0,1-3.105-1.1A3.51,3.51,0,0,1,1.064,4.678,4.16,4.16,0,0,1,2.471,1.465,5.946,5.946,0,0,1,6.6.186a6.281,6.281,0,0,1,3.882,1.206,4.306,4.306,0,0,1,1.685,3.5H9.277A2.065,2.065,0,0,0,8.145,3.047,3.8,3.8,0,0,0,6.4,2.686a3.264,3.264,0,0,0-1.855.469,1.493,1.493,0,0,0-.693,1.309,1.239,1.239,0,0,0,.684,1.152,8.368,8.368,0,0,0,1.875.6l2.48.6a6.413,6.413,0,0,1,2.461,1.045,3.519,3.519,0,0,1,1.289,2.939,4.148,4.148,0,0,1-1.509,3.276,6.321,6.321,0,0,1-4.263,1.3,6.914,6.914,0,0,1-4.424-1.284A4.267,4.267,0,0,1,.83,10.557ZM22.969,5.186a1.948,1.948,0,0,0-.591-1.6,2.564,2.564,0,0,0-1.655-.479h-2.8V7.344h2.8a2.43,2.43,0,0,0,1.655-.518A2.073,2.073,0,0,0,22.969,5.186Zm2.979-.02a4.418,4.418,0,0,1-1.289,3.6,5.677,5.677,0,0,1-3.682,1.055H17.92V15H14.932V.605H21.2a5.107,5.107,0,0,1,3.457,1.113A4.314,4.314,0,0,1,25.947,5.166Zm4.434,5.391a2.956,2.956,0,0,0,.537,1.475,3.09,3.09,0,0,0,2.51.889,5.3,5.3,0,0,0,1.729-.234,1.67,1.67,0,0,0,1.26-1.67,1.232,1.232,0,0,0-.625-1.1,6.721,6.721,0,0,0-1.963-.674L32.3,8.9a9.627,9.627,0,0,1-3.105-1.1,3.51,3.51,0,0,1-1.455-3.115A4.16,4.16,0,0,1,29.15,1.465,5.946,5.946,0,0,1,33.281.186a6.281,6.281,0,0,1,3.882,1.206,4.306,4.306,0,0,1,1.685,3.5H35.957a2.065,2.065,0,0,0-1.133-1.846,3.8,3.8,0,0,0-1.748-.361,3.264,3.264,0,0,0-1.855.469,1.493,1.493,0,0,0-.693,1.309,1.239,1.239,0,0,0,.684,1.152,8.368,8.368,0,0,0,1.875.6l2.48.6a6.413,6.413,0,0,1,2.461,1.045,3.519,3.519,0,0,1,1.289,2.939,4.148,4.148,0,0,1-1.509,3.276,6.321,6.321,0,0,1-4.263,1.3,6.914,6.914,0,0,1-4.424-1.284,4.267,4.267,0,0,1-1.611-3.53Zm13.34,0a2.956,2.956,0,0,0,.537,1.475,3.09,3.09,0,0,0,2.51.889,5.3,5.3,0,0,0,1.729-.234,1.67,1.67,0,0,0,1.26-1.67,1.232,1.232,0,0,0-.625-1.1,6.721,6.721,0,0,0-1.963-.674L45.645,8.9a9.627,9.627,0,0,1-3.105-1.1,3.51,3.51,0,0,1-1.455-3.115A4.16,4.16,0,0,1,42.49,1.465,5.946,5.946,0,0,1,46.621.186,6.281,6.281,0,0,1,50.5,1.392a4.306,4.306,0,0,1,1.685,3.5H49.3a2.065,2.065,0,0,0-1.133-1.846,3.8,3.8,0,0,0-1.748-.361,3.264,3.264,0,0,0-1.855.469,1.493,1.493,0,0,0-.693,1.309,1.239,1.239,0,0,0,.684,1.152,8.368,8.368,0,0,0,1.875.6l2.48.6a6.413,6.413,0,0,1,2.461,1.045,3.519,3.519,0,0,1,1.289,2.939,4.148,4.148,0,0,1-1.509,3.276,6.321,6.321,0,0,1-4.263,1.3,6.914,6.914,0,0,1-4.424-1.284,4.267,4.267,0,0,1-1.611-3.53Zm18.9,0a2.956,2.956,0,0,0,.537,1.475,3.09,3.09,0,0,0,2.51.889,5.3,5.3,0,0,0,1.729-.234,1.67,1.67,0,0,0,1.26-1.67,1.232,1.232,0,0,0-.625-1.1,6.721,6.721,0,0,0-1.963-.674L64.541,8.9a9.627,9.627,0,0,1-3.105-1.1A3.51,3.51,0,0,1,59.98,4.678a4.16,4.16,0,0,1,1.406-3.213A5.946,5.946,0,0,1,65.518.186,6.281,6.281,0,0,1,69.4,1.392a4.306,4.306,0,0,1,1.685,3.5H68.193a2.065,2.065,0,0,0-1.133-1.846,3.8,3.8,0,0,0-1.748-.361,3.264,3.264,0,0,0-1.855.469,1.493,1.493,0,0,0-.693,1.309,1.239,1.239,0,0,0,.684,1.152,8.368,8.368,0,0,0,1.875.6l2.48.6a6.413,6.413,0,0,1,2.461,1.045,3.519,3.519,0,0,1,1.289,2.939,4.148,4.148,0,0,1-1.509,3.276,6.321,6.321,0,0,1-4.263,1.3,6.914,6.914,0,0,1-4.424-1.284,4.267,4.267,0,0,1-1.611-3.53Zm9.844-4.121V4.453h1.484V1.484H76.7V4.453h1.729V6.436H76.7v5.625a1.267,1.267,0,0,0,.166.815,1.828,1.828,0,0,0,1.016.161q.127,0,.269,0t.278-.015V15.1l-1.318.049a3.538,3.538,0,0,1-2.7-.684,2.035,2.035,0,0,1-.469-1.475V6.436ZM86.084,9.824a3.024,3.024,0,0,1-.532.269,4.451,4.451,0,0,1-.737.19l-.625.117a4.036,4.036,0,0,0-1.26.381,1.277,1.277,0,0,0-.645,1.182,1.244,1.244,0,0,0,.4,1.03,1.488,1.488,0,0,0,.962.317,2.835,2.835,0,0,0,1.655-.527,2.249,2.249,0,0,0,.786-1.924Zm-1.689-1.3a4.344,4.344,0,0,0,1.1-.244.837.837,0,0,0,.6-.791.939.939,0,0,0-.454-.9,2.837,2.837,0,0,0-1.333-.249,1.737,1.737,0,0,0-1.4.488,2.029,2.029,0,0,0-.391.977H79.834a4.084,4.084,0,0,1,.781-2.295A4.545,4.545,0,0,1,84.4,4.1a6.732,6.732,0,0,1,3.105.693,2.662,2.662,0,0,1,1.357,2.617v4.883q0,.508.02,1.23a1.547,1.547,0,0,0,.166.742,1,1,0,0,0,.41.322V15H86.436a3.1,3.1,0,0,1-.176-.605q-.049-.283-.078-.645a5.718,5.718,0,0,1-1.328,1.064,4,4,0,0,1-2.031.518,3.492,3.492,0,0,1-2.388-.825,2.943,2.943,0,0,1-.942-2.339,3.036,3.036,0,0,1,1.514-2.842,6.721,6.721,0,0,1,2.441-.684Zm5.85-2.09V4.453h1.484V1.484h2.754V4.453h1.729V6.436H94.482v5.625a1.267,1.267,0,0,0,.166.815,1.828,1.828,0,0,0,1.016.161q.127,0,.269,0t.278-.015V15.1l-1.318.049a3.538,3.538,0,0,1-2.7-.684,2.035,2.035,0,0,1-.469-1.475V6.436Zm10.615-3.35H98.037V.518h2.822Zm-2.822,1.27h2.822V15H98.037Zm7.686,7.246a1.859,1.859,0,0,0,.381,1.055,2.575,2.575,0,0,0,1.914.557,2.918,2.918,0,0,0,1.3-.244.819.819,0,0,0,.093-1.445,15.891,15.891,0,0,0-2.9-.84,6.041,6.041,0,0,1-2.549-1.123,2.435,2.435,0,0,1-.742-1.914,3.32,3.32,0,0,1,1.157-2.534,4.648,4.648,0,0,1,3.257-1.06,5.975,5.975,0,0,1,3.247.8,3.409,3.409,0,0,1,1.44,2.749h-2.783a1.646,1.646,0,0,0-.3-.85,1.9,1.9,0,0,0-1.562-.566,2.245,2.245,0,0,0-1.294.283.815.815,0,0,0-.386.664.727.727,0,0,0,.41.693,17.756,17.756,0,0,0,2.9.771,5.327,5.327,0,0,1,2.49,1.182,2.683,2.683,0,0,1,.82,2,3.235,3.235,0,0,1-1.177,2.583A7.06,7.06,0,0,1,104.1,14.3a3.447,3.447,0,0,1-1.2-2.7Zm7.861-5.166V4.453h1.484V1.484h2.754V4.453h1.729V6.436h-1.729v5.625a1.267,1.267,0,0,0,.166.815,1.828,1.828,0,0,0,1.016.161q.127,0,.269,0t.278-.015V15.1l-1.318.049a3.538,3.538,0,0,1-2.7-.684,2.035,2.035,0,0,1-.469-1.475V6.436ZM124.2,3.086h-2.822V.518H124.2Zm-2.822,1.27H124.2V15h-2.822Zm11.875,3.818a2.47,2.47,0,0,0-.4-1.074,1.679,1.679,0,0,0-1.455-.645,1.916,1.916,0,0,0-1.924,1.4,5.839,5.839,0,0,0-.273,1.973,5.368,5.368,0,0,0,.273,1.885,1.857,1.857,0,0,0,1.875,1.328,1.653,1.653,0,0,0,1.387-.527,2.625,2.625,0,0,0,.5-1.367h2.842a4.656,4.656,0,0,1-.918,2.4,4.462,4.462,0,0,1-3.877,1.826,4.535,4.535,0,0,1-3.779-1.523,6.165,6.165,0,0,1-1.211-3.955,6.255,6.255,0,0,1,1.338-4.268A4.657,4.657,0,0,1,131.318,4.1a5.558,5.558,0,0,1,3.276.9A4.179,4.179,0,0,1,136.1,8.174Zm6.934,3.428a1.859,1.859,0,0,0,.381,1.055,2.575,2.575,0,0,0,1.914.557,2.918,2.918,0,0,0,1.3-.244.819.819,0,0,0,.093-1.445,15.891,15.891,0,0,0-2.9-.84,6.041,6.041,0,0,1-2.549-1.123,2.435,2.435,0,0,1-.742-1.914,3.32,3.32,0,0,1,1.157-2.534,4.648,4.648,0,0,1,3.257-1.06,5.975,5.975,0,0,1,3.247.8,3.409,3.409,0,0,1,1.44,2.749H144a1.646,1.646,0,0,0-.3-.85,1.9,1.9,0,0,0-1.562-.566,2.245,2.245,0,0,0-1.294.283.815.815,0,0,0-.386.664.727.727,0,0,0,.41.693,17.756,17.756,0,0,0,2.9.771,5.327,5.327,0,0,1,2.49,1.182,2.683,2.683,0,0,1,.82,2A3.235,3.235,0,0,1,145.9,14.36a7.06,7.06,0,0,1-7.344-.059,3.447,3.447,0,0,1-1.2-2.7Z" transform="translate(342 3515.594)" fill="#15579f"/>
  </g>
</svg>
