<svg xmlns="http://www.w3.org/2000/svg" width="734" height="536" viewBox="0 0 734 536">
  <g id="Grupo_38622" data-name="Grupo 38622" transform="translate(-593 -6239)">
    <g id="Trazado_86113" data-name="Trazado 86113" transform="translate(593 6286)" fill="#fff">
      <path d="M 343.5 41.5 L 0.5 41.5 L 0.5 0.5 L 343.5 0.5 L 343.5 41.5 Z" stroke="none"/>
      <path d="M 1 1 L 1 41 L 343 41 L 343 1 L 1 1 M 0 0 L 344 0 L 344 42 L 0 42 L 0 0 Z" stroke="none" fill="#d268cc"/>
    </g>
    <g id="Trazado_86114" data-name="Trazado 86114" transform="translate(593 6335)" fill="#fff">
      <path d="M 343.5 41.5 L 0.5 41.5 L 0.5 0.5 L 343.5 0.5 L 343.5 41.5 Z" stroke="none"/>
      <path d="M 1 1 L 1 41 L 343 41 L 343 1 L 1 1 M 0 0 L 344 0 L 344 42 L 0 42 L 0 0 Z" stroke="none" fill="#d268cc"/>
    </g>
    <g id="Trazado_86115" data-name="Trazado 86115" transform="translate(593 6384)" fill="#fff">
      <path d="M 343.5 41.5 L 0.5 41.5 L 0.5 0.5 L 343.5 0.5 L 343.5 41.5 Z" stroke="none"/>
      <path d="M 1 1 L 1 41 L 343 41 L 343 1 L 1 1 M 0 0 L 344 0 L 344 42 L 0 42 L 0 0 Z" stroke="none" fill="#d268cc"/>
    </g>
    <g id="Trazado_86116" data-name="Trazado 86116" transform="translate(593 6433)" fill="#fff">
      <path d="M 343.5 41.5 L 0.5 41.5 L 0.5 0.5 L 343.5 0.5 L 343.5 41.5 Z" stroke="none"/>
      <path d="M 1 1 L 1 41 L 343 41 L 343 1 L 1 1 M 0 0 L 344 0 L 344 42 L 0 42 L 0 0 Z" stroke="none" fill="#d268cc"/>
    </g>
    <g id="Trazado_86117" data-name="Trazado 86117" transform="translate(593 6483)" fill="#f8e3f7">
      <path d="M 733.5 41.5 L 0.5 41.5 L 0.5 0.5 L 733.5 0.5 L 733.5 41.5 Z" stroke="none"/>
      <path d="M 1 1 L 1 41 L 733 41 L 733 1 L 1 1 M 0 0 L 734 0 L 734 42 L 0 42 L 0 0 Z" stroke="none" fill="#d268cc"/>
    </g>
    <g id="Trazado_86118" data-name="Trazado 86118" transform="translate(593 6533)" fill="#fff">
      <path d="M 733.5 41.5 L 0.5 41.5 L 0.5 0.5 L 733.5 0.5 L 733.5 41.5 Z" stroke="none"/>
      <path d="M 1 1 L 1 41 L 733 41 L 733 1 L 1 1 M 0 0 L 734 0 L 734 42 L 0 42 L 0 0 Z" stroke="none" fill="#d268cc"/>
    </g>
    <g id="Trazado_86119" data-name="Trazado 86119" transform="translate(593 6583)" fill="#fff">
      <path d="M 733.5 41.5 L 0.5 41.5 L 0.5 0.5 L 733.5 0.5 L 733.5 41.5 Z" stroke="none"/>
      <path d="M 1 1 L 1 41 L 733 41 L 733 1 L 1 1 M 0 0 L 734 0 L 734 42 L 0 42 L 0 0 Z" stroke="none" fill="#d268cc"/>
    </g>
    <g id="Trazado_86120" data-name="Trazado 86120" transform="translate(593 6633)" fill="#fff">
      <path d="M 733.5 41.5 L 0.5 41.5 L 0.5 0.5 L 733.5 0.5 L 733.5 41.5 Z" stroke="none"/>
      <path d="M 1 1 L 1 41 L 733 41 L 733 1 L 1 1 M 0 0 L 734 0 L 734 42 L 0 42 L 0 0 Z" stroke="none" fill="#d268cc"/>
    </g>
    <g id="Trazado_86121" data-name="Trazado 86121" transform="translate(593 6683)" fill="#fff">
      <path d="M 733.5 41.5 L 0.5 41.5 L 0.5 0.5 L 733.5 0.5 L 733.5 41.5 Z" stroke="none"/>
      <path d="M 1 1 L 1 41 L 733 41 L 733 1 L 1 1 M 0 0 L 734 0 L 734 42 L 0 42 L 0 0 Z" stroke="none" fill="#d268cc"/>
    </g>
    <g id="Trazado_86122" data-name="Trazado 86122" transform="translate(593 6733)" fill="#fff">
      <path d="M 733.5 41.5 L 0.5 41.5 L 0.5 0.5 L 733.5 0.5 L 733.5 41.5 Z" stroke="none"/>
      <path d="M 1 1 L 1 41 L 733 41 L 733 1 L 1 1 M 0 0 L 734 0 L 734 42 L 0 42 L 0 0 Z" stroke="none" fill="#d268cc"/>
    </g>
    <path id="Trazado_86123" data-name="Trazado 86123" d="M0,0H734V42H0Z" transform="translate(593 6239)" fill="#d268cc"/>
    <g id="Trazado_86124" data-name="Trazado 86124" transform="translate(945 6286)" fill="#fff">
      <path d="M 381.5 41.5 L 0.5 41.5 L 0.5 0.5 L 381.5 0.5 L 381.5 41.5 Z" stroke="none"/>
      <path d="M 1 1 L 1 41 L 381 41 L 381 1 L 1 1 M 0 0 L 382 0 L 382 42 L 0 42 L 0 0 Z" stroke="none" fill="#d268cc"/>
    </g>
    <g id="Trazado_86125" data-name="Trazado 86125" transform="translate(945 6335)" fill="#fff">
      <path d="M 381.5 41.5 L 0.5 41.5 L 0.5 0.5 L 381.5 0.5 L 381.5 41.5 Z" stroke="none"/>
      <path d="M 1 1 L 1 41 L 381 41 L 381 1 L 1 1 M 0 0 L 382 0 L 382 42 L 0 42 L 0 0 Z" stroke="none" fill="#d268cc"/>
    </g>
    <g id="Trazado_86126" data-name="Trazado 86126" transform="translate(945 6384)" fill="#fff">
      <path d="M 381.5 41.5 L 0.5 41.5 L 0.5 0.5 L 381.5 0.5 L 381.5 41.5 Z" stroke="none"/>
      <path d="M 1 1 L 1 41 L 381 41 L 381 1 L 1 1 M 0 0 L 382 0 L 382 42 L 0 42 L 0 0 Z" stroke="none" fill="#d268cc"/>
    </g>
    <g id="Trazado_86127" data-name="Trazado 86127" transform="translate(945 6433)" fill="#fff">
      <path d="M 381.5 41.5 L 0.5 41.5 L 0.5 0.5 L 381.5 0.5 L 381.5 41.5 Z" stroke="none"/>
      <path d="M 1 1 L 1 41 L 381 41 L 381 1 L 1 1 M 0 0 L 382 0 L 382 42 L 0 42 L 0 0 Z" stroke="none" fill="#d268cc"/>
    </g>
    <path id="Trazado_86128" data-name="Trazado 86128" d="M88.277,6.6A3.735,3.735,0,0,0,85.3,7.855a5.058,5.058,0,0,0-1.09,3.434,5.159,5.159,0,0,0,1.051,3.465,3.735,3.735,0,0,0,3,1.223,10.23,10.23,0,0,0,2.727-.43v1.164a8.4,8.4,0,0,1-2.93.445,4.956,4.956,0,0,1-3.895-1.531,6.306,6.306,0,0,1-1.371-4.352,6.868,6.868,0,0,1,.66-3.094,4.739,4.739,0,0,1,1.906-2.047,5.77,5.77,0,0,1,2.934-.719,7.078,7.078,0,0,1,3.141.656l-.562,1.141A6.053,6.053,0,0,0,88.277,6.6Zm12.4,6.109a4.724,4.724,0,0,1-1.055,3.27,3.714,3.714,0,0,1-2.914,1.176,3.86,3.86,0,0,1-2.039-.539,3.558,3.558,0,0,1-1.375-1.547,5.391,5.391,0,0,1-.484-2.359,4.716,4.716,0,0,1,1.047-3.262,3.7,3.7,0,0,1,2.906-1.168,3.622,3.622,0,0,1,2.855,1.2A4.7,4.7,0,0,1,100.676,12.711Zm-6.523,0a4.064,4.064,0,0,0,.656,2.5,2.6,2.6,0,0,0,3.863,0,4.043,4.043,0,0,0,.66-2.5,3.978,3.978,0,0,0-.66-2.48,2.32,2.32,0,0,0-1.949-.848,2.283,2.283,0,0,0-1.922.836A4.023,4.023,0,0,0,94.152,12.711Zm1.5-5.6q.375-.484.809-1.172a13.411,13.411,0,0,0,.684-1.2h1.578v.164A11.549,11.549,0,0,1,97.7,6.156,11.619,11.619,0,0,1,96.52,7.3h-.867Zm13.125,8.742h-.07a3.047,3.047,0,0,1-2.687,1.3,3.179,3.179,0,0,1-2.613-1.148,5.055,5.055,0,0,1-.934-3.266,5.141,5.141,0,0,1,.938-3.289,3.155,3.155,0,0,1,2.609-1.172,3.114,3.114,0,0,1,2.672,1.266h.1l-.055-.617-.031-.6V4.844H110V17h-1.055Zm-2.594.219a2.361,2.361,0,0,0,1.926-.723,3.652,3.652,0,0,0,.6-2.332v-.273a4.3,4.3,0,0,0-.605-2.6,2.3,2.3,0,0,0-1.934-.777,1.985,1.985,0,0,0-1.746.887,4.409,4.409,0,0,0-.605,2.5,4.227,4.227,0,0,0,.6,2.477A2.037,2.037,0,0,0,106.184,16.07Zm7.867.93h-1.3V8.438h1.3ZM112.645,6.117a.861.861,0,0,1,.219-.652.81.81,0,0,1,1.086,0,.846.846,0,0,1,.227.648.859.859,0,0,1-.227.652.794.794,0,0,1-1.086,0A.877.877,0,0,1,112.645,6.117Zm11.164,2.32v.82l-1.586.188a2.785,2.785,0,0,1,.563,1.711,2.531,2.531,0,0,1-.859,2.008,3.467,3.467,0,0,1-2.359.75,3.929,3.929,0,0,1-.719-.062,1.276,1.276,0,0,0-.828,1.1.56.56,0,0,0,.289.52,2.112,2.112,0,0,0,.992.168h1.516a3.394,3.394,0,0,1,2.137.586,2.036,2.036,0,0,1,.746,1.7,2.431,2.431,0,0,1-1.141,2.168,6.1,6.1,0,0,1-3.328.746,4.547,4.547,0,0,1-2.59-.625,2.018,2.018,0,0,1-.91-1.766,1.983,1.983,0,0,1,.5-1.352,2.546,2.546,0,0,1,1.406-.773,1.357,1.357,0,0,1-.551-.461,1.22,1.22,0,0,1-.223-.727,1.379,1.379,0,0,1,.25-.82,2.628,2.628,0,0,1,.789-.68,2.313,2.313,0,0,1-1.082-.93,2.732,2.732,0,0,1-.418-1.5,2.771,2.771,0,0,1,.844-2.168,3.445,3.445,0,0,1,2.391-.762,4.347,4.347,0,0,1,1.211.156Zm-6.828,10a1.162,1.162,0,0,0,.586,1.055,3.234,3.234,0,0,0,1.68.359,4.687,4.687,0,0,0,2.418-.488,1.5,1.5,0,0,0,.785-1.324,1.048,1.048,0,0,0-.43-.965,3.337,3.337,0,0,0-1.617-.27h-1.555a2.048,2.048,0,0,0-1.375.422A1.507,1.507,0,0,0,116.98,18.438Zm.7-7.258a1.743,1.743,0,0,0,.508,1.359,2.028,2.028,0,0,0,1.414.461,1.654,1.654,0,0,0,1.9-1.844,1.7,1.7,0,0,0-1.922-1.93,1.9,1.9,0,0,0-1.406.492A1.982,1.982,0,0,0,117.684,11.18Zm15.273,1.531a4.724,4.724,0,0,1-1.055,3.27,3.714,3.714,0,0,1-2.914,1.176,3.86,3.86,0,0,1-2.039-.539,3.558,3.558,0,0,1-1.375-1.547,5.391,5.391,0,0,1-.484-2.359,4.716,4.716,0,0,1,1.047-3.262,3.7,3.7,0,0,1,2.906-1.168,3.622,3.622,0,0,1,2.855,1.2A4.7,4.7,0,0,1,132.957,12.711Zm-6.523,0a4.064,4.064,0,0,0,.656,2.5,2.6,2.6,0,0,0,3.863,0,4.043,4.043,0,0,0,.66-2.5,3.978,3.978,0,0,0-.66-2.48A2.32,2.32,0,0,0,129,9.383a2.283,2.283,0,0,0-1.922.836A4.023,4.023,0,0,0,126.434,12.711Zm18.781,3.141h-.07a3.047,3.047,0,0,1-2.687,1.3,3.179,3.179,0,0,1-2.613-1.148,5.055,5.055,0,0,1-.934-3.266,5.141,5.141,0,0,1,.938-3.289,3.155,3.155,0,0,1,2.609-1.172,3.114,3.114,0,0,1,2.672,1.266h.1l-.055-.617-.031-.6V4.844h1.3V17h-1.055Zm-2.594.219a2.361,2.361,0,0,0,1.926-.723,3.652,3.652,0,0,0,.6-2.332v-.273a4.3,4.3,0,0,0-.605-2.6,2.3,2.3,0,0,0-1.934-.777,1.985,1.985,0,0,0-1.746.887,4.409,4.409,0,0,0-.605,2.5,4.227,4.227,0,0,0,.6,2.477A2.037,2.037,0,0,0,142.621,16.07Zm10.188,1.086a3.934,3.934,0,0,1-3-1.156,4.476,4.476,0,0,1-1.1-3.211,4.964,4.964,0,0,1,1.02-3.289,3.387,3.387,0,0,1,2.738-1.219A3.229,3.229,0,0,1,155.02,9.34a4.057,4.057,0,0,1,.938,2.793v.82h-5.9a3.394,3.394,0,0,0,.762,2.289,2.634,2.634,0,0,0,2.035.781,6.9,6.9,0,0,0,2.734-.578V16.6a6.863,6.863,0,0,1-1.3.426A7.31,7.31,0,0,1,152.809,17.156Zm-.352-7.789a2.118,2.118,0,0,0-1.645.672,3.1,3.1,0,0,0-.723,1.859h4.477a2.851,2.851,0,0,0-.547-1.879A1.925,1.925,0,0,0,152.457,9.367Zm13.852,7.789a3.706,3.706,0,0,1-1.527-.309,2.872,2.872,0,0,1-1.16-.949h-.094a11.485,11.485,0,0,1,.094,1.422v3.523h-1.3V8.438h1.055l.18,1.172h.063a3.012,3.012,0,0,1,1.164-1.016,3.539,3.539,0,0,1,1.523-.312,3.165,3.165,0,0,1,2.629,1.164,5.125,5.125,0,0,1,.926,3.266,5.1,5.1,0,0,1-.941,3.277A3.17,3.17,0,0,1,166.309,17.156Zm-.187-7.773a2.3,2.3,0,0,0-1.9.727,3.739,3.739,0,0,0-.6,2.313v.289a4.285,4.285,0,0,0,.6,2.582,2.288,2.288,0,0,0,1.93.777,2.007,2.007,0,0,0,1.738-.9,4.26,4.26,0,0,0,.629-2.477,4.1,4.1,0,0,0-.629-2.457A2.069,2.069,0,0,0,166.121,9.383Zm9.914-1.1a5.075,5.075,0,0,1,1.023.094l-.18,1.2a4.418,4.418,0,0,0-.937-.117,2.282,2.282,0,0,0-1.777.844,3.077,3.077,0,0,0-.738,2.1V17h-1.3V8.438h1.07l.148,1.586h.063a3.764,3.764,0,0,1,1.148-1.289A2.585,2.585,0,0,1,176.035,8.281Zm9.7,4.43a4.724,4.724,0,0,1-1.055,3.27,3.714,3.714,0,0,1-2.914,1.176,3.86,3.86,0,0,1-2.039-.539,3.558,3.558,0,0,1-1.375-1.547,5.391,5.391,0,0,1-.484-2.359,4.716,4.716,0,0,1,1.047-3.262,3.7,3.7,0,0,1,2.906-1.168,3.622,3.622,0,0,1,2.855,1.2A4.7,4.7,0,0,1,185.73,12.711Zm-6.523,0a4.064,4.064,0,0,0,.656,2.5,2.6,2.6,0,0,0,3.863,0,4.043,4.043,0,0,0,.66-2.5,3.978,3.978,0,0,0-.66-2.48,2.32,2.32,0,0,0-1.949-.848,2.283,2.283,0,0,0-1.922.836A4.023,4.023,0,0,0,179.207,12.711Zm14.625,3.141h-.07a3.047,3.047,0,0,1-2.687,1.3,3.179,3.179,0,0,1-2.613-1.148,5.055,5.055,0,0,1-.934-3.266,5.141,5.141,0,0,1,.938-3.289,3.155,3.155,0,0,1,2.609-1.172,3.114,3.114,0,0,1,2.672,1.266h.1l-.055-.617-.031-.6V4.844h1.3V17H194Zm-2.594.219a2.361,2.361,0,0,0,1.926-.723,3.652,3.652,0,0,0,.6-2.332v-.273a4.3,4.3,0,0,0-.605-2.6,2.3,2.3,0,0,0-1.934-.777,1.985,1.985,0,0,0-1.746.887,4.409,4.409,0,0,0-.605,2.5,4.227,4.227,0,0,0,.6,2.477A2.037,2.037,0,0,0,191.238,16.07Zm7.789-7.633v5.555a2.235,2.235,0,0,0,.477,1.563A1.941,1.941,0,0,0,201,16.07a2.435,2.435,0,0,0,1.965-.734,3.7,3.7,0,0,0,.621-2.4v-4.5h1.3V17h-1.07l-.187-1.148h-.07a2.585,2.585,0,0,1-1.105.969,3.716,3.716,0,0,1-1.613.336,3.273,3.273,0,0,1-2.34-.742,3.159,3.159,0,0,1-.777-2.375v-5.6Zm12.023,8.719a3.654,3.654,0,0,1-2.879-1.145,4.707,4.707,0,0,1-1.02-3.238,4.853,4.853,0,0,1,1.035-3.32,3.727,3.727,0,0,1,2.949-1.172,5.852,5.852,0,0,1,1.234.133,4.066,4.066,0,0,1,.969.313l-.4,1.1A6.1,6.1,0,0,0,212,9.543a4.186,4.186,0,0,0-.9-.113q-2.609,0-2.609,3.328a3.963,3.963,0,0,0,.637,2.422,2.215,2.215,0,0,0,1.887.844,5.769,5.769,0,0,0,2.2-.461v1.148A4.679,4.679,0,0,1,211.051,17.156Zm6.961-1.07a4.236,4.236,0,0,0,.664-.051,4.3,4.3,0,0,0,.508-.105v.992a2.371,2.371,0,0,1-.621.168,4.664,4.664,0,0,1-.738.066q-2.484,0-2.484-2.617V9.445h-1.227V8.82l1.227-.539.547-1.828h.75V8.438h2.484V9.445h-2.484v5.039A1.733,1.733,0,0,0,217,15.672,1.278,1.278,0,0,0,218.012,16.086Zm10.273-3.375a4.724,4.724,0,0,1-1.055,3.27,3.714,3.714,0,0,1-2.914,1.176,3.86,3.86,0,0,1-2.039-.539A3.558,3.558,0,0,1,220.9,15.07a5.391,5.391,0,0,1-.484-2.359,4.716,4.716,0,0,1,1.047-3.262,3.7,3.7,0,0,1,2.906-1.168,3.622,3.622,0,0,1,2.855,1.2A4.7,4.7,0,0,1,228.285,12.711Zm-6.523,0a4.064,4.064,0,0,0,.656,2.5,2.6,2.6,0,0,0,3.863,0,4.043,4.043,0,0,0,.66-2.5,3.978,3.978,0,0,0-.66-2.48,2.32,2.32,0,0,0-1.949-.848,2.283,2.283,0,0,0-1.922.836A4.023,4.023,0,0,0,221.762,12.711Z" transform="translate(609 6297)" fill="#00223d"/>
    <path id="Trazado_86129" data-name="Trazado 86129" d="M122.477,11.18a5.767,5.767,0,0,1-1.535,4.324,6.074,6.074,0,0,1-4.418,1.5h-3.164V5.578h3.5A5.6,5.6,0,0,1,121,7.055,5.576,5.576,0,0,1,122.477,11.18Zm-1.406.047a4.6,4.6,0,0,0-1.121-3.367,4.493,4.493,0,0,0-3.332-1.133h-1.93v9.125H116.3a4.917,4.917,0,0,0,3.57-1.168A4.624,4.624,0,0,0,121.07,11.227Zm7.375,5.93a3.934,3.934,0,0,1-3-1.156,4.476,4.476,0,0,1-1.1-3.211,4.964,4.964,0,0,1,1.02-3.289,3.387,3.387,0,0,1,2.738-1.219,3.229,3.229,0,0,1,2.547,1.059,4.057,4.057,0,0,1,.938,2.793v.82h-5.9a3.394,3.394,0,0,0,.762,2.289,2.635,2.635,0,0,0,2.035.781,6.9,6.9,0,0,0,2.734-.578V16.6a6.863,6.863,0,0,1-1.3.426A7.31,7.31,0,0,1,128.445,17.156Zm-.352-7.789a2.118,2.118,0,0,0-1.645.672,3.1,3.1,0,0,0-.723,1.859H130.2a2.851,2.851,0,0,0-.547-1.879A1.925,1.925,0,0,0,128.094,9.367Zm11.234,5.3a2.145,2.145,0,0,1-.891,1.844,4.186,4.186,0,0,1-2.5.648,5.436,5.436,0,0,1-2.656-.539v-1.2a6.423,6.423,0,0,0,1.324.492,5.53,5.53,0,0,0,1.363.18,3.092,3.092,0,0,0,1.563-.324,1.116,1.116,0,0,0,.113-1.844,6.82,6.82,0,0,0-1.691-.84,9.172,9.172,0,0,1-1.7-.777,2.321,2.321,0,0,1-.75-.754,1.966,1.966,0,0,1-.246-1.008,1.921,1.921,0,0,1,.852-1.652,3.968,3.968,0,0,1,2.336-.605,6.835,6.835,0,0,1,2.7.563L138.688,9.9a6.2,6.2,0,0,0-2.336-.531,2.688,2.688,0,0,0-1.391.289.894.894,0,0,0-.469.8.971.971,0,0,0,.176.586,1.735,1.735,0,0,0,.566.461,12.659,12.659,0,0,0,1.5.633,5.6,5.6,0,0,1,2.059,1.117A1.97,1.97,0,0,1,139.328,14.664Zm5.531,2.492a3.654,3.654,0,0,1-2.879-1.145,4.707,4.707,0,0,1-1.02-3.238A4.853,4.853,0,0,1,142,9.453a3.727,3.727,0,0,1,2.949-1.172,5.852,5.852,0,0,1,1.234.133,4.066,4.066,0,0,1,.969.313l-.4,1.1a6.1,6.1,0,0,0-.937-.285,4.186,4.186,0,0,0-.9-.113q-2.609,0-2.609,3.328a3.963,3.963,0,0,0,.637,2.422,2.215,2.215,0,0,0,1.887.844,5.769,5.769,0,0,0,2.2-.461v1.148A4.679,4.679,0,0,1,144.859,17.156Zm8.1-8.875a5.075,5.075,0,0,1,1.023.094l-.18,1.2a4.418,4.418,0,0,0-.937-.117,2.282,2.282,0,0,0-1.777.844,3.077,3.077,0,0,0-.738,2.1V17h-1.3V8.438h1.07l.148,1.586h.063a3.764,3.764,0,0,1,1.148-1.289A2.585,2.585,0,0,1,152.961,8.281ZM156.883,17h-1.3V8.438h1.3ZM155.477,6.117a.861.861,0,0,1,.219-.652.81.81,0,0,1,1.086,0,.846.846,0,0,1,.227.648.859.859,0,0,1-.227.652.794.794,0,0,1-1.086,0A.877.877,0,0,1,155.477,6.117Zm8.141,11.039a3.706,3.706,0,0,1-1.527-.309,2.872,2.872,0,0,1-1.16-.949h-.094a11.485,11.485,0,0,1,.094,1.422v3.523h-1.3V8.438h1.055l.18,1.172h.063a3.012,3.012,0,0,1,1.164-1.016,3.539,3.539,0,0,1,1.523-.312,3.165,3.165,0,0,1,2.629,1.164,5.125,5.125,0,0,1,.926,3.266,5.1,5.1,0,0,1-.941,3.277A3.17,3.17,0,0,1,163.617,17.156Zm-.187-7.773a2.3,2.3,0,0,0-1.9.727,3.739,3.739,0,0,0-.6,2.313v.289a4.285,4.285,0,0,0,.6,2.582,2.288,2.288,0,0,0,1.93.777,2.007,2.007,0,0,0,1.738-.9,4.26,4.26,0,0,0,.629-2.477,4.1,4.1,0,0,0-.629-2.457A2.069,2.069,0,0,0,163.43,9.383Zm9.43,7.773a3.654,3.654,0,0,1-2.879-1.145,4.707,4.707,0,0,1-1.02-3.238A4.853,4.853,0,0,1,170,9.453a3.727,3.727,0,0,1,2.949-1.172,5.852,5.852,0,0,1,1.234.133,4.066,4.066,0,0,1,.969.313l-.4,1.1a6.1,6.1,0,0,0-.937-.285,4.186,4.186,0,0,0-.9-.113q-2.609,0-2.609,3.328a3.963,3.963,0,0,0,.637,2.422,2.215,2.215,0,0,0,1.887.844,5.769,5.769,0,0,0,2.2-.461v1.148A4.679,4.679,0,0,1,172.859,17.156ZM178.352,17h-1.3V8.438h1.3ZM176.945,6.117a.861.861,0,0,1,.219-.652.81.81,0,0,1,1.086,0,.846.846,0,0,1,.227.648.859.859,0,0,1-.227.652.794.794,0,0,1-1.086,0A.877.877,0,0,1,176.945,6.117Zm11.547,6.594a4.724,4.724,0,0,1-1.055,3.27,3.714,3.714,0,0,1-2.914,1.176,3.86,3.86,0,0,1-2.039-.539,3.558,3.558,0,0,1-1.375-1.547,5.391,5.391,0,0,1-.484-2.359,4.716,4.716,0,0,1,1.047-3.262,3.7,3.7,0,0,1,2.906-1.168,3.622,3.622,0,0,1,2.855,1.2A4.7,4.7,0,0,1,188.492,12.711Zm-6.523,0a4.064,4.064,0,0,0,.656,2.5,2.6,2.6,0,0,0,3.863,0,4.043,4.043,0,0,0,.66-2.5,3.978,3.978,0,0,0-.66-2.48,2.32,2.32,0,0,0-1.949-.848,2.283,2.283,0,0,0-1.922.836A4.023,4.023,0,0,0,181.969,12.711Zm1.5-5.6q.375-.484.809-1.172a13.413,13.413,0,0,0,.684-1.2h1.578v.164a11.549,11.549,0,0,1-1.023,1.25,11.62,11.62,0,0,1-1.18,1.148h-.867ZM196.625,17V11.461a2.235,2.235,0,0,0-.477-1.562,1.941,1.941,0,0,0-1.492-.516,2.461,2.461,0,0,0-1.969.727,3.668,3.668,0,0,0-.625,2.4V17h-1.3V8.438h1.055l.211,1.172h.063a2.648,2.648,0,0,1,1.117-.98,3.63,3.63,0,0,1,1.6-.348,3.252,3.252,0,0,1,2.328.746,3.175,3.175,0,0,1,.781,2.387V17Z" transform="translate(609 6346)" fill="#00223d"/>
    <path id="Trazado_86130" data-name="Trazado 86130" d="M72,6.6a3.735,3.735,0,0,0-2.973,1.254,5.058,5.058,0,0,0-1.09,3.434,5.159,5.159,0,0,0,1.051,3.465,3.735,3.735,0,0,0,3,1.223,10.23,10.23,0,0,0,2.727-.43v1.164a8.4,8.4,0,0,1-2.93.445,4.956,4.956,0,0,1-3.895-1.531,6.306,6.306,0,0,1-1.371-4.352,6.868,6.868,0,0,1,.66-3.094,4.739,4.739,0,0,1,1.906-2.047,5.77,5.77,0,0,1,2.934-.719,7.078,7.078,0,0,1,3.141.656l-.562,1.141A6.053,6.053,0,0,0,72,6.6ZM82.273,17l-.258-1.219h-.062a3.6,3.6,0,0,1-1.277,1.09,3.893,3.893,0,0,1-1.59.285,2.86,2.86,0,0,1-2-.656,2.394,2.394,0,0,1-.723-1.867q0-2.594,4.148-2.719l1.453-.047v-.531a2.171,2.171,0,0,0-.434-1.488,1.783,1.783,0,0,0-1.387-.48,5.65,5.65,0,0,0-2.422.656l-.4-.992a6.094,6.094,0,0,1,1.387-.539,6.006,6.006,0,0,1,1.512-.2,3.262,3.262,0,0,1,2.27.68,2.837,2.837,0,0,1,.738,2.18V17Zm-2.93-.914a2.632,2.632,0,0,0,1.9-.664,2.457,2.457,0,0,0,.691-1.859v-.773l-1.3.055a4.717,4.717,0,0,0-2.23.48,1.449,1.449,0,0,0-.684,1.324,1.336,1.336,0,0,0,.426,1.07A1.767,1.767,0,0,0,79.344,16.086ZM91.766,17V11.461A2.235,2.235,0,0,0,91.289,9.9,1.941,1.941,0,0,0,89.8,9.383a2.461,2.461,0,0,0-1.969.727,3.668,3.668,0,0,0-.625,2.4V17h-1.3V8.438h1.055l.211,1.172h.063a2.648,2.648,0,0,1,1.117-.98,3.63,3.63,0,0,1,1.6-.348,3.252,3.252,0,0,1,2.328.746,3.175,3.175,0,0,1,.781,2.387V17Zm6.727-.914a4.236,4.236,0,0,0,.664-.051,4.3,4.3,0,0,0,.508-.105v.992a2.371,2.371,0,0,1-.621.168,4.664,4.664,0,0,1-.738.066q-2.484,0-2.484-2.617V9.445H94.594V8.82l1.227-.539.547-1.828h.75V8.438H99.6V9.445H97.117v5.039a1.734,1.734,0,0,0,.367,1.188A1.278,1.278,0,0,0,98.492,16.086Zm4.18.914h-1.3V8.438h1.3ZM101.266,6.117a.861.861,0,0,1,.219-.652.81.81,0,0,1,1.086,0,.846.846,0,0,1,.227.648.859.859,0,0,1-.227.652.794.794,0,0,1-1.086,0A.877.877,0,0,1,101.266,6.117Zm9.984,9.734h-.07a3.047,3.047,0,0,1-2.687,1.3,3.179,3.179,0,0,1-2.613-1.148,5.055,5.055,0,0,1-.934-3.266,5.141,5.141,0,0,1,.938-3.289,3.155,3.155,0,0,1,2.609-1.172,3.114,3.114,0,0,1,2.672,1.266h.1l-.055-.617-.031-.6V4.844h1.3V17h-1.055Zm-2.594.219a2.361,2.361,0,0,0,1.926-.723,3.652,3.652,0,0,0,.6-2.332v-.273a4.3,4.3,0,0,0-.605-2.6,2.3,2.3,0,0,0-1.934-.777,1.985,1.985,0,0,0-1.746.887,4.409,4.409,0,0,0-.605,2.5,4.227,4.227,0,0,0,.6,2.477A2.037,2.037,0,0,0,108.656,16.07Zm11.836.93-.258-1.219h-.062a3.6,3.6,0,0,1-1.277,1.09,3.893,3.893,0,0,1-1.59.285,2.86,2.86,0,0,1-2-.656,2.394,2.394,0,0,1-.723-1.867q0-2.594,4.148-2.719l1.453-.047v-.531a2.171,2.171,0,0,0-.434-1.488,1.783,1.783,0,0,0-1.387-.48,5.65,5.65,0,0,0-2.422.656l-.4-.992a6.094,6.094,0,0,1,1.387-.539,6.006,6.006,0,0,1,1.512-.2,3.262,3.262,0,0,1,2.27.68,2.837,2.837,0,0,1,.738,2.18V17Zm-2.93-.914a2.632,2.632,0,0,0,1.9-.664,2.457,2.457,0,0,0,.691-1.859v-.773l-1.3.055a4.717,4.717,0,0,0-2.23.48,1.449,1.449,0,0,0-.684,1.324,1.336,1.336,0,0,0,.426,1.07A1.767,1.767,0,0,0,117.563,16.086Zm12.391-.234h-.07a3.047,3.047,0,0,1-2.687,1.3,3.179,3.179,0,0,1-2.613-1.148,5.055,5.055,0,0,1-.934-3.266,5.141,5.141,0,0,1,.938-3.289A3.155,3.155,0,0,1,127.2,8.281a3.114,3.114,0,0,1,2.672,1.266h.1l-.055-.617-.031-.6V4.844h1.3V17h-1.055Zm-2.594.219a2.361,2.361,0,0,0,1.926-.723,3.652,3.652,0,0,0,.6-2.332v-.273a4.3,4.3,0,0,0-.605-2.6,2.3,2.3,0,0,0-1.934-.777,1.985,1.985,0,0,0-1.746.887,4.409,4.409,0,0,0-.605,2.5,4.227,4.227,0,0,0,.6,2.477A2.037,2.037,0,0,0,127.359,16.07Zm15.992.93-.258-1.219h-.062a3.6,3.6,0,0,1-1.277,1.09,3.893,3.893,0,0,1-1.59.285,2.86,2.86,0,0,1-2-.656,2.394,2.394,0,0,1-.723-1.867q0-2.594,4.148-2.719l1.453-.047v-.531a2.171,2.171,0,0,0-.434-1.488,1.783,1.783,0,0,0-1.387-.48,5.65,5.65,0,0,0-2.422.656l-.4-.992a6.094,6.094,0,0,1,1.387-.539,6.006,6.006,0,0,1,1.512-.2,3.262,3.262,0,0,1,2.27.68,2.837,2.837,0,0,1,.738,2.18V17Zm-2.93-.914a2.632,2.632,0,0,0,1.9-.664,2.457,2.457,0,0,0,.691-1.859v-.773l-1.3.055a4.717,4.717,0,0,0-2.23.48,1.449,1.449,0,0,0-.684,1.324,1.336,1.336,0,0,0,.426,1.07A1.767,1.767,0,0,0,140.422,16.086Zm14.141,1.07a3.654,3.654,0,0,1-2.879-1.145,4.707,4.707,0,0,1-1.02-3.238,4.853,4.853,0,0,1,1.035-3.32,3.727,3.727,0,0,1,2.949-1.172,5.852,5.852,0,0,1,1.234.133,4.066,4.066,0,0,1,.969.313l-.4,1.1a6.1,6.1,0,0,0-.937-.285,4.186,4.186,0,0,0-.9-.113q-2.609,0-2.609,3.328a3.963,3.963,0,0,0,.637,2.422,2.215,2.215,0,0,0,1.887.844,5.769,5.769,0,0,0,2.2-.461v1.148A4.679,4.679,0,0,1,154.563,17.156Zm11.586-4.445a4.724,4.724,0,0,1-1.055,3.27,3.714,3.714,0,0,1-2.914,1.176,3.86,3.86,0,0,1-2.039-.539,3.558,3.558,0,0,1-1.375-1.547,5.391,5.391,0,0,1-.484-2.359,4.716,4.716,0,0,1,1.047-3.262,3.7,3.7,0,0,1,2.906-1.168,3.622,3.622,0,0,1,2.855,1.2A4.7,4.7,0,0,1,166.148,12.711Zm-6.523,0a4.064,4.064,0,0,0,.656,2.5,2.6,2.6,0,0,0,3.863,0,4.043,4.043,0,0,0,.66-2.5,3.978,3.978,0,0,0-.66-2.48,2.32,2.32,0,0,0-1.949-.848,2.283,2.283,0,0,0-1.922.836A4.023,4.023,0,0,0,159.625,12.711ZM174.281,17V11.461A2.235,2.235,0,0,0,173.8,9.9a1.941,1.941,0,0,0-1.492-.516,2.461,2.461,0,0,0-1.969.727,3.668,3.668,0,0,0-.625,2.4V17h-1.3V8.438h1.055l.211,1.172h.063a2.648,2.648,0,0,1,1.117-.98,3.63,3.63,0,0,1,1.6-.348,3.252,3.252,0,0,1,2.328.746,3.175,3.175,0,0,1,.781,2.387V17Zm7.82-7.555h-2.18V17h-1.3V9.445h-1.531V8.859l1.531-.469V7.914q0-3.156,2.758-3.156a5.675,5.675,0,0,1,1.594.273l-.336,1.039a4.29,4.29,0,0,0-1.281-.242,1.248,1.248,0,0,0-1.086.488,2.725,2.725,0,0,0-.352,1.566v.555h2.18Zm5.18,7.711a3.934,3.934,0,0,1-3-1.156,4.476,4.476,0,0,1-1.1-3.211,4.964,4.964,0,0,1,1.02-3.289,3.387,3.387,0,0,1,2.738-1.219,3.229,3.229,0,0,1,2.547,1.059,4.057,4.057,0,0,1,.938,2.793v.82h-5.9a3.394,3.394,0,0,0,.762,2.289,2.634,2.634,0,0,0,2.035.781,6.9,6.9,0,0,0,2.734-.578V16.6a6.863,6.863,0,0,1-1.3.426A7.31,7.31,0,0,1,187.281,17.156Zm-.352-7.789a2.118,2.118,0,0,0-1.645.672,3.1,3.1,0,0,0-.723,1.859h4.477a2.851,2.851,0,0,0-.547-1.879A1.925,1.925,0,0,0,186.93,9.367Zm9.133,7.789a3.654,3.654,0,0,1-2.879-1.145,4.707,4.707,0,0,1-1.02-3.238,4.853,4.853,0,0,1,1.035-3.32,3.727,3.727,0,0,1,2.949-1.172,5.852,5.852,0,0,1,1.234.133,4.066,4.066,0,0,1,.969.313l-.4,1.1a6.1,6.1,0,0,0-.937-.285,4.186,4.186,0,0,0-.9-.113q-2.609,0-2.609,3.328a3.963,3.963,0,0,0,.637,2.422,2.215,2.215,0,0,0,1.887.844,5.769,5.769,0,0,0,2.2-.461v1.148A4.679,4.679,0,0,1,196.063,17.156Zm7.617,0a3.654,3.654,0,0,1-2.879-1.145,4.707,4.707,0,0,1-1.02-3.238,4.853,4.853,0,0,1,1.035-3.32,3.727,3.727,0,0,1,2.949-1.172A5.852,5.852,0,0,1,205,8.414a4.066,4.066,0,0,1,.969.313l-.4,1.1a6.1,6.1,0,0,0-.937-.285,4.186,4.186,0,0,0-.9-.113q-2.609,0-2.609,3.328a3.963,3.963,0,0,0,.637,2.422,2.215,2.215,0,0,0,1.887.844,5.769,5.769,0,0,0,2.2-.461v1.148A4.679,4.679,0,0,1,203.68,17.156ZM209.172,17h-1.3V8.438h1.3ZM207.766,6.117a.861.861,0,0,1,.219-.652.81.81,0,0,1,1.086,0,.846.846,0,0,1,.227.648.859.859,0,0,1-.227.652.794.794,0,0,1-1.086,0A.877.877,0,0,1,207.766,6.117Zm11.547,6.594a4.724,4.724,0,0,1-1.055,3.27,3.714,3.714,0,0,1-2.914,1.176,3.86,3.86,0,0,1-2.039-.539,3.558,3.558,0,0,1-1.375-1.547,5.391,5.391,0,0,1-.484-2.359,4.716,4.716,0,0,1,1.047-3.262A3.7,3.7,0,0,1,215.4,8.281a3.622,3.622,0,0,1,2.855,1.2A4.7,4.7,0,0,1,219.313,12.711Zm-6.523,0a4.064,4.064,0,0,0,.656,2.5,2.6,2.6,0,0,0,3.863,0,4.043,4.043,0,0,0,.66-2.5,3.978,3.978,0,0,0-.66-2.48,2.32,2.32,0,0,0-1.949-.848,2.283,2.283,0,0,0-1.922.836A4.023,4.023,0,0,0,212.789,12.711ZM227.445,17V11.461a2.235,2.235,0,0,0-.477-1.562,1.941,1.941,0,0,0-1.492-.516,2.461,2.461,0,0,0-1.969.727,3.668,3.668,0,0,0-.625,2.4V17h-1.3V8.438h1.055l.211,1.172h.063a2.648,2.648,0,0,1,1.117-.98,3.63,3.63,0,0,1,1.6-.348,3.252,3.252,0,0,1,2.328.746,3.175,3.175,0,0,1,.781,2.387V17Zm9.227,0-.258-1.219h-.062a3.6,3.6,0,0,1-1.277,1.09,3.893,3.893,0,0,1-1.59.285,2.86,2.86,0,0,1-2-.656,2.394,2.394,0,0,1-.723-1.867q0-2.594,4.148-2.719l1.453-.047v-.531a2.171,2.171,0,0,0-.434-1.488,1.783,1.783,0,0,0-1.387-.48,5.65,5.65,0,0,0-2.422.656l-.4-.992a6.094,6.094,0,0,1,1.387-.539,6.006,6.006,0,0,1,1.512-.2,3.262,3.262,0,0,1,2.27.68,2.837,2.837,0,0,1,.738,2.18V17Zm-2.93-.914a2.632,2.632,0,0,0,1.9-.664,2.457,2.457,0,0,0,.691-1.859v-.773l-1.3.055a4.717,4.717,0,0,0-2.23.48,1.449,1.449,0,0,0-.684,1.324,1.336,1.336,0,0,0,.426,1.07A1.767,1.767,0,0,0,233.742,16.086Zm10.469-7.8a5.075,5.075,0,0,1,1.023.094l-.18,1.2a4.418,4.418,0,0,0-.937-.117,2.282,2.282,0,0,0-1.777.844,3.077,3.077,0,0,0-.738,2.1V17h-1.3V8.438h1.07l.148,1.586h.063a3.764,3.764,0,0,1,1.148-1.289A2.585,2.585,0,0,1,244.211,8.281Z" transform="translate(609 6395)" fill="#00223d"/>
    <path id="Trazado_86131" data-name="Trazado 86131" d="M150.7,10.023a4.2,4.2,0,0,1,2.84.895,3.068,3.068,0,0,1,1.035,2.449,3.537,3.537,0,0,1-1.129,2.781,4.509,4.509,0,0,1-3.113,1.008,5.729,5.729,0,0,1-2.945-.617v-1.25a4.476,4.476,0,0,0,1.359.551,6.708,6.708,0,0,0,1.6.2,3.2,3.2,0,0,0,2.137-.648,2.326,2.326,0,0,0,.762-1.875q0-2.391-2.93-2.391a11.664,11.664,0,0,0-1.984.227l-.672-.43.43-5.344h5.68v1.2H149.2l-.289,3.43A9.1,9.1,0,0,1,150.7,10.023Zm13.148,1.25a8.341,8.341,0,0,1-.934,4.422,3.448,3.448,0,0,1-5.66-.035,8.175,8.175,0,0,1-.961-4.387,8.338,8.338,0,0,1,.93-4.43,3.451,3.451,0,0,1,5.66.063A8.141,8.141,0,0,1,163.852,11.273Zm-6.242,0A8.365,8.365,0,0,0,158.2,14.9a2.1,2.1,0,0,0,3.746-.016,8.43,8.43,0,0,0,.582-3.613,8.374,8.374,0,0,0-.582-3.605,2.112,2.112,0,0,0-3.746-.016A8.309,8.309,0,0,0,157.609,11.273Z" transform="translate(609 6444)" fill="#00223d"/>
    <path id="Trazado_86132" data-name="Trazado 86132" d="M253.156,6.6a3.735,3.735,0,0,0-2.973,1.254,5.058,5.058,0,0,0-1.09,3.434,5.159,5.159,0,0,0,1.051,3.465,3.735,3.735,0,0,0,3,1.223,10.23,10.23,0,0,0,2.727-.43v1.164a8.4,8.4,0,0,1-2.93.445,4.956,4.956,0,0,1-3.895-1.531,6.306,6.306,0,0,1-1.371-4.352,6.868,6.868,0,0,1,.66-3.094,4.739,4.739,0,0,1,1.906-2.047,5.77,5.77,0,0,1,2.934-.719,7.078,7.078,0,0,1,3.141.656l-.562,1.141A6.053,6.053,0,0,0,253.156,6.6ZM263.43,17l-.258-1.219h-.062a3.6,3.6,0,0,1-1.277,1.09,3.893,3.893,0,0,1-1.59.285,2.86,2.86,0,0,1-2-.656,2.394,2.394,0,0,1-.723-1.867q0-2.594,4.148-2.719l1.453-.047v-.531a2.171,2.171,0,0,0-.434-1.488,1.783,1.783,0,0,0-1.387-.48,5.65,5.65,0,0,0-2.422.656l-.4-.992a6.094,6.094,0,0,1,1.387-.539,6.006,6.006,0,0,1,1.512-.2,3.262,3.262,0,0,1,2.27.68,2.837,2.837,0,0,1,.738,2.18V17Zm-2.93-.914a2.632,2.632,0,0,0,1.9-.664,2.457,2.457,0,0,0,.691-1.859v-.773l-1.3.055a4.717,4.717,0,0,0-2.23.48,1.449,1.449,0,0,0-.684,1.324,1.336,1.336,0,0,0,.426,1.07A1.767,1.767,0,0,0,260.5,16.086ZM272.922,17V11.461a2.235,2.235,0,0,0-.477-1.562,1.941,1.941,0,0,0-1.492-.516,2.461,2.461,0,0,0-1.969.727,3.668,3.668,0,0,0-.625,2.4V17h-1.3V8.438h1.055l.211,1.172h.063a2.648,2.648,0,0,1,1.117-.98,3.63,3.63,0,0,1,1.6-.348,3.252,3.252,0,0,1,2.328.746,3.175,3.175,0,0,1,.781,2.387V17Zm6.727-.914a4.236,4.236,0,0,0,.664-.051,4.3,4.3,0,0,0,.508-.105v.992a2.371,2.371,0,0,1-.621.168,4.664,4.664,0,0,1-.738.066q-2.484,0-2.484-2.617V9.445H275.75V8.82l1.227-.539.547-1.828h.75V8.438h2.484V9.445h-2.484v5.039a1.734,1.734,0,0,0,.367,1.188A1.278,1.278,0,0,0,279.648,16.086Zm4.18.914h-1.3V8.438h1.3ZM282.422,6.117a.861.861,0,0,1,.219-.652.81.81,0,0,1,1.086,0,.846.846,0,0,1,.227.648.859.859,0,0,1-.227.652.794.794,0,0,1-1.086,0A.877.877,0,0,1,282.422,6.117Zm9.984,9.734h-.07a3.047,3.047,0,0,1-2.687,1.3,3.179,3.179,0,0,1-2.613-1.148,5.055,5.055,0,0,1-.934-3.266,5.141,5.141,0,0,1,.938-3.289,3.155,3.155,0,0,1,2.609-1.172,3.114,3.114,0,0,1,2.672,1.266h.1l-.055-.617-.031-.6V4.844h1.3V17h-1.055Zm-2.594.219a2.361,2.361,0,0,0,1.926-.723,3.652,3.652,0,0,0,.6-2.332v-.273a4.3,4.3,0,0,0-.605-2.6,2.3,2.3,0,0,0-1.934-.777,1.985,1.985,0,0,0-1.746.887,4.409,4.409,0,0,0-.605,2.5,4.227,4.227,0,0,0,.6,2.477A2.037,2.037,0,0,0,289.813,16.07Zm11.836.93-.258-1.219h-.062a3.6,3.6,0,0,1-1.277,1.09,3.893,3.893,0,0,1-1.59.285,2.86,2.86,0,0,1-2-.656,2.394,2.394,0,0,1-.723-1.867q0-2.594,4.148-2.719l1.453-.047v-.531a2.171,2.171,0,0,0-.434-1.488,1.783,1.783,0,0,0-1.387-.48,5.65,5.65,0,0,0-2.422.656l-.4-.992a6.094,6.094,0,0,1,1.387-.539,6.006,6.006,0,0,1,1.512-.2,3.262,3.262,0,0,1,2.27.68,2.837,2.837,0,0,1,.738,2.18V17Zm-2.93-.914a2.632,2.632,0,0,0,1.9-.664,2.457,2.457,0,0,0,.691-1.859v-.773l-1.3.055a4.717,4.717,0,0,0-2.23.48,1.449,1.449,0,0,0-.684,1.324,1.336,1.336,0,0,0,.426,1.07A1.767,1.767,0,0,0,298.719,16.086Zm12.391-.234h-.07a3.047,3.047,0,0,1-2.687,1.3,3.179,3.179,0,0,1-2.613-1.148,5.055,5.055,0,0,1-.934-3.266,5.141,5.141,0,0,1,.938-3.289,3.155,3.155,0,0,1,2.609-1.172,3.114,3.114,0,0,1,2.672,1.266h.1l-.055-.617-.031-.6V4.844h1.3V17h-1.055Zm-2.594.219a2.361,2.361,0,0,0,1.926-.723,3.652,3.652,0,0,0,.6-2.332v-.273a4.3,4.3,0,0,0-.605-2.6,2.3,2.3,0,0,0-1.934-.777,1.985,1.985,0,0,0-1.746.887,4.409,4.409,0,0,0-.605,2.5,4.227,4.227,0,0,0,.6,2.477A2.037,2.037,0,0,0,308.516,16.07Zm16.555-.219H325a3.047,3.047,0,0,1-2.687,1.3,3.179,3.179,0,0,1-2.613-1.148,5.055,5.055,0,0,1-.934-3.266,5.141,5.141,0,0,1,.938-3.289,3.155,3.155,0,0,1,2.609-1.172,3.114,3.114,0,0,1,2.672,1.266h.1l-.055-.617-.031-.6V4.844h1.3V17h-1.055Zm-2.594.219a2.361,2.361,0,0,0,1.926-.723,3.652,3.652,0,0,0,.6-2.332v-.273a4.3,4.3,0,0,0-.605-2.6,2.3,2.3,0,0,0-1.934-.777,1.985,1.985,0,0,0-1.746.887,4.409,4.409,0,0,0-.605,2.5,4.227,4.227,0,0,0,.6,2.477A2.037,2.037,0,0,0,322.477,16.07Zm10.188,1.086a3.934,3.934,0,0,1-3-1.156,4.476,4.476,0,0,1-1.1-3.211A4.964,4.964,0,0,1,329.59,9.5a3.387,3.387,0,0,1,2.738-1.219,3.229,3.229,0,0,1,2.547,1.059,4.057,4.057,0,0,1,.938,2.793v.82h-5.9a3.394,3.394,0,0,0,.762,2.289,2.635,2.635,0,0,0,2.035.781,6.9,6.9,0,0,0,2.734-.578V16.6a6.864,6.864,0,0,1-1.3.426A7.31,7.31,0,0,1,332.664,17.156Zm-.352-7.789a2.118,2.118,0,0,0-1.645.672,3.1,3.1,0,0,0-.723,1.859h4.477a2.851,2.851,0,0,0-.547-1.879A1.925,1.925,0,0,0,332.313,9.367Zm12.633,6.719a4.236,4.236,0,0,0,.664-.051,4.3,4.3,0,0,0,.508-.105v.992a2.371,2.371,0,0,1-.621.168,4.664,4.664,0,0,1-.738.066q-2.484,0-2.484-2.617V9.445h-1.227V8.82l1.227-.539.547-1.828h.75V8.438h2.484V9.445H343.57v5.039a1.734,1.734,0,0,0,.367,1.188A1.278,1.278,0,0,0,344.945,16.086Zm8.148.914-.258-1.219h-.062a3.6,3.6,0,0,1-1.277,1.09,3.893,3.893,0,0,1-1.59.285,2.86,2.86,0,0,1-2-.656,2.394,2.394,0,0,1-.723-1.867q0-2.594,4.148-2.719l1.453-.047v-.531a2.171,2.171,0,0,0-.434-1.488,1.783,1.783,0,0,0-1.387-.48,5.65,5.65,0,0,0-2.422.656l-.4-.992a6.094,6.094,0,0,1,1.387-.539,6.006,6.006,0,0,1,1.512-.2,3.262,3.262,0,0,1,2.27.68,2.837,2.837,0,0,1,.738,2.18V17Zm-2.93-.914a2.632,2.632,0,0,0,1.9-.664,2.457,2.457,0,0,0,.691-1.859v-.773l-1.3.055a4.717,4.717,0,0,0-2.23.48,1.449,1.449,0,0,0-.684,1.324,1.336,1.336,0,0,0,.426,1.07A1.767,1.767,0,0,0,350.164,16.086Zm10.469-7.8a5.075,5.075,0,0,1,1.023.094l-.18,1.2a4.417,4.417,0,0,0-.937-.117,2.282,2.282,0,0,0-1.777.844,3.077,3.077,0,0,0-.738,2.1V17h-1.3V8.438h1.07l.148,1.586h.063a3.764,3.764,0,0,1,1.148-1.289A2.585,2.585,0,0,1,360.633,8.281Zm1.586,12.563a3.121,3.121,0,0,1-1.2-.2V19.594a3.8,3.8,0,0,0,1.063.156,1.117,1.117,0,0,0,.895-.332,1.523,1.523,0,0,0,.285-1.012V8.438h1.3v9.875Q364.555,20.844,362.219,20.844Zm.93-14.727a.861.861,0,0,1,.219-.652.81.81,0,0,1,1.086,0,.846.846,0,0,1,.227.648.859.859,0,0,1-.227.652.794.794,0,0,1-1.086,0A.877.877,0,0,1,363.148,6.117Zm7.773,11.039a3.934,3.934,0,0,1-3-1.156,4.476,4.476,0,0,1-1.1-3.211,4.964,4.964,0,0,1,1.02-3.289,3.387,3.387,0,0,1,2.738-1.219,3.229,3.229,0,0,1,2.547,1.059,4.057,4.057,0,0,1,.938,2.793v.82h-5.9a3.394,3.394,0,0,0,.762,2.289,2.635,2.635,0,0,0,2.035.781,6.9,6.9,0,0,0,2.734-.578V16.6a6.864,6.864,0,0,1-1.3.426A7.31,7.31,0,0,1,370.922,17.156Zm-.352-7.789a2.118,2.118,0,0,0-1.645.672A3.1,3.1,0,0,0,368.2,11.9h4.477a2.851,2.851,0,0,0-.547-1.879A1.925,1.925,0,0,0,370.57,9.367Zm8.477,6.719a4.236,4.236,0,0,0,.664-.051,4.3,4.3,0,0,0,.508-.105v.992a2.371,2.371,0,0,1-.621.168,4.664,4.664,0,0,1-.738.066q-2.484,0-2.484-2.617V9.445h-1.227V8.82l1.227-.539.547-1.828h.75V8.438h2.484V9.445h-2.484v5.039a1.734,1.734,0,0,0,.367,1.188A1.278,1.278,0,0,0,379.047,16.086ZM387.2,17l-.258-1.219h-.062a3.6,3.6,0,0,1-1.277,1.09,3.893,3.893,0,0,1-1.59.285,2.86,2.86,0,0,1-2-.656,2.394,2.394,0,0,1-.723-1.867q0-2.594,4.148-2.719l1.453-.047v-.531a2.171,2.171,0,0,0-.434-1.488,1.783,1.783,0,0,0-1.387-.48,5.65,5.65,0,0,0-2.422.656l-.4-.992a6.094,6.094,0,0,1,1.387-.539,6.006,6.006,0,0,1,1.512-.2,3.262,3.262,0,0,1,2.27.68,2.837,2.837,0,0,1,.738,2.18V17Zm-2.93-.914a2.632,2.632,0,0,0,1.9-.664,2.457,2.457,0,0,0,.691-1.859v-.773l-1.3.055a4.717,4.717,0,0,0-2.23.48,1.449,1.449,0,0,0-.684,1.324,1.336,1.336,0,0,0,.426,1.07A1.767,1.767,0,0,0,384.266,16.086Zm12.086-1.422a2.145,2.145,0,0,1-.891,1.844,4.186,4.186,0,0,1-2.5.648,5.436,5.436,0,0,1-2.656-.539v-1.2a6.424,6.424,0,0,0,1.324.492,5.53,5.53,0,0,0,1.363.18,3.092,3.092,0,0,0,1.563-.324,1.116,1.116,0,0,0,.113-1.844,6.821,6.821,0,0,0-1.691-.84,9.172,9.172,0,0,1-1.7-.777,2.321,2.321,0,0,1-.75-.754,1.966,1.966,0,0,1-.246-1.008,1.921,1.921,0,0,1,.852-1.652,3.968,3.968,0,0,1,2.336-.605,6.835,6.835,0,0,1,2.7.563L395.711,9.9a6.2,6.2,0,0,0-2.336-.531,2.687,2.687,0,0,0-1.391.289.894.894,0,0,0-.469.8.971.971,0,0,0,.176.586,1.735,1.735,0,0,0,.566.461,12.656,12.656,0,0,0,1.5.633,5.6,5.6,0,0,1,2.059,1.117A1.97,1.97,0,0,1,396.352,14.664ZM411.063,17H409.5l-4.164-5.539-1.2,1.063V17h-1.328V5.578h1.328v5.664l5.18-5.664h1.57L406.3,10.539Zm6.641,0-.258-1.219h-.062a3.6,3.6,0,0,1-1.277,1.09,3.893,3.893,0,0,1-1.59.285,2.86,2.86,0,0,1-2-.656,2.394,2.394,0,0,1-.723-1.867q0-2.594,4.148-2.719l1.453-.047v-.531a2.171,2.171,0,0,0-.434-1.488,1.783,1.783,0,0,0-1.387-.48,5.65,5.65,0,0,0-2.422.656l-.4-.992a6.094,6.094,0,0,1,1.387-.539,6.006,6.006,0,0,1,1.512-.2,3.262,3.262,0,0,1,2.27.68,2.837,2.837,0,0,1,.738,2.18V17Zm-2.93-.914a2.632,2.632,0,0,0,1.9-.664,2.457,2.457,0,0,0,.691-1.859v-.773l-1.3.055a4.717,4.717,0,0,0-2.23.48,1.449,1.449,0,0,0-.684,1.324,1.336,1.336,0,0,0,.426,1.07A1.767,1.767,0,0,0,414.773,16.086ZM427.2,17V11.461a2.235,2.235,0,0,0-.477-1.562,1.941,1.941,0,0,0-1.492-.516,2.461,2.461,0,0,0-1.969.727,3.668,3.668,0,0,0-.625,2.4V17h-1.3V8.438h1.055l.211,1.172h.063a2.648,2.648,0,0,1,1.117-.98,3.63,3.63,0,0,1,1.6-.348,3.252,3.252,0,0,1,2.328.746,3.175,3.175,0,0,1,.781,2.387V17Zm7.945-8.7a3.183,3.183,0,0,1,2.621,1.152,5.058,5.058,0,0,1,.934,3.262,5.1,5.1,0,0,1-.941,3.277,3.17,3.17,0,0,1-2.613,1.168,3.706,3.706,0,0,1-1.527-.309,2.872,2.872,0,0,1-1.16-.949h-.094l-.273,1.1h-.93V4.844h1.3V7.8q0,.992-.062,1.781h.063A3.079,3.079,0,0,1,435.141,8.3Zm-.187,1.086a2.264,2.264,0,0,0-1.914.762,4.3,4.3,0,0,0-.586,2.566,4.285,4.285,0,0,0,.6,2.582,2.288,2.288,0,0,0,1.93.777,2,2,0,0,0,1.781-.871,4.477,4.477,0,0,0,.586-2.5,4.3,4.3,0,0,0-.586-2.492A2.076,2.076,0,0,0,434.953,9.383ZM446.227,17l-.258-1.219h-.062a3.6,3.6,0,0,1-1.277,1.09,3.893,3.893,0,0,1-1.59.285,2.86,2.86,0,0,1-2-.656,2.394,2.394,0,0,1-.723-1.867q0-2.594,4.148-2.719l1.453-.047v-.531a2.171,2.171,0,0,0-.434-1.488,1.783,1.783,0,0,0-1.387-.48,5.65,5.65,0,0,0-2.422.656l-.4-.992a6.094,6.094,0,0,1,1.387-.539,6.006,6.006,0,0,1,1.512-.2,3.262,3.262,0,0,1,2.27.68,2.837,2.837,0,0,1,.738,2.18V17Zm-2.93-.914a2.632,2.632,0,0,0,1.9-.664,2.457,2.457,0,0,0,.691-1.859v-.773l-1.3.055a4.717,4.717,0,0,0-2.23.48,1.449,1.449,0,0,0-.684,1.324,1.336,1.336,0,0,0,.426,1.07A1.767,1.767,0,0,0,443.3,16.086ZM455.719,17V11.461a2.235,2.235,0,0,0-.477-1.562,1.941,1.941,0,0,0-1.492-.516,2.461,2.461,0,0,0-1.969.727,3.668,3.668,0,0,0-.625,2.4V17h-1.3V8.438h1.055l.211,1.172h.063a2.648,2.648,0,0,1,1.117-.98,3.63,3.63,0,0,1,1.6-.348,3.252,3.252,0,0,1,2.328.746,3.175,3.175,0,0,1,.781,2.387V17Z" transform="translate(609 6494)" fill="#00223d"/>
    <path id="Trazado_86133" data-name="Trazado 86133" d="M338.094,17h-7.508V15.883l3.008-3.023a22.149,22.149,0,0,0,1.813-1.984,5.065,5.065,0,0,0,.656-1.156,3.312,3.312,0,0,0,.219-1.211,1.92,1.92,0,0,0-.555-1.449,2.125,2.125,0,0,0-1.539-.535,3.87,3.87,0,0,0-1.348.234,5.372,5.372,0,0,0-1.418.852l-.687-.883a5.265,5.265,0,0,1,3.438-1.312,3.632,3.632,0,0,1,2.523.824,2.835,2.835,0,0,1,.914,2.215A4.277,4.277,0,0,1,337,10.6a13.64,13.64,0,0,1-2.281,2.688l-2.5,2.445V15.8h5.875Zm12.219-1.148h-.07a3.047,3.047,0,0,1-2.687,1.3,3.179,3.179,0,0,1-2.613-1.148,5.055,5.055,0,0,1-.934-3.266,5.141,5.141,0,0,1,.938-3.289,3.155,3.155,0,0,1,2.609-1.172,3.114,3.114,0,0,1,2.672,1.266h.1l-.055-.617-.031-.6V4.844h1.3V17h-1.055Zm-2.594.219a2.361,2.361,0,0,0,1.926-.723,3.652,3.652,0,0,0,.6-2.332v-.273a4.3,4.3,0,0,0-.605-2.6,2.3,2.3,0,0,0-1.934-.777,1.985,1.985,0,0,0-1.746.887,4.409,4.409,0,0,0-.605,2.5,4.227,4.227,0,0,0,.6,2.477A2.037,2.037,0,0,0,347.719,16.07Zm10.188,1.086a3.934,3.934,0,0,1-3-1.156,4.476,4.476,0,0,1-1.1-3.211,4.964,4.964,0,0,1,1.02-3.289,3.387,3.387,0,0,1,2.738-1.219,3.229,3.229,0,0,1,2.547,1.059,4.057,4.057,0,0,1,.938,2.793v.82h-5.9a3.394,3.394,0,0,0,.762,2.289,2.635,2.635,0,0,0,2.035.781,6.9,6.9,0,0,0,2.734-.578V16.6a6.864,6.864,0,0,1-1.3.426A7.31,7.31,0,0,1,357.906,17.156Zm-.352-7.789a2.118,2.118,0,0,0-1.645.672,3.1,3.1,0,0,0-.723,1.859h4.477a2.851,2.851,0,0,0-.547-1.879A1.925,1.925,0,0,0,357.555,9.367ZM374.336,17h-7.508V15.883l3.008-3.023a22.149,22.149,0,0,0,1.813-1.984,5.065,5.065,0,0,0,.656-1.156,3.312,3.312,0,0,0,.219-1.211,1.92,1.92,0,0,0-.555-1.449,2.125,2.125,0,0,0-1.539-.535,3.87,3.87,0,0,0-1.348.234,5.372,5.372,0,0,0-1.418.852l-.687-.883a5.265,5.265,0,0,1,3.438-1.312,3.632,3.632,0,0,1,2.523.824,2.835,2.835,0,0,1,.914,2.215,4.277,4.277,0,0,1-.609,2.148,13.64,13.64,0,0,1-2.281,2.688l-2.5,2.445V15.8h5.875Z" transform="translate(609 6544)" fill="#00223d"/>
    <path id="Trazado_86134" data-name="Trazado 86134" d="M299.188,17l-1.422-3.633h-4.578L291.781,17h-1.344l4.516-11.469h1.117L300.563,17Zm-1.836-4.828-1.328-3.539q-.258-.672-.531-1.648A14.807,14.807,0,0,1,295,8.633l-1.344,3.539ZM303.234,17h-1.3V4.844h1.3ZM316.9,17V11.43a2.312,2.312,0,0,0-.437-1.535,1.692,1.692,0,0,0-1.359-.512,2.195,2.195,0,0,0-1.789.7,3.3,3.3,0,0,0-.578,2.141V17h-1.3V11.43A2.312,2.312,0,0,0,311,9.895a1.7,1.7,0,0,0-1.367-.512,2.118,2.118,0,0,0-1.785.73,3.953,3.953,0,0,0-.566,2.395V17h-1.3V8.438h1.055l.211,1.172h.063a2.549,2.549,0,0,1,1.035-.977,3.162,3.162,0,0,1,1.5-.352,2.544,2.544,0,0,1,2.625,1.453h.063a2.73,2.73,0,0,1,1.109-1.062,3.442,3.442,0,0,1,1.656-.391,2.9,2.9,0,0,1,2.176.746,3.338,3.338,0,0,1,.723,2.387V17Zm9.234,0-.258-1.219h-.062a3.6,3.6,0,0,1-1.277,1.09,3.893,3.893,0,0,1-1.59.285,2.86,2.86,0,0,1-2-.656,2.394,2.394,0,0,1-.723-1.867q0-2.594,4.148-2.719l1.453-.047v-.531a2.171,2.171,0,0,0-.434-1.488,1.783,1.783,0,0,0-1.387-.48,5.65,5.65,0,0,0-2.422.656l-.4-.992a6.094,6.094,0,0,1,1.387-.539,6.006,6.006,0,0,1,1.512-.2,3.262,3.262,0,0,1,2.27.68,2.837,2.837,0,0,1,.738,2.18V17Zm-2.93-.914a2.632,2.632,0,0,0,1.9-.664,2.457,2.457,0,0,0,.691-1.859v-.773l-1.3.055a4.717,4.717,0,0,0-2.23.48,1.449,1.449,0,0,0-.684,1.324,1.336,1.336,0,0,0,.426,1.07A1.767,1.767,0,0,0,323.2,16.086Zm9.984,1.07a3.654,3.654,0,0,1-2.879-1.145,4.707,4.707,0,0,1-1.02-3.238,4.853,4.853,0,0,1,1.035-3.32,3.727,3.727,0,0,1,2.949-1.172,5.852,5.852,0,0,1,1.234.133,4.066,4.066,0,0,1,.969.313l-.4,1.1a6.1,6.1,0,0,0-.937-.285,4.186,4.186,0,0,0-.9-.113q-2.609,0-2.609,3.328a3.963,3.963,0,0,0,.637,2.422,2.215,2.215,0,0,0,1.887.844,5.769,5.769,0,0,0,2.2-.461v1.148A4.679,4.679,0,0,1,333.188,17.156Zm7.813,0A3.934,3.934,0,0,1,338,16a4.476,4.476,0,0,1-1.1-3.211,4.964,4.964,0,0,1,1.02-3.289,3.387,3.387,0,0,1,2.738-1.219,3.229,3.229,0,0,1,2.547,1.059,4.057,4.057,0,0,1,.938,2.793v.82h-5.9a3.394,3.394,0,0,0,.762,2.289,2.635,2.635,0,0,0,2.035.781,6.9,6.9,0,0,0,2.734-.578V16.6a6.864,6.864,0,0,1-1.3.426A7.31,7.31,0,0,1,341,17.156Zm-.352-7.789a2.118,2.118,0,0,0-1.645.672,3.1,3.1,0,0,0-.723,1.859h4.477a2.851,2.851,0,0,0-.547-1.879A1.925,1.925,0,0,0,340.648,9.367Zm-.961-2.258q.375-.484.809-1.172a13.409,13.409,0,0,0,.684-1.2h1.578v.164a11.548,11.548,0,0,1-1.023,1.25,11.618,11.618,0,0,1-1.18,1.148h-.867ZM352.219,17V11.461a2.235,2.235,0,0,0-.477-1.562,1.941,1.941,0,0,0-1.492-.516,2.461,2.461,0,0,0-1.969.727,3.668,3.668,0,0,0-.625,2.4V17h-1.3V8.438h1.055l.211,1.172h.063a2.648,2.648,0,0,1,1.117-.98,3.63,3.63,0,0,1,1.6-.348,3.252,3.252,0,0,1,2.328.746,3.175,3.175,0,0,1,.781,2.387V17Zm11.734.156a3.934,3.934,0,0,1-3-1.156,4.476,4.476,0,0,1-1.1-3.211,4.964,4.964,0,0,1,1.02-3.289,3.387,3.387,0,0,1,2.738-1.219,3.229,3.229,0,0,1,2.547,1.059,4.057,4.057,0,0,1,.938,2.793v.82h-5.9a3.394,3.394,0,0,0,.762,2.289,2.635,2.635,0,0,0,2.035.781,6.9,6.9,0,0,0,2.734-.578V16.6a6.864,6.864,0,0,1-1.3.426A7.31,7.31,0,0,1,363.953,17.156ZM363.6,9.367a2.118,2.118,0,0,0-1.645.672,3.1,3.1,0,0,0-.723,1.859h4.477a2.851,2.851,0,0,0-.547-1.879A1.925,1.925,0,0,0,363.6,9.367Zm11.234,5.3a2.145,2.145,0,0,1-.891,1.844,4.186,4.186,0,0,1-2.5.648,5.436,5.436,0,0,1-2.656-.539v-1.2a6.424,6.424,0,0,0,1.324.492,5.53,5.53,0,0,0,1.363.18,3.092,3.092,0,0,0,1.563-.324,1.116,1.116,0,0,0,.113-1.844,6.821,6.821,0,0,0-1.691-.84,9.172,9.172,0,0,1-1.7-.777,2.321,2.321,0,0,1-.75-.754,1.966,1.966,0,0,1-.246-1.008,1.921,1.921,0,0,1,.852-1.652,3.968,3.968,0,0,1,2.336-.605,6.835,6.835,0,0,1,2.7.563L374.2,9.9a6.2,6.2,0,0,0-2.336-.531,2.687,2.687,0,0,0-1.391.289.894.894,0,0,0-.469.8.971.971,0,0,0,.176.586,1.735,1.735,0,0,0,.566.461,12.656,12.656,0,0,0,1.5.633A5.6,5.6,0,0,1,374.3,13.25,1.97,1.97,0,0,1,374.836,14.664Zm4.875,1.422a4.236,4.236,0,0,0,.664-.051,4.3,4.3,0,0,0,.508-.105v.992a2.371,2.371,0,0,1-.621.168,4.664,4.664,0,0,1-.738.066q-2.484,0-2.484-2.617V9.445h-1.227V8.82l1.227-.539.547-1.828h.75V8.438h2.484V9.445h-2.484v5.039a1.734,1.734,0,0,0,.367,1.188A1.278,1.278,0,0,0,379.711,16.086Zm8.148.914-.258-1.219h-.062a3.6,3.6,0,0,1-1.277,1.09,3.893,3.893,0,0,1-1.59.285,2.86,2.86,0,0,1-2-.656,2.394,2.394,0,0,1-.723-1.867q0-2.594,4.148-2.719l1.453-.047v-.531a2.171,2.171,0,0,0-.434-1.488,1.783,1.783,0,0,0-1.387-.48,5.65,5.65,0,0,0-2.422.656l-.4-.992a6.094,6.094,0,0,1,1.387-.539,6.006,6.006,0,0,1,1.512-.2,3.262,3.262,0,0,1,2.27.68,2.837,2.837,0,0,1,.738,2.18V17Zm-2.93-.914a2.632,2.632,0,0,0,1.9-.664,2.457,2.457,0,0,0,.691-1.859v-.773l-1.3.055a4.717,4.717,0,0,0-2.23.48,1.449,1.449,0,0,0-.684,1.324,1.336,1.336,0,0,0,.426,1.07A1.767,1.767,0,0,0,384.93,16.086ZM397.352,17V11.461a2.235,2.235,0,0,0-.477-1.562,1.941,1.941,0,0,0-1.492-.516,2.461,2.461,0,0,0-1.969.727,3.668,3.668,0,0,0-.625,2.4V17h-1.3V8.438h1.055l.211,1.172h.063a2.648,2.648,0,0,1,1.117-.98,3.63,3.63,0,0,1,1.6-.348,3.252,3.252,0,0,1,2.328.746,3.175,3.175,0,0,1,.781,2.387V17Zm6.727-.914a4.236,4.236,0,0,0,.664-.051,4.3,4.3,0,0,0,.508-.105v.992a2.371,2.371,0,0,1-.621.168,4.664,4.664,0,0,1-.738.066q-2.484,0-2.484-2.617V9.445H400.18V8.82l1.227-.539.547-1.828h.75V8.438h2.484V9.445H402.7v5.039a1.734,1.734,0,0,0,.367,1.188A1.278,1.278,0,0,0,404.078,16.086Zm6.5,1.07a3.934,3.934,0,0,1-3-1.156,4.476,4.476,0,0,1-1.1-3.211A4.964,4.964,0,0,1,407.5,9.5a3.387,3.387,0,0,1,2.738-1.219,3.229,3.229,0,0,1,2.547,1.059,4.057,4.057,0,0,1,.938,2.793v.82h-5.9a3.394,3.394,0,0,0,.762,2.289,2.635,2.635,0,0,0,2.035.781,6.9,6.9,0,0,0,2.734-.578V16.6a6.864,6.864,0,0,1-1.3.426A7.31,7.31,0,0,1,410.578,17.156Zm-.352-7.789a2.118,2.118,0,0,0-1.645.672,3.1,3.1,0,0,0-.723,1.859h4.477a2.851,2.851,0,0,0-.547-1.879A1.925,1.925,0,0,0,410.227,9.367Z" transform="translate(609 6594)" fill="#00223d"/>
    <path id="Trazado_86135" data-name="Trazado 86135" d="M339.738,5.578h3.227a6.088,6.088,0,0,1,3.289.68,2.4,2.4,0,0,1,1.016,2.148,2.482,2.482,0,0,1-.566,1.676,2.727,2.727,0,0,1-1.652.855v.078q2.6.445,2.6,2.734a2.937,2.937,0,0,1-1.035,2.391,4.406,4.406,0,0,1-2.895.859h-3.984Zm1.328,4.891h2.188a3.561,3.561,0,0,0,2.023-.441,1.7,1.7,0,0,0,.617-1.488,1.506,1.506,0,0,0-.687-1.387,4.3,4.3,0,0,0-2.187-.426h-1.953Zm0,1.125v4.273h2.383a3.394,3.394,0,0,0,2.082-.535,1.976,1.976,0,0,0,.7-1.676,1.775,1.775,0,0,0-.715-1.562,3.821,3.821,0,0,0-2.176-.5Zm15.82-.32a8.341,8.341,0,0,1-.934,4.422,3.448,3.448,0,0,1-5.66-.035,8.175,8.175,0,0,1-.961-4.387,8.339,8.339,0,0,1,.93-4.43,3.451,3.451,0,0,1,5.66.063A8.141,8.141,0,0,1,356.887,11.273Zm-6.242,0a8.365,8.365,0,0,0,.586,3.629,2.1,2.1,0,0,0,3.746-.016,8.43,8.43,0,0,0,.582-3.613,8.374,8.374,0,0,0-.582-3.605,2.112,2.112,0,0,0-3.746-.016A8.309,8.309,0,0,0,350.645,11.273ZM363.27,17H362V8.859q0-1.016.063-1.922-.164.164-.367.344T359.84,8.8l-.687-.891,3.023-2.336h1.094Z" transform="translate(609 6644)" fill="#00223d"/>
    <path id="Trazado_86136" data-name="Trazado 86136" d="M289.383,17,285.508,6.875h-.062q.109,1.2.109,2.859V17h-1.227V5.578h2L289.945,15h.063l3.648-9.422h1.984V17h-1.328V9.641q0-1.266.109-2.75h-.062L290.453,17Zm14.461,0-.258-1.219h-.062a3.6,3.6,0,0,1-1.277,1.09,3.893,3.893,0,0,1-1.59.285,2.86,2.86,0,0,1-2-.656,2.394,2.394,0,0,1-.723-1.867q0-2.594,4.148-2.719l1.453-.047v-.531a2.171,2.171,0,0,0-.434-1.488,1.783,1.783,0,0,0-1.387-.48,5.65,5.65,0,0,0-2.422.656l-.4-.992a6.094,6.094,0,0,1,1.387-.539,6.006,6.006,0,0,1,1.512-.2,3.262,3.262,0,0,1,2.27.68,2.837,2.837,0,0,1,.738,2.18V17Zm-2.93-.914a2.632,2.632,0,0,0,1.9-.664,2.457,2.457,0,0,0,.691-1.859v-.773l-1.3.055a4.717,4.717,0,0,0-2.23.48,1.449,1.449,0,0,0-.684,1.324,1.336,1.336,0,0,0,.426,1.07A1.767,1.767,0,0,0,300.914,16.086Zm9.328,0a4.236,4.236,0,0,0,.664-.051,4.3,4.3,0,0,0,.508-.105v.992a2.371,2.371,0,0,1-.621.168,4.664,4.664,0,0,1-.738.066q-2.484,0-2.484-2.617V9.445h-1.227V8.82l1.227-.539.547-1.828h.75V8.438h2.484V9.445h-2.484v5.039a1.734,1.734,0,0,0,.367,1.188A1.278,1.278,0,0,0,310.242,16.086Zm6.5,1.07a3.934,3.934,0,0,1-3-1.156,4.476,4.476,0,0,1-1.1-3.211,4.964,4.964,0,0,1,1.02-3.289,3.387,3.387,0,0,1,2.738-1.219,3.229,3.229,0,0,1,2.547,1.059,4.057,4.057,0,0,1,.938,2.793v.82h-5.9a3.394,3.394,0,0,0,.762,2.289,2.635,2.635,0,0,0,2.035.781,6.9,6.9,0,0,0,2.734-.578V16.6a6.864,6.864,0,0,1-1.3.426A7.31,7.31,0,0,1,316.742,17.156Zm-.352-7.789a2.118,2.118,0,0,0-1.645.672,3.1,3.1,0,0,0-.723,1.859H318.5a2.851,2.851,0,0,0-.547-1.879A1.925,1.925,0,0,0,316.391,9.367Zm9.617-1.086a5.075,5.075,0,0,1,1.023.094l-.18,1.2a4.417,4.417,0,0,0-.937-.117,2.282,2.282,0,0,0-1.777.844,3.077,3.077,0,0,0-.738,2.1V17h-1.3V8.438h1.07l.148,1.586h.063a3.764,3.764,0,0,1,1.148-1.289A2.585,2.585,0,0,1,326.008,8.281ZM329.93,17h-1.3V8.438h1.3ZM328.523,6.117a.861.861,0,0,1,.219-.652.81.81,0,0,1,1.086,0,.846.846,0,0,1,.227.648.859.859,0,0,1-.227.652.794.794,0,0,1-1.086,0A.877.877,0,0,1,328.523,6.117ZM337.945,17l-.258-1.219h-.062a3.6,3.6,0,0,1-1.277,1.09,3.893,3.893,0,0,1-1.59.285,2.86,2.86,0,0,1-2-.656,2.394,2.394,0,0,1-.723-1.867q0-2.594,4.148-2.719l1.453-.047v-.531a2.171,2.171,0,0,0-.434-1.488,1.783,1.783,0,0,0-1.387-.48,5.65,5.65,0,0,0-2.422.656l-.4-.992a6.094,6.094,0,0,1,1.387-.539,6.006,6.006,0,0,1,1.512-.2,3.262,3.262,0,0,1,2.27.68,2.837,2.837,0,0,1,.738,2.18V17Zm-2.93-.914a2.632,2.632,0,0,0,1.9-.664,2.457,2.457,0,0,0,.691-1.859v-.773l-1.3.055a4.717,4.717,0,0,0-2.23.48,1.449,1.449,0,0,0-.684,1.324,1.336,1.336,0,0,0,.426,1.07A1.767,1.767,0,0,0,335.016,16.086Zm7.859.914h-1.3V4.844h1.3Zm10.813-8.719a5.075,5.075,0,0,1,1.023.094l-.18,1.2a4.417,4.417,0,0,0-.937-.117,2.282,2.282,0,0,0-1.777.844,3.077,3.077,0,0,0-.738,2.1V17h-1.3V8.438h1.07L351,10.023h.063a3.764,3.764,0,0,1,1.148-1.289A2.585,2.585,0,0,1,353.688,8.281Zm5.922,8.875a3.934,3.934,0,0,1-3-1.156,4.476,4.476,0,0,1-1.1-3.211,4.964,4.964,0,0,1,1.02-3.289,3.387,3.387,0,0,1,2.738-1.219A3.229,3.229,0,0,1,361.82,9.34a4.057,4.057,0,0,1,.938,2.793v.82h-5.9a3.394,3.394,0,0,0,.762,2.289,2.635,2.635,0,0,0,2.035.781,6.9,6.9,0,0,0,2.734-.578V16.6a6.864,6.864,0,0,1-1.3.426A7.31,7.31,0,0,1,359.609,17.156Zm-.352-7.789a2.118,2.118,0,0,0-1.645.672,3.1,3.1,0,0,0-.723,1.859h4.477a2.851,2.851,0,0,0-.547-1.879A1.925,1.925,0,0,0,359.258,9.367Zm8.945,6.7a2.356,2.356,0,0,0,1.891-.7,3.766,3.766,0,0,0,.633-2.344v-.289a4.282,4.282,0,0,0-.609-2.586,2.285,2.285,0,0,0-1.93-.789,1.985,1.985,0,0,0-1.746.887,4.409,4.409,0,0,0-.605,2.5,4.258,4.258,0,0,0,.6,2.465A2.025,2.025,0,0,0,368.2,16.07Zm-.2,1.086a3.124,3.124,0,0,1-2.586-1.164,5.082,5.082,0,0,1-.93-3.25,5.147,5.147,0,0,1,.938-3.281,3.444,3.444,0,0,1,5.313.148h.07L371,8.438h1.023V20.844h-1.3V17.18a8.728,8.728,0,0,1,.086-1.328h-.1A3.063,3.063,0,0,1,368.008,17.156Zm7.984-8.719v5.555a2.235,2.235,0,0,0,.477,1.563,1.941,1.941,0,0,0,1.492.516,2.435,2.435,0,0,0,1.965-.734,3.7,3.7,0,0,0,.621-2.4v-4.5h1.3V17h-1.07l-.187-1.148h-.07a2.585,2.585,0,0,1-1.105.969,3.716,3.716,0,0,1-1.613.336,3.273,3.273,0,0,1-2.34-.742,3.159,3.159,0,0,1-.777-2.375v-5.6Zm12.219,8.719a3.934,3.934,0,0,1-3-1.156,4.476,4.476,0,0,1-1.1-3.211,4.964,4.964,0,0,1,1.02-3.289,3.387,3.387,0,0,1,2.738-1.219,3.229,3.229,0,0,1,2.547,1.059,4.057,4.057,0,0,1,.938,2.793v.82h-5.9a3.394,3.394,0,0,0,.762,2.289,2.635,2.635,0,0,0,2.035.781,6.9,6.9,0,0,0,2.734-.578V16.6a6.864,6.864,0,0,1-1.3.426A7.31,7.31,0,0,1,388.211,17.156Zm-.352-7.789a2.118,2.118,0,0,0-1.645.672,3.1,3.1,0,0,0-.723,1.859h4.477a2.851,2.851,0,0,0-.547-1.879A1.925,1.925,0,0,0,387.859,9.367Zm9.617-1.086a5.075,5.075,0,0,1,1.023.094l-.18,1.2a4.417,4.417,0,0,0-.937-.117,2.282,2.282,0,0,0-1.777.844,3.077,3.077,0,0,0-.738,2.1V17h-1.3V8.438h1.07l.148,1.586h.063A3.764,3.764,0,0,1,396,8.734,2.585,2.585,0,0,1,397.477,8.281ZM401.4,17h-1.3V8.438h1.3ZM399.992,6.117a.861.861,0,0,1,.219-.652.81.81,0,0,1,1.086,0,.846.846,0,0,1,.227.648.859.859,0,0,1-.227.652.794.794,0,0,1-1.086,0A.877.877,0,0,1,399.992,6.117Zm9.984,9.734h-.07a3.047,3.047,0,0,1-2.687,1.3,3.179,3.179,0,0,1-2.613-1.148,5.055,5.055,0,0,1-.934-3.266,5.141,5.141,0,0,1,.938-3.289,3.155,3.155,0,0,1,2.609-1.172,3.114,3.114,0,0,1,2.672,1.266h.1l-.055-.617-.031-.6V4.844h1.3V17h-1.055Zm-2.594.219a2.361,2.361,0,0,0,1.926-.723,3.652,3.652,0,0,0,.6-2.332v-.273a4.3,4.3,0,0,0-.605-2.6,2.3,2.3,0,0,0-1.934-.777,1.985,1.985,0,0,0-1.746.887,4.409,4.409,0,0,0-.605,2.5,4.227,4.227,0,0,0,.6,2.477A2.037,2.037,0,0,0,407.383,16.07Zm13.961-3.359a4.724,4.724,0,0,1-1.055,3.27,3.714,3.714,0,0,1-2.914,1.176,3.86,3.86,0,0,1-2.039-.539,3.558,3.558,0,0,1-1.375-1.547,5.391,5.391,0,0,1-.484-2.359,4.716,4.716,0,0,1,1.047-3.262,3.7,3.7,0,0,1,2.906-1.168,3.622,3.622,0,0,1,2.855,1.2A4.7,4.7,0,0,1,421.344,12.711Zm-6.523,0a4.064,4.064,0,0,0,.656,2.5,2.6,2.6,0,0,0,3.863,0,4.044,4.044,0,0,0,.66-2.5,3.978,3.978,0,0,0-.66-2.48,2.32,2.32,0,0,0-1.949-.848,2.283,2.283,0,0,0-1.922.836A4.023,4.023,0,0,0,414.82,12.711Z" transform="translate(609 6694)" fill="#00223d"/>
    <path id="Trazado_86137" data-name="Trazado 86137" d="M247.34,17h-7.508V15.883l3.008-3.023a22.149,22.149,0,0,0,1.813-1.984,5.064,5.064,0,0,0,.656-1.156,3.312,3.312,0,0,0,.219-1.211,1.92,1.92,0,0,0-.555-1.449,2.125,2.125,0,0,0-1.539-.535,3.87,3.87,0,0,0-1.348.234,5.372,5.372,0,0,0-1.418.852l-.687-.883a5.265,5.265,0,0,1,3.438-1.312,3.632,3.632,0,0,1,2.523.824,2.835,2.835,0,0,1,.914,2.215,4.277,4.277,0,0,1-.609,2.148,13.64,13.64,0,0,1-2.281,2.688l-2.5,2.445V15.8h5.875Zm5.211-6.977a4.2,4.2,0,0,1,2.84.895,3.068,3.068,0,0,1,1.035,2.449,3.537,3.537,0,0,1-1.129,2.781,4.509,4.509,0,0,1-3.113,1.008,5.729,5.729,0,0,1-2.945-.617v-1.25a4.476,4.476,0,0,0,1.359.551,6.708,6.708,0,0,0,1.6.2,3.2,3.2,0,0,0,2.137-.648,2.326,2.326,0,0,0,.762-1.875q0-2.391-2.93-2.391a11.664,11.664,0,0,0-1.984.227l-.672-.43.43-5.344h5.68v1.2h-4.57l-.289,3.43A9.1,9.1,0,0,1,252.551,10.023Zm9.594,7.133a3.654,3.654,0,0,1-2.879-1.145,4.707,4.707,0,0,1-1.02-3.238,4.853,4.853,0,0,1,1.035-3.32,3.727,3.727,0,0,1,2.949-1.172,5.852,5.852,0,0,1,1.234.133,4.066,4.066,0,0,1,.969.313l-.4,1.1a6.1,6.1,0,0,0-.937-.285,4.186,4.186,0,0,0-.9-.113q-2.609,0-2.609,3.328a3.963,3.963,0,0,0,.637,2.422,2.215,2.215,0,0,0,1.887.844,5.769,5.769,0,0,0,2.2-.461v1.148A4.679,4.679,0,0,1,262.145,17.156ZM277.254,17V11.43a2.312,2.312,0,0,0-.437-1.535,1.692,1.692,0,0,0-1.359-.512,2.195,2.195,0,0,0-1.789.7,3.3,3.3,0,0,0-.578,2.141V17h-1.3V11.43a2.312,2.312,0,0,0-.437-1.535,1.7,1.7,0,0,0-1.367-.512,2.118,2.118,0,0,0-1.785.73,3.953,3.953,0,0,0-.566,2.395V17h-1.3V8.438h1.055l.211,1.172h.063a2.549,2.549,0,0,1,1.035-.977,3.162,3.162,0,0,1,1.5-.352,2.544,2.544,0,0,1,2.625,1.453h.063A2.73,2.73,0,0,1,274,8.672a3.442,3.442,0,0,1,1.656-.391,2.9,2.9,0,0,1,2.176.746,3.338,3.338,0,0,1,.723,2.387V17Zm13.953-1.148h-.07a3.047,3.047,0,0,1-2.687,1.3,3.179,3.179,0,0,1-2.613-1.148,5.055,5.055,0,0,1-.934-3.266,5.141,5.141,0,0,1,.938-3.289,3.155,3.155,0,0,1,2.609-1.172,3.114,3.114,0,0,1,2.672,1.266h.1l-.055-.617-.031-.6V4.844h1.3V17h-1.055Zm-2.594.219a2.361,2.361,0,0,0,1.926-.723,3.652,3.652,0,0,0,.6-2.332v-.273a4.3,4.3,0,0,0-.605-2.6,2.3,2.3,0,0,0-1.934-.777,1.985,1.985,0,0,0-1.746.887,4.409,4.409,0,0,0-.605,2.5,4.227,4.227,0,0,0,.6,2.477A2.037,2.037,0,0,0,288.613,16.07ZM298.8,17.156a3.934,3.934,0,0,1-3-1.156,4.476,4.476,0,0,1-1.1-3.211,4.964,4.964,0,0,1,1.02-3.289,3.387,3.387,0,0,1,2.738-1.219,3.229,3.229,0,0,1,2.547,1.059,4.057,4.057,0,0,1,.938,2.793v.82h-5.9a3.394,3.394,0,0,0,.762,2.289,2.635,2.635,0,0,0,2.035.781,6.9,6.9,0,0,0,2.734-.578V16.6a6.864,6.864,0,0,1-1.3.426A7.31,7.31,0,0,1,298.8,17.156Zm-.352-7.789a2.118,2.118,0,0,0-1.645.672,3.1,3.1,0,0,0-.723,1.859h4.477a2.851,2.851,0,0,0-.547-1.879A1.925,1.925,0,0,0,298.449,9.367ZM309.613,17h-1.3V4.844h1.3Zm8.016,0-.258-1.219h-.062a3.6,3.6,0,0,1-1.277,1.09,3.893,3.893,0,0,1-1.59.285,2.86,2.86,0,0,1-2-.656,2.394,2.394,0,0,1-.723-1.867q0-2.594,4.148-2.719l1.453-.047v-.531a2.171,2.171,0,0,0-.434-1.488,1.783,1.783,0,0,0-1.387-.48,5.65,5.65,0,0,0-2.422.656l-.4-.992a6.094,6.094,0,0,1,1.387-.539,6.006,6.006,0,0,1,1.512-.2,3.262,3.262,0,0,1,2.27.68,2.837,2.837,0,0,1,.738,2.18V17Zm-2.93-.914a2.632,2.632,0,0,0,1.9-.664,2.457,2.457,0,0,0,.691-1.859v-.773l-1.3.055a4.717,4.717,0,0,0-2.23.48,1.449,1.449,0,0,0-.684,1.324,1.336,1.336,0,0,0,.426,1.07A1.767,1.767,0,0,0,314.7,16.086Zm10.469-7.8a5.075,5.075,0,0,1,1.023.094l-.18,1.2a4.417,4.417,0,0,0-.937-.117,2.282,2.282,0,0,0-1.777.844,3.077,3.077,0,0,0-.738,2.1V17h-1.3V8.438h1.07l.148,1.586h.063a3.764,3.764,0,0,1,1.148-1.289A2.585,2.585,0,0,1,325.168,8.281Zm9.477.156v.82l-1.586.188a2.785,2.785,0,0,1,.563,1.711,2.531,2.531,0,0,1-.859,2.008,3.467,3.467,0,0,1-2.359.75,3.929,3.929,0,0,1-.719-.062,1.276,1.276,0,0,0-.828,1.1.56.56,0,0,0,.289.52,2.112,2.112,0,0,0,.992.168h1.516a3.394,3.394,0,0,1,2.137.586,2.036,2.036,0,0,1,.746,1.7,2.431,2.431,0,0,1-1.141,2.168,6.1,6.1,0,0,1-3.328.746,4.547,4.547,0,0,1-2.59-.625,2.018,2.018,0,0,1-.91-1.766,1.983,1.983,0,0,1,.5-1.352,2.546,2.546,0,0,1,1.406-.773,1.357,1.357,0,0,1-.551-.461,1.22,1.22,0,0,1-.223-.727,1.379,1.379,0,0,1,.25-.82,2.628,2.628,0,0,1,.789-.68,2.313,2.313,0,0,1-1.082-.93,2.732,2.732,0,0,1-.418-1.5,2.771,2.771,0,0,1,.844-2.168,3.445,3.445,0,0,1,2.391-.762,4.347,4.347,0,0,1,1.211.156Zm-6.828,10a1.162,1.162,0,0,0,.586,1.055,3.234,3.234,0,0,0,1.68.359,4.687,4.687,0,0,0,2.418-.488,1.5,1.5,0,0,0,.785-1.324,1.048,1.048,0,0,0-.43-.965,3.337,3.337,0,0,0-1.617-.27h-1.555a2.048,2.048,0,0,0-1.375.422A1.507,1.507,0,0,0,327.816,18.438Zm.7-7.258a1.743,1.743,0,0,0,.508,1.359,2.028,2.028,0,0,0,1.414.461,1.654,1.654,0,0,0,1.9-1.844,1.7,1.7,0,0,0-1.922-1.93,1.9,1.9,0,0,0-1.406.492A1.982,1.982,0,0,0,328.52,11.18Zm15.273,1.531a4.724,4.724,0,0,1-1.055,3.27,3.714,3.714,0,0,1-2.914,1.176,3.86,3.86,0,0,1-2.039-.539,3.558,3.558,0,0,1-1.375-1.547,5.391,5.391,0,0,1-.484-2.359,4.716,4.716,0,0,1,1.047-3.262,3.7,3.7,0,0,1,2.906-1.168,3.622,3.622,0,0,1,2.855,1.2A4.7,4.7,0,0,1,343.793,12.711Zm-6.523,0a4.064,4.064,0,0,0,.656,2.5,2.6,2.6,0,0,0,3.863,0,4.044,4.044,0,0,0,.66-2.5,3.978,3.978,0,0,0-.66-2.48,2.32,2.32,0,0,0-1.949-.848,2.283,2.283,0,0,0-1.922.836A4.023,4.023,0,0,0,337.27,12.711Zm15.016-.094-2.977-4.18h1.477l2.258,3.281,2.25-3.281h1.461l-2.977,4.18L356.91,17h-1.469l-2.4-3.469L350.621,17h-1.469Zm16.961-4.352a2.6,2.6,0,0,1-.613,1.789,3.07,3.07,0,0,1-1.738.93v.063a3.269,3.269,0,0,1,2.039.875,2.575,2.575,0,0,1,.664,1.844,2.991,2.991,0,0,1-1.133,2.512,5.152,5.152,0,0,1-3.219.879,9.328,9.328,0,0,1-1.66-.137,5.682,5.682,0,0,1-1.465-.48V15.3a7.481,7.481,0,0,0,3.172.75q2.961,0,2.961-2.32,0-2.078-3.266-2.078h-1.125V10.539H365a3.434,3.434,0,0,0,2.117-.59,1.935,1.935,0,0,0,.781-1.637A1.613,1.613,0,0,0,367.328,7a2.366,2.366,0,0,0-1.559-.477,4.809,4.809,0,0,0-1.414.2,6.328,6.328,0,0,0-1.516.75l-.656-.875A5.471,5.471,0,0,1,363.8,5.73a5.892,5.892,0,0,1,1.934-.316,3.951,3.951,0,0,1,2.586.762A2.565,2.565,0,0,1,369.246,8.266Zm6.086,8.891a3.654,3.654,0,0,1-2.879-1.145,4.707,4.707,0,0,1-1.02-3.238,4.853,4.853,0,0,1,1.035-3.32,3.727,3.727,0,0,1,2.949-1.172,5.852,5.852,0,0,1,1.234.133,4.066,4.066,0,0,1,.969.313l-.4,1.1a6.1,6.1,0,0,0-.937-.285,4.186,4.186,0,0,0-.9-.113q-2.609,0-2.609,3.328a3.963,3.963,0,0,0,.637,2.422,2.215,2.215,0,0,0,1.887.844,5.769,5.769,0,0,0,2.2-.461v1.148A4.679,4.679,0,0,1,375.332,17.156ZM390.441,17V11.43A2.312,2.312,0,0,0,390,9.895a1.692,1.692,0,0,0-1.359-.512,2.195,2.195,0,0,0-1.789.7,3.3,3.3,0,0,0-.578,2.141V17h-1.3V11.43a2.312,2.312,0,0,0-.437-1.535,1.7,1.7,0,0,0-1.367-.512,2.118,2.118,0,0,0-1.785.73,3.953,3.953,0,0,0-.566,2.395V17h-1.3V8.438h1.055l.211,1.172h.063a2.549,2.549,0,0,1,1.035-.977,3.162,3.162,0,0,1,1.5-.352,2.544,2.544,0,0,1,2.625,1.453h.063a2.73,2.73,0,0,1,1.109-1.062,3.442,3.442,0,0,1,1.656-.391,2.9,2.9,0,0,1,2.176.746,3.338,3.338,0,0,1,.723,2.387V17Zm13.953-1.148h-.07a3.047,3.047,0,0,1-2.687,1.3,3.179,3.179,0,0,1-2.613-1.148,5.055,5.055,0,0,1-.934-3.266,5.141,5.141,0,0,1,.938-3.289,3.155,3.155,0,0,1,2.609-1.172,3.114,3.114,0,0,1,2.672,1.266h.1l-.055-.617-.031-.6V4.844h1.3V17h-1.055Zm-2.594.219a2.361,2.361,0,0,0,1.926-.723,3.652,3.652,0,0,0,.6-2.332v-.273a4.3,4.3,0,0,0-.605-2.6,2.3,2.3,0,0,0-1.934-.777,1.985,1.985,0,0,0-1.746.887,4.409,4.409,0,0,0-.605,2.5,4.227,4.227,0,0,0,.6,2.477A2.037,2.037,0,0,0,401.8,16.07Zm10.188,1.086a3.934,3.934,0,0,1-3-1.156,4.476,4.476,0,0,1-1.1-3.211,4.964,4.964,0,0,1,1.02-3.289,3.387,3.387,0,0,1,2.738-1.219A3.229,3.229,0,0,1,414.2,9.34a4.057,4.057,0,0,1,.938,2.793v.82h-5.9A3.394,3.394,0,0,0,410,15.242a2.635,2.635,0,0,0,2.035.781,6.9,6.9,0,0,0,2.734-.578V16.6a6.864,6.864,0,0,1-1.3.426A7.31,7.31,0,0,1,411.988,17.156Zm-.352-7.789a2.118,2.118,0,0,0-1.645.672,3.1,3.1,0,0,0-.723,1.859h4.477a2.851,2.851,0,0,0-.547-1.879A1.925,1.925,0,0,0,411.637,9.367ZM426.77,17l-.258-1.219h-.062a3.6,3.6,0,0,1-1.277,1.09,3.893,3.893,0,0,1-1.59.285,2.86,2.86,0,0,1-2-.656,2.394,2.394,0,0,1-.723-1.867q0-2.594,4.148-2.719l1.453-.047v-.531a2.171,2.171,0,0,0-.434-1.488,1.783,1.783,0,0,0-1.387-.48,5.65,5.65,0,0,0-2.422.656l-.4-.992a6.094,6.094,0,0,1,1.387-.539,6.006,6.006,0,0,1,1.512-.2,3.262,3.262,0,0,1,2.27.68,2.837,2.837,0,0,1,.738,2.18V17Zm-2.93-.914a2.632,2.632,0,0,0,1.9-.664,2.457,2.457,0,0,0,.691-1.859v-.773l-1.3.055a4.717,4.717,0,0,0-2.23.48,1.449,1.449,0,0,0-.684,1.324,1.336,1.336,0,0,0,.426,1.07A1.767,1.767,0,0,0,423.84,16.086ZM436.262,17V11.461a2.235,2.235,0,0,0-.477-1.562,1.941,1.941,0,0,0-1.492-.516,2.461,2.461,0,0,0-1.969.727,3.668,3.668,0,0,0-.625,2.4V17h-1.3V8.438h1.055l.211,1.172h.063a2.648,2.648,0,0,1,1.117-.98,3.63,3.63,0,0,1,1.6-.348,3.252,3.252,0,0,1,2.328.746,3.175,3.175,0,0,1,.781,2.387V17Zm7.383.156a3.654,3.654,0,0,1-2.879-1.145,4.707,4.707,0,0,1-1.02-3.238,4.853,4.853,0,0,1,1.035-3.32,3.727,3.727,0,0,1,2.949-1.172,5.852,5.852,0,0,1,1.234.133,4.066,4.066,0,0,1,.969.313l-.4,1.1a6.1,6.1,0,0,0-.937-.285,4.186,4.186,0,0,0-.9-.113q-2.609,0-2.609,3.328a3.963,3.963,0,0,0,.637,2.422,2.215,2.215,0,0,0,1.887.844,5.769,5.769,0,0,0,2.2-.461v1.148A4.679,4.679,0,0,1,443.645,17.156ZM453.7,17V11.461a2.235,2.235,0,0,0-.477-1.562,1.941,1.941,0,0,0-1.492-.516,2.445,2.445,0,0,0-1.973.734,3.72,3.72,0,0,0-.621,2.406V17h-1.3V4.844h1.3v3.68a8.019,8.019,0,0,1-.062,1.1h.078a2.645,2.645,0,0,1,1.09-.973,3.543,3.543,0,0,1,1.613-.355,3.3,3.3,0,0,1,2.355.746A3.142,3.142,0,0,1,455,11.414V17Zm11.352-4.289A4.724,4.724,0,0,1,464,15.98a3.714,3.714,0,0,1-2.914,1.176,3.86,3.86,0,0,1-2.039-.539,3.558,3.558,0,0,1-1.375-1.547,5.391,5.391,0,0,1-.484-2.359,4.716,4.716,0,0,1,1.047-3.262,3.7,3.7,0,0,1,2.906-1.168,3.622,3.622,0,0,1,2.855,1.2A4.7,4.7,0,0,1,465.051,12.711Zm-6.523,0a4.064,4.064,0,0,0,.656,2.5,2.6,2.6,0,0,0,3.863,0,4.044,4.044,0,0,0,.66-2.5,3.978,3.978,0,0,0-.66-2.48,2.32,2.32,0,0,0-1.949-.848,2.283,2.283,0,0,0-1.922.836A4.023,4.023,0,0,0,458.527,12.711Z" transform="translate(609 6744)" fill="#00223d"/>
    <path id="Trazado_86138" data-name="Trazado 86138" d="M329.57,17h-2.75l-2.992-4.812-1.023.734V17h-2.422V5.578H322.8V10.8l.953-1.344,3.094-3.883h2.688l-3.984,5.055Zm6.8,0-.461-1.187h-.062a3.519,3.519,0,0,1-1.238,1.051,4,4,0,0,1-1.66.293,2.685,2.685,0,0,1-1.98-.719,2.76,2.76,0,0,1-.723-2.047,2.3,2.3,0,0,1,.973-2.051,5.636,5.636,0,0,1,2.934-.73l1.516-.047V11.18A1.188,1.188,0,0,0,334.3,9.852a6.2,6.2,0,0,0-2.461.633l-.789-1.609a7.1,7.1,0,0,1,3.344-.789,4.165,4.165,0,0,1,2.7.766,2.83,2.83,0,0,1,.938,2.328V17Zm-.7-4.047-.922.031a2.952,2.952,0,0,0-1.547.375,1.178,1.178,0,0,0-.508,1.047q0,1.008,1.156,1.008a1.831,1.831,0,0,0,1.324-.477,1.674,1.674,0,0,0,.5-1.266ZM348.547,17h-2.383V11.9a2.45,2.45,0,0,0-.336-1.418,1.222,1.222,0,0,0-1.07-.473,1.609,1.609,0,0,0-1.445.668,4.143,4.143,0,0,0-.445,2.215V17h-2.383V8.266h1.82l.32,1.117h.133a2.518,2.518,0,0,1,1.1-.957,3.738,3.738,0,0,1,1.59-.324,3.055,3.055,0,0,1,2.313.824,3.308,3.308,0,0,1,.789,2.379Zm7.313-8.9a2.825,2.825,0,0,1,2.422,1.207,5.538,5.538,0,0,1,.875,3.309,5.441,5.441,0,0,1-.9,3.352,3.151,3.151,0,0,1-4.871.07h-.164l-.4.961H351V4.844h2.383V7.672q0,.539-.094,1.727h.094A2.757,2.757,0,0,1,355.859,8.1Zm-.766,1.906a1.5,1.5,0,0,0-1.289.543,3.117,3.117,0,0,0-.422,1.793V12.6a3.68,3.68,0,0,0,.418,2.016,1.492,1.492,0,0,0,1.324.609,1.329,1.329,0,0,0,1.168-.676,3.658,3.658,0,0,0,.434-1.965,3.465,3.465,0,0,0-.437-1.934A1.372,1.372,0,0,0,355.094,10.008ZM366.672,17l-.461-1.187h-.062a3.519,3.519,0,0,1-1.238,1.051,4,4,0,0,1-1.66.293,2.685,2.685,0,0,1-1.98-.719,2.76,2.76,0,0,1-.723-2.047,2.3,2.3,0,0,1,.973-2.051,5.636,5.636,0,0,1,2.934-.73l1.516-.047V11.18a1.188,1.188,0,0,0-1.359-1.328,6.2,6.2,0,0,0-2.461.633l-.789-1.609a7.1,7.1,0,0,1,3.344-.789,4.165,4.165,0,0,1,2.7.766,2.83,2.83,0,0,1,.938,2.328V17Zm-.7-4.047-.922.031a2.952,2.952,0,0,0-1.547.375,1.178,1.178,0,0,0-.508,1.047q0,1.008,1.156,1.008a1.831,1.831,0,0,0,1.324-.477,1.674,1.674,0,0,0,.5-1.266ZM378.852,17h-2.383V11.9a2.45,2.45,0,0,0-.336-1.418,1.222,1.222,0,0,0-1.07-.473,1.609,1.609,0,0,0-1.445.668,4.143,4.143,0,0,0-.445,2.215V17h-2.383V8.266h1.82l.32,1.117h.133a2.518,2.518,0,0,1,1.1-.957,3.738,3.738,0,0,1,1.59-.324,3.055,3.055,0,0,1,2.313.824,3.308,3.308,0,0,1,.789,2.379Z" transform="translate(609 6248)" fill="#fff"/>
    <path id="Trazado_86139" data-name="Trazado 86139" d="M8.2,16,6.87,12.594H2.578L1.26,16H0L4.233,5.248H5.281L9.492,16ZM6.482,11.474,5.237,8.156Q5,7.526,4.739,6.61a13.877,13.877,0,0,1-.461,1.545l-1.26,3.318ZM12,16H10.781V4.6H12Zm13.015-5.369a7.82,7.82,0,0,1-.875,4.146,2.957,2.957,0,0,1-2.677,1.37,2.932,2.932,0,0,1-2.629-1.4,7.665,7.665,0,0,1-.9-4.113A7.817,7.817,0,0,1,18.8,6.479,2.944,2.944,0,0,1,21.46,5.124a2.948,2.948,0,0,1,2.648,1.414A7.632,7.632,0,0,1,25.012,10.631Zm-5.852,0a7.842,7.842,0,0,0,.549,3.4,1.973,1.973,0,0,0,3.512-.015,7.9,7.9,0,0,0,.546-3.387,7.85,7.85,0,0,0-.546-3.38,1.98,1.98,0,0,0-3.512-.015A7.79,7.79,0,0,0,19.16,10.631ZM33.53,16H26.492V14.953l2.82-2.834a20.765,20.765,0,0,0,1.7-1.86,4.748,4.748,0,0,0,.615-1.084,3.1,3.1,0,0,0,.205-1.135,1.8,1.8,0,0,0-.52-1.359,1.992,1.992,0,0,0-1.443-.5A3.628,3.628,0,0,0,28.6,6.4a5.036,5.036,0,0,0-1.329.8l-.645-.828a4.936,4.936,0,0,1,3.223-1.23,3.4,3.4,0,0,1,2.366.773,2.658,2.658,0,0,1,.857,2.076A4.01,4.01,0,0,1,32.5,10a12.788,12.788,0,0,1-2.139,2.52l-2.344,2.292v.059H33.53ZM41.7,7.812a2.442,2.442,0,0,1-.575,1.677,2.878,2.878,0,0,1-1.63.872v.059a3.065,3.065,0,0,1,1.912.82,2.414,2.414,0,0,1,.623,1.729,2.8,2.8,0,0,1-1.062,2.355,4.83,4.83,0,0,1-3.018.824,8.745,8.745,0,0,1-1.556-.128,5.326,5.326,0,0,1-1.373-.45V14.411a7.013,7.013,0,0,0,2.974.7q2.776,0,2.776-2.175,0-1.948-3.062-1.948H36.658V9.943h1.069a3.22,3.22,0,0,0,1.985-.553,1.815,1.815,0,0,0,.732-1.534,1.513,1.513,0,0,0-.538-1.23,2.218,2.218,0,0,0-1.461-.447,4.509,4.509,0,0,0-1.326.19,5.933,5.933,0,0,0-1.421.7l-.615-.82a5.129,5.129,0,0,1,1.52-.817,5.524,5.524,0,0,1,1.813-.3,3.7,3.7,0,0,1,2.424.714A2.4,2.4,0,0,1,41.7,7.812Zm13.381,5.728H53.5V16H52.332V13.539H47.124V12.477l5.083-7.244H53.5v7.2h1.589Zm-2.754-1.106V8.874q0-1.047.073-2.366h-.059a11.006,11.006,0,0,1-.659,1.165L48.34,12.433Zm7.134-2.974a3.937,3.937,0,0,1,2.662.839,2.876,2.876,0,0,1,.97,2.3A3.316,3.316,0,0,1,62.04,15.2a4.227,4.227,0,0,1-2.919.945,5.371,5.371,0,0,1-2.761-.579V14.4a4.2,4.2,0,0,0,1.274.516,6.289,6.289,0,0,0,1.5.187,3,3,0,0,0,2-.608,2.181,2.181,0,0,0,.714-1.758q0-2.241-2.747-2.241a10.935,10.935,0,0,0-1.86.212l-.63-.4.4-5.01h5.325V6.413H58.059l-.271,3.215A8.534,8.534,0,0,1,59.465,9.459Zm5.354,1.963A7.575,7.575,0,0,1,66.046,6.7a4.332,4.332,0,0,1,3.629-1.564,4.835,4.835,0,0,1,1.3.139V6.325a4.171,4.171,0,0,0-1.289-.183,3.253,3.253,0,0,0-2.629,1.073,5.5,5.5,0,0,0-1,3.373h.088A2.8,2.8,0,0,1,68.7,9.328a2.993,2.993,0,0,1,2.274.872,3.286,3.286,0,0,1,.831,2.366,3.648,3.648,0,0,1-.912,2.626,3.246,3.246,0,0,1-2.465.956A3.167,3.167,0,0,1,65.793,14.9,5.524,5.524,0,0,1,64.819,11.422Zm3.6,3.691a2.035,2.035,0,0,0,1.615-.656,2.787,2.787,0,0,0,.575-1.893,2.441,2.441,0,0,0-.535-1.67,2.014,2.014,0,0,0-1.6-.608,2.694,2.694,0,0,0-1.208.271,2.237,2.237,0,0,0-.875.747,1.727,1.727,0,0,0-.326.989,3.39,3.39,0,0,0,.293,1.406,2.478,2.478,0,0,0,.831,1.033A2.072,2.072,0,0,0,68.416,15.114Z" transform="translate(969 6297)" fill="#00223d"/>
    <path id="Trazado_86140" data-name="Trazado 86140" d="M6.057,6.251A3.5,3.5,0,0,0,3.27,7.427a4.742,4.742,0,0,0-1.022,3.219,4.836,4.836,0,0,0,.985,3.248,3.5,3.5,0,0,0,2.809,1.146,9.59,9.59,0,0,0,2.556-.4v1.091a7.872,7.872,0,0,1-2.747.417A4.646,4.646,0,0,1,2.2,14.711a5.912,5.912,0,0,1-1.285-4.08,6.439,6.439,0,0,1,.619-2.9A4.443,4.443,0,0,1,3.322,5.812a5.409,5.409,0,0,1,2.75-.674,6.636,6.636,0,0,1,2.944.615L8.489,6.823A5.675,5.675,0,0,0,6.057,6.251ZM15.688,16l-.242-1.143h-.059a3.378,3.378,0,0,1-1.2,1.022,3.65,3.65,0,0,1-1.49.267,2.681,2.681,0,0,1-1.871-.615,2.244,2.244,0,0,1-.677-1.75q0-2.432,3.889-2.549l1.362-.044v-.5A2.035,2.035,0,0,0,15,9.295a1.672,1.672,0,0,0-1.3-.45,5.3,5.3,0,0,0-2.271.615l-.374-.93a5.713,5.713,0,0,1,1.3-.505,5.631,5.631,0,0,1,1.417-.183,3.058,3.058,0,0,1,2.128.637,2.66,2.66,0,0,1,.692,2.043V16Zm-2.747-.857a2.468,2.468,0,0,0,1.783-.623,2.3,2.3,0,0,0,.648-1.743v-.725l-1.216.051a4.422,4.422,0,0,0-2.091.45,1.358,1.358,0,0,0-.641,1.241,1.253,1.253,0,0,0,.4,1A1.657,1.657,0,0,0,12.942,15.143ZM29.326,16V10.778a2.168,2.168,0,0,0-.41-1.439,1.586,1.586,0,0,0-1.274-.48,2.058,2.058,0,0,0-1.677.652,3.1,3.1,0,0,0-.542,2.007V16H24.207V10.778a2.168,2.168,0,0,0-.41-1.439,1.6,1.6,0,0,0-1.282-.48,1.985,1.985,0,0,0-1.674.685,3.706,3.706,0,0,0-.531,2.245V16H19.094V7.973h.989l.2,1.1h.059a2.39,2.39,0,0,1,.97-.916,2.965,2.965,0,0,1,1.4-.33,2.385,2.385,0,0,1,2.461,1.362h.059a2.56,2.56,0,0,1,1.04-1,3.227,3.227,0,0,1,1.553-.366,2.718,2.718,0,0,1,2.04.7,3.129,3.129,0,0,1,.677,2.238V16Zm4.937,0H33.047V7.973h1.216ZM32.944,5.8a.808.808,0,0,1,.205-.612.759.759,0,0,1,1.018,0,.793.793,0,0,1,.212.608.805.805,0,0,1-.212.612.744.744,0,0,1-1.018,0A.823.823,0,0,1,32.944,5.8Zm9.075,8.013a2.011,2.011,0,0,1-.835,1.729,3.925,3.925,0,0,1-2.344.608,5.1,5.1,0,0,1-2.49-.505V14.513a6.022,6.022,0,0,0,1.241.461,5.184,5.184,0,0,0,1.278.168,2.9,2.9,0,0,0,1.465-.3,1.046,1.046,0,0,0,.106-1.729,6.394,6.394,0,0,0-1.586-.787,8.6,8.6,0,0,1-1.593-.729,2.176,2.176,0,0,1-.7-.707,1.843,1.843,0,0,1-.231-.945,1.8,1.8,0,0,1,.8-1.549,3.72,3.72,0,0,1,2.19-.568,6.408,6.408,0,0,1,2.534.527l-.432.989a5.817,5.817,0,0,0-2.19-.5,2.52,2.52,0,0,0-1.3.271.838.838,0,0,0-.439.747.91.91,0,0,0,.165.549,1.626,1.626,0,0,0,.531.432,11.867,11.867,0,0,0,1.406.593,5.254,5.254,0,0,1,1.93,1.047A1.847,1.847,0,0,1,42.019,13.81ZM48.933,16l-.242-1.143h-.059a3.378,3.378,0,0,1-1.2,1.022,3.65,3.65,0,0,1-1.49.267,2.681,2.681,0,0,1-1.871-.615,2.244,2.244,0,0,1-.677-1.75q0-2.432,3.889-2.549l1.362-.044v-.5a2.035,2.035,0,0,0-.406-1.4,1.672,1.672,0,0,0-1.3-.45,5.3,5.3,0,0,0-2.271.615l-.374-.93a5.713,5.713,0,0,1,1.3-.505,5.631,5.631,0,0,1,1.417-.183,3.058,3.058,0,0,1,2.128.637,2.66,2.66,0,0,1,.692,2.043V16Zm-2.747-.857a2.468,2.468,0,0,0,1.783-.623,2.3,2.3,0,0,0,.648-1.743v-.725L47.4,12.1a4.422,4.422,0,0,0-2.091.45A1.358,1.358,0,0,0,44.67,13.8a1.253,1.253,0,0,0,.4,1A1.657,1.657,0,0,0,46.187,15.143Zm16.978-3.164a4.428,4.428,0,0,1-.989,3.065,3.482,3.482,0,0,1-2.732,1.1,3.618,3.618,0,0,1-1.912-.505,3.335,3.335,0,0,1-1.289-1.45,5.054,5.054,0,0,1-.454-2.212,4.421,4.421,0,0,1,.981-3.058,3.471,3.471,0,0,1,2.725-1.095,3.4,3.4,0,0,1,2.677,1.121A4.409,4.409,0,0,1,63.164,11.979Zm-6.116,0a3.81,3.81,0,0,0,.615,2.344,2.442,2.442,0,0,0,3.622,0,3.791,3.791,0,0,0,.619-2.347,3.73,3.73,0,0,0-.619-2.325,2.175,2.175,0,0,0-1.827-.795,2.14,2.14,0,0,0-1.8.784A3.772,3.772,0,0,0,57.048,11.979ZM68.958,7.826a4.757,4.757,0,0,1,.959.088l-.168,1.128a4.142,4.142,0,0,0-.879-.11,2.139,2.139,0,0,0-1.666.791,2.884,2.884,0,0,0-.692,1.97V16H65.3V7.973h1l.139,1.487H66.5a3.529,3.529,0,0,1,1.077-1.208A2.424,2.424,0,0,1,68.958,7.826Zm5.054,7.317a3.972,3.972,0,0,0,.623-.048,4.03,4.03,0,0,0,.476-.1v.93a2.223,2.223,0,0,1-.582.157,4.373,4.373,0,0,1-.692.062q-2.329,0-2.329-2.454V8.917h-1.15V8.332l1.15-.505.513-1.714h.7v1.86h2.329v.945H72.722v4.724a1.625,1.625,0,0,0,.344,1.113A1.2,1.2,0,0,0,74.011,15.143Zm6.094,1A3.688,3.688,0,0,1,77.3,15.063a4.2,4.2,0,0,1-1.029-3.01,4.654,4.654,0,0,1,.956-3.083A3.175,3.175,0,0,1,79.79,7.826a3.027,3.027,0,0,1,2.388.992,3.8,3.8,0,0,1,.879,2.618v.769h-5.53a3.182,3.182,0,0,0,.714,2.146,2.47,2.47,0,0,0,1.908.732,6.466,6.466,0,0,0,2.563-.542v1.084a6.434,6.434,0,0,1-1.219.4A6.853,6.853,0,0,1,80.1,16.146Zm-.33-7.3a1.985,1.985,0,0,0-1.542.63,2.9,2.9,0,0,0-.677,1.743h4.2a2.673,2.673,0,0,0-.513-1.761A1.8,1.8,0,0,0,79.775,8.844ZM91.7,7.973v.769l-1.487.176a2.611,2.611,0,0,1,.527,1.6,2.373,2.373,0,0,1-.806,1.882,3.25,3.25,0,0,1-2.212.7,3.683,3.683,0,0,1-.674-.059,1.2,1.2,0,0,0-.776,1.033.525.525,0,0,0,.271.487,1.98,1.98,0,0,0,.93.157h1.421a3.182,3.182,0,0,1,2,.549,1.909,1.909,0,0,1,.7,1.6A2.279,2.279,0,0,1,90.527,18.9a5.723,5.723,0,0,1-3.12.7,4.263,4.263,0,0,1-2.428-.586,1.892,1.892,0,0,1-.853-1.655,1.859,1.859,0,0,1,.469-1.267,2.387,2.387,0,0,1,1.318-.725,1.272,1.272,0,0,1-.516-.432,1.144,1.144,0,0,1-.209-.681,1.293,1.293,0,0,1,.234-.769,2.464,2.464,0,0,1,.74-.637,2.168,2.168,0,0,1-1.014-.872,2.561,2.561,0,0,1-.392-1.406,2.6,2.6,0,0,1,.791-2.032,3.23,3.23,0,0,1,2.241-.714,4.075,4.075,0,0,1,1.135.146Zm-6.4,9.375a1.09,1.09,0,0,0,.549.989,3.032,3.032,0,0,0,1.575.337,4.394,4.394,0,0,0,2.267-.458,1.4,1.4,0,0,0,.736-1.241.982.982,0,0,0-.4-.9,3.129,3.129,0,0,0-1.516-.253H87.048a1.92,1.92,0,0,0-1.289.4A1.413,1.413,0,0,0,85.3,17.348Zm.659-6.8a1.634,1.634,0,0,0,.476,1.274,1.9,1.9,0,0,0,1.326.432,1.551,1.551,0,0,0,1.78-1.729,1.6,1.6,0,0,0-1.8-1.809,1.784,1.784,0,0,0-1.318.461A1.858,1.858,0,0,0,85.957,10.543ZM98.284,16l-.242-1.143h-.059a3.378,3.378,0,0,1-1.2,1.022,3.65,3.65,0,0,1-1.49.267,2.681,2.681,0,0,1-1.871-.615,2.244,2.244,0,0,1-.677-1.75q0-2.432,3.889-2.549L98,11.188v-.5a2.035,2.035,0,0,0-.406-1.4,1.672,1.672,0,0,0-1.3-.45,5.3,5.3,0,0,0-2.271.615l-.374-.93a5.713,5.713,0,0,1,1.3-.505,5.631,5.631,0,0,1,1.417-.183,3.058,3.058,0,0,1,2.128.637,2.66,2.66,0,0,1,.692,2.043V16Zm-2.747-.857a2.468,2.468,0,0,0,1.783-.623,2.3,2.3,0,0,0,.648-1.743v-.725l-1.216.051a4.422,4.422,0,0,0-2.091.45,1.358,1.358,0,0,0-.641,1.241,1.253,1.253,0,0,0,.4,1A1.657,1.657,0,0,0,95.537,15.143Z" transform="translate(969 6346)" fill="#00223d"/>
    <path id="Trazado_86141" data-name="Trazado 86141" d="M6.057,6.251A3.5,3.5,0,0,0,3.27,7.427a4.742,4.742,0,0,0-1.022,3.219,4.836,4.836,0,0,0,.985,3.248,3.5,3.5,0,0,0,2.809,1.146,9.59,9.59,0,0,0,2.556-.4v1.091a7.872,7.872,0,0,1-2.747.417A4.646,4.646,0,0,1,2.2,14.711a5.912,5.912,0,0,1-1.285-4.08,6.439,6.439,0,0,1,.619-2.9A4.443,4.443,0,0,1,3.322,5.812a5.409,5.409,0,0,1,2.75-.674,6.636,6.636,0,0,1,2.944.615L8.489,6.823A5.675,5.675,0,0,0,6.057,6.251Zm11.624,5.728a4.428,4.428,0,0,1-.989,3.065,3.482,3.482,0,0,1-2.732,1.1,3.618,3.618,0,0,1-1.912-.505,3.335,3.335,0,0,1-1.289-1.45,5.054,5.054,0,0,1-.454-2.212,4.421,4.421,0,0,1,.981-3.058,3.471,3.471,0,0,1,2.725-1.095,3.4,3.4,0,0,1,2.677,1.121A4.409,4.409,0,0,1,17.681,11.979Zm-6.116,0a3.81,3.81,0,0,0,.615,2.344,2.136,2.136,0,0,0,1.809.806,2.15,2.15,0,0,0,1.813-.8,3.791,3.791,0,0,0,.619-2.347A3.73,3.73,0,0,0,15.8,9.654a2.175,2.175,0,0,0-1.827-.795,2.14,2.14,0,0,0-1.8.784A3.772,3.772,0,0,0,11.565,11.979ZM25.305,16V10.807a2.1,2.1,0,0,0-.447-1.465,1.82,1.82,0,0,0-1.4-.483,2.307,2.307,0,0,0-1.846.681,3.439,3.439,0,0,0-.586,2.249V16H19.812V7.973H20.8l.2,1.1h.059A2.483,2.483,0,0,1,22.1,8.152a3.4,3.4,0,0,1,1.5-.326,3.049,3.049,0,0,1,2.183.7,2.977,2.977,0,0,1,.732,2.238V16ZM34.2,13.81a2.011,2.011,0,0,1-.835,1.729,3.925,3.925,0,0,1-2.344.608,5.1,5.1,0,0,1-2.49-.505V14.513a6.022,6.022,0,0,0,1.241.461,5.184,5.184,0,0,0,1.278.168,2.9,2.9,0,0,0,1.465-.3,1.046,1.046,0,0,0,.106-1.729,6.394,6.394,0,0,0-1.586-.787,8.6,8.6,0,0,1-1.593-.729,2.176,2.176,0,0,1-.7-.707,1.843,1.843,0,0,1-.231-.945,1.8,1.8,0,0,1,.8-1.549,3.72,3.72,0,0,1,2.19-.568,6.408,6.408,0,0,1,2.534.527l-.432.989a5.817,5.817,0,0,0-2.19-.5,2.52,2.52,0,0,0-1.3.271.838.838,0,0,0-.439.747.91.91,0,0,0,.165.549,1.626,1.626,0,0,0,.531.432,11.867,11.867,0,0,0,1.406.593,5.254,5.254,0,0,1,1.93,1.047A1.847,1.847,0,0,1,34.2,13.81Zm3.12-5.837V13.18a2.1,2.1,0,0,0,.447,1.465,1.82,1.82,0,0,0,1.4.483A2.282,2.282,0,0,0,41,14.44a3.473,3.473,0,0,0,.582-2.249V7.973H42.8V16h-1l-.176-1.077h-.066a2.423,2.423,0,0,1-1.036.908,3.483,3.483,0,0,1-1.512.315,3.069,3.069,0,0,1-2.194-.7,2.962,2.962,0,0,1-.729-2.227V7.973ZM55.613,16V10.778a2.168,2.168,0,0,0-.41-1.439,1.586,1.586,0,0,0-1.274-.48,2.058,2.058,0,0,0-1.677.652,3.1,3.1,0,0,0-.542,2.007V16H50.493V10.778a2.168,2.168,0,0,0-.41-1.439,1.6,1.6,0,0,0-1.282-.48,1.985,1.985,0,0,0-1.674.685,3.706,3.706,0,0,0-.531,2.245V16H45.381V7.973h.989l.2,1.1h.059a2.39,2.39,0,0,1,.97-.916,2.965,2.965,0,0,1,1.4-.33A2.385,2.385,0,0,1,51.46,9.188h.059a2.56,2.56,0,0,1,1.04-1,3.227,3.227,0,0,1,1.553-.366,2.718,2.718,0,0,1,2.04.7,3.129,3.129,0,0,1,.677,2.238V16Zm10.649-4.021a4.428,4.428,0,0,1-.989,3.065,3.482,3.482,0,0,1-2.732,1.1,3.618,3.618,0,0,1-1.912-.505,3.335,3.335,0,0,1-1.289-1.45,5.054,5.054,0,0,1-.454-2.212,4.421,4.421,0,0,1,.981-3.058,3.471,3.471,0,0,1,2.725-1.095A3.4,3.4,0,0,1,65.27,8.947,4.409,4.409,0,0,1,66.262,11.979Zm-6.116,0a3.81,3.81,0,0,0,.615,2.344,2.442,2.442,0,0,0,3.622,0A3.791,3.791,0,0,0,65,11.979a3.73,3.73,0,0,0-.619-2.325,2.175,2.175,0,0,0-1.827-.795,2.14,2.14,0,0,0-1.8.784A3.772,3.772,0,0,0,60.146,11.979Zm15.879,4.167a3.474,3.474,0,0,1-1.432-.289,2.693,2.693,0,0,1-1.088-.89h-.088a10.767,10.767,0,0,1,.088,1.333v3.3H72.29V7.973h.989l.168,1.1h.059A2.824,2.824,0,0,1,74.6,8.119a3.317,3.317,0,0,1,1.428-.293A2.967,2.967,0,0,1,78.49,8.917a4.8,4.8,0,0,1,.868,3.062,4.776,4.776,0,0,1-.883,3.073A2.972,2.972,0,0,1,76.025,16.146ZM75.85,8.859a2.155,2.155,0,0,0-1.78.681,3.505,3.505,0,0,0-.564,2.168v.271A4.017,4.017,0,0,0,74.07,14.4a2.145,2.145,0,0,0,1.809.729,1.881,1.881,0,0,0,1.63-.842,3.994,3.994,0,0,0,.59-2.322,3.844,3.844,0,0,0-.59-2.3A1.939,1.939,0,0,0,75.85,8.859Zm9.294-1.033a4.757,4.757,0,0,1,.959.088l-.168,1.128a4.142,4.142,0,0,0-.879-.11,2.139,2.139,0,0,0-1.666.791,2.884,2.884,0,0,0-.692,1.97V16H81.482V7.973h1l.139,1.487h.059A3.529,3.529,0,0,1,83.76,8.251,2.424,2.424,0,0,1,85.144,7.826Zm9.089,4.153a4.428,4.428,0,0,1-.989,3.065,3.482,3.482,0,0,1-2.732,1.1,3.618,3.618,0,0,1-1.912-.505,3.335,3.335,0,0,1-1.289-1.45,5.054,5.054,0,0,1-.454-2.212,4.421,4.421,0,0,1,.981-3.058,3.471,3.471,0,0,1,2.725-1.095,3.4,3.4,0,0,1,2.677,1.121A4.409,4.409,0,0,1,94.233,11.979Zm-6.116,0a3.81,3.81,0,0,0,.615,2.344,2.442,2.442,0,0,0,3.622,0,3.791,3.791,0,0,0,.619-2.347,3.73,3.73,0,0,0-.619-2.325,2.175,2.175,0,0,0-1.827-.795,2.14,2.14,0,0,0-1.8.784A3.772,3.772,0,0,0,88.118,11.979ZM106.6,16V10.778a2.168,2.168,0,0,0-.41-1.439,1.586,1.586,0,0,0-1.274-.48,2.058,2.058,0,0,0-1.677.652,3.1,3.1,0,0,0-.542,2.007V16h-1.216V10.778a2.168,2.168,0,0,0-.41-1.439,1.6,1.6,0,0,0-1.282-.48,1.985,1.985,0,0,0-1.674.685,3.706,3.706,0,0,0-.531,2.245V16H96.365V7.973h.989l.2,1.1h.059a2.39,2.39,0,0,1,.97-.916,2.965,2.965,0,0,1,1.4-.33,2.385,2.385,0,0,1,2.461,1.362h.059a2.56,2.56,0,0,1,1.04-1,3.227,3.227,0,0,1,1.553-.366,2.718,2.718,0,0,1,2.04.7,3.129,3.129,0,0,1,.677,2.238V16Zm7.112.146a3.688,3.688,0,0,1-2.809-1.084,4.2,4.2,0,0,1-1.029-3.01,4.654,4.654,0,0,1,.956-3.083,3.175,3.175,0,0,1,2.567-1.143,3.027,3.027,0,0,1,2.388.992,3.8,3.8,0,0,1,.879,2.618v.769h-5.53a3.182,3.182,0,0,0,.714,2.146,2.47,2.47,0,0,0,1.908.732,6.466,6.466,0,0,0,2.563-.542v1.084a6.434,6.434,0,0,1-1.219.4A6.853,6.853,0,0,1,113.708,16.146Zm-.33-7.3a1.985,1.985,0,0,0-1.542.63,2.9,2.9,0,0,0-.677,1.743h4.2a2.673,2.673,0,0,0-.513-1.761A1.8,1.8,0,0,0,113.379,8.844ZM124.2,14.923h-.066a2.857,2.857,0,0,1-2.52,1.223,2.981,2.981,0,0,1-2.45-1.077,4.739,4.739,0,0,1-.875-3.062,4.819,4.819,0,0,1,.879-3.083,2.958,2.958,0,0,1,2.446-1.1,2.919,2.919,0,0,1,2.5,1.187h.1l-.051-.579-.029-.564V4.6h1.216V16h-.989Zm-2.432.205a2.214,2.214,0,0,0,1.805-.677,3.423,3.423,0,0,0,.56-2.186v-.256a4.028,4.028,0,0,0-.568-2.435,2.156,2.156,0,0,0-1.813-.729,1.861,1.861,0,0,0-1.637.831,4.134,4.134,0,0,0-.568,2.347,3.963,3.963,0,0,0,.564,2.322A1.91,1.91,0,0,0,121.765,15.128Zm7.375.872h-1.216V7.973h1.216ZM127.822,5.8a.808.808,0,0,1,.205-.612.759.759,0,0,1,1.018,0,.793.793,0,0,1,.212.608.805.805,0,0,1-.212.612.744.744,0,0,1-1.018,0A.823.823,0,0,1,127.822,5.8Zm10.825,6.182a4.428,4.428,0,0,1-.989,3.065,3.482,3.482,0,0,1-2.732,1.1,3.618,3.618,0,0,1-1.912-.505,3.335,3.335,0,0,1-1.289-1.45,5.054,5.054,0,0,1-.454-2.212,4.421,4.421,0,0,1,.981-3.058,3.471,3.471,0,0,1,2.725-1.095,3.4,3.4,0,0,1,2.677,1.121A4.409,4.409,0,0,1,138.647,11.979Zm-6.116,0a3.81,3.81,0,0,0,.615,2.344,2.442,2.442,0,0,0,3.622,0,3.791,3.791,0,0,0,.619-2.347,3.73,3.73,0,0,0-.619-2.325,2.175,2.175,0,0,0-1.827-.795,2.14,2.14,0,0,0-1.8.784A3.772,3.772,0,0,0,132.532,11.979Z" transform="translate(969 6395)" fill="#00223d"/>
    <path id="Trazado_86142" data-name="Trazado 86142" d="M164.872,16h-1.187V8.368q0-.952.059-1.8-.154.154-.344.322t-1.743,1.428l-.645-.835,2.834-2.19h1.025Zm11.169-5.369a7.82,7.82,0,0,1-.875,4.146,3.232,3.232,0,0,1-5.306-.033,7.665,7.665,0,0,1-.9-4.113,7.817,7.817,0,0,1,.872-4.153,3.235,3.235,0,0,1,5.306.059A7.632,7.632,0,0,1,176.041,10.631Zm-5.852,0a7.842,7.842,0,0,0,.549,3.4,1.973,1.973,0,0,0,3.512-.015,7.9,7.9,0,0,0,.546-3.387,7.85,7.85,0,0,0-.546-3.38,1.98,1.98,0,0,0-3.512-.015A7.79,7.79,0,0,0,170.189,10.631Zm14.429,0a7.82,7.82,0,0,1-.875,4.146,3.232,3.232,0,0,1-5.306-.033,7.665,7.665,0,0,1-.9-4.113,7.817,7.817,0,0,1,.872-4.153,3.235,3.235,0,0,1,5.306.059A7.632,7.632,0,0,1,184.618,10.631Zm-5.852,0a7.842,7.842,0,0,0,.549,3.4,1.973,1.973,0,0,0,3.512-.015,7.9,7.9,0,0,0,.546-3.387,7.85,7.85,0,0,0-.546-3.38,1.98,1.98,0,0,0-3.512-.015A7.79,7.79,0,0,0,178.766,10.631Z" transform="translate(969 6444)" fill="#00223d"/>
  </g>
</svg>
