<svg xmlns="http://www.w3.org/2000/svg" xmlns:xlink="http://www.w3.org/1999/xlink" width="405.747" height="333.906" viewBox="0 0 405.747 333.906">
  <defs>
    <linearGradient id="linear-gradient" y1="0.5" x2="1" y2="0.5" gradientUnits="objectBoundingBox">
      <stop offset="0" stop-color="#42e8e0"/>
      <stop offset="0.106" stop-color="#36b5bf"/>
      <stop offset="0.22" stop-color="#2c87a0"/>
      <stop offset="0.338" stop-color="#235f86"/>
      <stop offset="0.459" stop-color="#1b3e71"/>
      <stop offset="0.582" stop-color="#162560"/>
      <stop offset="0.711" stop-color="#121355"/>
      <stop offset="0.846" stop-color="#0f084e"/>
      <stop offset="1" stop-color="#0f054c"/>
    </linearGradient>
    <linearGradient id="linear-gradient-3" x1="0.969" y1="0.015" x2="-0.554" y2="1.486" gradientUnits="objectBoundingBox">
      <stop offset="0" stop-color="#5761d7"/>
      <stop offset="0.178" stop-color="#5b65d8"/>
      <stop offset="0.388" stop-color="#6a72de"/>
      <stop offset="0.613" stop-color="#8188e8"/>
      <stop offset="0.849" stop-color="#a2a6f5"/>
      <stop offset="1" stop-color="#bcbeff"/>
    </linearGradient>
    <linearGradient id="linear-gradient-4" x1="0" y1="0.5" x2="2.181" y2="0.5" xlink:href="#linear-gradient-3"/>
    <linearGradient id="linear-gradient-5" x1="0.509" y1="0.541" x2="-0.209" y2="-0.295" xlink:href="#linear-gradient-3"/>
    <linearGradient id="linear-gradient-6" x1="0" y1="0.5" x2="1.577" y2="0.5" xlink:href="#linear-gradient-3"/>
    <linearGradient id="linear-gradient-7" x1="0" y1="0.5" x2="1" y2="0.5" xlink:href="#linear-gradient-3"/>
    <linearGradient id="linear-gradient-8" x1="0.459" y1="0.5" x2="1.459" y2="0.5" gradientUnits="objectBoundingBox">
      <stop offset="0" stop-color="#c0bff6"/>
      <stop offset="0.294" stop-color="#c4c3f6"/>
      <stop offset="0.64" stop-color="#d2d2f9"/>
      <stop offset="1" stop-color="#e9e9fd"/>
    </linearGradient>
    <linearGradient id="linear-gradient-9" y1="0.5" x2="1" y2="0.5" gradientUnits="objectBoundingBox">
      <stop offset="0" stop-color="#e9e9fd"/>
      <stop offset="0.36" stop-color="#d2d2f9"/>
      <stop offset="0.706" stop-color="#c4c3f6"/>
      <stop offset="1" stop-color="#c0bff6"/>
    </linearGradient>
    <linearGradient id="linear-gradient-10" x1="0.83" y1="0.147" x2="0.467" y2="0.697" gradientUnits="objectBoundingBox">
      <stop offset="0.355" stop-color="#bcbeff"/>
      <stop offset="0.444" stop-color="#b5b7fc"/>
      <stop offset="0.57" stop-color="#a2a6f5"/>
      <stop offset="0.698" stop-color="#898feb"/>
      <stop offset="0.859" stop-color="#6069da"/>
      <stop offset="0.892" stop-color="#5761d7"/>
    </linearGradient>
    <clipPath id="clip-path">
      <path id="Trazado_111811" data-name="Trazado 111811" d="M431.555,193.964l-.662-.383c-2.455-1.418-2.148-3.893.688-5.53l19.985-11.538c2.834-1.637,7.122-1.814,9.578-.4l.662.383c2.455,1.418,2.148,3.893-.688,5.53l-19.985,11.538C438.3,195.2,434.01,195.382,431.555,193.964Z" transform="translate(-429.235 -175.16)" fill="none"/>
    </clipPath>
    <linearGradient id="linear-gradient-12" y1="0.5" x2="1" y2="0.5" gradientUnits="objectBoundingBox">
      <stop offset="0" stop-color="#42e8e0"/>
      <stop offset="0.151" stop-color="#42e3df"/>
      <stop offset="0.328" stop-color="#44d4de"/>
      <stop offset="0.52" stop-color="#48bddd"/>
      <stop offset="0.721" stop-color="#4d9bda"/>
      <stop offset="0.927" stop-color="#5471d8"/>
      <stop offset="1" stop-color="#5761d7"/>
    </linearGradient>
    <linearGradient id="linear-gradient-13" x1="-0.148" y1="0.5" x2="0.852" y2="0.5" xlink:href="#linear-gradient-10"/>
  </defs>
  <g id="Grupo_43247" data-name="Grupo 43247" transform="translate(-785 -7205)">
    <g id="Grupo_42766" data-name="Grupo 42766" transform="translate(588.327 7182.451)">
      <g id="Grupo_42738" data-name="Grupo 42738" transform="translate(340.438 22.549)">
        <g id="Grupo_42737" data-name="Grupo 42737">
          <path id="Trazado_111764" data-name="Trazado 111764" d="M581.775,247.476l-21.4-11.98c-4.8-2.686-9.022-8.6-10.5-14.723l-18.531-76.564c-2.191-9.052-9.47-15.582-14.632-15.782-2.584-.1-4.433,1.312-5.334,4.082l-5.583,17.158a6.042,6.042,0,0,1-3.522,4.006c-2,.769-4.517.372-7.09-1.115l-3.863-2.23c-4.543-2.621-8.527-8.082-10.15-13.91-2.44-8.761-9.219-14.632-14.1-15.047a5.057,5.057,0,0,0-5.328,3.149L455.613,137.5a5.709,5.709,0,0,1-3.469,3.16c-1.936.607-4.339.172-6.762-1.229l-4.424-2.552c-4.853-2.8-9.038-8.824-10.419-14.984L412.021,39.192c-2.031-9.073-9.286-15.777-14.529-16.119-2.568-.151-4.45,1.144-5.421,3.795L362,109.045a5.935,5.935,0,0,1-3.51,3.745c-1.984.723-4.47.313-7-1.15l-15.209-8.78.256-.441,15.208,8.78c2.4,1.382,4.731,1.78,6.571,1.111a5.439,5.439,0,0,0,3.206-3.439l30.074-82.178c1.041-2.846,3.139-4.306,5.935-4.131,5.421.355,12.913,7.225,14.994,16.516l18.518,82.707c1.328,5.935,5.513,11.961,10.175,14.653l4.423,2.552c2.3,1.327,4.555,1.751,6.355,1.184a5.221,5.221,0,0,0,3.161-2.889L461.28,124.3a5.6,5.6,0,0,1,5.832-3.442c5.052.429,12.05,6.447,14.55,15.42,1.563,5.617,5.547,11.085,9.911,13.6l3.863,2.231c2.438,1.406,4.8,1.791,6.653,1.08a5.548,5.548,0,0,0,3.218-3.688l5.583-17.158c.965-2.966,3.054-4.521,5.839-4.433,5.457.211,12.831,6.759,15.109,16.171l18.531,76.563c1.451,5.991,5.571,11.777,10.254,14.4l21.4,11.979Z" transform="translate(-320.041 -22.549)" fill="#42e8e0"/>
          <path id="Trazado_111765" data-name="Trazado 111765" d="M567.607,255.618l-21.4-11.979c-4.8-2.689-9.022-8.606-10.5-14.724l-18.532-76.563c-2.191-9.053-9.47-15.582-14.631-15.782-2.6-.092-4.434,1.313-5.335,4.082l-5.582,17.157a6.038,6.038,0,0,1-3.521,4.006c-2,.769-4.519.374-7.092-1.114l-3.863-2.229c-4.474-2.584-8.552-8.174-10.15-13.91-2.439-8.763-9.218-14.635-14.1-15.048a5.06,5.06,0,0,0-5.328,3.149l-6.128,12.983a5.707,5.707,0,0,1-3.468,3.16c-1.937.609-4.34.171-6.763-1.229l-4.423-2.552c-4.851-2.8-9.038-8.823-10.42-14.983L397.854,47.336c-2.031-9.073-9.287-15.778-14.53-16.121-2.564-.149-4.45,1.145-5.421,3.8L347.829,117.19a5.93,5.93,0,0,1-3.51,3.744c-1.98.721-4.469.313-7-1.15L322.111,111l.256-.441,15.209,8.779c2.4,1.384,4.726,1.776,6.571,1.112a5.436,5.436,0,0,0,3.2-3.438l30.074-82.18c1.042-2.846,3.162-4.313,5.935-4.129,5.422.354,12.914,7.226,15,16.518l18.516,82.706c1.329,5.937,5.515,11.962,10.176,14.652l4.422,2.553c2.3,1.327,4.557,1.747,6.356,1.184a5.216,5.216,0,0,0,3.16-2.889l6.128-12.984A5.616,5.616,0,0,1,452.945,129c5.051.43,12.05,6.447,14.549,15.422,1.563,5.616,5.547,11.083,9.911,13.605l3.863,2.228c2.438,1.407,4.8,1.789,6.654,1.081a5.551,5.551,0,0,0,3.218-3.688l5.581-17.158c.966-2.966,3.068-4.541,5.841-4.433,5.455.21,12.83,6.759,15.108,16.17L536.2,228.795c1.45,5.988,5.57,11.775,10.254,14.4l21.4,11.979Z" transform="translate(-322.111 -21.359)" fill="#42e8e0"/>
          <rect id="Rect치ngulo_32219" data-name="Rect치ngulo 32219" width="18.885" height="0.511" transform="matrix(0.867, -0.499, 0.499, 0.867, 57.914, 10.094)" fill="#42e8e0"/>
          <rect id="Rect치ngulo_32220" data-name="Rect치ngulo 32220" width="19.12" height="0.511" transform="matrix(0.867, -0.499, 0.499, 0.867, 126.975, 108.617)" fill="#42e8e0"/>
          <path id="Trazado_111766" data-name="Trazado 111766" d="M476.723,125.219l-.255-.443,17.264-9.907.255.443Z" transform="translate(-299.559 -9.061)" fill="#42e8e0"/>
          <path id="Trazado_111767" data-name="Trazado 111767" d="M581.775,247.476l-21.4-11.98c-4.8-2.686-9.022-8.6-10.5-14.723l-18.531-76.564c-2.191-9.052-9.47-15.582-14.632-15.782-2.584-.1-4.433,1.312-5.334,4.082l-5.583,17.158a6.042,6.042,0,0,1-3.522,4.006c-2,.769-4.517.372-7.09-1.115l-3.863-2.23c-4.543-2.621-8.527-8.082-10.15-13.91-2.44-8.761-9.219-14.632-14.1-15.047a5.057,5.057,0,0,0-5.328,3.149L455.613,137.5a5.709,5.709,0,0,1-3.469,3.16c-1.936.607-4.339.172-6.762-1.229l-4.424-2.552c-4.853-2.8-9.038-8.824-10.419-14.984L412.021,39.192c-2.031-9.073-9.286-15.777-14.529-16.119-2.568-.151-4.45,1.144-5.421,3.795L362,109.045a5.935,5.935,0,0,1-3.51,3.745c-1.984.723-4.47.313-7-1.15l-15.209-8.78.256-.441,15.208,8.78c2.4,1.382,4.731,1.78,6.571,1.111a5.439,5.439,0,0,0,3.206-3.439l30.074-82.178c1.041-2.846,3.139-4.306,5.935-4.131,5.421.355,12.913,7.225,14.994,16.516l18.518,82.707c1.328,5.935,5.513,11.961,10.175,14.653l4.423,2.552c2.3,1.327,4.555,1.751,6.355,1.184a5.221,5.221,0,0,0,3.161-2.889L461.28,124.3a5.6,5.6,0,0,1,5.832-3.442c5.052.429,12.05,6.447,14.55,15.42,1.563,5.617,5.547,11.085,9.911,13.6l3.863,2.231c2.438,1.406,4.8,1.791,6.653,1.08a5.548,5.548,0,0,0,3.218-3.688l5.583-17.158c.965-2.966,3.054-4.521,5.839-4.433,5.457.211,12.831,6.759,15.109,16.171l18.531,76.563c1.451,5.991,5.571,11.777,10.254,14.4l21.4,11.979Z" transform="translate(-320.041 -22.549)" fill="#42e8e0"/>
          <path id="Trazado_111768" data-name="Trazado 111768" d="M567.607,255.618l-21.4-11.979c-4.8-2.689-9.022-8.606-10.5-14.724l-18.532-76.563c-2.191-9.053-9.47-15.582-14.631-15.782-2.6-.092-4.434,1.313-5.335,4.082l-5.582,17.157a6.038,6.038,0,0,1-3.521,4.006c-2,.769-4.519.374-7.092-1.114l-3.863-2.229c-4.474-2.584-8.552-8.174-10.15-13.91-2.439-8.763-9.218-14.635-14.1-15.048a5.06,5.06,0,0,0-5.328,3.149l-6.128,12.983a5.707,5.707,0,0,1-3.468,3.16c-1.937.609-4.34.171-6.763-1.229l-4.423-2.552c-4.851-2.8-9.038-8.823-10.42-14.983L397.854,47.336c-2.031-9.073-9.287-15.778-14.53-16.121-2.564-.149-4.45,1.145-5.421,3.8L347.829,117.19a5.93,5.93,0,0,1-3.51,3.744c-1.98.721-4.469.313-7-1.15L322.111,111l.256-.441,15.209,8.779c2.4,1.384,4.726,1.776,6.571,1.112a5.436,5.436,0,0,0,3.2-3.438l30.074-82.18c1.042-2.846,3.162-4.313,5.935-4.129,5.422.354,12.914,7.226,15,16.518l18.516,82.706c1.329,5.937,5.515,11.962,10.176,14.652l4.422,2.553c2.3,1.327,4.557,1.747,6.356,1.184a5.216,5.216,0,0,0,3.16-2.889l6.128-12.984A5.616,5.616,0,0,1,452.945,129c5.051.43,12.05,6.447,14.549,15.422,1.563,5.616,5.547,11.083,9.911,13.605l3.863,2.228c2.438,1.407,4.8,1.789,6.654,1.081a5.551,5.551,0,0,0,3.218-3.688l5.581-17.158c.966-2.966,3.068-4.541,5.841-4.433,5.455.21,12.83,6.759,15.108,16.17L536.2,228.795c1.45,5.988,5.57,11.775,10.254,14.4l21.4,11.979Z" transform="translate(-322.111 -21.359)" fill="#42e8e0"/>
        </g>
        <path id="Trazado_111769" data-name="Trazado 111769" d="M336.39,102.607l15.209,8.781c4.569,2.637,8.638,1.649,10.143-2.462l30.074-82.179c3.435-9.385,17.472-.9,20.44,12.356l18.518,82.706c1.354,6.045,5.543,12.073,10.3,14.818l4.423,2.554c4.3,2.481,8.182,1.765,9.874-1.82l6.127-12.982c3.8-8.048,16.455-.457,19.905,11.938h0c1.592,5.717,5.58,11.188,10.031,13.758l3.864,2.23c4.684,2.7,8.83,1.592,10.242-2.751l5.582-17.158c3.151-9.685,17.229-1.619,20.458,11.719l18.532,76.564c1.457,6.017,5.665,11.922,10.378,14.561l21.4,11.979Z" transform="translate(-320.025 -22.516)" opacity="0.5" fill="url(#linear-gradient)" style="mix-blend-mode: lighten;isolation: isolate"/>
        <path id="Trazado_111770" data-name="Trazado 111770" d="M322.222,110.544l15.21,8.781c4.568,2.637,8.637,1.649,10.142-2.463l30.074-82.178c3.435-9.385,17.472-.9,20.44,12.356l18.519,82.706c1.352,6.045,5.543,12.073,10.3,14.818l4.423,2.554c4.3,2.481,8.182,1.765,9.874-1.82l6.127-12.982c3.8-8.048,16.455-.457,19.905,11.938h0c1.592,5.717,5.582,11.188,10.031,13.758l3.864,2.23c4.685,2.7,8.83,1.592,10.242-2.751l5.583-17.158c3.149-9.685,17.228-1.619,20.457,11.719l18.532,76.564c1.457,6.017,5.665,11.922,10.379,14.561l21.4,11.979Z" transform="translate(-322.095 -21.357)" opacity="0.5" fill="url(#linear-gradient)" style="mix-blend-mode: lighten;isolation: isolate"/>
      </g>
      <g id="Grupo_42763" data-name="Grupo 42763" transform="translate(285.804 95.787)">
        <g id="Grupo_42752" data-name="Grupo 42752" transform="translate(0 0)">
          <g id="Grupo_42741" data-name="Grupo 42741" transform="translate(122.219 115.765)">
            <path id="Trazado_111771" data-name="Trazado 111771" d="M422,250.63a3.942,3.942,0,1,1-3.943-3.941A3.941,3.941,0,0,1,422,250.63Z" transform="translate(-376.254 -178.805)" fill="#24126a"/>
            <path id="Trazado_111772" data-name="Trazado 111772" d="M455.876,212.206a3.942,3.942,0,1,1-3.941-3.941A3.942,3.942,0,0,1,455.876,212.206Z" transform="translate(-371.305 -184.419)" fill="#24126a"/>
            <path id="Trazado_111773" data-name="Trazado 111773" d="M463.276,238.465a3.942,3.942,0,1,1-3.941-3.941A3.942,3.942,0,0,1,463.276,238.465Z" transform="translate(-370.224 -180.583)" fill="#24126a"/>
            <g id="Grupo_42740" data-name="Grupo 42740">
              <path id="Trazado_111774" data-name="Trazado 111774" d="M388.965,231.983a3.942,3.942,0,1,1-3.941-3.941A3.942,3.942,0,0,1,388.965,231.983Z" transform="translate(-381.081 -181.53)" fill="#24126a"/>
              <path id="Trazado_111775" data-name="Trazado 111775" d="M410.227,208.749a3.942,3.942,0,1,1-3.943-3.941A3.942,3.942,0,0,1,410.227,208.749Z" transform="translate(-377.975 -184.924)" fill="#24126a"/>
              <g id="Grupo_42739" data-name="Grupo 42739" transform="translate(1.492 17.148)">
                <path id="Trazado_111776" data-name="Trazado 111776" d="M428.3,220.985l-43.335,8.346a5.058,5.058,0,0,0-.532.081l.038-.287-2.084-.526v2.458h.01a1,1,0,0,0,.029.29c.264.963,1.828,1.618,3.5,1.466l43.334-8.346Z" transform="translate(-382.383 -199.709)" fill="url(#linear-gradient-3)"/>
                <path id="Trazado_111777" data-name="Trazado 111777" d="M458.732,208.015l-1.319,1.112a4.936,4.936,0,0,0-4.061.3l-30.863,13.435,4.321,2.494,30.863-13.433a1.724,1.724,0,0,0,1.045-1.462l.014.006Z" transform="translate(-376.523 -201.603)" fill="url(#linear-gradient-4)"/>
                <path id="Trazado_111778" data-name="Trazado 111778" d="M409.069,205.6a4.335,4.335,0,0,0-4.11-.771h0a3.887,3.887,0,0,0-.494.185,1.862,1.862,0,0,0-.267-.35,6.041,6.041,0,0,0-.905-.649l0,2.448.011-.008a1.2,1.2,0,0,0,.323.746l19.919,18.186,5.444-1.6Z" transform="translate(-379.328 -202.188)" fill="url(#linear-gradient-5)"/>
                <path id="Trazado_111779" data-name="Trazado 111779" d="M466.864,236.233l-.731.258-.419.872a3.91,3.91,0,0,0-.518-.191L426.1,221.287l-2.775,3.143,39.093,15.885a4.332,4.332,0,0,0,4.109-.77h0a1.174,1.174,0,0,0,.32-.818l.014.011Z" transform="translate(-376.401 -199.664)" fill="url(#linear-gradient-6)"/>
                <path id="Trazado_111780" data-name="Trazado 111780" d="M421.85,222.693l-6.419,27.5-.48-.245v2.542l.01-.011c.086.807,1.127,1.5,2.567,1.632,1.666.152,3.231-.5,3.495-1.466l6.864-29.4Z" transform="translate(-377.625 -199.459)" fill="url(#linear-gradient-7)"/>
                <path id="Trazado_111781" data-name="Trazado 111781" d="M471.177,237.479,434.92,222.747l28.612-12.455c1.281-.74,1.421-1.86.311-2.5l-.3-.173a4.814,4.814,0,0,0-4.331.18L430.6,220.253l-18.476-16.869a4.335,4.335,0,0,0-4.11-.77h0c-1.5.442-2.1,1.5-1.334,2.372l18.475,16.867L384.96,229.6c-1.666.152-2.8,1.056-2.539,2.018s1.828,1.618,3.5,1.466l40.193-7.742-6.365,27.273c-.265.962.873,1.865,2.54,2.017s3.231-.5,3.494-1.466l6.365-27.271L468.4,240.623a4.329,4.329,0,0,0,4.109-.771C473.279,238.984,472.681,237.921,471.177,237.479Zm-40.142-14.7-.675.766-1.47-.135-.233-.848,1.326-.39Z" transform="translate(-382.383 -202.421)" fill="url(#linear-gradient-8)"/>
              </g>
              <path id="Trazado_111782" data-name="Trazado 111782" d="M424.145,227.225h0a3.161,3.161,0,0,1-3.161-3.161V187.459h6.323v36.605A3.161,3.161,0,0,1,424.145,227.225Z" transform="translate(-375.251 -187.459)" fill="#24126a"/>
            </g>
          </g>
          <path id="Trazado_111783" data-name="Trazado 111783" d="M413.432,149.972l-.015,0a2.925,2.925,0,0,0-1.642-2.2l-.664-.383c-2.455-1.418-6.742-1.24-9.577.4L381.55,159.325c-1.5.869-2.29,1.972-2.336,3.03l-.009,0v3.481l.006,0a2.835,2.835,0,0,0,1.652,2.407l.662.383c2.455,1.417,6.744,1.239,9.578-.4L411.087,156.7a4.1,4.1,0,0,0,2.331-2.929l.014-.006Z" transform="translate(-259.136 -77.688)" fill="#5351af"/>
          <g id="Grupo_42742" data-name="Grupo 42742" transform="translate(120.069 68.746)">
            <path id="Trazado_111784" data-name="Trazado 111784" d="M381.525,165.238l-.662-.383c-2.455-1.418-2.148-3.893.688-5.53l19.985-11.538c2.834-1.637,7.122-1.814,9.577-.4l.664.383c2.455,1.417,2.147,3.893-.688,5.53L391.1,164.842C388.268,166.478,383.98,166.656,381.525,165.238Z" transform="translate(-379.205 -146.434)" fill="url(#linear-gradient-9)"/>
          </g>
          <g id="Grupo_42744" data-name="Grupo 42744" transform="translate(119.086)">
            <path id="Trazado_111785" data-name="Trazado 111785" d="M423.961,178.615,382.1,202.757c-2.073,1.2-3.755-.073-3.755-2.839h0c0-2.766,1.681-5.977,3.755-7.175l47.951-27.66v1.892C430.052,171.462,427.326,176.672,423.961,178.615Z" transform="translate(-378.347 -74.963)" fill="#515151"/>
            <g id="Grupo_42743" data-name="Grupo 42743" transform="translate(1.175)">
              <path id="Trazado_111786" data-name="Trazado 111786" d="M426.894,86.952v0c-1.454-.782-3.326-.68-5.371.5l-1.249.722c-4.629,2.672-8.38,9.84-8.38,16.011v82.783l11.119-6.419v2.629l-13.339,10.868-30.3,20.316,42.589,24.077L446.449,219.6l13.946-11.907,8.689-96.879Z" transform="translate(-379.372 -86.451)" fill="url(#linear-gradient-10)"/>
            </g>
          </g>
          <path id="Trazado_111787" data-name="Trazado 111787" d="M395.241,208.6a5.183,5.183,0,0,1,1.1-5.235c2.238-2.238,14.013-7.193,14.865-7.726s5.085-3.649,5.085-3.649l1.292-2.889s-23.905,2.33-24.225,2.7-11.188,10.124-10.868,10.549,7.492,2.165,7.492,2.165l1.385,1.9Z" transform="translate(-258.656 -71.455)" fill="#2d2d2d"/>
          <path id="Trazado_111788" data-name="Trazado 111788" d="M458.667,108.362l-1.25.721c-4.628,2.673-8.38,9.842-8.38,16.012v82.774L419.1,225.14c-2.073,1.2-3.755,4.409-3.755,7.175h0c0,2.766,1.681,4.037,3.755,2.839l41.86-24.143c3.364-1.943,6.092-7.153,6.092-11.639V114.7C467.047,108.526,463.295,105.69,458.667,108.362Z" transform="translate(-253.856 -83.397)" fill="#58a5f8"/>
          <g id="Grupo_42746" data-name="Grupo 42746" transform="translate(79.872 4.393)">
            <g id="Grupo_42745" data-name="Grupo 42745">
              <path id="Trazado_111789" data-name="Trazado 111789" d="M385.411,222.676s-6.166,3.955-8.252,6.289-6.216,7.1-4.517,9.379,7.439,3.545,13.607-2.135,4.417-6.018,9.668-8.833,6.7-5.879,6.067-7.632-3.229-4.849-4.644-4.182S385.411,222.676,385.411,222.676Z" transform="translate(-340.025 -71.995)" fill="#160a5b"/>
              <path id="Trazado_111790" data-name="Trazado 111790" d="M410.916,237.411a63.075,63.075,0,0,1-3.355,6.488c-1.142,1.615-6.674,10.937-3.786,13.082s8.365,1.549,12.693-3.151,5.29-10.42,6.357-12.3,3.726-6.893,2.465-9.783-1.54-3.391-1.54-3.391Z" transform="translate(-335.539 -70.112)" fill="#160a5b"/>
              <path id="Trazado_111791" data-name="Trazado 111791" d="M393.109,175.829s-18.325,18.081-21.328,27.159a10.065,10.065,0,0,0,2.274,8.753c3.543,3.847,11.063,16.425,11.063,16.425s5.615,6.791,12.863,1.36c0,0,3.278-5.237,1.263-8.718s-7.375-14.6-7.375-14.6,11.751-8.086,17.55-10.127a80.212,80.212,0,0,0,8.9-3.622,27.792,27.792,0,0,1-5.3,10.811c-4.242,5.34-11.346,13.917-8.982,19.887a50.2,50.2,0,0,0,5.959,11.254c2.225,3.435,4.325,10.6,6.221,11.349s10.658,1.6,12.079-4.1-2.989-16.8-4.975-20.547c0,0,23.7-27.341,25.955-30.346S400.443,171.192,393.109,175.829Z" transform="translate(-340.125 -77.905)" fill="#24126a"/>
              <path id="Trazado_111792" data-name="Trazado 111792" d="M397.31,220.807c-2.015-3.482-7.375-14.6-7.375-14.6s11.751-8.086,17.55-10.127a80.219,80.219,0,0,0,8.9-3.622,60.077,60.077,0,0,0,6.322-12.07c-13.365-3.915-27.874-6.867-31.528-4.557,1.3,3.2,8.108,3.174,8.108,3.174s2.545,6.194,4.231,6.984,5.728-.075,5.728-.075a15.019,15.019,0,0,1-3.532,3.1c-2.88,2.078-20.914,16.853-20.914,16.853s1.027.585,5.829,9.264,5.422,14.4,5.422,14.4S399.325,224.289,397.31,220.807Z" transform="translate(-338.191 -77.905)" fill="#160a5b"/>
              <path id="Trazado_111793" data-name="Trazado 111793" d="M433.683,184.164c-10.6-1.011-22.935-1.1-20.156,4.463a17.773,17.773,0,0,0,14.186,9.859c-.061,3.467-14.6,20.212-14.6,20.212l3.388,6.589c3.388,6.589,2.964,18.585,2.964,18.585a5.328,5.328,0,0,0,2.758-3.475c1.421-5.706-2.989-16.8-4.975-20.547,0,0,23.7-27.341,25.955-30.346C443.871,188.612,439.855,186.531,433.683,184.164Z" transform="translate(-334.054 -76.647)" fill="#160a5b"/>
              <path id="Trazado_111794" data-name="Trazado 111794" d="M376.03,136.6l2.818-2.188s15.193-8.435,20.249-11.169A34.467,34.467,0,0,0,406.7,117a10.577,10.577,0,0,1,7.58-3.229l26.618-.132a57.665,57.665,0,0,0,4.145,5.946c.768.719,7.992,6.772,13.173,11.757a22.435,22.435,0,0,1,6.037,10.044c2.965,10.452,2.921,31.518,3.371,46.581a47.357,47.357,0,0,1-6.393,1.689c-4.528.967-3.969.348-3.969.348s-6.793,15.281-16.005,16.757-21.627-2.833-23.841-17.3c0,0-17.963-2.691-22.834-4.691a.736.736,0,0,1-.315-1.127c2.172-2.884,10.271-14.058,11.043-21.34.891-8.417.618-20.634-.05-23.974,0,0-13.547,5.1-17.864,6.008,0,0-16.49,18.122-23.379,23.053,0,0,2.36-3.708-2.379-6.227Z" transform="translate(-341.574 -86.872)" fill="#ffc74a"/>
              <path id="Trazado_111795" data-name="Trazado 111795" d="M454.108,180.6c.691-.148,1.312-.289,1.882-.423l-.957-1.88-24.99-2.645-14.594.754-5.019,4.769a23.838,23.838,0,0,0,1.187,4.291c.025,0,6.205.893,9.074.279s25.11,2.656,25.155,2.662a51.221,51.221,0,0,0,4.273-7.413C450.1,181.114,450.369,181.4,454.108,180.6Z" transform="translate(-334.446 -77.813)" fill="#24126a"/>
              <path id="Trazado_111796" data-name="Trazado 111796" d="M422.326,172.643a.215.215,0,0,0-.2-.16c-1.2-.03-9.012-.26-11.964-1.279a14.31,14.31,0,0,0-6.768-.716c-.173.186-5.5,2.448-5.821,3.367-.283.816-.794,3.645-.087,4.69a15.135,15.135,0,0,1,1.041,1.744l.556.058a16.14,16.14,0,0,0,1.122,1.911,3.352,3.352,0,0,1,.436.715c.338.728.93,1.928,1.175,1.954a13.087,13.087,0,0,0,2.424.256c.344-.088.652-1.136.511-1.6a.194.194,0,0,1,.155-.264,23.068,23.068,0,0,1,5.673-.124c3.474.32,8.384-1.952,8.828-2.162a.232.232,0,0,1,.072-.019l4.9-.441a.223.223,0,0,0,.194-.285Z" transform="translate(-336.39 -78.588)" fill="#fcd1c5"/>
              <path id="Trazado_111797" data-name="Trazado 111797" d="M414.2,129.085s-4.168,15.363.238,31.151c0,0,16.036-29.916,17.776-34.77s2.371-8.3.745-10.046-16.113,7.262-16.113,7.262Z" transform="translate(-334.157 -86.645)" fill="#f0f6ff"/>
              <path id="Trazado_111798" data-name="Trazado 111798" d="M417.907,151.247s3.053-9.349,2.521-12.366a35.941,35.941,0,0,0-1.291-5.176l2.754-2.541,1.215,2.518s6.064-4.449,6.466-5.277c0,0-4.884,3.35-6.417,3.852a4.509,4.509,0,0,0-1.686-1.608c-.962-.409-3.35,2.863-3.35,2.863l-.447,5.672-2.4,13.229.833,1.966Z" transform="translate(-333.738 -84.715)" fill="#c4ccd6"/>
              <path id="Trazado_111799" data-name="Trazado 111799" d="M415.267,127.5s-.579,6.036-.079,6.464a3.981,3.981,0,0,0,3.238-.032,22.837,22.837,0,0,0,3.088-3.112S418.8,126.035,415.267,127.5Z" transform="translate(-333.781 -84.888)" fill="#24126a"/>
              <path id="Trazado_111800" data-name="Trazado 111800" d="M418.938,132.138a17.227,17.227,0,0,1,.066,9.983,84.032,84.032,0,0,0-2.166,11.173l-2.383,4.466s-2.972-8.741-2-17.52c.439-3.944,3.445-7.436,3.445-7.436Z" transform="translate(-334.178 -84.17)" fill="#24126a"/>
              <path id="Trazado_111801" data-name="Trazado 111801" d="M407.5,107.888s-.736,3.736-.47,4.445,1.21,1.184.98,2.641.611,5.81,1.045,7.261c0,0-.318,1.55.117,2.03s1,.463,1.405,1.2.546,4.5,2.072,5.76a5.64,5.64,0,0,0,4.541,1.247,7.391,7.391,0,0,0,2.078-1.057l2.3.958s11.925-3.376,11.553-11.758l-.009-.886a9.564,9.564,0,0,0,1.093-1.961c.245-.779,2.221-4.26,1.222-5.761,0,0,4.62-18.237-9.632-19.337S409.4,101.553,407.5,107.888Z" transform="translate(-334.951 -89.949)" fill="#fcd1c5"/>
              <path id="Trazado_111802" data-name="Trazado 111802" d="M431.552,117.508v-.1a2.619,2.619,0,0,0-1.639-.5c-1.63.288-1.255-3.094-1.255-3.094a31.355,31.355,0,0,0-1.136,4.936c-.832,4.322-9.821,9.557-9.821,9.557l2.3.958S431.924,125.889,431.552,117.508Z" transform="translate(-333.384 -86.847)" fill="#e2b1a6"/>
              <path id="Trazado_111803" data-name="Trazado 111803" d="M407.64,100.307c-1.395,2.959-2.061,6.514.854,8.9,0,0,2.448.668,7.1-1.495a10.869,10.869,0,0,1,7.985-.237,1.9,1.9,0,0,1,1.288,1.852l-.07,2.6a1.645,1.645,0,0,0,1,1.556l2.164.92.429,2.526a1.214,1.214,0,0,0,1.606.94l.548-.2s.322-5.618,4.956-5.332c0,0,3.753-8.114-.092-15.535s-14.384-6.892-16.63-6.05a14.761,14.761,0,0,0-4.241,1.992A18.011,18.011,0,0,0,407.64,100.307Z" transform="translate(-335.028 -90.285)" fill="#aa8383"/>
              <path id="Trazado_111804" data-name="Trazado 111804" d="M441.854,148.957s-2.159,15.908-3.045,20.411l-6.974,3.678,12.385-.755Z" transform="translate(-331.319 -81.712)" fill="#24126a"/>
              <path id="Trazado_111805" data-name="Trazado 111805" d="M433.162,110.356a21.168,21.168,0,0,0,1.574-6.508,16.806,16.806,0,0,1-12.2,3.5l-.07,2.6a1.645,1.645,0,0,0,1,1.556l2.164.92.429,2.526a1.214,1.214,0,0,0,1.606.94l.548-.2S428.528,110.069,433.162,110.356Z" transform="translate(-332.688 -88.303)" fill="#936d6d"/>
              <path id="Trazado_111806" data-name="Trazado 111806" d="M437.407,121.72s-3.692,12.677-4.461,15.121l-2.97-.314.535,4.011-15.995,21.085,17.76-20.388-.7-3.574,2.7.285Z" transform="translate(-333.849 -85.692)" fill="#24126a"/>
              <path id="Trazado_111807" data-name="Trazado 111807" d="M420.874,187.944s37.514-1.222,38.472-1.9,1.128-10.333,1.038-15.926c-.062-3.924-.017-19.276-3.366-30.045,2.631,9.118,1.247,41.367.054,43.007s-36.879,2.588-36.879,2.588h0C420.578,187,420.874,187.944,420.874,187.944Z" transform="translate(-333.02 -83.011)" fill="#263649"/>
              <path id="Trazado_111808" data-name="Trazado 111808" d="M358.275,155.975s-.141.946-1.772,1.872-5.806,2.986-6.481,3.578a39.579,39.579,0,0,0-3.776,3.584c-.087.348-.991,3.343-.984,3.522s.293,1.563.293,1.563l-.928,4.422s-1.176,1.715.1,2.181a1.629,1.629,0,0,0,2.027-1.062,21.358,21.358,0,0,0,3.355-2.019c1.419-1.1,7.114-5.682,8.08-5.4s.077,1.923-.387,2.205-3.483,3.232-2.219,5.281,2.089-1.158,2.924-1.81,2.639-3.219,3.745-3.536,3.117-4.446,3.381-6.291a7.218,7.218,0,0,1,2.053-3.63c.471-.6-1.018-5.18-1.018-5.18l-5.637-1.755-1.977,1.284Z" transform="translate(-344.132 -81.049)" fill="#fcd1c5"/>
            </g>
          </g>
          <g id="Grupo_42748" data-name="Grupo 42748" transform="translate(177.408 101.669)">
            <g id="Grupo_42747" data-name="Grupo 42747" clip-path="url(#clip-path)">
              <path id="Trazado_111809" data-name="Trazado 111809" d="M454.474,134.67c-1.179-1.864-1.72-.487-3.3,1.049a24.468,24.468,0,0,0-6.2,9.351c-2.519,7.395-1.615,25.876-.771,28.518,0,0-23.492,3.846-25.118,3.776s2.016,11.5,2.016,11.5,37.514-1.222,38.472-1.9,1.128-10.333,1.038-15.926C460.531,166.239,460.621,144.377,454.474,134.67Z" transform="translate(-430.779 -181.207)" fill="#334659"/>
              <path id="Trazado_111810" data-name="Trazado 111810" d="M420.874,187.944s37.514-1.222,38.472-1.9,1.128-10.333,1.038-15.926c-.062-3.924-.017-19.276-3.366-30.045,2.631,9.118,1.247,41.367.054,43.007s-36.879,2.588-36.879,2.588h0C420.578,187,420.874,187.944,420.874,187.944Z" transform="translate(-430.556 -180.286)" fill="#263649"/>
            </g>
          </g>
          <path id="Trazado_111812" data-name="Trazado 111812" d="M463.462,178.7l-.015.006a2.927,2.927,0,0,0-1.642-2.2l-.662-.383c-2.455-1.417-6.744-1.239-9.578.4L431.58,188.051c-1.5.869-2.29,1.972-2.336,3.03l-.009,0v3.481l.006,0a2.834,2.834,0,0,0,1.652,2.406l.662.383c2.455,1.418,6.744,1.24,9.578-.4l19.985-11.538a4.1,4.1,0,0,0,2.331-2.929l.014-.007Z" transform="translate(-251.826 -73.491)" fill="#5351af"/>
          <g id="Grupo_42749" data-name="Grupo 42749" transform="translate(177.408 101.669)">
            <path id="Trazado_111813" data-name="Trazado 111813" d="M431.555,193.964l-.662-.383c-2.455-1.418-2.148-3.893.688-5.53l19.985-11.538c2.834-1.637,7.122-1.814,9.578-.4l.662.383c2.455,1.418,2.148,3.893-.688,5.53l-19.985,11.538C438.3,195.2,434.01,195.382,431.555,193.964Z" transform="translate(-429.235 -175.16)" fill="url(#linear-gradient-9)"/>
          </g>
          <g id="Grupo_42750" data-name="Grupo 42750" transform="translate(0 46.351)">
            <path id="Trazado_111814" data-name="Trazado 111814" d="M441.945,266.6l-167.5-96.678L340.113,132l167.5,96.677Z" transform="translate(-274.442 -126.147)" opacity="0.5" fill="url(#linear-gradient-12)"/>
            <path id="Trazado_111815" data-name="Trazado 111815" d="M274.442,159.975v5.855l167.5,96.678,65.671-37.915v-5.855l-65.671,37.915Z" transform="translate(-274.442 -122.06)" fill="url(#linear-gradient-13)"/>
            <path id="Trazado_111816" data-name="Trazado 111816" d="M441.945,261.486l-167.5-96.677,65.671-37.915,167.5,96.677Z" transform="translate(-274.442 -126.894)" fill="url(#linear-gradient-9)"/>
            <path id="Trazado_111817" data-name="Trazado 111817" d="M441.945,256.093,274.96,159.714l-.518.3,167.5,96.677,65.671-37.915-.518-.3Z" transform="translate(-274.442 -122.098)" fill="#fff"/>
          </g>
          <path id="Trazado_111818" data-name="Trazado 111818" d="M403.251,183.41s4.7,1.676,8.29,1.077,20.872-.936,20.872-.936l-2.716-1.568-6.059-4.22-15.02,1.013-5.792,2.077Z" transform="translate(-255.685 -73.111)" fill="#180d5b" opacity="0.3"/>
          <path id="Trazado_111819" data-name="Trazado 111819" d="M422.326,172.643a.215.215,0,0,0-.2-.16c-1.2-.03-9.012-.26-11.964-1.279a14.31,14.31,0,0,0-6.768-.716c-.173.186-5.5,2.448-5.821,3.367-.283.816-.794,3.645-.087,4.69a15.135,15.135,0,0,1,1.041,1.744l.556.058a16.14,16.14,0,0,0,1.122,1.911,3.352,3.352,0,0,1,.436.715c.338.728.93,1.928,1.175,1.954a13.087,13.087,0,0,0,2.424.256c.344-.088.652-1.136.511-1.6a.194.194,0,0,1,.155-.264,23.068,23.068,0,0,1,5.673-.124c3.474.32,8.384-1.952,8.828-2.162a.232.232,0,0,1,.072-.019l4.9-.441a.223.223,0,0,0,.194-.285Z" transform="translate(-256.518 -74.195)" fill="#fcd1c5"/>
          <path id="Trazado_111820" data-name="Trazado 111820" d="M454.474,134.67c-1.179-1.864-1.72-.487-3.3,1.049a24.468,24.468,0,0,0-6.2,9.351c-2.519,7.395-1.615,25.876-.771,28.518,0,0-23.492,3.846-25.118,3.776s2.016,11.5,2.016,11.5,37.514-1.222,38.472-1.9,1.128-10.333,1.038-15.926C460.531,166.239,460.621,144.377,454.474,134.67Z" transform="translate(-253.371 -79.538)" fill="#ffc74a"/>
          <path id="Trazado_111821" data-name="Trazado 111821" d="M420.874,187.944s37.514-1.222,38.472-1.9,1.128-10.333,1.038-15.926c-.062-3.924-.017-19.276-3.366-30.045,2.631,9.118,1.247,41.367.054,43.007s-36.879,2.588-36.879,2.588h0C420.578,187,420.874,187.944,420.874,187.944Z" transform="translate(-253.147 -78.618)" fill="#24126a"/>
          <path id="Trazado_111822" data-name="Trazado 111822" d="M364.45,167.107s13.412-10.48,15.329-11.494a13.251,13.251,0,0,0,2.725-1.783l-4.49-2.592-7.592,3.122-9.565,9.479-14.723,10.436V176.7s12.148-5.214,13.506-6.105S364.45,167.107,364.45,167.107Z" transform="translate(-263.967 -76.986)" fill="#180d5b" opacity="0.3"/>
          <path id="Trazado_111823" data-name="Trazado 111823" d="M356.475,175.126a26.85,26.85,0,0,1,4.7-3.405c1.844-.852,4.775-3.116,5.133-4.848s3.41-5.564,3.41-5.564l-4.888,2.821-7.078,4.088-11.782,6.834a2.016,2.016,0,0,0,2.211.32c1.492-.507,4.289-2.291,5.594-2.452s3.464-.559,3.464-.559Z" transform="translate(-263.991 -75.514)" fill="#2d2d2d" opacity="0.63"/>
          <path id="Trazado_111824" data-name="Trazado 111824" d="M358.275,155.975s-.141.946-1.772,1.872-5.806,2.986-6.481,3.578a39.579,39.579,0,0,0-3.776,3.584c-.087.348-.991,3.343-.984,3.522s.293,1.563.293,1.563l-.928,4.422s-1.176,1.715.1,2.181a1.629,1.629,0,0,0,2.027-1.062,21.358,21.358,0,0,0,3.355-2.019c1.419-1.1,7.114-5.682,8.08-5.4s.077,1.923-.387,2.205-3.483,3.232-2.219,5.281,2.089-1.158,2.924-1.81,2.639-3.219,3.745-3.536,3.117-4.446,3.381-6.291a7.218,7.218,0,0,1,2.053-3.63c.471-.6-1.018-5.18-1.018-5.18l-5.637-1.755-1.977,1.284Z" transform="translate(-264.26 -76.656)" fill="#fcd1c5"/>
          <g id="Grupo_42751" data-name="Grupo 42751" transform="translate(94.015 33.529)">
            <path id="Trazado_111825" data-name="Trazado 111825" d="M407.354,130.556a73.8,73.8,0,0,1,1.225-14.85,10.4,10.4,0,0,0-1.12.991,34.467,34.467,0,0,1-7.607,6.243c-5.057,2.733-20.249,11.169-20.249,11.169l-2.818,2.188c-8.911,6.985-18.867,22.185-20.314,25.2.7-.931,2.488-2.46,5.924-.634,4.739,2.519,2.481,6.3,2.481,6.3,6.889-4.931,23.277-23.128,23.277-23.128,4.046-.847,16.194-5.382,17.708-5.949A20.064,20.064,0,0,0,407.354,130.556Z" transform="translate(-356.472 -115.706)" fill="#ffc74a"/>
          </g>
        </g>
        <g id="Grupo_42762" data-name="Grupo 42762" transform="translate(58.808 59.644)">
          <g id="Grupo_42760" data-name="Grupo 42760" transform="translate(0.822 24.708)">
            <g id="Grupo_42759" data-name="Grupo 42759">
              <g id="Grupo_42758" data-name="Grupo 42758">
                <g id="Grupo_42757" data-name="Grupo 42757">
                  <g id="Grupo_42756" data-name="Grupo 42756">
                    <path id="Trazado_111826" data-name="Trazado 111826" d="M326.5,180.83l3.255,1.7,32.634-18.841a2.365,2.365,0,0,1,2.129.088l56.285,32.5c.539-.3,2.995-1.482,2.995-1.482l-1.192,3.1,0,0a.712.712,0,0,1-.334.37L387.9,218.1a2.371,2.371,0,0,1-2.131-.088l-57.6-33.254a1.023,1.023,0,0,1-.482-.513l0,0Z" transform="translate(-326.467 -159.55)" fill="#15579f"/>
                    <path id="Trazado_111827" data-name="Trazado 111827" d="M327.005,181.866l59.03,34.08a2.422,2.422,0,0,0,2.182.091L423.443,195.7c.559-.323.489-.888-.157-1.261l-59.029-34.08a2.425,2.425,0,0,0-2.183-.091l-35.225,20.338C326.289,180.928,326.359,181.493,327.005,181.866Z" transform="translate(-326.47 -160.05)" fill="#15579f"/>
                    <path id="Trazado_111828" data-name="Trazado 111828" d="M327,178.857l59.03,34.08a2.422,2.422,0,0,0,2.182.091l35.225-20.336a.721.721,0,0,0,.342-.382.6.6,0,0,1-.342.722l-35.225,20.336a2.422,2.422,0,0,1-2.182-.091L327,179.2c-.434-.251-.6-.587-.5-.879A1.038,1.038,0,0,0,327,178.857Z" transform="translate(-326.47 -157.382)" fill="#15579f"/>
                    <g id="Grupo_42754" data-name="Grupo 42754" transform="translate(9.347 11.81)">
                      <path id="Trazado_111829" data-name="Trazado 111829" d="M402.392,198.818,353.338,170.5a1.055,1.055,0,0,0-1.057,0L334.814,180.6a.377.377,0,0,0,0,.652l49.03,28.308a1.053,1.053,0,0,0,1.056,0l17.492-10.093A.377.377,0,0,0,402.392,198.818Z" transform="translate(-334.626 -170.355)" fill="#15579f"/>
                      <path id="Trazado_111830" data-name="Trazado 111830" d="M402.392,199.47l-.175.1-48.878-28.219a1.055,1.055,0,0,0-1.057,0l-17.292,10.005-.175-.1a.377.377,0,0,1,0-.652L352.282,170.5a1.055,1.055,0,0,1,1.057,0l49.053,28.321A.377.377,0,0,1,402.392,199.47Z" transform="translate(-334.626 -170.355)" fill="#15579f"/>
                      <g id="Grupo_42753" data-name="Grupo 42753" transform="translate(2.617 1.608)">
                        <path id="Trazado_111831" data-name="Trazado 111831" d="M348.881,172.852l45.184,26.087,2.24-.894-45.53-26.287Z" transform="translate(-335.16 -171.758)" fill="#15579f"/>
                        <path id="Trazado_111832" data-name="Trazado 111832" d="M344.828,175.192l39.966,23.074,1.895-1.094L346.722,174.1Z" transform="translate(-335.752 -171.416)" fill="#15579f"/>
                        <path id="Trazado_111833" data-name="Trazado 111833" d="M342.188,176.716l47.056,27.168,1.895-1.094-47.056-27.168Z" transform="translate(-336.138 -171.194)" fill="#15579f"/>
                        <path id="Trazado_111834" data-name="Trazado 111834" d="M339.549,178.24,386.6,205.407l1.895-1.094-47.056-27.168Z" transform="translate(-336.523 -170.971)" fill="#15579f"/>
                        <path id="Trazado_111835" data-name="Trazado 111835" d="M336.909,179.764l47.056,27.168,1.895-1.094L338.8,178.67Z" transform="translate(-336.909 -170.748)" fill="#15579f"/>
                        <path id="Trazado_111836" data-name="Trazado 111836" d="M388.3,195.614l1.895,1.094,1.895-1.094L390.2,194.52Z" transform="translate(-329.4 -168.433)" fill="#15579f"/>
                        <path id="Trazado_111837" data-name="Trazado 111837" d="M377.694,194.172l9.411,5.433L389,198.512l-9.479-5.473Z" transform="translate(-330.951 -168.649)" fill="#15579f"/>
                      </g>
                    </g>
                    <g id="Grupo_42755" data-name="Grupo 42755" transform="translate(46.035 13.418)">
                      <path id="Trazado_111838" data-name="Trazado 111838" d="M380.252,185.921l-13.227-7.636a.57.57,0,0,1,0-1.081l9.045-5.222a2.064,2.064,0,0,1,1.872,0l13.227,7.635a.57.57,0,0,1,0,1.081l-9.045,5.223A2.071,2.071,0,0,1,380.252,185.921Z" transform="translate(-366.637 -171.758)" fill="#15579f"/>
                      <path id="Trazado_111839" data-name="Trazado 111839" d="M391.168,180.06l-13.227-7.636a2.071,2.071,0,0,0-1.872,0l-9.045,5.223a.81.81,0,0,0-.324.319c-.138-.261-.033-.555.324-.761l9.045-5.222a2.064,2.064,0,0,1,1.872,0l13.227,7.635c.356.206.461.5.324.762A.811.811,0,0,0,391.168,180.06Z" transform="translate(-366.636 -171.758)" fill="#15579f"/>
                    </g>
                  </g>
                </g>
              </g>
            </g>
          </g>
          <g id="Grupo_42761" data-name="Grupo 42761">
            <path id="Trazado_111840" data-name="Trazado 111840" d="M326.582,183.606l7.462-44.27-.6-.252.9-.517v0a.651.651,0,0,1,.695.048l59.635,34.431a1.681,1.681,0,0,1,.775,1.514l-7.521,44.622a.56.56,0,0,1-.315.454h0l-.882.509-.151-.823.05.015-59.274-34.221A1.684,1.684,0,0,1,326.582,183.606Z" transform="translate(-325.634 -138.492)" fill="rgba(11,47,87,0.72)"/>
            <path id="Trazado_111841" data-name="Trazado 111841" d="M387.067,169.756l.981-.434a1.349,1.349,0,0,1,.126.738l-7.521,44.622a.56.56,0,0,1-.315.454h0l-.882.509-.151-.823.05.015-3-1.732Z" transform="translate(-318.36 -133.988)" fill="rgba(11,47,87,0.72)"/>
            <path id="Trazado_111842" data-name="Trazado 111842" d="M326.539,185.589l59.636,34.43c.461.266.855.112.935-.364l7.522-44.621a1.685,1.685,0,0,0-.775-1.515l-59.635-34.431c-.461-.266-.855-.112-.936.364l-7.521,44.622A1.685,1.685,0,0,0,326.539,185.589Z" transform="translate(-325.753 -138.424)" fill="rgba(11,47,87,0.72)"/>
          </g>
        </g>
      </g>
      <g id="Grupo_42765" data-name="Grupo 42765" transform="translate(196.673 240.978)">
        <g id="Grupo_42764" data-name="Grupo 42764" transform="translate(69.011 39.745)" opacity="0.6">
          <path id="Trazado_111843" data-name="Trazado 111843" d="M322.608,253.406l-7.955-4.593,1.734-1,7.955,4.593Z" transform="translate(-248.447 -247.812)" fill="#ffc74a"/>
          <path id="Trazado_111844" data-name="Trazado 111844" d="M328.025,256.533l-3.977-2.3,1.735-1,3.977,2.3Z" transform="translate(-247.074 -247.019)" fill="#ffc74a"/>
          <path id="Trazado_111845" data-name="Trazado 111845" d="M320.526,256.3l-3.389-1.957,1.734-1,3.389,1.957Z" transform="translate(-248.084 -247.004)" fill="#ffc74a"/>
          <path id="Trazado_111846" data-name="Trazado 111846" d="M325.555,259.2l-3.977-2.3,1.735-1,3.977,2.3Z" transform="translate(-247.435 -246.629)" fill="#ffc74a"/>
          <path id="Trazado_111847" data-name="Trazado 111847" d="M329.219,265.418l-15.631-9.024,1.734-1,15.631,9.024Z" transform="translate(-248.602 -246.704)" fill="#ffc74a"/>
          <path id="Trazado_111848" data-name="Trazado 111848" d="M290.3,281l-15.631-9.024,1.734-1L292.034,280Z" transform="translate(-254.288 -244.428)" fill="#ffc74a"/>
          <path id="Trazado_111849" data-name="Trazado 111849" d="M294.059,283.171l-3.977-2.3,1.734-1,3.977,2.3Z" transform="translate(-252.037 -243.128)" fill="#ffc74a"/>
          <path id="Trazado_111850" data-name="Trazado 111850" d="M313.429,260.4l-3.389-1.957,1.734-1,3.389,1.957Z" transform="translate(-249.121 -246.405)" fill="#ffc74a"/>
          <path id="Trazado_111851" data-name="Trazado 111851" d="M318.457,263.3l-3.977-2.3,1.734-1,3.977,2.3Z" transform="translate(-248.472 -246.03)" fill="#ffc74a"/>
          <path id="Trazado_111852" data-name="Trazado 111852" d="M315.084,265.452l-8.593-4.961,1.734-1,8.593,4.961Z" transform="translate(-249.639 -246.106)" fill="#ffc74a"/>
          <path id="Trazado_111853" data-name="Trazado 111853" d="M319.514,268.01l-3.977-2.3,1.735-1,3.977,2.3Z" transform="translate(-248.318 -245.343)" fill="#ffc74a"/>
          <path id="Trazado_111854" data-name="Trazado 111854" d="M324.559,270.922l-3.978-2.3,1.734-1,3.977,2.3Z" transform="translate(-247.581 -244.917)" fill="#ffc74a"/>
          <path id="Trazado_111855" data-name="Trazado 111855" d="M333.152,275.884l-7.526-4.345,1.734-1,7.526,4.345Z" transform="translate(-246.844 -244.492)" fill="#ffc74a"/>
          <path id="Trazado_111856" data-name="Trazado 111856" d="M321.667,277.448l-3.977-2.3,1.734-1,3.977,2.3Z" transform="translate(-248.003 -243.964)" fill="#ffc74a"/>
          <path id="Trazado_111857" data-name="Trazado 111857" d="M330.261,282.409l-7.526-4.345,1.734-1L332,281.408Z" transform="translate(-247.266 -243.538)" fill="#ffc74a"/>
          <path id="Trazado_111858" data-name="Trazado 111858" d="M303.371,266.885l-3.978-2.3,1.735-1,3.977,2.3Z" transform="translate(-250.676 -245.507)" fill="#ffc74a"/>
          <path id="Trazado_111859" data-name="Trazado 111859" d="M308.416,269.8l-3.977-2.3,1.734-1,3.977,2.3Z" transform="translate(-249.939 -245.081)" fill="#ffc74a"/>
          <path id="Trazado_111860" data-name="Trazado 111860" d="M317.01,274.759l-7.526-4.345,1.735-1,7.526,4.345Z" transform="translate(-249.202 -244.656)" fill="#ffc74a"/>
          <path id="Trazado_111861" data-name="Trazado 111861" d="M330.143,278.244l-3.978-2.3,1.735-1,3.977,2.3Z" transform="translate(-246.765 -243.847)" fill="#ffc74a"/>
          <path id="Trazado_111862" data-name="Trazado 111862" d="M335.188,281.157l-3.977-2.3,1.734-1,3.978,2.3Z" transform="translate(-246.028 -243.422)" fill="#ffc74a"/>
          <path id="Trazado_111863" data-name="Trazado 111863" d="M343.781,286.118l-7.526-4.345,1.735-1,7.526,4.345Z" transform="translate(-245.291 -242.996)" fill="#ffc74a"/>
          <path id="Trazado_111864" data-name="Trazado 111864" d="M299.488,286.306l-3.978-2.3,1.735-1,3.977,2.3Z" transform="translate(-251.243 -242.67)" fill="#ffc74a"/>
          <path id="Trazado_111865" data-name="Trazado 111865" d="M308.082,291.267l-7.526-4.345,1.734-1,7.526,4.345Z" transform="translate(-250.506 -242.244)" fill="#ffc74a"/>
          <path id="Trazado_111866" data-name="Trazado 111866" d="M296.274,270.982l-3.978-2.3,1.734-1,3.977,2.3Z" transform="translate(-251.713 -244.908)" fill="#ffc74a"/>
          <path id="Trazado_111867" data-name="Trazado 111867" d="M304.868,275.944l-7.526-4.345,1.734-1,7.526,4.345Z" transform="translate(-250.976 -244.483)" fill="#ffc74a"/>
          <path id="Trazado_111868" data-name="Trazado 111868" d="M300.351,290.9l-3.978-2.3,1.734-1,3.977,2.3Z" transform="translate(-251.117 -241.998)" fill="#ffc74a"/>
          <path id="Trazado_111869" data-name="Trazado 111869" d="M308.944,295.863l-7.526-4.345,1.734-1,7.526,4.345Z" transform="translate(-250.38 -241.573)" fill="#ffc74a"/>
          <path id="Trazado_111870" data-name="Trazado 111870" d="M338.108,270.55l-3.978-2.3,1.735-1,3.977,2.3Z" transform="translate(-245.601 -244.972)" fill="#ffc74a"/>
          <path id="Trazado_111871" data-name="Trazado 111871" d="M332.861,267.52l-3.977-2.3,1.734-1,3.977,2.3Z" transform="translate(-246.368 -245.414)" fill="#ffc74a"/>
          <path id="Trazado_111872" data-name="Trazado 111872" d="M346.7,275.511l-7.526-4.345,1.734-1,7.526,4.345Z" transform="translate(-244.864 -244.546)" fill="#ffc74a"/>
          <path id="Trazado_111873" data-name="Trazado 111873" d="M306.531,264.612l-3.589-2.072,1.734-1,3.589,2.072Z" transform="translate(-250.158 -245.806)" fill="#ffc74a"/>
          <path id="Trazado_111874" data-name="Trazado 111874" d="M316.47,270.35l-8.723-5.036,1.735-1,8.723,5.036Z" transform="translate(-249.456 -245.401)" fill="#ffc74a"/>
          <path id="Trazado_111875" data-name="Trazado 111875" d="M325.755,275.711l-8.722-5.036,1.734-1,8.722,5.036Z" transform="translate(-248.099 -244.618)" fill="#ffc74a"/>
          <path id="Trazado_111876" data-name="Trazado 111876" d="M351.022,278.006l-3.589-2.072,1.734-1L352.757,277Z" transform="translate(-243.657 -243.849)" fill="#ffc74a"/>
          <path id="Trazado_111877" data-name="Trazado 111877" d="M360.962,283.744l-8.723-5.036,1.735-1,8.723,5.036Z" transform="translate(-242.955 -243.444)" fill="#ffc74a"/>
          <path id="Trazado_111878" data-name="Trazado 111878" d="M370.247,289.1l-8.723-5.036,1.735-1,8.723,5.036Z" transform="translate(-241.599 -242.661)" fill="#ffc74a"/>
          <path id="Trazado_111879" data-name="Trazado 111879" d="M304.635,271.712l-8.723-5.036,1.734-1,8.723,5.036Z" transform="translate(-251.185 -245.202)" fill="#ffc74a"/>
          <path id="Trazado_111880" data-name="Trazado 111880" d="M307.877,273.584l-2.679-1.547,1.734-1,2.679,1.547Z" transform="translate(-249.828 -244.419)" fill="#ffc74a"/>
          <path id="Trazado_111881" data-name="Trazado 111881" d="M311.9,275.9l-2.679-1.547,1.734-1,2.679,1.547Z" transform="translate(-249.241 -244.08)" fill="#ffc74a"/>
          <path id="Trazado_111882" data-name="Trazado 111882" d="M319.829,280.484l-6.59-3.805,1.734-1,6.59,3.8Z" transform="translate(-248.653 -243.741)" fill="#ffc74a"/>
          <path id="Trazado_111883" data-name="Trazado 111883" d="M321.392,281.386l-6.59-3.8,1.735-1,6.59,3.805Z" transform="translate(-248.425 -243.609)" fill="#ffc74a"/>
          <path id="Trazado_111884" data-name="Trazado 111884" d="M336.416,277.768l-2.679-1.547,1.735-1,2.679,1.547Z" transform="translate(-245.659 -243.807)" fill="#ffc74a"/>
          <path id="Trazado_111885" data-name="Trazado 111885" d="M344.348,282.348l-6.591-3.8,1.734-1,6.59,3.805Z" transform="translate(-245.071 -243.468)" fill="#ffc74a"/>
          <path id="Trazado_111886" data-name="Trazado 111886" d="M345.91,283.25l-6.59-3.8,1.735-1,6.59,3.805Z" transform="translate(-244.843 -243.336)" fill="#ffc74a"/>
          <path id="Trazado_111887" data-name="Trazado 111887" d="M288.455,288.131l-8.593-4.961,1.734-1,8.593,4.961Z" transform="translate(-253.53 -242.792)" fill="#ffc74a"/>
          <path id="Trazado_111888" data-name="Trazado 111888" d="M292.885,290.689l-3.977-2.3,1.735-1,3.977,2.3Z" transform="translate(-252.208 -242.029)" fill="#ffc74a"/>
          <path id="Trazado_111889" data-name="Trazado 111889" d="M297.93,293.6l-3.977-2.3,1.734-1,3.977,2.3Z" transform="translate(-251.471 -241.604)" fill="#ffc74a"/>
          <path id="Trazado_111890" data-name="Trazado 111890" d="M306.523,298.563,299,294.217l1.734-1,7.526,4.345Z" transform="translate(-250.734 -241.178)" fill="#ffc74a"/>
          <path id="Trazado_111891" data-name="Trazado 111891" d="M311.279,301.308l-3.977-2.3,1.734-1,3.977,2.3Z" transform="translate(-249.521 -240.478)" fill="#ffc74a"/>
          <path id="Trazado_111892" data-name="Trazado 111892" d="M319.872,306.27l-7.526-4.345,1.735-1,7.526,4.345Z" transform="translate(-248.784 -240.052)" fill="#ffc74a"/>
          <path id="Trazado_111893" data-name="Trazado 111893" d="M288.61,296.416l-3.978-2.3,1.735-1,3.978,2.3Z" transform="translate(-252.833 -241.193)" fill="#ffc74a"/>
          <path id="Trazado_111894" data-name="Trazado 111894" d="M297.2,301.377l-7.526-4.345,1.735-1,7.526,4.345Z" transform="translate(-252.096 -240.767)" fill="#ffc74a"/>
          <path id="Trazado_111895" data-name="Trazado 111895" d="M270.484,285.95l-3.977-2.3,1.734-1,3.977,2.3Z" transform="translate(-255.481 -242.722)" fill="#ffc74a"/>
          <path id="Trazado_111896" data-name="Trazado 111896" d="M275.528,288.863l-3.978-2.3,1.735-1,3.977,2.3Z" transform="translate(-254.744 -242.296)" fill="#ffc74a"/>
          <path id="Trazado_111897" data-name="Trazado 111897" d="M284.122,293.824l-7.526-4.345,1.734-1,7.526,4.345Z" transform="translate(-254.007 -241.87)" fill="#ffc74a"/>
          <path id="Trazado_111898" data-name="Trazado 111898" d="M279.9,287.29l-3.589-2.072,1.734-1,3.589,2.072Z" transform="translate(-254.048 -242.493)" fill="#ffc74a"/>
          <path id="Trazado_111899" data-name="Trazado 111899" d="M289.841,293.029l-8.723-5.036,1.734-1,8.723,5.036Z" transform="translate(-253.346 -242.088)" fill="#ffc74a"/>
          <path id="Trazado_111900" data-name="Trazado 111900" d="M299.126,298.39l-8.723-5.036,1.734-1,8.723,5.036Z" transform="translate(-251.99 -241.304)" fill="#ffc74a"/>
          <path id="Trazado_111901" data-name="Trazado 111901" d="M265.609,287.234l-8.723-5.036,1.735-1,8.723,5.036Z" transform="translate(-256.886 -242.934)" fill="#ffc74a"/>
          <path id="Trazado_111902" data-name="Trazado 111902" d="M268.85,289.105l-2.679-1.547,1.735-1,2.679,1.547Z" transform="translate(-255.53 -242.151)" fill="#ffc74a"/>
          <path id="Trazado_111903" data-name="Trazado 111903" d="M272.871,291.426l-2.679-1.547,1.735-1,2.679,1.547Z" transform="translate(-254.943 -241.812)" fill="#ffc74a"/>
          <path id="Trazado_111904" data-name="Trazado 111904" d="M280.8,296.006l-6.59-3.8,1.734-1,6.591,3.8Z" transform="translate(-254.355 -241.473)" fill="#ffc74a"/>
          <path id="Trazado_111905" data-name="Trazado 111905" d="M282.365,296.908l-6.59-3.8,1.734-1,6.59,3.805Z" transform="translate(-254.127 -241.341)" fill="#ffc74a"/>
          <path id="Trazado_111906" data-name="Trazado 111906" d="M279.938,279.116l-2.679-1.547,1.735-1,2.679,1.547Z" transform="translate(-253.91 -243.611)" fill="#ffc74a"/>
          <path id="Trazado_111907" data-name="Trazado 111907" d="M287.869,283.7l-6.59-3.805,1.735-1,6.59,3.8Z" transform="translate(-253.323 -243.271)" fill="#ffc74a"/>
          <path id="Trazado_111908" data-name="Trazado 111908" d="M295.464,288.08l-6.591-3.8,1.735-1,6.59,3.805Z" transform="translate(-252.213 -242.631)" fill="#ffc74a"/>
          <path id="Trazado_111909" data-name="Trazado 111909" d="M318.561,309.61l-3.978-2.3,1.734-1,3.977,2.3Z" transform="translate(-248.457 -239.265)" fill="#ffc74a"/>
          <path id="Trazado_111910" data-name="Trazado 111910" d="M327.154,314.571l-7.526-4.345,1.734-1,7.526,4.345Z" transform="translate(-247.72 -238.839)" fill="#ffc74a"/>
          <path id="Trazado_111911" data-name="Trazado 111911" d="M306.079,302.4l-6.59-3.805,1.735-1,6.59,3.8Z" transform="translate(-250.662 -240.538)" fill="#ffc74a"/>
          <path id="Trazado_111912" data-name="Trazado 111912" d="M313.674,306.789l-6.59-3.805,1.734-1,6.59,3.8Z" transform="translate(-249.553 -239.897)" fill="#ffc74a"/>
          <path id="Trazado_111913" data-name="Trazado 111913" d="M285.462,268.838l-2.679-1.547,1.735-1,2.679,1.547Z" transform="translate(-253.103 -245.112)" fill="#ffc74a"/>
          <path id="Trazado_111914" data-name="Trazado 111914" d="M293.395,273.418l-6.59-3.8,1.734-1,6.591,3.805Z" transform="translate(-252.515 -244.773)" fill="#ffc74a"/>
          <path id="Trazado_111915" data-name="Trazado 111915" d="M300.989,277.8,294.4,274l1.734-1,6.59,3.8Z" transform="translate(-251.406 -244.132)" fill="#ffc74a"/>
        </g>
        <path id="Trazado_111916" data-name="Trazado 111916" d="M207.648,263.194a5.8,5.8,0,0,1-2.84-.653l-6.93-4a2.1,2.1,0,0,1-1.2-1.778,2.813,2.813,0,0,1,1.654-2.252L218.947,242.6a7.232,7.232,0,0,1,6.5-.259l6.932,4a2.1,2.1,0,0,1,1.2,1.778,2.816,2.816,0,0,1-1.654,2.252l-20.622,11.906A7.517,7.517,0,0,1,207.648,263.194Zm14.965-21.033a7.055,7.055,0,0,0-3.426.855l-20.621,11.907a2.372,2.372,0,0,0-1.414,1.838,1.646,1.646,0,0,0,.965,1.364l6.93,4a6.72,6.72,0,0,0,6.024-.259l20.622-11.906a2.371,2.371,0,0,0,1.414-1.838,1.647,1.647,0,0,0-.964-1.364l-6.932-4A5.3,5.3,0,0,0,222.613,242.161Z" transform="translate(-196.673 -208.961)" fill="#ffc74a"/>
        <path id="Trazado_111917" data-name="Trazado 111917" d="M242.179,283.13a5.782,5.782,0,0,1-2.84-.653l-23.111-13.343a2.1,2.1,0,0,1-1.2-1.779,2.815,2.815,0,0,1,1.654-2.251L237.3,253.2a7.235,7.235,0,0,1,6.5-.26l23.111,13.344a2.1,2.1,0,0,1,1.2,1.778,2.816,2.816,0,0,1-1.654,2.252l-20.622,11.906A7.524,7.524,0,0,1,242.179,283.13Zm-1.216-30.374a7.047,7.047,0,0,0-3.425.855l-20.622,11.907a2.375,2.375,0,0,0-1.414,1.837,1.649,1.649,0,0,0,.965,1.365l23.111,13.342a6.7,6.7,0,0,0,6.024-.259L266.224,269.9a2.374,2.374,0,0,0,1.414-1.838,1.65,1.65,0,0,0-.964-1.364l-23.111-13.343A5.307,5.307,0,0,0,240.963,252.756Z" transform="translate(-193.992 -207.413)" fill="#ffc74a"/>
        <path id="Trazado_111918" data-name="Trazado 111918" d="M274.643,269.072a6.086,6.086,0,0,1-2.982-.684l-43.839-25.31a2.2,2.2,0,0,1-1.26-1.861,2.949,2.949,0,0,1,1.732-2.359l42.893-24.765a7.6,7.6,0,0,1,6.83-.273l43.841,25.312a2.2,2.2,0,0,1,1.26,1.859,2.951,2.951,0,0,1-1.733,2.36l-42.893,24.764A7.906,7.906,0,0,1,274.643,269.072Zm-2.743-1.1a7.082,7.082,0,0,0,6.351-.273l42.893-24.765a2.507,2.507,0,0,0,1.495-1.945,1.748,1.748,0,0,0-1.021-1.445l-43.841-25.311a7.075,7.075,0,0,0-6.351.273l-42.893,24.764a2.508,2.508,0,0,0-1.493,1.945,1.746,1.746,0,0,0,1.021,1.446Z" transform="translate(-192.306 -213.133)" fill="#ffc74a"/>
      </g>
    </g>
  </g>
</svg>
